<svg width="32" height="32" viewBox="0 0 32 32" fill="none" xmlns="http://www.w3.org/2000/svg">
<path d="M14.08 22.24L21.552 16.64C21.984 16.32 21.984 15.68 21.552 15.36L14.08 9.76C13.552 9.36 12.8 9.744 12.8 10.4V21.6C12.8 22.256 13.552 22.64 14.08 22.24ZM16 0C7.168 0 0 7.168 0 16C0 24.832 7.168 32 16 32C24.832 32 32 24.832 32 16C32 7.168 24.832 0 16 0ZM16 28.8C8.944 28.8 3.2 23.056 3.2 16C3.2 8.944 8.944 3.2 16 3.2C23.056 3.2 28.8 8.944 28.8 16C28.8 23.056 23.056 28.8 16 28.8Z" fill="white"/>
</svg>
