<svg width="43" height="45" viewBox="0 0 43 45" fill="none" xmlns="http://www.w3.org/2000/svg">
<path d="M33 1.125V3.5C33 3.91421 33.3358 4.25 33.75 4.25L37.8214 4.25C38.2356 4.25 38.5714 4.58579 38.5714 5V8.625C38.5714 9.03921 38.9072 9.375 39.3214 9.375H42C42.4142 9.375 42.75 9.03921 42.75 8.625V1.125C42.75 0.710786 42.4142 0.375 42 0.375L33.75 0.375C33.3358 0.375 33 0.710786 33 1.125Z" fill="#FF383B"/>
<path d="M33 1.125V3.5C33 3.91421 33.3358 4.25 33.75 4.25L37.8214 4.25C38.2356 4.25 38.5714 4.58579 38.5714 5V8.625C38.5714 9.03921 38.9072 9.375 39.3214 9.375H42C42.4142 9.375 42.75 9.03921 42.75 8.625V1.125C42.75 0.710786 42.4142 0.375 42 0.375L33.75 0.375C33.3358 0.375 33 0.710786 33 1.125Z" fill="#FF383B"/>
<path d="M42.25 34.375L39.875 34.375C39.4608 34.375 39.125 34.7108 39.125 35.125L39.125 39.1964C39.125 39.6106 38.7892 39.9464 38.375 39.9464L34.75 39.9464C34.3358 39.9464 34 40.2822 34 40.6964L34 43.375C34 43.7892 34.3358 44.125 34.75 44.125L42.25 44.125C42.6642 44.125 43 43.7892 43 43.375L43 35.125C43 34.7108 42.6642 34.375 42.25 34.375Z" fill="#FF383B"/>
<path d="M42.25 34.375L39.875 34.375C39.4608 34.375 39.125 34.7108 39.125 35.125L39.125 39.1964C39.125 39.6106 38.7892 39.9464 38.375 39.9464L34.75 39.9464C34.3358 39.9464 34 40.2822 34 40.6964L34 43.375C34 43.7892 34.3358 44.125 34.75 44.125L42.25 44.125C42.6642 44.125 43 43.7892 43 43.375L43 35.125C43 34.7108 42.6642 34.375 42.25 34.375Z" fill="#FF383B"/>
<path d="M1.25 9.75L3.625 9.75C4.03921 9.75 4.375 9.41421 4.375 9L4.375 4.92857C4.375 4.51436 4.71079 4.17857 5.125 4.17857L8.75 4.17857C9.16421 4.17857 9.5 3.84279 9.5 3.42857L9.5 0.750001C9.5 0.335786 9.16421 5.74949e-07 8.75 5.93055e-07L1.25 9.20891e-07C0.835786 9.38997e-07 0.5 0.335787 0.5 0.750001L0.5 9C0.5 9.41421 0.835787 9.75 1.25 9.75Z" fill="#FF383B"/>
<path d="M1.25 9.75L3.625 9.75C4.03921 9.75 4.375 9.41421 4.375 9L4.375 4.92857C4.375 4.51436 4.71079 4.17857 5.125 4.17857L8.75 4.17857C9.16421 4.17857 9.5 3.84279 9.5 3.42857L9.5 0.750001C9.5 0.335786 9.16421 5.74949e-07 8.75 5.93055e-07L1.25 9.20891e-07C0.835786 9.38997e-07 0.5 0.335787 0.5 0.750001L0.5 9C0.5 9.41421 0.835787 9.75 1.25 9.75Z" fill="#FF383B"/>
<path d="M9.75 43.625L9.75 41.25C9.75 40.8358 9.41421 40.5 9 40.5L4.92857 40.5C4.51436 40.5 4.17857 40.1642 4.17857 39.75L4.17857 36.125C4.17857 35.7108 3.84278 35.375 3.42857 35.375L0.749999 35.375C0.335786 35.375 -7.5745e-07 35.7108 -7.21238e-07 36.125L-6.55671e-08 43.625C-2.93554e-08 44.0392 0.335787 44.375 0.75 44.375L9 44.375C9.41421 44.375 9.75 44.0392 9.75 43.625Z" fill="#FF383B"/>
<path d="M9.75 43.625L9.75 41.25C9.75 40.8358 9.41421 40.5 9 40.5L4.92857 40.5C4.51436 40.5 4.17857 40.1642 4.17857 39.75L4.17857 36.125C4.17857 35.7108 3.84278 35.375 3.42857 35.375L0.749999 35.375C0.335786 35.375 -7.5745e-07 35.7108 -7.21238e-07 36.125L-6.55671e-08 43.625C-2.93554e-08 44.0392 0.335787 44.375 0.75 44.375L9 44.375C9.41421 44.375 9.75 44.0392 9.75 43.625Z" fill="#FF383B"/>
<path d="M33 19.7285V29.0045C32.9984 30.3301 32.4711 31.6009 31.5338 32.5382C30.5964 33.4756 29.3256 34.0029 28 34.0045H27C26.7348 34.0045 26.4804 33.8991 26.2929 33.7116C26.1054 33.524 26 33.2697 26 33.0045C26 32.7392 26.1054 32.4849 26.2929 32.2973C26.4804 32.1098 26.7348 32.0045 27 32.0045H28C28.7957 32.0045 29.5587 31.6884 30.1213 31.1258C30.6839 30.5632 31 29.8001 31 29.0045V19.7285C31 19.2374 30.8795 18.7538 30.649 18.3202C30.4185 17.8865 30.0851 17.5161 29.678 17.2415L22.678 12.5185C22.1834 12.1813 21.5986 12.0009 21 12.0009C20.4014 12.0009 19.8166 12.1813 19.322 12.5185L12.322 17.2415C11.9149 17.5161 11.5815 17.8865 11.351 18.3202C11.1205 18.7538 11 19.2374 11 19.7285V29.0045C11 29.8001 11.3161 30.5632 11.8787 31.1258C12.4413 31.6884 13.2044 32.0045 14 32.0045H15C15.2652 32.0045 15.5196 32.1098 15.7071 32.2973C15.8946 32.4849 16 32.7392 16 33.0045C16 33.2697 15.8946 33.524 15.7071 33.7116C15.5196 33.8991 15.2652 34.0045 15 34.0045H14C12.6744 34.0029 11.4036 33.4756 10.4662 32.5382C9.52889 31.6009 9.00159 30.3301 9 29.0045V19.7285C8.99898 18.9102 9.19908 18.1042 9.58271 17.3814C9.96633 16.6586 10.5217 16.0412 11.2 15.5835L18.2 10.8595C19.0253 10.2994 19.9997 10 20.997 10C21.9944 10 22.9687 10.2994 23.794 10.8595L30.794 15.5835C31.473 16.0409 32.0292 16.6582 32.4138 17.3809C32.7985 18.1036 32.9998 18.9097 33 19.7285ZM28 25.0115C28.0026 25.931 27.8227 26.8418 27.4708 27.6913C27.1189 28.5408 26.602 29.3121 25.95 29.9605L22.435 33.3985C22.0502 33.771 21.5356 33.9793 21 33.9793C20.4644 33.9793 19.9498 33.771 19.565 33.3985L16.058 29.9685C15.2424 29.1554 14.64 28.1537 14.3042 27.0521C13.9684 25.9505 13.9096 24.783 14.1329 23.6533C14.3563 22.5235 14.855 21.4663 15.5847 20.5754C16.3145 19.6844 17.2527 18.9873 18.3164 18.5458C19.38 18.1043 20.5362 17.932 21.6823 18.0443C22.8285 18.1566 23.9293 18.5499 24.887 19.1894C25.8448 19.8289 26.63 20.6948 27.173 21.7104C27.716 22.7259 28.0001 23.8598 28 25.0115ZM26 25.0115C26 24.1892 25.7973 23.3797 25.4097 22.6545C25.0221 21.9294 24.4617 21.311 23.778 20.8542C23.0944 20.3973 22.3086 20.1161 21.4904 20.0355C20.6721 19.9549 19.8466 20.0773 19.0869 20.3918C18.3273 20.7064 17.6569 21.2035 17.1352 21.8391C16.6136 22.4746 16.2567 23.229 16.0962 24.0354C15.9357 24.8418 15.9765 25.6754 16.2151 26.4623C16.4537 27.2491 16.8827 27.965 17.464 28.5465L20.964 31.9685L24.544 28.5385C25.0076 28.0759 25.375 27.526 25.6249 26.9206C25.8748 26.3153 26.0023 25.6664 26 25.0115ZM24 25.0045C24 25.5978 23.8241 26.1778 23.4944 26.6712C23.1648 27.1645 22.6962 27.549 22.1481 27.7761C21.5999 28.0032 20.9967 28.0626 20.4147 27.9468C19.8328 27.8311 19.2982 27.5453 18.8787 27.1258C18.4591 26.7062 18.1734 26.1717 18.0576 25.5897C17.9419 25.0078 18.0013 24.4046 18.2284 23.8564C18.4554 23.3082 18.8399 22.8397 19.3333 22.51C19.8266 22.1804 20.4067 22.0045 21 22.0045C21.7957 22.0045 22.5587 22.3205 23.1213 22.8831C23.6839 23.4457 24 24.2088 24 25.0045Z" fill="white"/>
</svg>
