<svg width="43" height="45" viewBox="0 0 43 45" fill="none" xmlns="http://www.w3.org/2000/svg">
<path d="M33 1.125V3.5C33 3.91421 33.3358 4.25 33.75 4.25L37.8214 4.25C38.2356 4.25 38.5714 4.58579 38.5714 5V8.625C38.5714 9.03921 38.9072 9.375 39.3214 9.375H42C42.4142 9.375 42.75 9.03921 42.75 8.625V1.125C42.75 0.710786 42.4142 0.375 42 0.375L33.75 0.375C33.3358 0.375 33 0.710786 33 1.125Z" fill="#FF383B"/>
<path d="M42.25 34.375L39.875 34.375C39.4608 34.375 39.125 34.7108 39.125 35.125L39.125 39.1964C39.125 39.6106 38.7892 39.9464 38.375 39.9464L34.75 39.9464C34.3358 39.9464 34 40.2822 34 40.6964L34 43.375C34 43.7892 34.3358 44.125 34.75 44.125L42.25 44.125C42.6642 44.125 43 43.7892 43 43.375L43 35.125C43 34.7108 42.6642 34.375 42.25 34.375Z" fill="#FF383B"/>
<path d="M1.25 9.75L3.625 9.75C4.03921 9.75 4.375 9.41421 4.375 9L4.375 4.92857C4.375 4.51436 4.71079 4.17857 5.125 4.17857L8.75 4.17857C9.16421 4.17857 9.5 3.84279 9.5 3.42857L9.5 0.750001C9.5 0.335786 9.16421 5.74949e-07 8.75 5.93055e-07L1.25 9.20891e-07C0.835786 9.38997e-07 0.5 0.335787 0.5 0.750001L0.5 9C0.5 9.41421 0.835787 9.75 1.25 9.75Z" fill="#FF383B"/>
<path d="M9.75 43.625L9.75 41.25C9.75 40.8358 9.41421 40.5 9 40.5L4.92857 40.5C4.51436 40.5 4.17857 40.1642 4.17857 39.75L4.17857 36.125C4.17857 35.7108 3.84278 35.375 3.42857 35.375L0.749999 35.375C0.335786 35.375 -7.5745e-07 35.7108 -7.21238e-07 36.125L-6.55671e-08 43.625C-2.93554e-08 44.0392 0.335787 44.375 0.75 44.375L9 44.375C9.41421 44.375 9.75 44.0392 9.75 43.625Z" fill="#FF383B"/>
<g clip-path="url(#clip0_565_7387)">
<path d="M24.5 23.5H22.31C21.9301 23.8344 21.4371 24.0116 20.9312 23.9955C20.4253 23.9794 19.9446 23.7712 19.5867 23.4133C19.2288 23.0554 19.0206 22.5747 19.0045 22.0688C18.9884 21.5629 19.1656 21.0699 19.5 20.69V17C19.5 16.6022 19.658 16.2206 19.9393 15.9393C20.2206 15.658 20.6022 15.5 21 15.5C21.3978 15.5 21.7794 15.658 22.0607 15.9393C22.342 16.2206 22.5 16.6022 22.5 17V20.5H24.5C24.8978 20.5 25.2794 20.658 25.5607 20.9393C25.842 21.2206 26 21.6022 26 22C26 22.3978 25.842 22.7794 25.5607 23.0607C25.2794 23.342 24.8978 23.5 24.5 23.5ZM21 10C20.6022 10 20.2206 10.158 19.9393 10.4393C19.658 10.7206 19.5 11.1022 19.5 11.5C19.5 11.8978 19.658 12.2794 19.9393 12.5607C20.2206 12.842 20.6022 13 21 13C23.3861 13.0026 25.6738 13.9517 27.361 15.639C29.0483 17.3262 29.9974 19.6139 30 22C30 22.3978 30.158 22.7794 30.4393 23.0607C30.7206 23.342 31.1022 23.5 31.5 23.5C31.8978 23.5 32.2794 23.342 32.5607 23.0607C32.842 22.7794 33 22.3978 33 22C32.9966 18.8185 31.7312 15.7682 29.4815 13.5185C27.2318 11.2688 24.1815 10.0034 21 10ZM12 22.5C12 22.2033 11.912 21.9133 11.7472 21.6666C11.5824 21.42 11.3481 21.2277 11.074 21.1142C10.7999 21.0006 10.4983 20.9709 10.2074 21.0288C9.91639 21.0867 9.64912 21.2296 9.43934 21.4393C9.22956 21.6491 9.0867 21.9164 9.02882 22.2074C8.97094 22.4983 9.00065 22.7999 9.11418 23.074C9.22771 23.3481 9.41997 23.5824 9.66665 23.7472C9.91332 23.912 10.2033 24 10.5 24C10.8978 24 11.2794 23.842 11.5607 23.5607C11.842 23.2794 12 22.8978 12 22.5ZM15.74 11.894C15.4433 11.894 15.1533 11.982 14.9066 12.1468C14.66 12.3116 14.4677 12.5459 14.3542 12.82C14.2406 13.0941 14.2109 13.3957 14.2688 13.6866C14.3267 13.9776 14.4696 14.2449 14.6793 14.4547C14.8891 14.6644 15.1564 14.8073 15.4474 14.8652C15.7383 14.9231 16.0399 14.8934 16.314 14.7798C16.5881 14.6663 16.8224 14.474 16.9872 14.2274C17.152 13.9807 17.24 13.6907 17.24 13.394C17.24 12.9962 17.082 12.6146 16.8007 12.3333C16.5194 12.052 16.1378 11.894 15.74 11.894ZM11.913 15.75C11.6163 15.75 11.3263 15.838 11.0796 16.0028C10.833 16.1676 10.6407 16.4019 10.5272 16.676C10.4136 16.9501 10.3839 17.2517 10.4418 17.5426C10.4997 17.8336 10.6426 18.1009 10.8523 18.3107C11.0621 18.5204 11.3294 18.6633 11.6204 18.7212C11.9113 18.7791 12.2129 18.7494 12.487 18.6358C12.7611 18.5223 12.9954 18.33 13.1602 18.0834C13.325 17.8367 13.413 17.5467 13.413 17.25C13.413 16.8522 13.255 16.4706 12.9737 16.1893C12.6924 15.908 12.3108 15.75 11.913 15.75ZM15.74 30.106C15.4433 30.106 15.1533 30.194 14.9066 30.3588C14.66 30.5236 14.4677 30.7579 14.3542 31.032C14.2406 31.3061 14.2109 31.6077 14.2688 31.8986C14.3267 32.1896 14.4696 32.4569 14.6793 32.6667C14.8891 32.8764 15.1564 33.0193 15.4474 33.0772C15.7383 33.1351 16.0399 33.1054 16.314 32.9918C16.5881 32.8783 16.8224 32.686 16.9872 32.4394C17.152 32.1927 17.24 31.9027 17.24 31.606C17.24 31.2082 17.082 30.8266 16.8007 30.5453C16.5194 30.264 16.1378 30.106 15.74 30.106ZM11.913 26.25C11.6163 26.25 11.3263 26.338 11.0796 26.5028C10.833 26.6676 10.6407 26.9019 10.5272 27.176C10.4136 27.4501 10.3839 27.7517 10.4418 28.0426C10.4997 28.3336 10.6426 28.6009 10.8523 28.8107C11.0621 29.0204 11.3294 29.1633 11.6204 29.2212C11.9113 29.2791 12.2129 29.2493 12.487 29.1358C12.7611 29.0223 12.9954 28.83 13.1602 28.5834C13.325 28.3367 13.413 28.0467 13.413 27.75C13.413 27.3522 13.255 26.9706 12.9737 26.6893C12.6924 26.408 12.3108 26.25 11.913 26.25ZM21 31C20.7033 31 20.4133 31.088 20.1666 31.2528C19.92 31.4176 19.7277 31.6519 19.6142 31.926C19.5007 32.2001 19.4709 32.5017 19.5288 32.7926C19.5867 33.0836 19.7296 33.3509 19.9393 33.5607C20.1491 33.7704 20.4164 33.9133 20.7074 33.9712C20.9983 34.0291 21.2999 33.9993 21.574 33.8858C21.8481 33.7723 22.0824 33.58 22.2472 33.3334C22.412 33.0867 22.5 32.7967 22.5 32.5C22.5 32.1022 22.342 31.7206 22.0607 31.4393C21.7794 31.158 21.3978 31 21 31ZM30.106 25.76C29.8093 25.76 29.5193 25.848 29.2726 26.0128C29.026 26.1776 28.8337 26.4119 28.7202 26.686C28.6066 26.9601 28.5769 27.2617 28.6348 27.5526C28.6927 27.8436 28.8356 28.1109 29.0453 28.3207C29.2551 28.5304 29.5224 28.6733 29.8134 28.7312C30.1043 28.7891 30.4059 28.7593 30.68 28.6458C30.9541 28.5323 31.1884 28.34 31.3532 28.0934C31.518 27.8467 31.606 27.5567 31.606 27.26C31.606 26.8622 31.448 26.4806 31.1667 26.1993C30.8854 25.918 30.5038 25.76 30.106 25.76ZM26.25 29.587C25.9533 29.587 25.6633 29.675 25.4166 29.8398C25.17 30.0046 24.9777 30.2389 24.8642 30.513C24.7507 30.7871 24.7209 31.0887 24.7788 31.3796C24.8367 31.6706 24.9796 31.9379 25.1893 32.1477C25.3991 32.3574 25.6664 32.5003 25.9574 32.5582C26.2483 32.6161 26.5499 32.5863 26.824 32.4728C27.0981 32.3593 27.3324 32.167 27.4972 31.9204C27.662 31.6737 27.75 31.3837 27.75 31.087C27.75 30.6892 27.592 30.3076 27.3107 30.0263C27.0294 29.745 26.6478 29.587 26.25 29.587Z" fill="white"/>
</g>
<defs>
<clipPath id="clip0_565_7387">
<rect width="24" height="24" fill="white" transform="translate(9 10)"/>
</clipPath>
</defs>
</svg>
