<svg width="43" height="45" viewBox="0 0 43 45" fill="none" xmlns="http://www.w3.org/2000/svg">
<path d="M33 1.125V3.5C33 3.91421 33.3358 4.25 33.75 4.25L37.8214 4.25C38.2356 4.25 38.5714 4.58579 38.5714 5V8.625C38.5714 9.03921 38.9072 9.375 39.3214 9.375H42C42.4142 9.375 42.75 9.03921 42.75 8.625V1.125C42.75 0.710786 42.4142 0.375 42 0.375L33.75 0.375C33.3358 0.375 33 0.710786 33 1.125Z" fill="#FF383B"/>
<path d="M42.25 34.375L39.875 34.375C39.4608 34.375 39.125 34.7108 39.125 35.125L39.125 39.1964C39.125 39.6106 38.7892 39.9464 38.375 39.9464L34.75 39.9464C34.3358 39.9464 34 40.2822 34 40.6964L34 43.375C34 43.7892 34.3358 44.125 34.75 44.125L42.25 44.125C42.6642 44.125 43 43.7892 43 43.375L43 35.125C43 34.7108 42.6642 34.375 42.25 34.375Z" fill="#FF383B"/>
<path d="M1.25 9.75L3.625 9.75C4.03921 9.75 4.375 9.41421 4.375 9L4.375 4.92857C4.375 4.51436 4.71079 4.17857 5.125 4.17857L8.75 4.17857C9.16421 4.17857 9.5 3.84279 9.5 3.42857L9.5 0.750001C9.5 0.335786 9.16421 5.74949e-07 8.75 5.93055e-07L1.25 9.20891e-07C0.835786 9.38997e-07 0.5 0.335787 0.5 0.750001L0.5 9C0.5 9.41421 0.835787 9.75 1.25 9.75Z" fill="#FF383B"/>
<path d="M9.75 43.625L9.75 41.25C9.75 40.8358 9.41421 40.5 9 40.5L4.92857 40.5C4.51436 40.5 4.17857 40.1642 4.17857 39.75L4.17857 36.125C4.17857 35.7108 3.84278 35.375 3.42857 35.375L0.749999 35.375C0.335786 35.375 -7.5745e-07 35.7108 -7.21238e-07 36.125L-6.55671e-08 43.625C-2.93554e-08 44.0392 0.335787 44.375 0.75 44.375L9 44.375C9.41421 44.375 9.75 44.0392 9.75 43.625Z" fill="#FF383B"/>
<g clip-path="url(#clip0_565_7388)">
<path d="M22 20.0001C19.243 20.0001 17 22.2431 17 25.0001C17 27.7571 19.243 30.0001 22 30.0001C24.757 30.0001 27 27.7571 27 25.0001C27 22.2431 24.757 20.0001 22 20.0001ZM22 28.0001C20.346 28.0001 19 26.6541 19 25.0001C19 23.3461 20.346 22.0001 22 22.0001C23.654 22.0001 25 23.3461 25 25.0001C25 26.6541 23.654 28.0001 22 28.0001ZM30.646 20.9601C32.526 20.7591 34 19.1821 34 17.2511C34 15.8361 33.436 14.4911 32.407 13.4621C27.835 8.89007 16.163 8.89107 11.593 13.4621C10.564 14.4911 10 15.8361 10 17.2501C10 19.1821 11.475 20.7591 13.354 20.9601L11.294 24.8231C10.447 26.4111 10 28.2011 10 30.0001C10 32.2061 11.794 34.0001 14 34.0001H30C32.206 34.0001 34 32.2061 34 30.0001C34 28.2011 33.553 26.4111 32.706 24.8231L30.646 20.9601ZM12 17.2491C12 16.3691 12.356 15.5261 13.007 14.8761C16.874 11.0111 27.128 11.0111 30.993 14.8761C31.643 15.5261 32.001 16.3691 32 17.2501C32 18.2151 31.215 19.0001 30.25 19.0001H29.566L28.789 17.7051C28.374 17.0121 27.775 16.4711 27.06 16.1421C25.93 15.6211 24.135 15.0011 22 15.0011C19.865 15.0011 18.07 15.6221 16.941 16.1421C16.224 16.4721 15.626 17.0121 15.211 17.7051L14.434 19.0001H13.75C12.785 19.0001 12 18.2151 12 17.2491ZM30 32.0001H14C12.897 32.0001 12 31.1031 12 30.0001C12 28.5281 12.366 27.0631 13.06 25.7651L15.878 20.4811L16.926 18.7331C17.134 18.3871 17.428 18.1191 17.779 17.9581C18.726 17.5211 20.228 17.0001 22.001 17.0001C23.774 17.0001 25.275 17.5211 26.224 17.9581C26.574 18.1191 26.868 18.3871 27.076 18.7331L28.124 20.4811L30.942 25.7651C31.635 27.0641 32.002 28.5291 32.002 30.0001C32.002 31.1031 31.105 32.0001 30.002 32.0001H30Z" fill="white"/>
</g>
<defs>
<clipPath id="clip0_565_7388">
<rect width="24" height="24" fill="white" transform="translate(10 10)"/>
</clipPath>
</defs>
</svg>
