<svg width="43" height="45" viewBox="0 0 43 45" fill="none" xmlns="http://www.w3.org/2000/svg">
<rect x="3" y="2" width="38" height="40" fill="white"/>
<path d="M33 1.125V3.5C33 3.91421 33.3358 4.25 33.75 4.25L37.8214 4.25C38.2356 4.25 38.5714 4.58579 38.5714 5V8.625C38.5714 9.03921 38.9072 9.375 39.3214 9.375H42C42.4142 9.375 42.75 9.03921 42.75 8.625V1.125C42.75 0.710786 42.4142 0.375 42 0.375L33.75 0.375C33.3358 0.375 33 0.710786 33 1.125Z" fill="#FF383B"/>
<path d="M42.25 34.375L39.875 34.375C39.4608 34.375 39.125 34.7108 39.125 35.125L39.125 39.1964C39.125 39.6106 38.7892 39.9464 38.375 39.9464L34.75 39.9464C34.3358 39.9464 34 40.2822 34 40.6964L34 43.375C34 43.7892 34.3358 44.125 34.75 44.125L42.25 44.125C42.6642 44.125 43 43.7892 43 43.375L43 35.125C43 34.7108 42.6642 34.375 42.25 34.375Z" fill="#FF383B"/>
<path d="M1.25 9.75L3.625 9.75C4.03921 9.75 4.375 9.41421 4.375 9L4.375 4.92857C4.375 4.51436 4.71079 4.17857 5.125 4.17857L8.75 4.17857C9.16421 4.17857 9.5 3.84279 9.5 3.42857L9.5 0.750001C9.5 0.335786 9.16421 5.74949e-07 8.75 5.93055e-07L1.25 9.20891e-07C0.835786 9.38997e-07 0.5 0.335787 0.5 0.750001L0.5 9C0.5 9.41421 0.835787 9.75 1.25 9.75Z" fill="#FF383B"/>
<path d="M9.75 43.625L9.75 41.25C9.75 40.8358 9.41421 40.5 9 40.5L4.92857 40.5C4.51436 40.5 4.17857 40.1642 4.17857 39.75L4.17857 36.125C4.17857 35.7108 3.84278 35.375 3.42857 35.375L0.749999 35.375C0.335786 35.375 -7.5745e-07 35.7108 -7.21238e-07 36.125L-6.55671e-08 43.625C-2.93554e-08 44.0392 0.335787 44.375 0.75 44.375L9 44.375C9.41421 44.375 9.75 44.0392 9.75 43.625Z" fill="#FF383B"/>
<path d="M34 19.7285V29.0045C33.9984 30.3301 33.4711 31.6009 32.5338 32.5382C31.5964 33.4756 30.3256 34.0029 29 34.0045H28C27.7348 34.0045 27.4804 33.8991 27.2929 33.7116C27.1054 33.524 27 33.2697 27 33.0045C27 32.7392 27.1054 32.4849 27.2929 32.2973C27.4804 32.1098 27.7348 32.0045 28 32.0045H29C29.7957 32.0045 30.5587 31.6884 31.1213 31.1258C31.6839 30.5632 32 29.8001 32 29.0045V19.7285C32 19.2374 31.8795 18.7538 31.649 18.3202C31.4185 17.8865 31.0851 17.5161 30.678 17.2415L23.678 12.5185C23.1834 12.1813 22.5986 12.0009 22 12.0009C21.4014 12.0009 20.8166 12.1813 20.322 12.5185L13.322 17.2415C12.9149 17.5161 12.5815 17.8865 12.351 18.3202C12.1205 18.7538 12 19.2374 12 19.7285V29.0045C12 29.8001 12.3161 30.5632 12.8787 31.1258C13.4413 31.6884 14.2044 32.0045 15 32.0045H16C16.2652 32.0045 16.5196 32.1098 16.7071 32.2973C16.8946 32.4849 17 32.7392 17 33.0045C17 33.2697 16.8946 33.524 16.7071 33.7116C16.5196 33.8991 16.2652 34.0045 16 34.0045H15C13.6744 34.0029 12.4036 33.4756 11.4662 32.5382C10.5289 31.6009 10.0016 30.3301 10 29.0045V19.7285C9.99898 18.9102 10.1991 18.1042 10.5827 17.3814C10.9663 16.6586 11.5217 16.0412 12.2 15.5835L19.2 10.8595C20.0253 10.2994 20.9997 10 21.997 10C22.9944 10 23.9687 10.2994 24.794 10.8595L31.794 15.5835C32.473 16.0409 33.0292 16.6582 33.4138 17.3809C33.7985 18.1036 33.9998 18.9097 34 19.7285ZM29 25.0115C29.0026 25.931 28.8227 26.8418 28.4708 27.6913C28.1189 28.5408 27.602 29.3121 26.95 29.9605L23.435 33.3985C23.0502 33.771 22.5356 33.9793 22 33.9793C21.4644 33.9793 20.9498 33.771 20.565 33.3985L17.058 29.9685C16.2424 29.1554 15.64 28.1537 15.3042 27.0521C14.9684 25.9505 14.9096 24.783 15.1329 23.6533C15.3563 22.5235 15.855 21.4663 16.5847 20.5754C17.3145 19.6844 18.2527 18.9873 19.3164 18.5458C20.38 18.1043 21.5362 17.932 22.6823 18.0443C23.8285 18.1566 24.9293 18.5499 25.887 19.1894C26.8448 19.8289 27.63 20.6948 28.173 21.7104C28.716 22.7259 29.0001 23.8598 29 25.0115ZM27 25.0115C27 24.1892 26.7973 23.3797 26.4097 22.6545C26.0221 21.9294 25.4617 21.311 24.778 20.8542C24.0944 20.3973 23.3086 20.1161 22.4904 20.0355C21.6721 19.9549 20.8466 20.0773 20.0869 20.3918C19.3273 20.7064 18.6569 21.2035 18.1352 21.8391C17.6136 22.4746 17.2567 23.229 17.0962 24.0354C16.9357 24.8418 16.9765 25.6754 17.2151 26.4623C17.4537 27.2491 17.8827 27.965 18.464 28.5465L21.964 31.9685L25.544 28.5385C26.0076 28.0759 26.375 27.526 26.6249 26.9206C26.8748 26.3153 27.0023 25.6664 27 25.0115ZM25 25.0045C25 25.5978 24.8241 26.1778 24.4944 26.6712C24.1648 27.1645 23.6962 27.549 23.1481 27.7761C22.5999 28.0032 21.9967 28.0626 21.4147 27.9468C20.8328 27.8311 20.2982 27.5453 19.8787 27.1258C19.4591 26.7062 19.1734 26.1717 19.0576 25.5897C18.9419 25.0078 19.0013 24.4046 19.2284 23.8564C19.4554 23.3082 19.8399 22.8397 20.3333 22.51C20.8266 22.1804 21.4067 22.0045 22 22.0045C22.7957 22.0045 23.5587 22.3205 24.1213 22.8831C24.6839 23.4457 25 24.2088 25 25.0045Z" fill="url(#paint0_linear_565_7400)"/>
<defs>
<linearGradient id="paint0_linear_565_7400" x1="10" y1="22.0022" x2="34" y2="22.0042" gradientUnits="userSpaceOnUse">
<stop offset="0.055" stop-color="#0A0078"/>
<stop offset="0.965" stop-color="#FF383B"/>
</linearGradient>
</defs>
</svg>
