<svg width="43" height="45" viewBox="0 0 43 45" fill="none" xmlns="http://www.w3.org/2000/svg">
<rect x="3" y="2" width="38" height="40" fill="white"/>
<path d="M33 1.125V3.5C33 3.91421 33.3358 4.25 33.75 4.25L37.8214 4.25C38.2356 4.25 38.5714 4.58579 38.5714 5V8.625C38.5714 9.03921 38.9072 9.375 39.3214 9.375H42C42.4142 9.375 42.75 9.03921 42.75 8.625V1.125C42.75 0.710786 42.4142 0.375 42 0.375L33.75 0.375C33.3358 0.375 33 0.710786 33 1.125Z" fill="#FF383B"/>
<path d="M42.25 34.375L39.875 34.375C39.4608 34.375 39.125 34.7108 39.125 35.125L39.125 39.1964C39.125 39.6106 38.7892 39.9464 38.375 39.9464L34.75 39.9464C34.3358 39.9464 34 40.2822 34 40.6964L34 43.375C34 43.7892 34.3358 44.125 34.75 44.125L42.25 44.125C42.6642 44.125 43 43.7892 43 43.375L43 35.125C43 34.7108 42.6642 34.375 42.25 34.375Z" fill="#FF383B"/>
<path d="M1.25 9.75L3.625 9.75C4.03921 9.75 4.375 9.41421 4.375 9L4.375 4.92857C4.375 4.51436 4.71079 4.17857 5.125 4.17857L8.75 4.17857C9.16421 4.17857 9.5 3.84279 9.5 3.42857L9.5 0.750001C9.5 0.335786 9.16421 5.74949e-07 8.75 5.93055e-07L1.25 9.20891e-07C0.835786 9.38997e-07 0.5 0.335787 0.5 0.750001L0.5 9C0.5 9.41421 0.835787 9.75 1.25 9.75Z" fill="#FF383B"/>
<path d="M9.75 43.625L9.75 41.25C9.75 40.8358 9.41421 40.5 9 40.5L4.92857 40.5C4.51436 40.5 4.17857 40.1642 4.17857 39.75L4.17857 36.125C4.17857 35.7108 3.84278 35.375 3.42857 35.375L0.749999 35.375C0.335786 35.375 -7.5745e-07 35.7108 -7.21238e-07 36.125L-6.55671e-08 43.625C-2.93554e-08 44.0392 0.335787 44.375 0.75 44.375L9 44.375C9.41421 44.375 9.75 44.0392 9.75 43.625Z" fill="#FF383B"/>
<g clip-path="url(#clip0_565_7384)">
<path d="M32.459 19.098L31 17.7V14C31 11.794 29.206 10 27 10H17C14.794 10 13 11.794 13 14V17.7L11.541 19.097C10.562 20.035 10 21.351 10 22.707V29C10 31.757 12.243 34 15 34H29C31.757 34 34 31.757 34 29V22.707C34 21.351 33.438 20.035 32.459 19.098ZM17 12H27C28.103 12 29 12.897 29 14V22.242L24.121 27.121C22.988 28.254 21.012 28.254 19.879 27.121L15 22.242V14C15 12.897 15.897 12 17 12ZM32 29C32 30.654 30.654 32 29 32H15C13.346 32 12 30.654 12 29V22.707C12 22.512 12.022 22.319 12.059 22.13L18.465 28.536C19.408 29.48 20.664 30.001 22 30.001C23.336 30.001 24.592 29.48 25.535 28.536L31.941 22.13C31.978 22.319 32 22.513 32 22.707V29ZM17.319 19.536C16.915 19.16 16.891 18.527 17.267 18.123C17.644 17.718 18.278 17.697 18.68 18.071L20.531 19.792C20.8 20.06 21.197 20.061 21.442 19.816L25.305 16.092C25.703 15.708 26.336 15.721 26.719 16.117C27.103 16.514 27.091 17.148 26.694 17.531L22.843 21.243C22.339 21.747 21.672 21.999 21.004 21.999C20.331 21.999 19.656 21.743 19.143 21.231L17.319 19.535V19.536Z" fill="url(#paint0_linear_565_7384)"/>
</g>
<defs>
<linearGradient id="paint0_linear_565_7384" x1="10" y1="22" x2="34" y2="22.0019" gradientUnits="userSpaceOnUse">
<stop offset="0.055" stop-color="#0A0078"/>
<stop offset="0.965" stop-color="#FF383B"/>
</linearGradient>
<clipPath id="clip0_565_7384">
<rect width="24" height="24" fill="white" transform="translate(10 10)"/>
</clipPath>
</defs>
</svg>
