<svg width="43" height="45" viewBox="0 0 43 45" fill="none" xmlns="http://www.w3.org/2000/svg">
<rect x="3" y="2" width="38" height="40" fill="white"/>
<path d="M33 1.125V3.5C33 3.91421 33.3358 4.25 33.75 4.25L37.8214 4.25C38.2356 4.25 38.5714 4.58579 38.5714 5V8.625C38.5714 9.03921 38.9072 9.375 39.3214 9.375H42C42.4142 9.375 42.75 9.03921 42.75 8.625V1.125C42.75 0.710786 42.4142 0.375 42 0.375L33.75 0.375C33.3358 0.375 33 0.710786 33 1.125Z" fill="#FF383B"/>
<path d="M42.25 34.375L39.875 34.375C39.4608 34.375 39.125 34.7108 39.125 35.125L39.125 39.1964C39.125 39.6106 38.7892 39.9464 38.375 39.9464L34.75 39.9464C34.3358 39.9464 34 40.2822 34 40.6964L34 43.375C34 43.7892 34.3358 44.125 34.75 44.125L42.25 44.125C42.6642 44.125 43 43.7892 43 43.375L43 35.125C43 34.7108 42.6642 34.375 42.25 34.375Z" fill="#FF383B"/>
<path d="M1.25 9.75L3.625 9.75C4.03921 9.75 4.375 9.41421 4.375 9L4.375 4.92857C4.375 4.51436 4.71079 4.17857 5.125 4.17857L8.75 4.17857C9.16421 4.17857 9.5 3.84279 9.5 3.42857L9.5 0.750001C9.5 0.335786 9.16421 5.74949e-07 8.75 5.93055e-07L1.25 9.20891e-07C0.835786 9.38997e-07 0.5 0.335787 0.5 0.750001L0.5 9C0.5 9.41421 0.835787 9.75 1.25 9.75Z" fill="#FF383B"/>
<path d="M9.75 43.625L9.75 41.25C9.75 40.8358 9.41421 40.5 9 40.5L4.92857 40.5C4.51436 40.5 4.17857 40.1642 4.17857 39.75L4.17857 36.125C4.17857 35.7108 3.84278 35.375 3.42857 35.375L0.749999 35.375C0.335786 35.375 -7.5745e-07 35.7108 -7.21238e-07 36.125L-6.55671e-08 43.625C-2.93554e-08 44.0392 0.335787 44.375 0.75 44.375L9 44.375C9.41421 44.375 9.75 44.0392 9.75 43.625Z" fill="#FF383B"/>
<g clip-path="url(#clip0_565_7401)">
<path d="M32.5 19.0001C32.8978 19.0001 33.2794 18.842 33.5607 18.5607C33.842 18.2794 34 17.8979 34 17.5001C34 17.1022 33.842 16.7207 33.5607 16.4394C33.2794 16.1581 32.8978 16.0001 32.5 16.0001H28.872L29.485 11.7121C29.5128 11.517 29.502 11.3185 29.4531 11.1276C29.4042 10.9368 29.3182 10.7575 29.2 10.5999C29.0818 10.4423 28.9337 10.3096 28.7641 10.2092C28.5946 10.1089 28.407 10.0429 28.212 10.0151C28.017 9.98722 27.8184 9.99806 27.6276 10.047C27.4368 10.0959 27.2574 10.1819 27.0999 10.3001C26.9423 10.4183 26.8095 10.5664 26.7092 10.7359C26.6088 10.9054 26.5428 11.093 26.515 11.2881L25.842 16.0001H19.872L20.485 11.7121C20.5128 11.517 20.502 11.3185 20.4531 11.1276C20.4042 10.9368 20.3182 10.7575 20.2 10.5999C20.0818 10.4423 19.9337 10.3096 19.7641 10.2092C19.5946 10.1089 19.407 10.0429 19.212 10.0151C19.017 9.98722 18.8184 9.99806 18.6276 10.047C18.4368 10.0959 18.2574 10.1819 18.0999 10.3001C17.9423 10.4183 17.8095 10.5664 17.7092 10.7359C17.6088 10.9054 17.5428 11.093 17.515 11.2881L16.842 16.0001H12.5C12.1022 16.0001 11.7206 16.1581 11.4393 16.4394C11.158 16.7207 11 17.1022 11 17.5001C11 17.8979 11.158 18.2794 11.4393 18.5607C11.7206 18.842 12.1022 19.0001 12.5 19.0001H16.413L15.556 25.0001H11.5C11.1022 25.0001 10.7206 25.1581 10.4393 25.4394C10.158 25.7207 10 26.1022 10 26.5001C10 26.8979 10.158 27.2794 10.4393 27.5607C10.7206 27.842 11.1022 28.0001 11.5 28.0001H15.128L14.515 32.2881C14.4872 32.4831 14.498 32.6817 14.5469 32.8725C14.5958 33.0633 14.6818 33.2426 14.8 33.4002C15.0388 33.7185 15.3942 33.9288 15.788 33.9851C16.1818 34.0413 16.5819 33.9388 16.9001 33.7C17.0577 33.5818 17.1905 33.4337 17.2908 33.2642C17.3912 33.0947 17.4572 32.9071 17.485 32.7121L18.158 28.0001H24.128L23.515 32.2881C23.4588 32.6819 23.5613 33.082 23.8 33.4002C24.0388 33.7185 24.3942 33.9288 24.788 33.9851C25.1818 34.0413 25.5819 33.9388 25.9001 33.7C26.2184 33.4613 26.4288 33.1059 26.485 32.7121L27.158 28.0001H31.5C31.8978 28.0001 32.2794 27.842 32.5607 27.5607C32.842 27.2794 33 26.8979 33 26.5001C33 26.1022 32.842 25.7207 32.5607 25.4394C32.2794 25.1581 31.8978 25.0001 31.5 25.0001H27.587L28.444 19.0001H32.5ZM24.556 25.0001H18.587L19.444 19.0001H25.413L24.556 25.0001Z" fill="url(#paint0_linear_565_7401)"/>
</g>
<defs>
<linearGradient id="paint0_linear_565_7401" x1="10" y1="22.0001" x2="34" y2="22.002" gradientUnits="userSpaceOnUse">
<stop offset="0.055" stop-color="#0A0078"/>
<stop offset="0.965" stop-color="#FF383B"/>
</linearGradient>
<clipPath id="clip0_565_7401">
<rect width="24" height="24" fill="white" transform="translate(10 10)"/>
</clipPath>
</defs>
</svg>
