<svg width="32" height="32" viewBox="0 0 32 32" fill="none" xmlns="http://www.w3.org/2000/svg">
<rect width="32" height="32" rx="4" fill="#FF383B"/>
<path d="M18.6907 9.5124V9.50952H19.4409L19.7151 9.56427C19.8978 9.59981 20.0637 9.64639 20.2128 9.70402C20.3619 9.76165 20.5062 9.82889 20.6456 9.90573C20.7851 9.98256 20.9116 10.0609 21.0251 10.1406C21.1376 10.2193 21.2386 10.3029 21.3281 10.3913C21.4165 10.4806 21.5546 10.5036 21.7421 10.4604C21.9297 10.4172 22.1316 10.3572 22.3481 10.2803C22.5645 10.2035 22.7785 10.117 22.9901 10.021C23.2017 9.92493 23.3306 9.86395 23.3768 9.83801C23.422 9.81113 23.446 9.79672 23.4489 9.79479L23.4518 9.79047L23.4662 9.78326L23.4806 9.77606L23.495 9.76886L23.5095 9.76165L23.5124 9.75733L23.5167 9.75445L23.521 9.75157L23.5239 9.74724L23.5383 9.74292L23.5528 9.74004L23.5499 9.76165L23.5455 9.78326L23.5383 9.80487L23.5311 9.82649L23.5239 9.84089L23.5167 9.8553L23.5095 9.87691C23.5047 9.89132 23.4999 9.91052 23.495 9.93454C23.4902 9.95856 23.4445 10.0546 23.358 10.2227C23.2714 10.3908 23.1632 10.5613 23.0334 10.7342C22.9035 10.907 22.7871 11.0377 22.6842 11.126C22.5804 11.2154 22.5116 11.2778 22.4779 11.3133C22.4442 11.3498 22.4034 11.3834 22.3553 11.4142L22.2831 11.4617L22.2687 11.4689L22.2543 11.4761L22.2514 11.4805L22.2471 11.4833L22.2427 11.4862L22.2399 11.4905L22.2254 11.4978L22.211 11.505L22.2081 11.5093L22.2038 11.5122L22.1995 11.515L22.1966 11.5194L22.1937 11.5237L22.1894 11.5266L22.185 11.5294L22.1821 11.5338H22.2543L22.6583 11.4473C22.9276 11.3897 23.1849 11.3201 23.4301 11.2384L23.8197 11.1088L23.8629 11.0943L23.8846 11.0871L23.899 11.0799L23.9134 11.0727L23.9279 11.0655L23.9423 11.0583L23.9711 11.054L24 11.0511V11.0799L23.9928 11.0828L23.9856 11.0871L23.9827 11.0915L23.9784 11.0943L23.974 11.0972L23.9711 11.1015L23.9683 11.1059L23.9639 11.1088L23.9596 11.1116L23.9567 11.116L23.9538 11.1203L23.9495 11.1232L23.9423 11.1376L23.9351 11.152L23.9307 11.1549C23.9288 11.1577 23.8678 11.2394 23.7475 11.3998C23.6273 11.5611 23.5624 11.6428 23.5528 11.6447C23.5431 11.6476 23.5297 11.662 23.5124 11.6879C23.496 11.7148 23.394 11.8219 23.2065 12.0092C23.0189 12.1965 22.8352 12.3632 22.6554 12.5092C22.4746 12.6561 22.3832 12.8367 22.3813 13.0509C22.3784 13.2641 22.3673 13.5052 22.3481 13.7741C22.3288 14.0431 22.2928 14.3336 22.2399 14.6458C22.187 14.958 22.1052 15.3109 21.9946 15.7047C21.884 16.0985 21.7493 16.4827 21.5906 16.8573C21.4319 17.2319 21.266 17.5681 21.0929 17.8659C20.9197 18.1636 20.761 18.4157 20.6168 18.6222C20.4725 18.8288 20.3258 19.0233 20.1767 19.2058C20.0277 19.3883 19.8391 19.5938 19.6112 19.8224C19.3823 20.05 19.2572 20.1749 19.2361 20.197C19.214 20.2181 19.1197 20.2969 18.9533 20.4333C18.7879 20.5706 18.6099 20.708 18.4195 20.8453C18.23 20.9817 18.0559 21.0955 17.8972 21.1868C17.7385 21.278 17.5471 21.3822 17.323 21.4994C17.0999 21.6176 16.8584 21.7271 16.5987 21.8279C16.339 21.9288 16.0649 22.0224 15.7764 22.1089C15.4878 22.1953 15.2089 22.2625 14.9396 22.3106C14.6703 22.3586 14.3649 22.3994 14.0234 22.433L13.5113 22.4835V22.4907H12.5735V22.4835L12.4509 22.4762C12.3691 22.4715 12.3018 22.4666 12.2489 22.4618C12.196 22.457 11.9964 22.4306 11.6501 22.3826C11.3039 22.3346 11.0322 22.2865 10.835 22.2385C10.6378 22.1905 10.3445 22.0992 9.95491 21.9648C9.56537 21.8303 9.2321 21.6944 8.95509 21.5571C8.67905 21.4207 8.50593 21.3342 8.43571 21.2977C8.36646 21.2622 8.28855 21.218 8.20198 21.1652L8.07214 21.0859L8.06927 21.0816L8.06492 21.0787L8.0606 21.0758L8.05771 21.0715L8.04328 21.0643L8.02885 21.0571L8.02598 21.0528L8.02164 21.0499L8.01731 21.047L8.01443 21.0427L8.01156 21.0384L8.00721 21.0355H8V21.0067L8.01443 21.0096L8.02885 21.0139L8.09378 21.0211C8.13706 21.0259 8.25489 21.0331 8.44725 21.0427C8.63962 21.0523 8.844 21.0523 9.06041 21.0427C9.27683 21.0331 9.49806 21.0115 9.72408 20.9779C9.95011 20.9443 10.217 20.8866 10.5248 20.805C10.8326 20.7233 11.1154 20.6263 11.3731 20.514C11.63 20.4006 11.8127 20.3161 11.9214 20.2604C12.0291 20.2056 12.1936 20.1038 12.4148 19.9549L12.7466 19.7316L12.7495 19.7273L12.7538 19.7244L12.7582 19.7215L12.761 19.7172L12.7639 19.7129L12.7683 19.71L12.7726 19.7071L12.7755 19.7028L12.7899 19.6985L12.8043 19.6956L12.8072 19.6812L12.8115 19.6668L12.8159 19.6639L12.8188 19.6596L12.7033 19.6524C12.6264 19.6476 12.5518 19.6428 12.4797 19.638C12.4076 19.6332 12.2946 19.6116 12.1407 19.5731C11.9868 19.5347 11.8209 19.4771 11.6429 19.4003C11.465 19.3234 11.2919 19.2322 11.1235 19.1265C10.9552 19.0209 10.8335 18.933 10.7585 18.8629C10.6845 18.7937 10.5883 18.6957 10.47 18.5689C10.3526 18.4412 10.2507 18.3101 10.1641 18.1756C10.0775 18.0412 9.99483 17.886 9.91597 17.7103L9.79621 17.448L9.789 17.4264L9.78179 17.4048L9.77746 17.3904L9.77457 17.376L9.79621 17.3789L9.81785 17.3832L9.97656 17.4048C10.0824 17.4192 10.2483 17.424 10.4743 17.4192C10.7003 17.4144 10.8566 17.4048 10.9432 17.3904C11.0298 17.376 11.0827 17.3664 11.1019 17.3616L11.1307 17.3544L11.1668 17.3472L11.2029 17.34L11.2058 17.3357L11.2101 17.3328L11.2144 17.3299L11.2173 17.3256L11.1885 17.3184L11.1596 17.3112L11.1307 17.304L11.1019 17.2968L11.073 17.2896C11.0538 17.2848 11.0201 17.2752 10.972 17.2607C10.924 17.2463 10.7941 17.1935 10.5825 17.1023C10.3709 17.011 10.2026 16.9222 10.0775 16.8357C9.9522 16.749 9.83267 16.6542 9.71975 16.5519C9.60721 16.4482 9.48363 16.3146 9.34896 16.1514C9.21431 15.9881 9.09409 15.7984 8.98828 15.5823C8.88248 15.3662 8.80313 15.1597 8.75023 14.9628C8.69753 14.767 8.66277 14.5669 8.64636 14.3648L8.62038 14.0623L8.63481 14.0652L8.64923 14.0695L8.66366 14.0767L8.67809 14.0839L8.69252 14.0911L8.70694 14.0983L8.93057 14.1992C9.07966 14.2664 9.26481 14.324 9.48602 14.372C9.70725 14.4201 9.8395 14.4465 9.88278 14.4513L9.9477 14.4585H10.0775L10.0747 14.4542L10.0703 14.4513L10.066 14.4484L10.0631 14.4441L10.0602 14.4398L10.0559 14.4369L10.0516 14.434L10.0487 14.4297L10.0343 14.4225L10.0198 14.4153L10.017 14.4109L10.0126 14.4081L10.0083 14.4052L10.0054 14.4009L9.99098 14.3937L9.97656 14.3865L9.97368 14.3821C9.9708 14.3802 9.92944 14.3495 9.84959 14.2899C9.77072 14.2294 9.68801 14.1511 9.60144 14.0551C9.51488 13.959 9.42831 13.8582 9.34175 13.7525C9.25503 13.6466 9.17778 13.5333 9.11091 13.4139C9.04359 13.2939 8.97241 13.1412 8.89739 12.9558C8.82333 12.7714 8.76706 12.5855 8.72858 12.3982C8.69012 12.2109 8.66848 12.026 8.66366 11.8435C8.65886 11.661 8.66366 11.505 8.67809 11.3753C8.69252 11.2456 8.72137 11.0991 8.76465 10.9359C8.80794 10.7726 8.87046 10.5997 8.95221 10.4172L9.07484 10.1435L9.08206 10.1218L9.08927 10.1002L9.09361 10.0973L9.09648 10.093L9.09937 10.0887L9.1037 10.0858L9.10804 10.0887L9.11091 10.093L9.1138 10.0973L9.11812 10.1002L9.12247 10.1031L9.12534 10.1074L9.12822 10.1118L9.13255 10.1146L9.13977 10.129L9.14698 10.1435L9.15132 10.1463L9.15419 10.1507L9.34896 10.3668C9.47881 10.5108 9.63271 10.6717 9.81064 10.8494C9.98859 11.0271 10.0872 11.1193 10.1064 11.126C10.1256 11.1337 10.1497 11.1558 10.1785 11.1923C10.2074 11.2279 10.3036 11.3129 10.4671 11.4473C10.6306 11.5818 10.8446 11.7379 11.1091 11.9156C11.3736 12.0933 11.667 12.2686 11.9892 12.4414C12.3114 12.6143 12.6577 12.7704 13.028 12.9097C13.3983 13.049 13.658 13.1402 13.807 13.1834C13.9561 13.2266 14.211 13.2819 14.5717 13.3491C14.9324 13.4164 15.2041 13.4596 15.3868 13.4788C15.5696 13.498 15.6946 13.509 15.7619 13.5119L15.8629 13.5148L15.8601 13.4932L15.8557 13.4716L15.8269 13.2915C15.8076 13.1714 15.798 13.0033 15.798 12.7872C15.798 12.5711 15.8149 12.3718 15.8485 12.1893C15.8822 12.0068 15.9327 11.8219 16 11.6346C16.0673 11.4473 16.1332 11.297 16.1977 11.1837C16.2631 11.0713 16.3487 10.9431 16.4545 10.799C16.5603 10.6549 16.6973 10.506 16.8656 10.3524C17.034 10.1987 17.2263 10.0618 17.4427 9.94175C17.6592 9.82169 17.8587 9.73043 18.0415 9.668C18.2242 9.60558 18.3781 9.56475 18.5032 9.54554C18.6282 9.52634 18.6907 9.51528 18.6907 9.5124Z" fill="white"/>
</svg>
