<svg width="32" height="32" viewBox="0 0 32 32" fill="none" xmlns="http://www.w3.org/2000/svg">
<rect width="32" height="32" rx="4" fill="#FF383B"/>
<path d="M16.3891 22.2044L12.7783 22.1369C11.6092 22.1134 10.4372 22.1603 9.29098 21.9167C7.54737 21.5527 7.42385 19.7679 7.29459 18.2708C7.11649 16.166 7.18544 14.0231 7.52154 11.9359C7.71128 10.7648 8.45797 10.066 9.61271 9.98991C13.5108 9.71393 17.4348 9.74664 21.3243 9.87539C21.735 9.88719 22.1486 9.95171 22.5537 10.0251C24.5531 10.3833 24.6018 12.4059 24.7314 14.1085C24.8607 15.8287 24.8061 17.5577 24.5591 19.2662C24.3609 20.6808 23.9816 21.867 22.3813 21.9816C20.3762 22.1313 18.4171 22.2519 16.4063 22.2135C16.4064 22.2044 16.3949 22.2044 16.3891 22.2044ZM14.2663 18.6231C15.7773 17.7365 17.2595 16.8647 18.7619 15.984C17.2481 15.0974 15.7687 14.2256 14.2663 13.345V18.6231Z" fill="white"/>
</svg>
