<svg width="784" height="411" viewBox="0 0 784 411" fill="none" xmlns="http://www.w3.org/2000/svg">
<path opacity="0.36" d="M0.182187 410.822C0.121456 410.814 0.0626843 410.809 0.00195312 410.799V410.822H0.182187Z" fill="white"/>
<path opacity="0.1" d="M731.816 263.187C703.949 282.737 675.131 302.957 642.921 310.926C580.904 326.269 518.484 294.544 471.02 265.198C463.934 260.817 456.72 256.246 449.744 251.827C405.029 223.503 358.795 194.215 306.242 188.186C230.601 179.509 161.237 220.214 94.1514 259.576C63.3758 277.636 32.1162 295.969 0.00195312 309.685V310.906C32.3259 297.147 63.7698 278.708 94.7217 260.547C161.645 221.277 230.838 180.66 306.115 189.303C358.411 195.301 404.535 224.52 449.142 252.775C456.122 257.195 463.336 261.768 470.428 266.15C509.49 290.303 558.65 316.049 609.486 316.047C620.668 316.045 631.939 314.799 643.192 312.016C675.61 303.997 704.513 283.717 732.467 264.106C749.767 251.968 766.635 240.147 783.994 231.174V229.904C766.394 238.942 749.322 250.904 731.816 263.187Z" fill="white"/>
<path opacity="0.58" d="M757.693 48.9479C678.844 48.3265 620.942 64.071 580.659 97.1652C569.979 105.938 559.777 116.42 549.911 126.557C525.379 151.758 500.015 177.818 465.8 178.814C446.553 179.42 428.304 171.423 410.646 163.734C394.916 156.884 378.65 149.8 361.488 148.524C321.991 145.602 287.321 173.851 265.179 198.079C258.086 205.838 251.198 214.095 244.538 222.078C227.657 242.317 210.202 263.244 187.95 277.785C149.752 302.751 102.44 306.267 56.6884 309.668C43.2116 310.669 29.2762 311.704 15.8307 313.276C10.5466 313.894 5.27233 314.646 0.00195312 315.467V316.89C5.31545 316.065 10.6427 315.305 15.9934 314.679C29.4094 313.112 43.3292 312.077 56.7903 311.075C102.724 307.661 150.22 304.133 188.72 278.969C211.148 264.31 228.672 243.301 245.62 222.984C252.27 215.013 259.146 206.769 266.218 199.031C288.148 175.037 322.481 147.045 361.38 149.936C378.303 151.192 394.457 158.226 410.078 165.029C427.88 172.781 446.308 180.811 465.835 180.227C500.627 179.216 526.193 152.948 550.92 127.543C560.759 117.435 570.933 106.981 581.55 98.2589C621.567 65.3823 679.143 49.7162 757.682 50.361C766.406 50.4316 775.212 50.6668 783.992 50.9764V49.5652C775.216 49.2536 766.415 49.0184 757.693 48.9479Z" fill="white"/>
<path opacity="0.22" d="M749.767 181.383C747.396 181.083 745.036 180.784 742.69 180.493C598.665 162.636 448.286 189.449 319.29 255.972C316.783 257.266 314.263 258.577 311.728 259.896C278.299 277.289 243.731 295.274 207.859 288.269C192.413 285.25 177.417 277.573 162.913 270.149C139.074 257.946 116.56 246.423 92.211 253.808C62.6271 262.785 51.9315 292.261 40.6087 323.468C31.2087 349.369 21.4735 376.123 0.00195312 390.517V392.477C0.0725123 392.432 0.143071 392.392 0.213631 392.345C22.622 377.773 32.5376 350.445 42.1277 324.019C53.3094 293.202 63.8697 264.096 92.6814 255.355C116.407 248.164 138.639 259.539 162.176 271.587C176.78 279.063 191.88 286.793 207.55 289.852C243.976 296.979 278.801 278.849 312.475 261.327C315.005 260.01 317.526 258.7 320.033 257.407C448.744 191.028 598.788 164.282 742.49 182.097C744.836 182.387 747.192 182.687 749.562 182.987C761 184.439 772.568 185.905 783.992 186.575V184.954C772.642 184.288 761.139 182.83 749.767 181.383Z" fill="white"/>
<path opacity="0.17" d="M749.083 133.634C731.963 135.916 714.257 138.278 696.895 140.729C592.371 155.49 482.873 176.687 390.184 231.372C370.876 242.764 351.947 255.807 333.641 268.422C293.742 295.916 252.486 324.346 205.296 336.911C139.936 354.312 71.69 339.485 5.68588 325.142C3.79843 324.732 1.89725 324.32 0.00195312 323.909V325.553C1.78161 325.939 3.57107 326.325 5.34485 326.712C71.5293 341.094 139.972 355.964 205.709 338.466C253.168 325.83 294.541 297.32 334.552 269.747C352.835 257.148 371.741 244.12 391 232.758C483.448 178.216 592.76 157.06 697.12 142.323C714.476 139.871 732.177 137.513 749.297 135.23C760.818 133.695 772.389 132.149 783.992 130.561V128.938C772.319 130.536 760.675 132.09 749.083 133.634Z" fill="white"/>
<path opacity="0.57" d="M776.995 143.317C776.891 143.317 776.782 143.317 776.68 143.317C722.23 143.415 671.882 168.477 623.188 192.716C577.011 215.703 529.26 239.472 477.987 242.023C426.007 244.601 376.168 225.176 327.961 206.385C296.311 194.049 263.585 181.296 230.178 174.612C153.484 159.262 76.0294 175.792 0.00195312 198.581V200.433C75.9804 177.632 153.358 161.049 229.833 176.351C263.088 183.005 295.739 195.731 327.318 208.038C375.706 226.896 425.738 246.426 478.079 243.793C529.719 241.224 577.64 217.373 623.98 194.302C672.489 170.157 722.649 145.187 776.682 145.091C776.79 145.091 776.89 145.091 776.997 145.091C779.336 145.091 781.666 145.154 783.994 145.246V143.472C781.666 143.382 779.334 143.317 776.995 143.317Z" fill="white"/>
<path opacity="0.29" d="M737.3 250.042C727.545 245.381 717.7 240.271 708.183 235.332C676.946 219.121 644.648 202.359 609.421 198.149C558.511 192.054 509.314 212.594 461.745 232.453C452.817 236.179 443.584 240.034 434.552 243.617C359.593 273.354 300.982 273.64 260.336 244.469C242.755 231.855 229.578 214.033 216.836 196.795C207.93 184.749 198.722 172.293 188.026 161.59C141.563 115.093 72.817 104.047 0.00195312 96.9949V98.1669C72.5544 105.197 141.032 116.212 187.199 162.415C197.832 173.056 207.015 185.476 215.895 197.489C228.692 214.797 241.922 232.694 259.652 245.416C300.641 274.831 359.632 274.59 434.978 244.701C444.023 241.114 453.258 237.257 462.192 233.529C509.623 213.727 558.674 193.259 609.284 199.306C644.297 203.492 676.501 220.205 707.643 236.367C717.171 241.312 727.024 246.423 736.798 251.094C752.176 258.442 767.942 264.908 783.992 270.529V269.3C768.115 263.724 752.517 257.313 737.3 250.042Z" fill="white"/>
<path opacity="0.54" d="M116.685 312.134C123.712 313.6 130.756 315.573 137.567 317.482C147.079 320.148 156.916 322.906 166.866 324.323C178.544 325.989 200.472 326.812 216.152 313.633C227.683 303.943 232.953 289.267 238.049 275.076C239.642 270.635 241.291 266.045 243.104 261.699C250.996 242.756 267.329 225.35 286.033 229.17C296.723 231.351 304.431 239.938 311.885 248.24C319.08 256.255 326.518 264.541 336.74 267.379C353.076 271.921 369.853 260.392 379.236 246.959C384.155 239.912 387.948 232.035 391.613 224.419C395.049 217.281 398.6 209.899 403.071 203.235C411.358 190.882 427.075 177.777 444.117 181.486C450.254 182.822 455.857 186.268 461.276 189.602C468.015 193.745 474.983 198.03 482.948 198.186C483.103 198.19 483.256 198.19 483.409 198.19C496.687 198.188 506.775 186.995 515.685 177.105C516.561 176.129 517.434 175.163 518.298 174.216C544.691 145.334 581.889 127.276 614.711 111.346C627.177 105.295 641.526 99.2782 654.032 104.509C657.58 105.993 660.767 108.337 663.852 110.603C667.07 112.969 670.396 115.413 674.169 116.924C680.416 119.423 687.33 119.164 694.167 116.173C704.094 111.832 712.894 102.257 717.132 91.1874C720.901 81.3444 722.237 70.6978 723.529 60.404C724.501 52.6602 725.505 44.6537 727.537 37.0372C732.337 19.0603 746.539 1.47148 764.387 2.65922L764.438 1.88699C746.218 0.693366 731.667 18.5527 726.79 36.8373C724.744 44.5047 723.737 52.5387 722.761 60.308C721.475 70.5567 720.142 81.1543 716.409 90.9111C712.304 101.63 703.451 111.267 693.855 115.464C687.211 118.368 680.502 118.625 674.455 116.205C670.774 114.731 667.487 112.316 664.308 109.98C661.188 107.687 657.962 105.315 654.33 103.796C641.524 98.4393 626.992 104.525 614.372 110.648C581.488 126.61 544.219 144.703 517.728 173.695C516.861 174.641 515.989 175.609 515.109 176.586C506.307 186.356 496.344 197.414 483.405 197.414C483.258 197.414 483.111 197.412 482.962 197.41C475.208 197.259 468.636 193.218 461.68 188.941C456.204 185.574 450.544 182.093 444.278 180.729C426.885 176.936 410.848 190.247 402.424 202.804C397.926 209.513 394.361 216.92 390.913 224.082C387.262 231.671 383.485 239.518 378.599 246.516C369.375 259.726 352.921 271.07 336.943 266.633C326.94 263.853 319.578 255.653 312.457 247.721C304.919 239.324 297.126 230.642 286.184 228.409C267.059 224.503 250.401 242.164 242.384 261.4C240.565 265.764 238.913 270.365 237.316 274.814C232.255 288.908 227.022 303.484 215.65 313.041C200.2 326.026 178.519 325.203 166.97 323.558C157.072 322.149 147.261 319.399 137.773 316.74C130.948 314.827 123.892 312.849 116.84 311.379C77.127 303.094 34.5799 311.45 0.00195312 332.553V333.464C34.4877 312.279 77.0075 303.862 116.685 312.134Z" fill="white"/>
<path opacity="0.53" d="M773.787 110.987C744.183 112.491 713.574 114.047 686.147 125.838C674.006 131.055 662.592 138.268 651.551 145.242C637.302 154.244 622.569 163.554 606.27 168.53C582.15 175.896 556.318 173.352 531.332 170.89C509.588 168.75 487.101 166.533 465.561 170.753C443.057 175.159 422.375 186.429 402.375 197.326C381.07 208.935 359.042 220.94 334.919 224.519C319.502 226.808 303.618 225.564 288.258 224.362C274.881 223.315 261.049 222.235 247.504 223.466C210.554 226.834 177.852 246.878 146.228 266.262C116.007 284.784 84.7611 303.937 49.7795 308.61C34.1839 310.691 18.1494 309.807 2.64597 308.951C1.7679 308.902 0.881989 308.855 0 308.806V309.67C0.866309 309.717 1.73458 309.764 2.59697 309.811C18.1415 310.668 34.2153 311.557 49.8932 309.462C85.0551 304.766 116.381 285.566 146.679 266.995C178.219 247.662 210.833 227.672 247.582 224.323C261.055 223.096 274.851 224.176 288.191 225.221C303.598 226.426 319.529 227.674 335.044 225.371C359.32 221.769 381.417 209.729 402.789 198.083C422.732 187.215 443.353 175.978 465.726 171.596C487.138 167.401 509.564 169.612 531.248 171.747C556.312 174.212 582.232 176.766 606.521 169.353C622.929 164.344 637.714 155.002 652.012 145.969C663.023 139.013 674.408 131.818 686.486 126.626C713.772 114.895 744.303 113.345 773.83 111.844C777.176 111.673 780.58 111.501 783.99 111.313V110.448C780.566 110.642 777.148 110.817 773.787 110.987Z" fill="white"/>
<path opacity="0.57" d="M21.5107 277.693C26.4459 269.904 31.5497 261.85 38.6997 255.958C53.0487 244.14 75.5551 241.498 100.453 248.712C109.904 251.45 119.198 255.239 128.188 258.902C139 263.308 150.179 267.863 161.723 270.633C186.909 276.671 209.729 271.791 222.765 257.568C225.813 254.241 228.398 250.345 230.901 246.574C235.571 239.534 239.983 232.884 247.222 229.412C258.239 224.13 272.333 227.982 289.11 240.857L290.4 241.847C302.209 250.925 315.584 261.211 330.475 259.094C344.011 257.164 352.449 246.492 361.38 235.192C367.929 226.91 374.698 218.344 383.675 213.523C401.883 203.743 422.855 211.586 443.137 219.174C462.984 226.598 483.505 234.273 502.036 226.061C513.359 221.041 521.844 210.779 530.05 200.856C540.83 187.82 551.01 175.507 566.772 175.023C578.536 174.653 588.838 181.624 598.798 188.361C601.209 189.989 603.698 191.675 606.156 193.216C619.644 201.671 637.612 205.309 647.337 194.364C650.496 190.813 652.145 186.267 653.74 181.871C654.552 179.635 655.391 177.322 656.42 175.17C664.992 157.228 686.311 150.222 703.404 149.647C715.536 149.232 727.755 151.264 739.572 153.224C746.114 154.308 752.88 155.431 759.571 156.131C768.493 157.064 776.641 157.044 783.994 156.09V155.31C776.676 156.27 768.558 156.296 759.653 155.363C752.984 154.665 746.232 153.544 739.699 152.462C727.843 150.496 715.585 148.469 703.377 148.875C686.056 149.459 664.444 156.586 655.72 174.839C654.677 177.022 653.83 179.355 653.011 181.609C651.441 185.934 649.816 190.409 646.757 193.851C637.327 204.456 619.776 200.842 606.564 192.559C604.12 191.026 601.632 189.347 599.229 187.72C589.165 180.915 578.732 173.886 566.745 174.249C550.634 174.745 540.344 187.189 529.45 200.362C521.301 210.218 512.875 220.408 501.717 225.353C483.477 233.438 463.103 225.818 443.403 218.448C422.961 210.801 401.824 202.894 383.307 212.841C374.189 217.739 367.368 226.367 360.771 234.712C351.937 245.886 343.594 256.441 330.366 258.326C315.803 260.408 302.558 250.218 290.872 241.231L289.583 240.241C272.554 227.172 258.188 223.295 246.888 228.713C239.458 232.276 234.78 239.326 230.256 246.145C227.771 249.89 225.203 253.761 222.197 257.042C209.353 271.058 186.819 275.856 161.906 269.878C150.42 267.122 139.268 262.579 128.484 258.183C119.476 254.514 110.162 250.717 100.672 247.968C75.5276 240.682 52.7625 243.375 38.2136 255.361C30.9676 261.331 25.8305 269.437 20.8639 277.279C16.1619 284.699 11.3012 292.373 4.66863 298.19C3.19669 299.48 1.62871 300.638 0.00976562 301.712V302.612C1.80902 301.447 3.55536 300.197 5.18018 298.772C11.8892 292.88 16.7793 285.16 21.5107 277.693Z" fill="white"/>
<path opacity="0.55" d="M60.9748 169.555C70.8413 163.695 78.8184 155.167 86.531 146.922C90.8155 142.341 95.245 137.608 99.9489 133.382C112.452 122.151 131.552 112.892 147.665 120.581C161.945 127.398 166.476 142.802 171.276 159.109C174.461 169.93 177.754 181.117 184.136 189.947C196.213 206.658 220.019 214.427 244.793 209.747C254.017 208.004 262.933 200.448 271.559 193.142C283.356 183.142 294.502 173.689 304.214 181.505C312.94 188.526 315.217 199.657 317.42 210.421C319.837 222.23 322.334 234.44 333.545 240.608C348.77 248.985 366.143 252.545 382.944 255.986C389.385 257.305 396.045 258.67 402.483 260.287C419.862 264.651 432.649 275.937 446.187 287.885C450.471 291.668 454.903 295.576 459.483 299.243C463.05 302.099 467.054 303.279 471.345 302.761C485.406 301.062 500.17 281.848 510.954 267.819L512.894 265.3C527.228 246.745 549.03 230.642 567.217 241.091C578.991 247.854 582.799 262.999 585.447 276.662C587.756 288.583 587.089 303.204 586.443 317.341C585.141 345.916 583.793 375.463 606.742 385.112C611.518 387.12 616.213 388.044 620.838 388.044C648.252 388.04 673.195 355.586 697.428 324.052C726.314 286.464 753.619 250.977 784 267.033V265.573C752.856 249.812 724.16 287.124 696.395 323.257C668.375 359.724 639.397 397.426 607.248 383.908C585.139 374.612 586.464 345.526 587.748 317.398C588.397 303.183 589.067 288.485 586.727 276.411C584.026 262.464 580.12 246.994 567.872 239.956C548.944 229.092 526.534 245.508 511.863 264.5L509.923 267.021C499.282 280.866 484.708 299.829 471.194 301.462C467.235 301.944 463.583 300.846 460.3 298.22C455.743 294.572 451.328 290.674 447.053 286.903C433.394 274.845 420.491 263.458 402.803 259.014C396.339 257.394 389.665 256.026 383.211 254.703C366.506 251.28 349.23 247.743 334.178 239.46C323.494 233.582 321.166 222.202 318.702 210.154C316.452 199.163 314.127 187.797 305.035 180.484C294.486 172.001 282.944 181.782 270.72 192.14C262.225 199.337 253.441 206.781 244.556 208.461C220.28 213.041 196.981 205.482 185.198 189.177C178.948 180.529 175.688 169.449 172.535 158.734C167.65 142.139 163.039 126.465 148.235 119.4C131.548 111.436 111.903 120.893 99.0866 132.406C94.3415 136.669 89.8923 141.426 85.5882 146.026C77.9365 154.205 70.026 162.662 60.3163 168.428C41.9435 179.341 20.0642 178.744 0.00976562 171.168V172.544C20.2838 180.092 42.3825 180.6 60.9748 169.555Z" fill="white"/>
<path opacity="0.55" d="M783.993 409.48C781.647 402.308 781.608 393.892 781.885 385.631C782.053 380.533 782.845 375.045 783.993 369.357V363.273C782.153 371.098 780.81 378.681 780.581 385.59C780.299 394.004 780.358 403.114 783.121 410.826H783.993V409.48Z" fill="white"/>
<path opacity="0.25" d="M773.657 251.713C731.634 235.596 685.196 245.085 641.275 257.74L640.162 258.062C617.11 264.706 593.291 271.58 571.176 263.961C556.3 258.836 544.395 247.652 532.886 236.837C530.066 234.185 527.143 231.443 524.235 228.84C476.811 186.438 410.819 165.772 347.69 173.579C310.603 178.159 274.324 192.095 239.237 205.572C186.662 225.765 137.008 244.85 83.9066 235.951C53.0879 230.793 25.6541 216.638 0.00195312 198.596V200.542C25.5522 218.392 52.8997 232.368 83.642 237.515C137.163 246.466 189.345 226.436 239.805 207.051C274.802 193.608 310.989 179.708 347.884 175.151C410.56 167.405 476.092 187.92 523.174 230.022C526.071 232.611 528.982 235.348 531.798 237.994C543.433 248.922 555.463 260.224 570.663 265.461C593.246 273.244 617.32 266.298 640.603 259.587L641.716 259.265C685.37 246.686 731.504 237.251 773.087 253.195C776.817 254.626 780.441 256.264 783.992 258.044V256.264C780.625 254.602 777.189 253.068 773.657 251.713Z" fill="white"/>
<path opacity="0.25" d="M708.183 210.291C633.829 193.39 571.509 197.014 522.963 221.065C514.437 225.291 505.997 230.296 497.832 235.139C478.101 246.844 457.694 258.949 434.846 260.637C399.112 263.279 370.586 241.676 340.334 218.809C320.858 204.086 300.717 188.862 278.375 180.533C233.063 163.642 184.024 176.524 136.602 188.988C91.0213 200.965 43.8995 213.337 0.00195312 199.366V200.873C44.172 214.756 91.3369 202.375 136.969 190.381C184.169 177.975 232.98 165.147 277.87 181.885C300.016 190.142 320.07 205.301 339.464 219.959C369.938 242.993 398.675 264.733 434.952 262.075C458.137 260.36 478.691 248.169 498.565 236.38C506.707 231.553 515.123 226.559 523.604 222.358C571.841 198.455 633.837 194.87 707.861 211.696C733.503 217.525 759.107 225.206 783.99 232.809V231.304C759.214 223.734 733.729 216.098 708.183 210.291Z" fill="white"/>
<path opacity="0.1" d="M600.141 403.68C566.29 385.805 540.412 356.265 515.388 327.698C500.025 310.16 484.14 292.028 466.466 276.59C415.413 231.994 343.115 204.233 245.442 191.719C215.156 187.838 184.173 185.394 154.211 183.028C105.705 179.2 55.5477 175.241 7.18135 165.09C4.82154 164.595 2.42252 164.067 0.00195312 163.522V164.83C2.33237 165.353 4.64514 165.859 6.92067 166.337C55.3654 176.503 105.564 180.466 154.111 184.298C184.059 186.662 215.027 189.106 245.281 192.983C342.694 205.462 414.77 233.125 465.632 277.55C483.238 292.932 499.096 311.032 514.431 328.537C539.531 357.192 565.487 386.823 599.545 404.807C603.73 407.018 607.979 409.002 612.271 410.822H615.572C610.348 408.719 605.201 406.354 600.141 403.68Z" fill="white"/>
<path opacity="0.46" d="M613.404 255.857C591.648 261.517 569.787 268.591 548.646 275.433C503.541 290.033 456.896 305.129 408.998 307.134C310.707 311.275 221.577 261.11 135.428 212.614C91.474 187.873 46.6415 162.648 0.00195312 144.113V145.773C46.3534 164.255 90.9488 189.345 134.672 213.959C221.005 262.558 310.225 312.804 409.063 308.674C457.166 306.658 503.914 291.528 549.119 276.897C570.237 270.063 592.076 262.995 613.788 257.347C669.34 242.9 726.885 237.602 783.992 240.781V239.24C726.753 236.061 669.079 241.375 613.404 255.857Z" fill="white"/>
<path opacity="0.59" d="M778.089 351.098C773.326 351.933 768.438 352.881 763.715 353.799C738.862 358.622 713.159 363.612 689.424 355.551C664.716 347.16 647.116 326.351 630.093 306.226C625.564 300.871 620.879 295.334 616.152 290.144C569.781 239.242 503.732 208.313 434.938 205.285C415.533 204.433 395.831 205.771 376.776 207.067C358.725 208.292 340.056 209.562 321.705 208.96C290.018 207.923 246.641 200.036 219.929 168.344C211.915 158.834 205.329 147.188 198.963 135.928C185.639 112.357 173.052 90.0955 148.211 84.833C129.349 80.8346 111.233 89.3527 93.7182 97.5885C85.11 101.636 76.2078 105.822 67.2625 108.525C45.0187 115.248 20.5699 111.79 0.00195312 101.024V102.183C20.7111 112.878 45.2362 116.275 67.5643 109.529C76.5841 106.804 85.5196 102.602 94.1631 98.5391C112.32 90.0014 129.468 81.9361 147.994 85.86C172.372 91.0245 184.845 113.086 198.052 136.445C204.443 147.748 211.052 159.436 219.129 169.02C246.089 201.009 289.773 208.966 321.671 210.009C340.079 210.612 358.772 209.34 376.849 208.112C395.878 206.818 415.558 205.483 434.895 206.332C503.41 209.346 569.195 240.151 615.38 290.85C620.091 296.024 624.77 301.553 629.294 306.902C646.408 327.135 664.107 348.058 689.09 356.542C713.082 364.692 738.927 359.676 763.916 354.826C768.638 353.91 773.518 352.962 778.271 352.129C780.176 351.795 782.083 351.486 783.994 351.184V350.122C782.023 350.433 780.053 350.753 778.089 351.098Z" fill="white"/>
<path opacity="0.14" d="M758.272 250.863C735.138 246.329 714.188 233.748 693.93 221.585C671.433 208.075 648.168 194.106 621.934 191.24C588.669 187.603 556.953 202.289 526.283 216.487C495.508 230.734 463.701 245.469 430.493 241.478C410.619 239.091 391.989 230.042 373.973 221.295C354.166 211.675 333.684 201.728 311.53 200.65C277.956 199.023 248.496 217.545 220.019 235.465C203.304 245.984 186.019 256.862 167.848 263.812C123.994 280.584 71.7586 276.844 3.45739 252.033C2.30689 251.615 1.15246 251.174 0.00195312 250.751V252.005C1.01918 252.38 2.04033 252.77 3.0556 253.138C43.7212 267.911 78.7244 275.239 109.69 275.239C130.946 275.239 150.305 271.784 168.268 264.912C186.547 257.921 203.883 247.013 220.644 236.463C250.269 217.82 278.297 200.227 311.472 201.826C333.386 202.892 353.758 212.786 373.458 222.355C391.562 231.145 410.282 240.238 430.352 242.649C463.872 246.686 495.849 231.875 526.775 217.559C557.3 203.429 588.871 188.816 621.802 192.414C647.782 195.25 670.931 209.154 693.322 222.598C713.671 234.816 734.707 247.449 758.044 252.023C766.786 253.736 775.429 254.289 783.989 253.93V252.746C775.502 253.103 766.931 252.558 758.272 250.863Z" fill="white"/>
<path opacity="0.36" d="M780.427 30.6124C773.675 39.0031 766.694 47.6799 759.691 55.9823C713.359 110.924 668.84 137.984 623.584 138.707C599.147 139.087 575.382 131.486 552.361 124.125C534.294 118.349 515.611 112.375 496.601 110.209C430.223 102.655 373.354 141.627 345.354 165.535C312.728 193.394 285.557 227.663 259.281 260.804C251.777 270.27 244.015 280.059 236.25 289.541C203.959 328.976 163.915 372.432 111.75 395.748C94.7767 403.335 76.8743 408.288 58.6367 410.822H63.9483C80.6668 408.078 96.8563 403.306 112.087 396.499C164.409 373.112 204.535 329.571 236.887 290.062C244.656 280.574 252.418 270.784 259.926 261.315C286.178 228.205 313.324 193.967 345.889 166.16C373.785 142.339 430.448 103.494 496.507 111.026C515.437 113.182 534.082 119.145 552.112 124.909C575.196 132.29 599.043 139.907 623.598 139.53C669.105 138.801 713.827 111.648 760.322 56.5135C767.329 48.2032 774.314 39.5244 781.07 31.1279C782.042 29.9205 783.02 28.7073 783.995 27.498V26.1848C782.803 27.6607 781.613 29.1385 780.427 30.6124Z" fill="white"/>
<path opacity="0.43" d="M742.664 298.228C737.369 301.35 731.89 304.58 726.489 307.528C713.978 314.354 670.963 334.822 642.806 311.606C633.725 304.119 628.08 293.334 622.62 282.903C620.913 279.643 619.151 276.274 617.308 273.058C598.265 239.795 564.63 214.646 527.339 205.791C490.051 196.934 448.699 204.274 416.732 225.422C415.109 226.496 413.465 227.612 411.805 228.743C398.373 237.872 384.481 247.313 369.967 242.752C360.389 239.746 354.387 231.696 348.031 223.174C344.201 218.039 340.242 212.728 335.419 208.612C316.936 192.84 291.415 197.35 266.739 201.709C243.974 205.73 220.439 209.89 201.587 198.81C193.512 194.065 186.307 186.607 179.342 179.396C166.488 166.088 154.338 153.528 137.61 157.521C129.962 159.35 123.888 164.638 118.012 169.753C112.951 174.159 107.718 178.714 101.503 181.041C86.1468 186.783 71.692 178.379 56.3846 169.479C48.2095 164.726 39.7542 159.812 31.0656 157.154C21.0384 154.095 10.4427 154.109 0.00195312 154.587V155.626C10.3663 155.147 20.8796 155.128 30.7618 158.15C39.3387 160.771 47.7391 165.655 55.8652 170.378C71.3941 179.406 86.0606 187.93 101.87 182.015C108.261 179.622 113.565 175.004 118.696 170.537C124.476 165.504 130.452 160.3 137.853 158.532C154.017 154.663 165.955 167.031 178.597 180.119C185.612 187.381 192.866 194.89 201.064 199.707C220.248 210.981 243.976 206.787 266.923 202.732C292.491 198.216 316.636 193.949 334.748 209.402C339.482 213.441 343.405 218.704 347.2 223.794C353.374 232.075 359.76 240.636 369.659 243.742C384.647 248.452 399.39 238.437 412.391 229.599C414.049 228.472 415.687 227.359 417.306 226.287C449.038 205.291 490.08 198.006 527.102 206.799C564.118 215.591 597.505 240.551 616.409 273.569C618.241 276.77 619.999 280.131 621.701 283.381C627.208 293.902 632.902 304.782 642.145 312.404C652.014 320.54 663.64 323.423 675.163 323.421C697.113 323.421 718.688 312.963 726.989 308.435C732.406 305.48 737.89 302.246 743.194 299.117C756.355 291.356 769.808 283.445 783.994 278.659V277.564C769.593 282.373 755.979 290.376 742.664 298.228Z" fill="white"/>
<path opacity="0.33" d="M680.461 315.565C665.559 307.212 650.855 297.855 636.634 288.806C610.17 271.968 582.807 254.553 553.139 242.962C485.929 216.698 404.694 218.551 311.691 248.468C310.227 248.938 308.759 249.414 307.289 249.893C290.278 255.418 272.684 261.133 254.915 259.51C217.648 256.108 190.727 222.218 169.095 194.988C150.075 171.043 127.199 144.787 96.3446 136.302C73.9087 130.132 50.1577 134.111 27.1927 137.96C18.2003 139.467 9.09232 140.986 0.00195312 141.91V142.895C9.15112 141.97 18.3101 140.442 27.3534 138.927C50.2165 135.093 73.8597 131.132 96.0839 137.247C126.654 145.653 149.403 171.774 168.327 195.597C190.075 222.974 217.14 257.046 254.824 260.486C272.797 262.131 290.486 256.38 307.591 250.825C309.061 250.347 310.527 249.871 311.991 249.401C404.776 219.556 485.792 217.696 552.782 243.875C582.36 255.433 609.682 272.82 636.106 289.633C650.34 298.69 665.055 308.053 679.982 316.42C717.773 337.601 752.588 348.481 783.992 349.022V348.062C752.762 347.517 718.096 336.661 680.461 315.565Z" fill="white"/>
<path opacity="0.46" d="M732.935 398.598C715.754 382.824 697.987 366.511 676.492 356.695C657.37 347.966 636.185 344.796 615.693 341.731C603.759 339.945 591.421 338.101 579.6 335.177C543.905 326.349 522.022 298.778 498.853 269.588C482.94 249.538 466.484 228.805 444.973 214.227C401.819 184.984 346.92 184.898 293.828 184.813C238.174 184.725 180.626 184.635 138.008 150.277C114.057 130.969 94.1239 106.732 74.8476 83.2906C61.1865 66.6778 47.061 49.5025 31.5733 34.1442C21.5186 24.1757 10.9465 15.0657 0.00195312 6.66333V8.17643C10.6466 16.3946 20.9325 25.289 30.7246 35.0007C46.1692 50.3159 60.2732 67.4677 73.9166 84.0569C93.2322 107.545 113.206 131.831 137.251 151.217C180.198 185.838 237.963 185.931 293.824 186.019C346.736 186.103 401.446 186.189 444.295 215.224C465.655 229.699 482.052 250.357 497.908 270.337C521.209 299.692 543.217 327.419 579.312 336.347C591.188 339.285 603.553 341.135 615.515 342.923C635.924 345.974 657.025 349.132 675.994 357.793C697.315 367.528 715.009 383.775 732.122 399.486C736.22 403.249 740.391 407.063 744.63 410.822H746.437C741.851 406.783 737.355 402.657 732.935 398.598Z" fill="white"/>
<path opacity="0.47" d="M6.72466 363.957L6.01318 363.706C22.2339 317.718 79.8906 305.964 103.926 303.045C114.927 301.708 126.275 300.93 137.251 300.178C166.239 298.19 196.215 296.134 222.6 283.592C242.99 273.9 260.54 258.238 277.511 243.093C299.941 223.078 323.133 202.381 352.655 196.115C370.175 192.397 388.371 194.216 405.97 195.978C420.446 197.426 435.42 198.923 449.991 197.348C485.894 193.465 516.624 171.676 546.343 150.606C575.8 129.723 606.258 108.126 641.861 103.792C651.471 102.62 661.327 102.759 670.859 102.894C681.901 103.047 693.324 103.208 704.355 101.324C724.009 97.967 745.998 84.6666 747.827 63.397L748.578 63.4616C746.714 85.1311 724.411 98.6648 704.48 102.069C693.385 103.965 681.935 103.806 670.847 103.649C661.337 103.512 651.51 103.379 641.951 104.541C606.536 108.853 576.157 130.391 546.778 151.222C516.981 172.348 486.17 194.194 450.073 198.098C435.424 199.68 420.411 198.181 405.895 196.728C388.354 194.974 370.216 193.159 352.811 196.852C323.488 203.075 300.37 223.705 278.015 243.656C261.004 258.836 243.413 274.533 222.926 284.273C196.411 296.875 166.363 298.937 137.304 300.928C126.338 301.679 115 302.457 104.018 303.792C80.1179 306.695 22.8023 318.366 6.72466 363.957Z" fill="white"/>
<path opacity="0.55" d="M67.6976 165.345C74.7006 162.932 81.9427 160.437 89.1044 158.981C125.082 151.668 159.301 169.99 192.389 187.708C223.616 204.431 255.91 221.714 290.306 218.329C304.382 216.941 317.936 212.057 331.042 207.334C341.412 203.596 352.135 199.731 363.064 197.616C407.418 189.022 450.669 208.668 492.495 227.662C502.669 232.284 513.188 237.062 523.482 241.31C573.918 262.125 628.272 272.452 682.642 272.45C716.75 272.448 750.851 268.348 783.992 260.255V259.34C698.157 280.347 605.789 274.314 523.823 240.487C513.543 236.245 503.03 231.469 492.863 226.851C450.908 207.798 407.528 188.1 362.895 196.74C351.898 198.87 341.142 202.747 330.74 206.495C317.685 211.199 304.184 216.065 290.22 217.441C256.09 220.801 223.919 203.58 192.811 186.922C159.583 169.13 125.223 150.735 88.9261 158.107C81.7075 159.575 74.436 162.08 67.4075 164.502C52.9429 169.488 37.9863 174.641 23.4021 170.56C14.2784 168.009 6.78935 162.236 0.00195312 155.349V156.605C6.71095 163.303 14.1295 168.895 23.161 171.421C38.0137 175.574 53.1036 170.374 67.6976 165.345Z" fill="white"/>
<path opacity="0.53" d="M691.785 332.833C664.495 329.207 635.763 331.88 607.975 334.464C561.721 338.766 518.043 342.829 479.886 320.595C450.469 303.453 431.352 273.502 412.865 244.54C393.845 214.742 374.179 183.93 343.274 167.04C310.39 149.071 271.41 150.251 233.717 151.398C227.093 151.6 220.243 151.806 213.586 151.902C155.203 152.746 115.601 137.903 95.8095 107.83C88.2244 96.301 83.8811 82.6634 79.6809 69.4748C74.383 52.8405 68.9049 35.6397 56.8707 22.7783C41.7886 6.66146 20.3661 1.36561 0.00195312 0.840332V1.9536C20.1113 2.47691 41.2261 7.69633 56.0514 23.5408C67.9132 36.2199 73.3541 53.2971 78.6127 69.8139C82.8364 83.0751 87.2033 96.787 94.8726 108.441C114.89 138.858 154.893 153.863 213.598 153.017C220.264 152.921 227.118 152.713 233.749 152.513C271.302 151.374 310.123 150.196 342.735 168.018C373.389 184.77 392.977 215.46 411.924 245.14C430.481 274.216 449.675 304.282 479.324 321.559C517.792 343.975 561.647 339.897 608.077 335.577C635.803 332.997 664.477 330.326 691.636 333.942C724.548 338.317 754.922 351.805 783.992 368.35V367.064C754.991 350.604 724.67 337.206 691.785 332.833Z" fill="white"/>
<path opacity="0.31" d="M772.319 158.117C758.699 160.886 749.693 172.313 740.985 183.361C732.998 193.494 724.742 203.971 712.914 207.932C696.46 213.447 680.872 205.007 664.369 196.072C649.942 188.261 635.023 180.18 619.315 182.127C603.381 184.098 591.297 195.786 579.612 207.087C568.479 217.853 556.968 228.988 542.145 231.728C523.037 235.265 505.537 223.943 488.62 212.998C472.098 202.31 455.005 191.258 436.054 193.449C418.145 195.521 404.749 208.737 391.795 221.52C380.043 233.113 367.893 245.103 352.31 249.019C330.844 254.414 311.234 243.697 290.482 232.349C273.268 222.937 255.45 213.257 236.381 213.402C211.701 213.661 191.058 230.138 171.094 246.073C149.088 263.638 128.288 280.223 102.422 277.35C83.8497 275.282 68.3248 262.966 53.3114 251.057C37.2944 238.352 20.7326 225.215 0.529194 224.695C0.350836 224.691 0.178358 224.705 0 224.703V225.722C0.168558 225.724 0.333196 225.711 0.501754 225.715C20.3642 226.224 36.7907 239.256 52.6763 251.857C67.8034 263.858 83.446 276.264 102.309 278.365C128.608 281.28 150.53 263.795 171.729 246.872C191.558 231.046 212.062 214.678 236.391 214.423C236.581 214.421 236.769 214.419 236.955 214.419C255.565 214.419 273.064 223.988 289.992 233.245C310.925 244.691 330.697 255.502 352.559 250.01C368.413 246.026 380.665 233.939 392.513 222.249C405.935 209.006 418.612 196.497 436.171 194.467C454.762 192.309 471.696 203.267 488.067 213.859C505.151 224.913 522.812 236.345 542.333 232.735C557.458 229.94 569.081 218.698 580.322 207.824C591.885 196.638 603.845 185.071 619.439 183.142C634.819 181.231 649.597 189.235 663.883 196.971C679.849 205.615 696.354 214.558 713.235 208.904C725.35 204.845 733.705 194.245 741.782 183.996C750.775 172.589 759.265 161.813 772.519 159.12C776.351 158.342 780.18 158.376 783.989 158.911V157.88C780.127 157.347 776.235 157.321 772.319 158.117Z" fill="white"/>
</svg>
