<svg width="14" height="15" viewBox="0 0 14 15" fill="none" xmlns="http://www.w3.org/2000/svg">
<circle cx="7" cy="7.5" r="7" fill="#FF383B"/>
<path d="M4.37305 4.13904V10.6356C4.37305 10.6356 4.71982 10.6541 4.92931 10.3254V3.82873C4.92931 3.82873 4.58266 3.80798 4.37305 4.13904Z" fill="white"/>
<path d="M5.54736 2.46089V9.02077C5.54736 9.02077 5.72001 9.32849 6.10363 9.32812V2.7712C6.10363 2.7712 5.93208 2.46249 5.54736 2.46089Z" fill="white"/>
<path d="M6.72168 5.01113L6.7218 11.5017C6.7218 11.5017 7.06956 11.5208 7.27807 11.1917V4.70058C7.27807 4.70058 6.94026 4.67713 6.72168 5.01113Z" fill="white"/>
<path d="M7.89612 3.33282L7.89551 9.89135C7.89551 9.89135 8.06153 10.1999 8.45239 10.2031V3.643C8.45239 3.643 8.28514 3.337 7.89612 3.33282Z" fill="white"/>
<path d="M9.0708 5.39178V11.953C9.0708 11.953 9.23756 12.2594 9.62707 12.2632L9.62743 5.70183C9.62743 5.70183 9.45785 5.39178 9.0708 5.39178Z" fill="white"/>
<path d="M6.99994 13.2939C3.81155 13.2939 1.21761 10.6946 1.21761 7.49982C1.21761 4.30504 3.81155 1.70582 6.99994 1.70582C10.1883 1.70582 12.7824 4.30504 12.7824 7.49982C12.7824 10.6946 10.1883 13.2939 6.99994 13.2939ZM11.4216 3.08248C10.8476 2.50804 10.1792 2.05702 9.43486 1.7418C8.66358 1.41541 7.84428 1.24975 6.99994 1.24975C6.15547 1.24975 5.3363 1.41541 4.56502 1.7418C3.82063 2.05702 3.15225 2.50804 2.57843 3.08248C1.39934 4.26267 0.75 5.83151 0.75 7.49982C0.75 9.16824 1.39934 10.7371 2.57843 11.9173C3.15225 12.4916 3.82063 12.9427 4.56502 13.2578C5.3363 13.5843 6.15547 13.75 6.99994 13.75C7.84428 13.75 8.66358 13.5843 9.43486 13.2578C10.1792 12.9427 10.8476 12.4916 11.4216 11.9173C12.6007 10.737 13.25 9.16824 13.25 7.49982C13.25 5.83151 12.6007 4.26267 11.4216 3.08248Z" fill="white"/>
</svg>
