<svg width="10" height="11" viewBox="0 0 10 11" fill="none" xmlns="http://www.w3.org/2000/svg">
<path d="M4 7.5H6C6.14167 7.5 6.26042 7.45208 6.35625 7.35625C6.45208 7.26042 6.5 7.14167 6.5 7V6H5.5V6.5H4.5V4.5H5.5V5H6.5V4C6.5 3.85833 6.45208 3.73958 6.35625 3.64375C6.26042 3.54792 6.14167 3.5 6 3.5H4C3.85833 3.5 3.73958 3.54792 3.64375 3.64375C3.54792 3.73958 3.5 3.85833 3.5 4V7C3.5 7.14167 3.54792 7.26042 3.64375 7.35625C3.73958 7.45208 3.85833 7.5 4 7.5ZM5 10.5C4.30833 10.5 3.65833 10.3687 3.05 10.1062C2.44167 9.84375 1.9125 9.4875 1.4625 9.0375C1.0125 8.5875 0.65625 8.05833 0.39375 7.45C0.13125 6.84167 0 6.19167 0 5.5C0 4.80833 0.13125 4.15833 0.39375 3.55C0.65625 2.94167 1.0125 2.4125 1.4625 1.9625C1.9125 1.5125 2.44167 1.15625 3.05 0.89375C3.65833 0.63125 4.30833 0.5 5 0.5C5.69167 0.5 6.34167 0.63125 6.95 0.89375C7.55833 1.15625 8.0875 1.5125 8.5375 1.9625C8.9875 2.4125 9.34375 2.94167 9.60625 3.55C9.86875 4.15833 10 4.80833 10 5.5C10 6.19167 9.86875 6.84167 9.60625 7.45C9.34375 8.05833 8.9875 8.5875 8.5375 9.0375C8.0875 9.4875 7.55833 9.84375 6.95 10.1062C6.34167 10.3687 5.69167 10.5 5 10.5ZM5 9.5C6.11667 9.5 7.0625 9.1125 7.8375 8.3375C8.6125 7.5625 9 6.61667 9 5.5C9 4.38333 8.6125 3.4375 7.8375 2.6625C7.0625 1.8875 6.11667 1.5 5 1.5C3.88333 1.5 2.9375 1.8875 2.1625 2.6625C1.3875 3.4375 1 4.38333 1 5.5C1 6.61667 1.3875 7.5625 2.1625 8.3375C2.9375 9.1125 3.88333 9.5 5 9.5Z" fill="black"/>
</svg>
