<svg width="217" height="135" viewBox="0 0 217 135" fill="none" xmlns="http://www.w3.org/2000/svg">
<path d="M84.4719 74.1992L84.4745 74.1955L84.4751 74.1946L84.4719 74.1992Z" fill="#DCDCDC"/>
<path d="M89.623 74.5397L89.6243 74.5419L89.6295 74.5442L89.623 74.5397Z" fill="#DCDCDC"/>
<path d="M73.0613 104.288L73.0633 104.286L73.0637 104.283L73.0613 104.288Z" fill="#DCDCDC"/>
<path d="M85.251 72.5718L85.2897 72.6278L85.2971 72.6237L85.304 72.616L85.251 72.5718Z" fill="#DCDCDC"/>
<path d="M60.9882 119.583L60.9876 119.58L60.9839 119.578L60.9882 119.583Z" fill="#DCDCDC"/>
<path d="M70.6273 110.633L70.6283 110.633L70.6279 110.631L70.6273 110.633Z" fill="#DCDCDC"/>
<path d="M153.152 56.6746L153.154 56.6708L153.156 56.6682L153.152 56.6746Z" fill="#DCDCDC"/>
<path d="M216.06 91.7764L216.069 91.7636L216.064 91.7645L216.06 91.7764Z" fill="#DCDCDC"/>
<path d="M69.2388 114.231L69.2396 114.23L69.2402 114.228L69.2388 114.231Z" fill="#DCDCDC"/>
<path d="M79.5684 86.6511L79.5702 86.6498L79.5708 86.6477L79.5684 86.6511Z" fill="#DCDCDC"/>
<path d="M198.461 90.9458L198.462 90.9468L198.464 90.9484L198.461 90.9458Z" fill="#DCDCDC"/>
<path d="M154.322 54.4407L154.325 54.4374L154.284 54.3818L154.322 54.4407Z" fill="#DCDCDC"/>
<path d="M197.804 90.2797C197.804 90.2797 197.79 90.3308 197.788 90.3375C197.791 90.3388 197.792 90.3413 197.795 90.3426L197.804 90.2797Z" fill="#DCDCDC"/>
<path d="M215.815 90.3168C211.471 91.0593 207.098 91.6708 202.794 92.6018C200.798 93.0334 199.518 92.5198 198.464 90.9465C198.157 90.8356 197.933 90.6314 197.788 90.3397L197.789 90.3358C197.305 90.0608 196.932 89.6718 196.639 89.2022L196.628 89.1877C195.863 88.5708 195.306 87.7737 194.73 86.9929C194.657 86.9515 194.62 86.8879 194.617 86.8033C194.324 86.6467 194.121 86.4132 194.011 86.1002C193.946 86.0802 193.918 86.0369 193.928 85.9692C193.416 85.4796 192.927 84.972 192.608 84.3268L192.616 84.3318C192.256 84.1345 192.053 83.813 191.915 83.4423L191.923 83.4453C191.455 83.0914 191.099 82.6462 190.853 82.113L190.872 82.126C189.052 80.0504 187.44 77.8148 185.855 75.5596L185.861 75.563C185.566 75.4161 185.409 75.1568 185.29 74.8647C185.218 74.8304 185.182 74.7739 185.183 74.6931C184.421 73.9373 183.813 73.0646 183.246 72.1596C183.176 72.1331 183.143 72.0814 183.148 72.0064C183.07 71.9092 182.991 71.8111 182.913 71.7138C182.839 71.6917 182.803 71.6415 182.804 71.5655C182.721 71.4653 182.64 71.3642 182.557 71.264C182.489 71.2335 182.46 71.1813 182.467 71.1068C181.718 70.3332 181.08 69.4741 180.528 68.5506C180.457 68.5171 180.424 68.4609 180.43 68.3828C179.152 66.8747 177.964 65.3023 176.967 63.5915L176.974 63.5937C176.635 63.3698 176.415 63.0587 176.302 62.6705L176.308 62.6758C175.749 62.1491 175.343 61.5128 174.985 60.8409C174.917 60.8178 174.887 60.771 174.897 60.6988C174.616 60.5116 174.435 60.2504 174.327 59.9334C174.254 59.8965 174.219 59.8379 174.224 59.7565C173.624 59.1567 173.13 58.4816 172.78 57.706L172.786 57.7012C172.451 57.4701 172.224 57.1631 172.131 56.7629L172.137 56.7681C171.752 56.4868 171.506 56.1082 171.373 55.6541L171.381 55.6517C171.095 55.4883 170.958 55.217 170.85 54.9249C170.778 54.8731 170.742 54.8037 170.741 54.7153C170.361 54.4164 170.125 54.0241 169.995 53.5639L170.003 53.5708C169.682 53.3305 169.446 53.0317 169.351 52.6346C169.285 52.6147 169.259 52.5718 169.275 52.5048C168.963 52.2283 168.706 51.9151 168.607 51.4976C168.251 51.1924 168.01 50.8113 167.858 50.3706L167.866 50.3737C167.539 50.1355 167.326 49.8187 167.218 49.4305L167.213 49.4214C166.603 48.7475 166.086 48.0126 165.722 47.1763L165.728 47.1751C165.394 46.9456 165.159 46.6456 165.067 46.2452C164.745 46.0126 164.523 45.7076 164.405 45.3266L164.401 45.3209C164.087 45.0905 163.881 44.7814 163.751 44.4192C163.681 44.3873 163.65 44.3335 163.657 44.258C163.444 44.0071 163.219 43.7657 163.02 43.504C162.051 42.2282 161.582 42.1846 160.445 43.2801C160.465 43.3669 160.441 43.44 160.374 43.4981C160.271 43.692 160.167 43.8858 160.064 44.0797C159.957 44.6312 159.729 45.1244 159.347 45.5407L159.354 45.5238C159.288 45.6349 159.222 45.745 159.155 45.8561L159.173 45.8464C159.09 46.2827 158.867 46.6385 158.545 46.9368C158.529 47.2052 158.404 47.4104 158.179 47.5553L158.184 47.5506C157.674 48.7758 157.019 49.918 156.223 50.9798L156.227 50.9735C155.97 51.7842 155.514 52.4887 155.042 53.1844L155.031 53.2056C154.999 53.4577 154.894 53.6675 154.682 53.8162C154.674 54.086 154.556 54.2926 154.326 54.4338L154.327 54.4355C154.08 55.2553 153.675 55.9915 153.156 56.6675C152.778 57.6907 152.261 58.639 151.644 59.5344L151.649 59.528C150.89 61.2986 150.005 63.004 148.998 64.6465L149.002 64.6439C148.761 65.4663 148.391 66.2228 147.878 66.9104L147.883 66.9077C147.768 67.5228 147.49 68.0618 147.106 68.5499C143.939 75.1374 140.765 81.7216 137.614 88.318C137.283 89.0115 137.009 88.7946 136.625 88.4104C135.38 87.1598 134.111 85.9338 132.873 84.6753C130.34 82.0987 127.842 79.489 125.29 76.9324C124.259 75.8994 123.699 75.9348 122.752 76.9468C117.981 82.0376 113.002 86.9196 108.029 91.8106C107.135 92.6901 106.688 92.6196 105.843 91.8317C100.269 86.6383 95.3086 80.8769 90.2799 75.1767C89.9852 75.0425 89.7751 74.8212 89.6242 74.5387C89.3717 74.4745 89.2015 74.3109 89.0808 74.0879L89.0676 74.0756C88.5376 73.6726 87.9895 73.2912 87.4804 72.8624C86.7946 72.2849 86.0846 72.1521 85.2968 72.6203C85.2243 72.7087 85.1527 72.7969 85.0812 72.886L85.0965 72.8695C85.0074 73.0314 84.9173 73.1936 84.8282 73.3555L84.8296 73.3534C84.7962 73.6689 84.6972 73.9562 84.4761 74.1919C84.4906 74.5288 84.3855 74.8182 84.1331 75.0477L84.1397 75.0392C83.9218 76.0074 83.556 76.9186 83.0711 77.7841L83.0724 77.7811C82.9366 78.3855 82.7345 78.9627 82.3738 79.474L82.3797 79.4665C82.263 80.1397 81.9961 80.7526 81.6486 81.3356C81.5347 81.6266 81.4216 81.9174 81.3076 82.2075C81.1825 82.8154 81.0099 83.4036 80.63 83.9102L80.6361 83.9036C80.4436 84.8809 80.0303 85.7725 79.5705 86.6452C79.3314 87.6027 79.0086 88.5289 78.5223 89.3919L78.5205 89.3968C78.4168 90.0117 78.2186 90.5901 77.8608 91.1072L77.8675 91.1041C77.5256 92.4228 77.065 93.6984 76.4769 94.928L76.4803 94.9218C76.4828 95.3131 76.3492 95.6608 76.1316 95.98L76.1285 95.9934C75.9972 96.597 75.8472 97.1939 75.4664 97.7006L75.4725 97.694C75.4727 98.0875 75.3417 98.4347 75.1059 98.7445L75.1031 98.7542C75.0918 99.0803 74.9858 99.3698 74.7695 99.6165C74.7963 99.7022 74.7813 99.78 74.7236 99.8492C74.511 100.405 74.2986 100.961 74.0852 101.516L74.0845 101.517C74.0015 102.051 73.8393 102.556 73.5414 103.011L73.5088 103.113C73.432 103.53 73.3491 103.945 73.0634 104.282C72.9597 104.897 72.7613 105.474 72.3992 105.988L72.4044 105.991C72.1912 106.96 71.8165 107.868 71.3411 108.735L71.3477 108.731C71.2116 109.403 70.9887 110.042 70.6271 110.628C70.5679 111.276 70.2804 111.837 69.9564 112.383C69.9819 112.452 69.9655 112.507 69.9057 112.55C69.7685 113.142 69.5771 113.712 69.2395 114.225C69.0633 114.779 68.8435 115.325 68.7206 115.89C68.523 116.8 67.9889 117.14 67.0753 117.253C65.4941 117.449 63.9349 117.814 62.3616 118.077C61.7552 118.179 61.2327 118.379 60.8682 118.894C60.9041 118.965 60.9 119.032 60.8563 119.098C60.9003 119.257 60.9434 119.417 60.9873 119.575C61.6239 120.105 62.326 119.892 63.0271 119.762C83.421 116.016 103.813 112.264 124.21 108.535C127.929 107.855 131.665 107.27 135.393 106.642C136.131 106.507 136.87 106.373 137.608 106.239C138.913 105.891 140.241 105.657 141.585 105.515C141.749 105.484 141.915 105.455 142.08 105.424C142.577 105.335 143.075 105.245 143.573 105.155C143.903 105.095 144.234 105.035 144.564 104.975C144.731 104.945 144.897 104.915 145.065 104.885C145.395 104.824 145.725 104.763 146.055 104.702C146.387 104.641 146.719 104.58 147.052 104.519C147.217 104.489 147.382 104.46 147.546 104.43C148.707 104.218 149.867 104.007 151.028 103.795C151.275 103.75 151.522 103.705 151.769 103.661C152.302 103.543 152.833 103.411 153.369 103.312C173.487 99.6274 193.606 95.9462 213.724 92.2607C214.508 92.1172 215.284 91.9276 216.063 91.7594C216.338 91.2218 216.286 90.7335 215.815 90.3168ZM123.57 78.5809C124.156 77.9046 124.459 78.516 124.76 78.8165C128.54 82.5748 132.071 86.5785 135.998 90.1909C136.368 90.5318 136.435 90.8278 136.186 91.2774C135.723 92.114 135.317 92.9816 134.802 94.0044C130.84 89.2756 126.931 84.7804 123.333 80.0276C122.817 79.3483 123.168 79.0458 123.57 78.5809ZM120.486 81.8196C121.723 80.7058 121.68 80.6278 122.692 81.989C125.976 86.4079 129.627 90.5242 133.209 94.695C133.834 95.4229 133.965 95.9773 133.461 96.7858C133.02 97.4939 132.705 98.2795 132.23 99.244C129.619 95.7875 127.148 92.5156 124.677 89.2438C123.261 87.3685 121.875 85.4701 120.413 83.6306C119.86 82.9344 119.725 82.5043 120.486 81.8196ZM84.0688 114.167C79.5159 114.995 74.9658 115.837 70.2643 116.703C70.6721 114.967 85.7088 75.7762 86.4781 74.3778C88.4045 75.6384 89.9303 77.3233 91.3884 79.0528C95.6222 84.0702 100.112 88.8428 104.926 93.3048C105.517 93.8513 105.632 94.1523 104.995 94.7528C98.3946 100.98 91.8178 107.232 85.2388 113.483C84.8974 113.806 84.5576 114.078 84.0688 114.167ZM87.915 113.492C87.8655 113.427 87.8158 113.361 87.7663 113.296C88.5899 112.541 89.4171 111.789 90.235 111.027C90.492 110.787 90.7244 110.722 90.9839 111.013C91.4488 111.534 92.0345 111.956 92.4023 112.667C90.8504 112.952 89.3827 113.222 87.915 113.492ZM97.0533 111.884C94.147 112.469 94.0823 112.43 92.2545 110.055C91.9643 109.678 91.9522 109.477 92.2694 109.112C93.9151 107.215 93.9882 107.204 95.5993 109.084C96.3022 109.904 97.0121 110.716 97.8546 111.688C97.4475 111.789 97.2519 111.845 97.0533 111.884ZM102.283 110.892C100.584 111.524 99.1895 111.352 98.136 109.638C97.5306 108.652 96.6689 107.82 95.8982 106.94C94.8953 105.793 96.2743 105.598 96.6646 105.034C97.1727 104.299 97.4905 104.941 97.7894 105.287C99.3435 107.081 100.884 108.886 102.49 110.757C102.346 110.851 102.317 110.879 102.283 110.892ZM102.456 108.306C101.484 106.853 100.232 105.581 99.0528 104.275C98.4849 103.647 98.4517 103.243 99.1412 102.658C100.567 101.449 100.543 101.403 101.809 102.828C103.833 105.11 105.845 107.403 107.876 109.706C105.538 110.919 103.853 110.394 102.456 108.306ZM107.643 107.058C105.891 105.029 104.164 102.979 102.363 100.996C101.842 100.422 101.789 100.081 102.413 99.6226C102.749 99.3768 103.034 99.0607 103.329 98.7638C103.561 98.5297 103.764 98.41 104.031 98.7315C106.943 102.234 110.329 105.298 113.492 108.795C109.9 109.676 109.902 109.675 107.643 107.058ZM119.648 107.715C115.574 108.624 115.566 108.632 112.708 105.599C110.347 103.094 107.929 100.646 105.633 98.0767C104.45 96.7533 105.907 96.517 106.316 95.8614C106.816 95.059 107.271 95.485 107.775 95.9615C111.679 99.6566 115.603 103.33 119.52 107.012C119.667 107.15 119.796 107.309 120.021 107.552C119.795 107.652 119.725 107.698 119.648 107.715ZM120.831 105.898C116.93 102.146 112.978 98.4473 108.999 94.7759C108.334 94.1625 108.326 93.8463 108.966 93.2306C110.857 91.4143 110.835 91.3845 112.477 93.3875C116.093 97.7976 119.667 102.245 123.71 106.282C123.848 106.42 123.949 106.593 124.071 106.755C122.601 107.669 121.784 106.815 120.831 105.898ZM127.923 106.199C127.799 106.222 127.675 106.244 127.364 106.302C126.506 106.768 125.873 106.306 125.116 105.522C120.644 100.895 116.69 95.8341 112.616 90.8715C112.185 90.3468 112.243 90.0497 112.699 89.638C113.538 88.8802 114.288 87.544 115.181 87.451C116.167 87.3481 116.623 88.9362 117.29 89.7919C121.077 94.6609 124.809 99.573 128.579 104.455C129.681 105.88 129.706 105.869 127.923 106.199ZM123.007 94.5635C121.166 92.1212 119.396 89.6236 117.516 87.2122C116.744 86.2213 116.553 85.4501 117.695 84.6649C117.966 84.4787 118.181 84.212 118.462 83.9434C122.734 89.5094 126.915 94.9647 131.108 100.412C131.366 100.747 131.44 101.016 131.226 101.416C130.832 102.15 130.504 102.921 130.069 103.847C127.654 100.675 125.317 97.6288 123.007 94.5635ZM134.344 104.764C134.172 105.484 132.73 105.203 131.874 105.467C131.756 105.504 131.625 105.496 131.332 105.524C131.679 104.376 132.153 103.458 132.687 102.496C133.333 103.277 134.523 104.009 134.344 104.764ZM140.212 103.937C136.215 104.723 136.219 104.72 133.85 101.335C133.619 101.004 133.441 100.732 133.653 100.314C134.164 99.3106 134.643 98.2905 135.205 97.1327C137.181 99.3599 139.052 101.47 141.095 103.773C140.622 103.862 140.417 103.897 140.212 103.937ZM143.64 103.321C143.048 103.446 142.705 103.23 142.345 102.812C140.536 100.711 138.726 98.6112 136.872 96.5511C136.195 95.7998 136.085 95.1767 136.599 94.2345C137.808 92.0146 137.74 91.9907 139.547 93.6979C142.234 96.2379 144.937 98.7613 147.627 101.298C147.922 101.577 148.174 101.902 148.612 102.391C146.775 102.73 145.2 102.992 143.64 103.321ZM197.273 93.5125C182.086 96.2861 166.897 99.0429 151.712 101.831C150.919 101.976 150.478 101.814 149.911 101.196C146.755 97.7546 143.178 94.7452 139.775 91.5572C138.824 90.6652 138.676 90.0216 139.271 88.8082C145.184 76.7322 150.833 64.5245 157.343 52.7486C158.78 50.15 160.273 47.5814 161.852 44.8029C173.182 61.6553 184.534 78.276 198.152 93.3233C198.037 93.5448 197.609 93.4507 197.273 93.5125Z" fill="#DCDCDC"/>
<path d="M215.812 90.3127L215.815 90.3162L215.817 90.3158L215.812 90.3127Z" fill="#DCDCDC"/>
<path d="M154.679 53.8225L154.681 53.8197L154.682 53.818L154.679 53.8225Z" fill="#DCDCDC"/>
<path d="M158.544 46.9417L158.544 46.9405L158.545 46.9403L158.544 46.9417Z" fill="#DCDCDC"/>
<path d="M168.604 51.4989L168.604 51.5005L168.606 51.5025L168.604 51.4989Z" fill="#DCDCDC"/>
<path d="M165.064 46.2473L165.065 46.2481L165.068 46.2508L165.064 46.2473Z" fill="#DCDCDC"/>
<path d="M71.794 80.4267L71.7979 80.4233L71.7559 80.3688L71.794 80.4267Z" fill="#DCDCDC"/>
<path d="M72.1586 79.8134L72.1621 79.8103L72.1624 79.8078L72.1586 79.8134Z" fill="#DCDCDC"/>
<path d="M64.366 93.0921L64.3707 93.0876L64.3232 93.0387L64.366 93.0921Z" fill="#DCDCDC"/>
<path d="M68.9873 84.9956L69.0428 85.0385L69.0451 85.0362L69.0466 85.0341L68.9873 84.9956Z" fill="#DCDCDC"/>
<path d="M66.6766 89.0478L66.6795 89.0456L66.6805 89.0422L66.6766 89.0478Z" fill="#DCDCDC"/>
<path d="M81.5425 63.7235L81.5479 63.7176L81.5478 63.7169L81.5425 63.7235Z" fill="#DCDCDC"/>
<path d="M82.4429 60.4413L82.4449 60.4409L82.4463 60.4376L82.4429 60.4413Z" fill="#DCDCDC"/>
<path d="M77.8032 70.0978C77.8032 70.0978 77.8924 70.0951 77.9006 70.0945C77.902 70.0924 77.9033 70.0894 77.9047 70.0873L77.8032 70.0978Z" fill="#DCDCDC"/>
<path d="M74.9096 75.2028L74.9123 75.1999L74.9134 75.1973L74.9096 75.2028Z" fill="#DCDCDC"/>
<path d="M72.9121 78.3976L72.9901 78.4235L72.995 78.4153L72.9121 78.3976Z" fill="#DCDCDC"/>
<path d="M64.8021 95.9901L64.7986 95.9932L64.7981 95.9949L64.8021 95.9901Z" fill="#DCDCDC"/>
<path d="M72.6392 82.7423L72.6374 82.7437L72.6376 82.7446L72.6392 82.7423Z" fill="#DCDCDC"/>
<path d="M69.4881 87.9412L69.4862 87.9439L69.4843 87.9467L69.4881 87.9412Z" fill="#DCDCDC"/>
<path d="M69.1109 88.5499L69.1085 88.5534L69.1086 88.5544L69.1109 88.5499Z" fill="#DCDCDC"/>
<path d="M88.6961 63.8948L88.6725 63.9604L88.6775 63.9623L88.6961 63.8948Z" fill="#DCDCDC"/>
<path d="M155.992 41.7102L155.99 41.7131L155.989 41.7141L155.992 41.7102Z" fill="#DCDCDC"/>
<path d="M66.7574 92.5645L66.7555 92.5673L66.753 92.571L66.7574 92.5645Z" fill="#DCDCDC"/>
<path d="M64.0172 97.406L64.0157 97.4081L64.0104 97.4191L64.0172 97.406Z" fill="#DCDCDC"/>
<path d="M58.8618 99.7219L58.9173 99.7547L58.9171 99.7538L58.9218 99.7447L58.8618 99.7219Z" fill="#DCDCDC"/>
<path d="M62.9033 99.4553L62.9025 99.4564L62.9027 99.4574L62.9033 99.4553Z" fill="#DCDCDC"/>
<path d="M64.438 96.6089L64.437 96.6091L64.4372 96.6101L64.438 96.6089Z" fill="#DCDCDC"/>
<path d="M154.055 45.1451L154.05 45.1516L154.055 45.1451Z" fill="#DCDCDC"/>
<path d="M143.501 60.001L143.504 59.9981L143.505 59.9955L143.501 60.001Z" fill="#DCDCDC"/>
<path d="M137.692 70.3122L137.693 70.3103L137.696 70.3049L137.692 70.3122Z" fill="#DCDCDC"/>
<path d="M153.182 42.8174L153.185 42.8136L153.187 42.81L153.182 42.8174Z" fill="#DCDCDC"/>
<path d="M134.933 72.3561L134.935 72.3581L134.939 72.3591L134.933 72.3561Z" fill="#DCDCDC"/>
<path d="M147.375 53.1285L147.377 53.1256L147.378 53.1222L147.375 53.1285Z" fill="#DCDCDC"/>
<path d="M161.542 31.2673C161.131 30.6839 160.548 30.5534 159.897 30.6796C159.496 30.7572 159.108 30.9047 158.714 31.0212L158.72 31.01C158.446 31.3981 158.174 31.787 157.9 32.1751C157.953 33.2564 158.518 34.4162 157.42 35.3214L157.419 35.3234C157.39 35.5823 157.276 35.791 157.059 35.939C156.801 36.6875 156.421 37.3662 155.906 37.9681L155.913 37.9594C155.881 38.2848 155.751 38.5586 155.488 38.7608L155.487 38.7619C155.455 39.0195 155.34 39.2284 155.122 39.3756C154.851 40.1165 154.486 40.8034 153.966 41.4026L153.973 41.395C153.954 41.7278 153.794 41.9816 153.541 42.1866L153.537 42.1946C153.519 42.4578 153.403 42.6641 153.186 42.8139C152.921 43.5711 152.523 44.254 152.023 44.8787C152.044 44.9555 152.019 45.013 151.951 45.0522C151.813 45.5095 151.588 45.9144 151.25 46.2541L151.253 46.2497C150.851 47.2582 150.287 48.1758 149.675 49.0665L149.672 49.0726C149.644 49.3395 149.527 49.5551 149.307 49.7127C149.217 49.8785 149.128 50.0442 149.037 50.2091C148.845 50.7708 148.575 51.2864 148.155 51.7152L148.163 51.7046C148.147 52.038 148.001 52.3019 147.736 52.5017L147.733 52.5078C147.699 52.7621 147.598 52.9784 147.378 53.1251C146.959 54.177 146.363 55.1297 145.747 56.0716L145.724 56.1178C145.627 56.273 145.531 56.427 145.434 56.5822C145.348 56.7491 145.261 56.9171 145.174 57.0842C144.986 57.6505 144.686 58.1496 144.282 58.5875L144.29 58.5685C144.233 58.6833 144.176 58.7983 144.119 58.913L144.138 58.8958C144.049 59.056 143.958 59.2155 143.869 59.3757L143.865 59.3837C143.842 59.6459 143.724 59.8508 143.504 59.9965C143.109 61.0065 142.545 61.9223 141.929 62.8091L141.924 62.8182C141.902 63.0859 141.781 63.2976 141.564 63.4548C141.473 63.6234 141.383 63.791 141.293 63.9597C140.949 64.7734 140.525 65.5426 139.998 66.2529L139.995 66.258C139.571 67.1855 139.124 68.099 138.478 68.8997L138.485 68.8911C138.359 69.4406 138.067 69.898 137.695 70.3098C137.348 70.974 137.012 71.6437 136.653 72.3002C135.936 73.614 135.929 73.6116 134.936 72.3565C134.712 72.3199 134.617 72.1471 134.527 71.9697C134.526 71.9698 134.55 71.9773 134.55 71.9773C134.466 71.8829 134.382 71.7877 134.298 71.6925L134.307 71.7027C134.005 71.5669 133.774 71.3643 133.671 71.0382L133.676 71.0418C133.157 70.6953 132.757 70.2355 132.416 69.7188C131.911 69.3626 131.493 68.9214 131.156 68.4043L131.154 68.4028C130.631 68.0689 130.218 67.6241 129.871 67.116C129.56 67.005 129.346 66.7899 129.205 66.4964L129.214 66.5011C128.727 66.2275 128.325 65.8642 128.027 65.3891C126.989 64.8728 127.475 63.7572 127.083 62.9875L127.079 62.9835C126.76 62.7183 126.441 62.453 126.123 62.1886C125.343 62.0192 124.636 62.2491 123.95 62.5879L123.958 62.5755C123.809 62.764 123.66 62.9526 123.511 63.141C123.406 63.5019 123.301 63.8634 123.195 64.2243C123.674 65.3982 122.807 65.9113 122.081 66.4934C122.035 66.7152 121.871 66.8195 121.68 66.8969L121.698 66.8661C121.608 66.9558 121.518 67.0457 121.428 67.1355L121.434 67.1297C121.301 67.4261 121.092 67.6467 120.796 67.7845L120.8 67.7773C119.664 69.117 118.497 70.4258 117.158 71.572C116.894 72.0646 116.515 72.4483 116.043 72.7448C115.716 73.2754 115.264 73.681 114.758 74.0341L114.761 74.028C114.432 74.5655 113.979 74.9756 113.443 75.2969L113.447 75.2897C113.119 75.8279 112.657 76.2269 112.13 76.5591L112.133 76.5549C111.347 77.3579 110.661 78.3142 109.746 78.9223C108.707 79.6114 107.609 79.2958 106.725 78.3665C106.355 77.9771 105.924 77.6457 105.52 77.288C105.265 77.2288 105.073 77.0866 104.953 76.8516C104.701 76.7898 104.509 76.6515 104.389 76.4182L104.383 76.4128C104.142 76.3565 103.957 76.2287 103.846 76.0028C103.773 75.9952 103.734 75.954 103.727 75.8811C102.846 75.3331 102.017 74.7197 101.308 73.958C101.049 73.9022 100.861 73.7538 100.738 73.5201L100.744 73.5238C99.4513 72.6543 98.2162 71.713 97.0934 70.6312C96.8367 70.5741 96.6501 70.4254 96.5292 70.1914C96.2713 70.1382 96.0885 69.9852 95.9624 69.7577L95.9613 69.7569C95.7097 69.7026 95.5312 69.5534 95.4087 69.3306C95.1802 69.1485 94.9515 68.9654 94.7221 68.7835C94.056 68.3524 93.3752 67.9406 92.88 67.2996C92.2777 67.0206 91.791 66.5895 91.3293 66.1254C91.3295 66.1263 91.317 66.0983 91.317 66.0983C91.2242 66.0221 91.1316 65.9467 91.0382 65.8715L91.1125 65.7882L91.0317 65.8663C90.1935 65.2958 89.3402 64.7427 88.6704 63.9636C88.3958 63.9236 88.2123 63.7624 88.0869 63.5238C87.8471 63.459 87.653 63.3346 87.5386 63.1058C86.6762 62.5535 85.8864 62.0318 85.5385 60.9033C85.2592 59.9983 84.2071 60.085 83.3816 60.1354C83.0632 60.1556 82.755 60.336 82.4425 60.443C82.0268 61.0385 81.7275 61.6547 81.9933 62.412C82.1842 62.9562 81.9396 63.3674 81.5469 63.7198C81.2922 64.5337 80.8216 65.2281 80.3428 65.9186L80.3298 65.942C80.1787 66.4037 79.9648 66.8275 79.5964 67.158L79.6007 67.1517C79.1895 68.2233 78.5589 69.1678 77.9018 70.097L77.8972 70.0969C77.807 70.2535 77.716 70.4103 77.6259 70.567L77.6245 70.5691C77.5962 70.8379 77.4626 71.0419 77.2411 71.1907C77.1516 71.3609 77.0621 71.5312 76.9727 71.7014C76.4907 72.7119 75.9789 73.7049 75.2857 74.5923L75.2851 74.5942C75.2503 74.8523 75.1359 75.061 74.9111 75.2022C74.4342 76.3746 73.7063 77.3965 72.9907 78.4262L72.9888 78.4256C72.9333 78.5319 72.8787 78.6381 72.8242 78.7443C72.8252 78.745 72.8312 78.7475 72.8312 78.7475C72.7339 78.9 72.6357 79.0526 72.5384 79.2051L72.5376 79.2062C72.4925 79.4579 72.3926 79.6759 72.1624 79.8125C72.1271 80.068 72.0128 80.2776 71.7975 80.4252L71.7987 80.4268C71.1304 81.8368 70.3229 83.1626 69.4086 84.4247L69.4107 84.4216C69.3798 84.6808 69.2615 84.8884 69.0458 85.0389C68.5022 86.2419 67.8069 87.3566 67.053 88.4364L67.0516 88.4385C67.0075 88.691 66.9064 88.9073 66.6805 89.0477C66.2626 90.1031 65.6305 91.0387 65.0349 91.9941L65.0171 92.0267C64.9212 92.1771 64.8262 92.3273 64.7305 92.4785L64.7333 92.4734C64.7216 92.7429 64.6012 92.949 64.3708 93.0894C63.9857 94.1094 63.4401 95.0428 62.8085 95.9271L62.8128 95.9208C62.408 96.928 61.9151 97.8892 61.2942 98.7815L61.2963 98.783C61.2841 99.1541 61.1079 99.2909 60.7371 99.2054C60.0286 99.0412 59.4716 99.401 58.9166 99.7568C58.788 100.038 58.6587 100.32 58.5301 100.6C58.5808 100.9 58.6313 101.2 58.6812 101.5C59.5704 103.172 60.2444 103.557 61.4183 103.088C62.1456 102.797 62.4499 102.164 62.7505 101.52L62.7431 101.53C62.7284 100.834 62.155 100.096 62.9017 99.4593C63.148 98.7092 63.5233 98.0286 64.0136 97.4111C64.0638 97.3012 64.1133 97.1923 64.1625 97.0817C64.1624 97.0808 64.1532 97.0806 64.1532 97.0806C64.247 96.9242 64.341 96.7687 64.4357 96.6122C64.4577 96.3491 64.5914 96.1506 64.7973 95.9964C65.1869 94.981 65.7746 94.0774 66.3787 93.1827L66.3807 93.1786C66.4062 92.9149 66.5392 92.7174 66.7536 92.5699C67.391 91.1455 68.2129 89.829 69.1059 88.5552C69.1414 88.2961 69.2732 88.097 69.4843 87.9464C70.1371 86.5311 70.9985 85.2402 71.8713 83.9564L71.8746 83.9494C72.0247 83.4825 72.2785 83.0815 72.6359 82.7457C73.0024 81.784 73.5638 80.9364 74.1778 80.1204L74.1721 80.1343C74.2407 80.0246 74.3085 79.916 74.3771 79.8064L74.3542 79.8307C74.4435 79.6697 74.5328 79.5086 74.623 79.3474L74.6286 79.3381C74.7813 78.8652 75.034 78.4534 75.3922 78.1074C78.0723 73.4475 80.7362 68.7795 83.445 64.1363C83.9444 63.28 84.6635 63.1192 85.5339 63.8101C92.4801 69.3218 99.442 74.8151 106.402 80.3096C106.736 80.573 107.045 80.8046 107.081 81.2975C107.149 82.2104 107.652 82.8124 108.591 82.8426C109.65 82.8773 110.508 82.257 110.604 81.2894C110.715 80.1568 111.416 79.6013 112.098 78.9458C112.884 78.1885 113.703 77.4639 114.475 76.692C117.741 73.4251 120.997 70.1464 124.253 66.8695C125.248 65.868 126.055 65.8511 127.006 66.7194C129.398 68.9038 131.502 71.3644 133.776 73.6621C134.242 74.1328 134.491 74.5967 134.493 75.302C134.496 76.3979 135.414 77.1248 136.405 76.9771C137.378 76.8318 138.211 75.8207 137.915 74.8748C137.677 74.1124 137.906 73.596 138.256 73.0107C138.73 72.217 139.168 71.4022 139.625 70.5977C142.489 65.558 145.354 60.518 148.218 55.4781C148.704 54.3626 149.283 53.2996 150 52.3145C150.055 52.2239 150.11 52.1331 150.165 52.0425C150.206 51.7174 150.347 51.446 150.597 51.2325L150.601 51.2225C150.662 51.1207 150.722 51.019 150.783 50.9172L150.78 50.9214C151.148 50.0976 151.522 49.2765 152.123 48.5872L152.116 48.5949C152.318 47.7963 152.822 47.1634 153.268 46.4992C153.249 46.4313 153.271 46.3823 153.334 46.3524C153.466 46.1177 153.597 45.882 153.728 45.6475L153.769 45.5603C153.863 45.4249 153.957 45.2904 154.051 45.155C154.277 44.3702 154.744 43.7186 155.201 43.0614C155.186 42.99 155.212 42.9405 155.28 42.9124C155.31 42.6697 155.407 42.4643 155.619 42.3273L155.619 42.3263C155.645 42.0634 155.77 41.8611 155.99 41.7172C156.121 41.1722 156.387 40.7031 156.777 40.3027L156.773 40.3116C156.838 40.2037 156.903 40.0964 156.967 39.9885L156.951 40.0098C157.014 39.8976 157.075 39.7855 157.138 39.6733L157.124 39.6851C157.786 38.2039 158.609 36.8122 159.491 35.4535C159.511 35.1844 159.646 34.9864 159.869 34.8438L159.868 34.8468C160.033 34.4118 160.414 34.3059 160.812 34.2243C160.858 34.1629 160.919 34.1315 160.995 34.1311C161.223 33.844 161.506 33.5858 161.667 33.2651C161.999 32.5898 161.991 31.9067 161.542 31.2673Z" fill="#DCDCDC"/>
<path d="M157.895 32.1852L157.901 32.1759L157.901 32.1749L157.895 32.1852Z" fill="#DCDCDC"/>
<path d="M157.054 35.9419L157.057 35.939L157.058 35.9373L157.054 35.9419Z" fill="#DCDCDC"/>
<path d="M155.118 39.3784L155.121 39.3759L155.122 39.3748L155.118 39.3784Z" fill="#DCDCDC"/>
<path d="M117.151 71.5788L117.158 71.5709L117.163 71.5647L117.151 71.5788Z" fill="#DCDCDC"/>
<path d="M116.042 72.7453L116.044 72.7439L116.045 72.7416L116.042 72.7453Z" fill="#DCDCDC"/>
<path d="M105.554 77.2313L105.518 77.2829L105.52 77.2852L105.522 77.2858L105.554 77.2313Z" fill="#DCDCDC"/>
<path d="M122.08 66.4949L122.081 66.4935L122.082 66.4914L122.08 66.4949Z" fill="#DCDCDC"/>
<path d="M104.951 76.8464L104.953 76.8485L104.956 76.8495L104.951 76.8464Z" fill="#DCDCDC"/>
<path d="M129.87 67.1169L129.871 67.1177L129.874 67.1203L129.87 67.1169Z" fill="#DCDCDC"/>
<path d="M96.5273 70.1863L96.5286 70.1885L96.5329 70.1901L96.5273 70.1863Z" fill="#DCDCDC"/>
<path d="M126.113 62.1794L126.123 62.1877L126.125 62.1881L126.113 62.1794Z" fill="#DCDCDC"/>
<path d="M123.51 63.1422L123.511 63.1411L123.511 63.1401L123.51 63.1422Z" fill="#DCDCDC"/>
<path d="M38.026 97.8377C38.0225 97.8338 38.0219 97.8303 38.0184 97.8263C38.0156 97.8259 38.0131 97.8273 38.0103 97.8269L38.026 97.8377Z" fill="#DCDCDC"/>
<path d="M36.7663 88.3343L36.7657 88.3308C36.7616 88.3288 36.7579 88.3285 36.7539 88.3265L36.7663 88.3343Z" fill="#DCDCDC"/>
<path d="M55.2809 122.399L55.2885 122.386C55.2868 122.386 55.2859 122.386 55.2841 122.387C55.2832 122.391 55.2829 122.395 55.2809 122.399Z" fill="#DCDCDC"/>
<path d="M40.8534 113.338C40.8551 113.337 40.8578 113.337 40.8578 113.337C40.8605 113.332 40.8606 113.327 40.8635 113.323L40.8534 113.338Z" fill="#DCDCDC"/>
<path d="M36.5583 87.3808L36.5604 87.3787L36.56 87.3764L36.5583 87.3808Z" fill="#DCDCDC"/>
<path d="M54.0442 120.901C52.3129 121.231 50.5868 121.599 48.8752 122.016C48.1448 122.194 47.8249 122.073 47.6944 121.275C47.3222 118.996 46.8914 116.727 46.4431 114.462C46.3179 113.827 46.4607 113.528 47.1281 113.445C47.8761 113.352 48.6155 113.177 49.3576 113.037C49.8156 112.95 50.1701 112.733 50.1113 112.21C50.0484 111.645 49.6562 111.419 49.1246 111.499C48.3786 111.613 47.6267 111.729 46.9008 111.928C46.1784 112.125 45.9505 111.857 45.8384 111.174C45.5258 109.268 45.1802 107.367 44.7853 105.476C44.6332 104.75 44.8582 104.476 45.5567 104.417C46.0981 104.37 46.6392 104.272 47.1701 104.153C47.6017 104.056 47.7797 103.736 47.727 103.301C47.6741 102.859 47.4229 102.623 46.9725 102.628C46.7633 102.63 46.5533 102.643 46.3448 102.664C44.3255 102.871 44.3248 102.872 43.945 100.82C43.7615 99.8291 43.6308 98.8262 43.3895 97.8492C43.1848 97.0211 43.3519 96.5766 44.272 96.5087C44.812 96.4687 45.3444 96.313 45.8799 96.2089C45.8906 96.1383 45.9315 96.1069 46.0024 96.114C46.1326 95.7871 46.2703 95.4615 46.2037 95.0949C46.1368 95.0697 46.1107 95.0223 46.1271 94.9525C45.3434 94.469 44.5749 94.8585 43.8266 95.0394C43.1291 95.2081 42.8648 95.0152 42.7502 94.3087C42.4292 92.3277 42.1014 90.3443 41.657 88.3888C41.4189 87.3398 41.7721 86.9169 42.7458 86.7769C43.1996 86.7116 43.6438 86.584 44.0924 86.4849C44.2362 86.2919 44.3799 86.0979 44.5246 85.9047C44.4708 85.6574 44.417 85.4101 44.3632 85.1628C43.5528 84.773 42.7949 85.1799 42.0388 85.3585C41.4222 85.5041 41.1196 85.4363 41.0116 84.7359C40.7746 83.2007 40.4866 81.6722 40.1742 80.15C40.043 79.5124 40.2289 79.2292 40.8675 79.1088C41.4397 79.0007 41.99 78.773 42.55 78.5985C42.9715 78.4668 43.1909 78.1821 43.0929 77.7443C42.9826 77.2548 42.6252 77.069 42.1444 77.1319C41.8959 77.1639 41.6475 77.2216 41.4075 77.2951C39.7602 77.798 39.7589 77.801 39.4596 76.1611C39.196 74.715 38.9832 73.2569 38.6573 71.825C38.4751 71.0248 38.6807 70.6455 39.4845 70.5322C39.8557 70.4803 40.2146 70.3419 40.5783 70.2392C41.7051 69.9219 41.7854 69.5977 40.9828 68.6097C40.918 68.65 40.8568 68.6457 40.7984 68.597C38.1948 69.1754 38.1939 69.1756 37.71 66.5235C37.515 65.4547 37.3726 64.3735 37.1128 63.3212C36.9 62.4588 37.1543 62.0953 38.0287 62.013C38.5137 61.9676 38.9836 61.7556 39.4606 61.6174C39.5593 61.1993 39.4959 60.8055 39.2759 60.436C39.1443 60.3824 39.0127 60.3288 38.8811 60.2753C38.6701 60.2922 38.4592 60.31 38.2481 60.3269C36.4581 60.7903 36.4581 60.7903 36.3237 58.3612C36.0085 56.6501 35.6935 54.9398 35.3774 53.2288C35.1494 52.9203 34.9204 52.611 34.6922 52.3016C34.3852 52.3691 34.0782 52.4366 33.7713 52.5041L33.7797 52.4806C33.7084 52.5999 33.6368 52.7184 33.5653 52.8368C33.5963 52.9061 33.5824 52.9645 33.5225 53.0122C33.9521 55.3594 34.389 57.7062 34.8071 60.0555C34.8868 60.5031 35.2015 61.1187 34.291 61.0997L34.2937 61.0946C33.7161 61.5214 32.8791 61.3497 32.3671 61.9291L32.363 61.9418C32.4429 62.2566 32.523 62.5722 32.6039 62.8868C32.8911 62.9108 33.1818 62.9735 33.4647 62.9488C35.3133 62.7886 35.313 62.7823 35.6452 64.5809C35.8887 65.9025 36.0768 67.2371 36.3956 68.5403C36.6156 69.4416 36.2939 69.7077 35.4611 69.8419C34.5818 69.9828 33.5675 69.8822 32.9702 70.7986L32.9682 70.8173C33.0275 71.0599 33.0875 71.3014 33.1467 71.5431C34.1265 71.953 35.0316 71.4257 35.9558 71.2756C36.6632 71.1608 36.9228 71.3327 37.0339 72.0353C37.3094 73.7748 37.6211 75.5113 37.9912 77.2324C38.1501 77.9711 37.8795 78.2012 37.2215 78.316C36.7312 78.4018 36.2573 78.597 35.783 78.7649C35.2762 78.9452 35.0151 79.3164 35.2029 79.8392C35.3794 80.3302 35.7965 80.3239 36.2529 80.2224C38.4327 79.7386 38.434 79.7456 38.8401 81.9407C39.0386 83.0134 39.1914 84.0964 39.4477 85.1548C39.6422 85.9574 39.3747 86.2986 38.6013 86.4777C37.877 86.645 37.1475 86.8681 36.5603 87.3772C36.6287 87.694 36.6963 88.0111 36.7647 88.328C37.5559 88.6829 38.2244 88.1928 38.9175 87.9754C39.6182 87.7548 39.9705 87.8144 40.1005 88.659C40.4055 90.6475 40.7642 92.6298 41.194 94.5953C41.3925 95.5042 41.0703 95.8171 40.2416 95.9094C39.7017 95.9694 39.1663 96.0891 38.6377 96.2203C37.6784 96.4584 37.3624 96.9641 38.0188 97.8244C38.9113 97.8549 39.7575 97.5792 40.6028 97.3686C41.3843 97.1743 41.7392 97.3221 41.8558 98.1784C42.047 99.5893 42.3033 100.996 42.6273 102.382C42.8227 103.219 42.523 103.46 41.7556 103.627C40.9266 103.807 39.7539 103.781 40.0417 105.224C40.1658 105.307 40.2899 105.389 40.4131 105.472C43.0874 104.979 43.0874 104.979 43.5751 107.622C43.8029 108.859 43.9584 110.115 44.2803 111.326C44.537 112.292 44.1153 112.611 43.3055 112.782C42.4877 112.953 41.6746 113.15 40.8594 113.336C40.575 113.879 40.6332 114.358 41.1305 114.757C41.2043 114.731 41.2743 114.738 41.3413 114.779C42.2029 114.592 43.0749 114.441 43.9229 114.206C44.5881 114.021 44.8135 114.256 44.9229 114.889C45.3156 117.165 45.729 119.439 46.1802 121.705C46.3161 122.388 46.0481 122.583 45.4392 122.686C43.6171 122.995 41.8022 123.348 39.9854 123.686C39.3668 123.801 38.7362 123.891 38.2657 124.377C38.2943 124.448 38.2796 124.507 38.2208 124.556C38.3316 125.619 39.0103 125.692 39.8588 125.518C44.9998 124.47 50.1423 123.429 55.2853 122.386C55.7206 121.093 55.3759 120.647 54.0442 120.901Z" fill="#DCDCDC"/>
<path d="M39.2739 60.4329L39.2756 60.4366L39.2865 60.4407L39.2739 60.4329Z" fill="#DCDCDC"/>
<path d="M39.4701 61.6139C39.4666 61.6146 39.4632 61.6161 39.4589 61.6178C39.4578 61.6217 39.4578 61.6263 39.4575 61.63L39.4701 61.6139Z" fill="#DCDCDC"/>
<path d="M34.6875 52.2942L34.6931 52.3023L34.6989 52.3012L34.6875 52.2942Z" fill="#DCDCDC"/>
<path d="M33.1495 71.5501L33.1474 71.5444L33.1377 71.5411L33.1495 71.5501Z" fill="#DCDCDC"/>
<path d="M32.606 62.8965C32.6055 62.8938 32.6048 62.8903 32.6035 62.8878C32.5998 62.8875 32.5959 62.8864 32.5913 62.8864L32.606 62.8965Z" fill="#DCDCDC"/>
<path d="M53.0321 132.565L53.0399 132.548L53.0382 132.548C53.0365 132.554 53.0346 132.559 53.0321 132.565Z" fill="#DCDCDC"/>
<path d="M47.3462 132.107L47.3444 132.108L47.3436 132.11L47.3462 132.107Z" fill="#DCDCDC"/>
<path d="M44.4722 128.623C44.4754 128.621 44.4781 128.62 44.4813 128.618C44.4834 128.605 44.4832 128.594 44.4852 128.58L44.4722 128.623Z" fill="#DCDCDC"/>
<path d="M52.2532 131.105C51.6903 131.045 51.1239 130.852 50.6459 130.498C48.485 129.882 48.4806 129.873 49.8423 128.168C49.9969 127.973 50.1857 127.806 50.3587 127.627C50.4059 127.55 50.4523 127.474 50.4997 127.399C50.5857 127.279 50.6716 127.159 50.7585 127.04C50.7303 126.966 50.7463 126.904 50.8074 126.853C50.7125 125.831 50.1535 125.738 49.3528 126.126L49.3578 126.119C49.1814 126.354 49.006 126.589 48.8307 126.825L48.8123 126.834C48.7089 126.973 48.6044 127.112 48.5009 127.25L48.4831 127.273C48.3401 127.699 48.0407 128.012 47.7308 128.317C47.674 128.386 47.6182 128.456 47.5613 128.525C47.3394 129.257 46.9135 129.072 46.4221 128.809C45.8108 128.482 45.1819 128.103 44.4805 128.619C44.3333 129.429 44.8247 129.831 45.4863 130.089C46.3391 130.421 46.3673 130.852 45.698 131.412L45.7007 131.407C45.6349 131.512 45.5681 131.616 45.5023 131.721L45.5138 131.704C45.4467 131.812 45.3795 131.919 45.3133 132.027L45.3261 132.012C45.1698 132.947 45.3853 133.531 46.5059 133.254L46.4975 133.268C46.6514 133.085 46.8063 132.902 46.9612 132.72L46.9661 132.712C47.0083 132.459 47.1167 132.247 47.3432 132.11C47.5408 131.285 47.9986 131.142 48.7152 131.554C49.1093 131.781 49.5386 131.945 49.9522 132.138L49.9469 132.134C50.9765 132.278 51.9131 133.109 53.0374 132.55C53.3759 131.749 53.3032 131.215 52.2532 131.105Z" fill="#DCDCDC"/>
<path d="M50.6445 130.497L50.6467 130.498L50.6478 130.499L50.6445 130.497Z" fill="#DCDCDC"/>
<path d="M34.4712 51.2357L34.4647 51.2389L34.4623 51.2475L34.4712 51.2357Z" fill="#DCDCDC"/>
<path d="M30.6832 46.7969L30.6779 46.7879L30.6714 46.7872L30.6832 46.7969Z" fill="#DCDCDC"/>
<path d="M33.608 46.3142L33.5697 46.3698L33.5707 46.3705L33.5737 46.3718L33.608 46.3142Z" fill="#DCDCDC"/>
<path d="M34.8505 50.4172L34.8452 50.4238L34.8454 50.4246L34.8505 50.4172Z" fill="#DCDCDC"/>
<path d="M37.1147 43.1128C36.5433 42.7486 36.0577 42.87 35.6379 43.3739C35.6735 43.7261 35.5343 44.019 35.327 44.2896C35.3602 44.5691 35.254 44.8028 35.0926 45.0193C35.0502 45.1122 35.0076 45.2042 34.9644 45.2973C34.9364 45.3986 34.9073 45.4991 34.8793 45.6004C34.8405 45.8025 34.8465 46.0238 34.6382 46.15C34.5126 47.3365 34.0344 46.8223 33.5695 46.3707C32.8799 45.9806 32.1904 45.5914 31.5007 45.2013C31.4421 45.2359 31.3902 45.2271 31.3458 45.1749C30.3505 45.3967 29.971 45.8702 30.6773 46.7881C31.3237 46.8338 31.8278 47.161 32.274 47.6005L32.2937 47.6134C32.5476 47.6499 32.7414 47.778 32.8744 47.9979L32.8847 48.0042C33.6722 48.2097 33.8774 48.6332 33.4443 49.3628C33.2137 49.7504 33.061 50.184 32.8736 50.5974C32.8866 50.7524 32.8987 50.9076 32.9119 51.0635C33.3682 51.6723 33.8951 51.6412 34.4637 51.2399C34.4911 50.9218 34.6167 50.6497 34.8446 50.4256C34.8253 50.0878 34.9404 49.803 35.1837 49.5687L35.178 49.5725C35.1857 49.1821 35.353 48.8529 35.5715 48.5436L35.576 48.5281C35.7154 47.9286 35.8854 47.3408 36.2519 46.8312L36.2475 46.8375C36.2222 46.4861 36.3755 46.2053 36.5937 45.9491C36.5674 45.8761 36.5832 45.8128 36.6405 45.7611C36.8439 45.1159 37.0482 44.4714 37.2516 43.8262C37.2171 43.7484 37.2156 43.6708 37.2488 43.5924C37.2044 43.4313 37.1596 43.2721 37.1147 43.1128Z" fill="#DCDCDC"/>
<path d="M37.1138 43.1083L37.1145 43.1122L37.1188 43.1138L37.1138 43.1083Z" fill="#DCDCDC"/>
<path d="M34.6335 46.1539L34.6384 46.1498L34.6383 46.149L34.6335 46.1539Z" fill="#DCDCDC"/>
</svg>
