<svg width="197" height="142" viewBox="0 0 197 142" fill="none" xmlns="http://www.w3.org/2000/svg">
<path d="M137.764 52.0628C127.753 52.0628 119.608 43.9111 119.608 33.8911C119.608 23.8712 127.753 15.7195 137.764 15.7195C147.775 15.7195 155.92 23.8713 155.92 33.8911C155.92 43.911 147.775 52.0628 137.764 52.0628ZM137.764 16.3306C128.09 16.3306 120.219 24.2082 120.219 33.8911C120.219 43.574 128.09 51.4516 137.764 51.4516C147.439 51.4516 155.309 43.5739 155.309 33.8911C155.309 24.2083 147.439 16.3306 137.764 16.3306Z" fill="#BEBEBE"/>
<path d="M137.764 52.0628C127.753 52.0628 119.608 43.9111 119.608 33.8911C119.608 23.8712 127.753 15.7195 137.764 15.7195C147.775 15.7195 155.92 23.8713 155.92 33.8911C155.92 43.911 147.775 52.0628 137.764 52.0628ZM137.764 16.3306C128.09 16.3306 120.219 24.2082 120.219 33.8911C120.219 43.574 128.09 51.4516 137.764 51.4516C147.439 51.4516 155.309 43.5739 155.309 33.8911C155.309 24.2083 147.439 16.3306 137.764 16.3306Z" fill="#BEBEBE"/>
<path d="M146.397 41.6217L146.4 41.6188C146.365 41.5783 146.328 41.5404 146.292 41.5006C146.274 41.4805 146.255 41.4607 146.237 41.4406C145.579 40.7213 144.815 40.1228 143.979 39.6599C143.948 39.6429 143.918 39.6254 143.887 39.6087C143.8 39.562 143.712 39.5175 143.624 39.4738C143.572 39.4477 143.519 39.4218 143.466 39.3967C143.392 39.3615 143.317 39.3277 143.241 39.2946C143.172 39.264 143.102 39.2343 143.031 39.2055C142.967 39.1793 142.903 39.1538 142.838 39.1292C142.754 39.0968 142.669 39.0662 142.583 39.0364C142.528 39.0174 142.473 38.9984 142.418 38.9805C142.321 38.9489 142.223 38.9195 142.124 38.8911C142.077 38.8777 142.031 38.8637 141.983 38.851C141.876 38.822 141.767 38.7958 141.658 38.7707C141.617 38.7613 141.576 38.7512 141.535 38.7424C141.42 38.7177 141.304 38.6962 141.187 38.676C141.15 38.6696 141.114 38.6621 141.077 38.6561C140.957 38.6369 140.836 38.6213 140.714 38.607C140.679 38.6028 140.645 38.5973 140.609 38.5936C140.557 38.588 140.504 38.5843 140.451 38.5797C142.749 37.5484 144.355 35.2383 144.355 32.5584C144.355 28.9211 141.398 25.9619 137.764 25.9619C134.13 25.9619 131.174 28.921 131.174 32.5584C131.174 35.2383 132.779 37.5484 135.078 38.5797C135.025 38.5843 134.972 38.588 134.919 38.5936C134.884 38.5973 134.849 38.6028 134.815 38.607C134.693 38.6213 134.572 38.6369 134.452 38.6561C134.415 38.6621 134.378 38.6696 134.341 38.676C134.225 38.6962 134.108 38.7176 133.993 38.7424C133.952 38.7511 133.912 38.7613 133.871 38.7707C133.762 38.7958 133.653 38.822 133.545 38.851C133.498 38.8637 133.452 38.8777 133.405 38.8911C133.306 38.9195 133.208 38.9489 133.11 38.9806C133.055 38.9985 133.001 39.0175 132.946 39.0364C132.86 39.0662 132.775 39.0969 132.69 39.1292C132.626 39.1539 132.561 39.1794 132.497 39.2055C132.427 39.2344 132.357 39.2641 132.288 39.2946C132.212 39.3277 132.137 39.3616 132.062 39.3967C132.009 39.4218 131.957 39.4477 131.905 39.4738C131.816 39.5175 131.729 39.562 131.642 39.6087C131.611 39.6255 131.581 39.6429 131.55 39.66C130.713 40.1228 129.95 40.7214 129.292 41.4406C129.273 41.4606 129.255 41.4805 129.237 41.5007C129.201 41.5405 129.164 41.5784 129.129 41.6189L129.132 41.6218C127.766 43.1924 126.937 45.2417 126.937 47.4827V48.3229H127.547V47.4827C127.547 45.3435 128.358 43.3905 129.686 41.914C129.706 41.8918 129.727 41.8701 129.747 41.8482C129.825 41.7632 129.904 41.6792 129.985 41.5975C129.987 41.5961 129.988 41.5947 129.99 41.5933C130.537 41.0454 131.162 40.5746 131.843 40.1958C131.873 40.1795 131.902 40.1627 131.931 40.1468C132.012 40.1035 132.093 40.0624 132.175 40.0217C132.224 39.9973 132.273 39.9729 132.323 39.9495C132.392 39.9168 132.462 39.8855 132.532 39.8547C132.597 39.8262 132.662 39.7982 132.728 39.7713C132.788 39.747 132.847 39.7234 132.907 39.7005C132.986 39.6704 133.066 39.6416 133.146 39.6139C133.197 39.5963 133.247 39.5787 133.299 39.5619C133.39 39.5324 133.481 39.5049 133.573 39.4785C133.617 39.466 133.66 39.4531 133.704 39.4412C133.805 39.4141 133.906 39.3896 134.008 39.3664C134.045 39.3577 134.083 39.3482 134.121 39.34C134.229 39.317 134.337 39.297 134.445 39.2782C134.48 39.2723 134.514 39.2652 134.549 39.2597C134.661 39.2418 134.773 39.2273 134.886 39.2139C134.919 39.2101 134.951 39.205 134.984 39.2015C135.101 39.189 135.219 39.1804 135.337 39.1729C135.366 39.171 135.395 39.1677 135.424 39.1662C135.571 39.1584 135.719 39.1542 135.867 39.1542H137.734C137.744 39.1542 137.754 39.155 137.764 39.155C137.774 39.155 137.784 39.1542 137.795 39.1542H139.661C139.81 39.1542 139.957 39.1583 140.104 39.1662C140.134 39.1677 140.162 39.171 140.191 39.1729C140.309 39.1803 140.427 39.189 140.544 39.2015C140.577 39.205 140.609 39.2101 140.642 39.2139C140.755 39.2273 140.868 39.2418 140.98 39.2597C141.014 39.2653 141.048 39.2723 141.083 39.2782C141.191 39.2971 141.3 39.317 141.407 39.34C141.445 39.3482 141.483 39.3577 141.521 39.3664C141.622 39.3898 141.724 39.4142 141.824 39.4413C141.868 39.4531 141.912 39.466 141.955 39.4786C142.047 39.5049 142.139 39.5325 142.229 39.562C142.281 39.5787 142.332 39.5963 142.383 39.6139C142.462 39.6416 142.542 39.6704 142.621 39.7005C142.681 39.7235 142.741 39.7471 142.8 39.7714C142.866 39.7982 142.931 39.8262 142.997 39.8548C143.067 39.8856 143.136 39.9168 143.205 39.9495C143.255 39.9729 143.304 39.9974 143.353 40.0217C143.435 40.0625 143.517 40.1036 143.597 40.1468C143.626 40.1627 143.656 40.1796 143.685 40.1958C144.367 40.5746 144.991 41.0455 145.539 41.5933C145.54 41.5947 145.542 41.5962 145.543 41.5976C145.625 41.6793 145.704 41.7633 145.782 41.8482C145.802 41.8702 145.822 41.8919 145.842 41.914C147.171 43.3906 147.981 45.3435 147.981 47.4828V48.3229H148.592V47.4828C148.592 45.2417 147.762 43.1924 146.397 41.6217ZM131.784 32.5584C131.784 29.2581 134.467 26.5731 137.764 26.5731C141.062 26.5731 143.744 29.2581 143.744 32.5584C143.744 35.8484 141.078 38.5262 137.795 38.5428H137.734C134.45 38.5262 131.784 35.8484 131.784 32.5584Z" fill="#BEBEBE"/>
<path d="M79.5359 75.7174C71.7426 75.7174 65.4023 69.3716 65.4023 61.5716C65.4023 53.7716 71.7426 47.4258 79.5359 47.4258C87.3291 47.4258 93.6693 53.7716 93.6693 61.5716C93.6693 69.3716 87.3291 75.7174 79.5359 75.7174ZM79.5359 48.037C72.0794 48.037 66.013 54.1086 66.013 61.5716C66.013 69.0346 72.0794 75.1062 79.5359 75.1062C86.9924 75.1062 93.0587 69.0346 93.0587 61.5716C93.0587 54.1086 86.9924 48.037 79.5359 48.037Z" fill="#BEBEBE"/>
<path d="M79.5359 75.7174C71.7426 75.7174 65.4023 69.3716 65.4023 61.5716C65.4023 53.7716 71.7426 47.4258 79.5359 47.4258C87.3291 47.4258 93.6693 53.7716 93.6693 61.5716C93.6693 69.3716 87.3291 75.7174 79.5359 75.7174ZM79.5359 48.037C72.0794 48.037 66.013 54.1086 66.013 61.5716C66.013 69.0346 72.0794 75.1062 79.5359 75.1062C86.9924 75.1062 93.0587 69.0346 93.0587 61.5716C93.0587 54.1086 86.9924 48.037 79.5359 48.037Z" fill="#BEBEBE"/>
<path d="M86.2751 67.5151L86.2777 67.5128C86.2505 67.4815 86.2216 67.4521 86.1939 67.4212C86.179 67.4048 86.164 67.3886 86.149 67.3723C85.6343 66.81 85.0373 66.3421 84.3833 65.9802C84.3593 65.9669 84.3356 65.9532 84.3114 65.9402C84.2434 65.9036 84.1745 65.8687 84.1054 65.8344C84.0646 65.8141 84.0239 65.7939 83.9827 65.7744C83.9242 65.7468 83.8653 65.7203 83.8061 65.6943C83.7518 65.6704 83.6973 65.6472 83.6423 65.6247C83.5919 65.6042 83.5415 65.5841 83.4907 65.5648C83.4249 65.5396 83.3585 65.5157 83.2918 65.4925C83.2487 65.4776 83.2056 65.4626 83.1622 65.4485C83.0862 65.4238 83.0096 65.4008 82.9326 65.3787C82.8958 65.3681 82.8591 65.3572 82.8221 65.3472C82.738 65.3245 82.653 65.304 82.5676 65.2844C82.5356 65.2771 82.5038 65.2691 82.4717 65.2622C82.3817 65.2429 82.2908 65.2261 82.1995 65.2103C82.1706 65.2053 82.1418 65.1994 82.1128 65.1947C82.0311 65.1817 81.9486 65.1711 81.8659 65.1609C83.5515 64.3062 84.7103 62.5561 84.7103 60.5391C84.7103 57.6834 82.3891 55.3601 79.5359 55.3601C76.6827 55.3601 74.3615 57.6834 74.3615 60.5391C74.3615 62.5561 75.5203 64.3062 77.2059 65.1609C77.1232 65.1711 77.0407 65.1816 76.959 65.1947C76.93 65.1994 76.9012 65.2052 76.8721 65.2103C76.7809 65.2261 76.6901 65.2429 76.6 65.2622C76.5679 65.2691 76.5362 65.2771 76.5042 65.2844C76.4188 65.304 76.3338 65.3245 76.2496 65.3472C76.2126 65.3572 76.1759 65.3681 76.1391 65.3787C76.0621 65.4008 75.9855 65.4237 75.9096 65.4484C75.8662 65.4626 75.823 65.4775 75.7799 65.4925C75.7132 65.5157 75.6469 65.5395 75.5811 65.5647C75.5302 65.5841 75.4797 65.6042 75.4293 65.6248C75.3744 65.6472 75.32 65.6704 75.2658 65.6942C75.2065 65.7202 75.1475 65.7468 75.0889 65.7744C75.0478 65.7939 75.0072 65.814 74.9665 65.8343C74.8972 65.8686 74.8283 65.9036 74.7601 65.9403C74.7362 65.9532 74.7127 65.9668 74.6889 65.98C74.0344 66.342 73.437 66.8103 72.9219 67.3731C72.9074 67.3889 72.8928 67.4047 72.8784 67.4206C72.8506 67.4517 72.8215 67.4813 72.7941 67.5128L72.7967 67.5151C71.7283 68.7439 71.0791 70.3473 71.0791 72.1005V72.7513H71.6898V72.1005C71.6898 70.4611 72.3107 68.9645 73.329 67.8329C73.3444 67.8157 73.3601 67.7988 73.3757 67.7818C73.4355 67.7168 73.496 67.6525 73.5583 67.5901C73.5594 67.5889 73.5606 67.5879 73.5617 67.5868C73.9817 67.1667 74.4603 66.8057 74.9833 66.5153C75.0054 66.503 75.0272 66.4904 75.0494 66.4784C75.1113 66.4451 75.1741 66.4134 75.2372 66.382C75.2745 66.3635 75.3118 66.3448 75.3495 66.3271C75.4026 66.3019 75.4564 66.2779 75.5103 66.2542C75.56 66.2324 75.61 66.211 75.6602 66.1905C75.7059 66.1718 75.7518 66.1537 75.798 66.1361C75.8585 66.113 75.9193 66.0909 75.9804 66.0697C76.0194 66.0562 76.0584 66.0427 76.0977 66.0299C76.1674 66.0073 76.2376 65.9862 76.3079 65.966C76.3414 65.9564 76.3747 65.9465 76.4083 65.9374C76.4854 65.9167 76.563 65.8979 76.6409 65.88C76.67 65.8734 76.6988 65.8661 76.728 65.8598C76.8105 65.8421 76.8935 65.8268 76.9769 65.8124C77.0032 65.8078 77.0292 65.8025 77.0556 65.7982C77.1416 65.7844 77.2283 65.7734 77.3151 65.7631C77.3398 65.7602 77.3642 65.7563 77.389 65.7536C77.4786 65.7441 77.5688 65.7375 77.6592 65.7317C77.6818 65.7303 77.704 65.7278 77.7266 65.7266C77.8393 65.7205 77.9524 65.7174 78.0659 65.7174H79.5099C79.5186 65.7174 79.5271 65.7181 79.5357 65.7181C79.5445 65.7181 79.5529 65.7174 79.5616 65.7174H81.0056C81.1191 65.7174 81.2322 65.7205 81.3449 65.7266C81.3675 65.7277 81.3897 65.7303 81.4122 65.7317C81.5026 65.7375 81.5927 65.7441 81.6824 65.7536C81.7072 65.7562 81.7315 65.7601 81.7562 65.7631C81.8431 65.7734 81.9298 65.7845 82.0159 65.7983C82.0422 65.8025 82.0681 65.8078 82.0943 65.8123C82.1777 65.8268 82.261 65.8421 82.3436 65.8598C82.3727 65.866 82.4014 65.8732 82.4303 65.8799C82.5083 65.8978 82.5862 65.9166 82.6633 65.9374C82.6968 65.9464 82.7299 65.9563 82.7631 65.9658C82.8338 65.9861 82.9042 66.0073 82.974 66.03C83.0131 66.0427 83.0519 66.0561 83.0906 66.0696C83.1521 66.0908 83.2132 66.113 83.2739 66.1362C83.3198 66.1537 83.3655 66.1717 83.4108 66.1903C83.4615 66.211 83.5117 66.2325 83.5618 66.2544C83.6154 66.278 83.6688 66.3018 83.7216 66.3268C83.7597 66.3448 83.7975 66.3636 83.8352 66.3824C83.8978 66.4136 83.9603 66.445 84.0217 66.4781C84.0445 66.4904 84.0668 66.5033 84.0894 66.5158C84.6111 66.8057 85.0887 67.1659 85.508 67.5849C85.51 67.5869 85.512 67.5888 85.514 67.5908C85.5757 67.6526 85.6355 67.7161 85.6945 67.7803C85.7109 67.7982 85.7274 67.8158 85.7436 67.8339C86.7612 68.9654 87.3818 70.4616 87.3818 72.1004V72.7513H87.9925V72.1004C87.9927 70.3472 87.3435 68.7439 86.2751 67.5151ZM74.9722 60.5392C74.9722 58.0205 77.0195 55.9714 79.5359 55.9714C82.0524 55.9714 84.0996 58.0205 84.0996 60.5392C84.0996 63.0491 82.0664 65.0922 79.5618 65.1062H79.5101C77.0055 65.0922 74.9722 63.0491 74.9722 60.5392Z" fill="#BEBEBE"/>
<path d="M65.7077 121.078C57.9145 121.078 51.5742 114.733 51.5742 106.933C51.5742 99.1324 57.9145 92.7866 65.7077 92.7866C73.501 92.7866 79.8412 99.1324 79.8412 106.933C79.8413 114.733 73.501 121.078 65.7077 121.078ZM65.7077 93.3978C58.2512 93.3978 52.1849 99.4695 52.1849 106.932C52.1849 114.396 58.2512 120.467 65.7077 120.467C73.1642 120.467 79.2305 114.396 79.2305 106.932C79.2306 99.4695 73.1643 93.3978 65.7077 93.3978Z" fill="#BEBEBE"/>
<path d="M65.7077 121.078C57.9145 121.078 51.5742 114.733 51.5742 106.933C51.5742 99.1324 57.9145 92.7866 65.7077 92.7866C73.501 92.7866 79.8412 99.1324 79.8412 106.933C79.8413 114.733 73.501 121.078 65.7077 121.078ZM65.7077 93.3978C58.2512 93.3978 52.1849 99.4695 52.1849 106.932C52.1849 114.396 58.2512 120.467 65.7077 120.467C73.1642 120.467 79.2305 114.396 79.2305 106.932C79.2306 99.4695 73.1643 93.3978 65.7077 93.3978Z" fill="#BEBEBE"/>
<path d="M72.4464 112.876L72.449 112.874C72.4218 112.842 72.3928 112.813 72.3651 112.782C72.3503 112.766 72.3354 112.75 72.3204 112.733C71.806 112.171 71.2094 111.704 70.5561 111.342C70.5314 111.328 70.5069 111.314 70.482 111.301C70.4146 111.265 70.3463 111.23 70.2778 111.196C70.2364 111.175 70.1951 111.155 70.1533 111.135C70.0954 111.108 70.0369 111.081 69.9783 111.056C69.9235 111.032 69.8684 111.008 69.8128 110.985C69.763 110.965 69.713 110.945 69.6627 110.926C69.5964 110.901 69.5295 110.877 69.4623 110.853C69.4196 110.838 69.377 110.824 69.334 110.81C69.2577 110.785 69.1806 110.762 69.1032 110.74C69.0668 110.729 69.0304 110.718 68.9938 110.708C68.9094 110.686 68.8242 110.665 68.7385 110.645C68.7067 110.638 68.6751 110.63 68.6433 110.623C68.5531 110.604 68.462 110.587 68.3706 110.571C68.3418 110.566 68.3131 110.56 68.2842 110.556C68.2025 110.543 68.1199 110.532 68.0372 110.522C69.7229 109.667 70.8817 107.917 70.8817 105.9C70.8817 103.044 68.5604 100.721 65.7073 100.721C62.8541 100.721 60.5329 103.044 60.5329 105.9C60.5329 107.917 61.6917 109.667 63.3773 110.522C63.2947 110.532 63.2121 110.543 63.1304 110.556C63.1015 110.56 63.0728 110.566 63.0441 110.571C62.9526 110.587 62.8615 110.604 62.7713 110.623C62.7394 110.63 62.7079 110.638 62.6761 110.645C62.5904 110.665 62.5052 110.686 62.4208 110.708C62.3841 110.718 62.3478 110.729 62.3114 110.74C62.2339 110.762 62.1569 110.785 62.0805 110.81C62.0376 110.824 61.995 110.838 61.9523 110.853C61.885 110.877 61.8181 110.901 61.7517 110.926C61.7015 110.945 61.6516 110.965 61.6018 110.985C61.5462 111.008 61.4911 111.032 61.4362 111.056C61.3776 111.081 61.3192 111.108 61.2613 111.135C61.2194 111.155 61.178 111.175 61.1365 111.196C61.0681 111.23 61 111.265 60.9327 111.301C60.9076 111.314 60.8829 111.329 60.858 111.342C60.29 111.657 59.7646 112.051 59.2991 112.518L59.2991 112.518C59.2295 112.588 59.1617 112.66 59.0949 112.733C59.0795 112.749 59.0641 112.766 59.0489 112.783C59.0214 112.813 58.9926 112.843 58.9655 112.874L58.9681 112.876C57.8997 114.105 57.2505 115.708 57.2505 117.461V118.112H57.8612V117.461C57.8612 115.822 58.4823 114.325 59.5007 113.193C59.5159 113.177 59.5313 113.16 59.5467 113.143C59.6067 113.078 59.6675 113.013 59.7301 112.951C59.7308 112.95 59.7314 112.949 59.7321 112.949C60.1527 112.528 60.6321 112.166 61.1559 111.876C61.1775 111.864 61.1987 111.851 61.2204 111.84C61.2827 111.806 61.3461 111.774 61.4096 111.742C61.4464 111.724 61.4831 111.706 61.5202 111.688C61.5738 111.663 61.6281 111.639 61.6826 111.615C61.7318 111.593 61.7813 111.572 61.8311 111.552C61.8771 111.533 61.9235 111.515 61.9701 111.497C62.0301 111.474 62.0905 111.452 62.1511 111.431C62.1906 111.417 62.23 111.404 62.2698 111.391C62.339 111.368 62.4087 111.347 62.4788 111.327C62.5126 111.317 62.5462 111.308 62.5802 111.298C62.6569 111.278 62.7343 111.259 62.8119 111.241C62.8412 111.235 62.8703 111.227 62.8998 111.221C62.9821 111.203 63.0649 111.188 63.148 111.174C63.1745 111.169 63.2007 111.164 63.2273 111.159C63.3131 111.146 63.3995 111.135 63.4859 111.124C63.5109 111.121 63.5357 111.117 63.5608 111.115C63.6503 111.105 63.7404 111.099 63.8307 111.093C63.8532 111.091 63.8756 111.089 63.8982 111.088C64.0108 111.082 64.124 111.078 64.2375 111.078H65.6838C65.6917 111.078 65.6994 111.079 65.7073 111.079C65.7152 111.079 65.7229 111.078 65.7308 111.078H67.1771C67.2906 111.078 67.4038 111.082 67.5164 111.088C67.5391 111.089 67.5614 111.091 67.584 111.093C67.6742 111.099 67.7643 111.105 67.8538 111.115C67.8789 111.117 67.9037 111.121 67.9288 111.124C68.0152 111.135 68.1016 111.146 68.1872 111.159C68.2139 111.164 68.2403 111.169 68.2669 111.174C68.3498 111.188 68.4326 111.203 68.5147 111.221C68.5443 111.227 68.5737 111.234 68.6032 111.241C68.6806 111.259 68.7578 111.278 68.8343 111.298C68.8684 111.307 68.9022 111.318 68.9362 111.327C69.006 111.347 69.0755 111.368 69.1445 111.391C69.1845 111.404 69.2242 111.417 69.2639 111.431C69.3243 111.452 69.3844 111.474 69.4442 111.497C69.4911 111.515 69.5376 111.533 69.584 111.552C69.6335 111.572 69.6826 111.593 69.7315 111.615C69.7863 111.639 69.8409 111.663 69.8948 111.689C69.9315 111.706 69.9678 111.724 70.0042 111.742C70.0681 111.774 70.1319 111.806 70.1946 111.84C70.2158 111.851 70.2365 111.863 70.2575 111.875C70.8612 112.21 71.4052 112.64 71.8692 113.145C71.8838 113.161 71.8984 113.176 71.9129 113.192C72.9319 114.324 73.5533 115.821 73.5533 117.461V118.112H74.164V117.461C74.1639 115.708 73.5148 114.105 72.4464 112.876ZM61.1435 105.9C61.1435 103.381 63.1907 101.332 65.7072 101.332C68.2237 101.332 70.271 103.382 70.271 105.9C70.271 108.411 68.2364 110.454 65.7308 110.467H65.6838C63.1781 110.454 61.1435 108.411 61.1435 105.9Z" fill="#BEBEBE"/>
<path d="M16.6084 116.849C7.4505 116.849 0 109.392 0 100.226C0 91.0601 7.4505 83.6031 16.6084 83.6031C25.7663 83.6031 33.2168 91.0601 33.2168 100.226C33.2168 109.392 25.7663 116.849 16.6084 116.849ZM16.6084 84.2144C7.78721 84.2144 0.610666 91.3972 0.610666 100.226C0.610666 109.055 7.78721 116.238 16.6084 116.238C25.4295 116.238 32.6061 109.055 32.6061 100.226C32.6062 91.3971 25.4296 84.2144 16.6084 84.2144Z" fill="#BEBEBE"/>
<path d="M16.6084 116.849C7.4505 116.849 0 109.392 0 100.226C0 91.0601 7.4505 83.6031 16.6084 83.6031C25.7663 83.6031 33.2168 91.0601 33.2168 100.226C33.2168 109.392 25.7663 116.849 16.6084 116.849ZM16.6084 84.2144C7.78721 84.2144 0.610666 91.3972 0.610666 100.226C0.610666 109.055 7.78721 116.238 16.6084 116.238C25.4295 116.238 32.6061 109.055 32.6061 100.226C32.6062 91.3971 25.4296 84.2144 16.6084 84.2144Z" fill="#BEBEBE"/>
<path d="M24.5121 107.269L24.5152 107.267C24.4835 107.23 24.4498 107.196 24.4176 107.16C24.3998 107.14 24.3817 107.121 24.3637 107.101C23.7612 106.443 23.0623 105.895 22.297 105.472C22.2687 105.456 22.2407 105.44 22.2122 105.425C22.1327 105.382 22.0523 105.341 21.9715 105.301C21.9235 105.277 21.8756 105.253 21.8271 105.23C21.7589 105.198 21.6901 105.167 21.621 105.137C21.5572 105.109 21.493 105.082 21.4283 105.055C21.3697 105.031 21.3109 105.008 21.2517 104.985C21.1743 104.956 21.0961 104.928 21.0176 104.9C20.9674 104.883 20.9173 104.866 20.8667 104.849C20.7776 104.82 20.6877 104.793 20.5973 104.767C20.5543 104.755 20.5115 104.742 20.4683 104.73C20.3696 104.704 20.27 104.68 20.1699 104.657C20.1325 104.648 20.0954 104.639 20.0579 104.631C19.9525 104.608 19.8461 104.589 19.7393 104.57C19.7053 104.564 19.6715 104.557 19.6374 104.552C19.5276 104.534 19.4169 104.52 19.3057 104.507C19.2735 104.503 19.2416 104.498 19.2094 104.495C19.1951 104.493 19.1809 104.491 19.1667 104.49C21.2247 103.523 22.6539 101.43 22.6539 99.0088C22.6539 95.6723 19.9417 92.9578 16.608 92.9578C13.2743 92.9578 10.5622 95.6723 10.5622 99.0088C10.5622 101.43 11.9914 103.523 14.0494 104.49C14.0351 104.491 14.021 104.493 14.0068 104.495C13.9744 104.498 13.9423 104.503 13.91 104.507C13.799 104.52 13.6884 104.534 13.5788 104.552C13.5445 104.557 13.5106 104.564 13.4765 104.57C13.3698 104.589 13.2636 104.608 13.1583 104.631C13.1206 104.639 13.0833 104.648 13.0457 104.657C12.9459 104.68 12.8465 104.704 12.748 104.73C12.7045 104.742 12.6614 104.755 12.6181 104.767C12.5281 104.793 12.4385 104.82 12.3498 104.849C12.2989 104.865 12.2484 104.883 12.1978 104.9C12.1197 104.928 12.042 104.956 11.9649 104.985C11.9053 105.008 11.8461 105.031 11.7872 105.055C11.7229 105.082 11.6592 105.109 11.5958 105.137C11.5262 105.167 11.457 105.198 11.3883 105.231C11.3404 105.253 11.2929 105.277 11.2455 105.3C11.1641 105.341 11.0833 105.382 11.0033 105.425C10.9754 105.44 10.948 105.456 10.9203 105.471C10.1544 105.895 9.45514 106.443 8.85232 107.101C8.83434 107.121 8.81631 107.14 8.79854 107.16C8.7663 107.196 8.73258 107.23 8.70095 107.266L8.70396 107.269C7.45268 108.708 6.69238 110.586 6.69238 112.639V113.407H7.30305V112.639C7.30305 110.692 8.04088 108.914 9.25075 107.57C9.26822 107.551 9.28605 107.531 9.30367 107.512C9.37533 107.434 9.44796 107.357 9.52283 107.282C9.52318 107.282 9.52359 107.281 9.5239 107.281C10.0235 106.781 10.593 106.351 11.2153 106.006C11.241 105.992 11.2665 105.977 11.2923 105.963C11.3662 105.923 11.4412 105.885 11.5165 105.848C11.5604 105.826 11.6042 105.804 11.6485 105.783C11.7119 105.753 11.7761 105.725 11.8405 105.696C11.8993 105.671 11.9582 105.645 12.0177 105.621C12.0721 105.599 12.1269 105.577 12.182 105.556C12.2535 105.529 12.3255 105.503 12.3978 105.478C12.4444 105.462 12.491 105.445 12.538 105.43C12.6204 105.403 12.7034 105.378 12.7867 105.355C12.8267 105.343 12.8665 105.331 12.9067 105.32C12.9979 105.296 13.0897 105.274 13.1818 105.253C13.2168 105.244 13.2514 105.236 13.2865 105.228C13.3841 105.207 13.4825 105.189 13.5811 105.172C13.6125 105.167 13.6437 105.16 13.6753 105.155C13.7773 105.139 13.88 105.126 13.9829 105.114C14.0125 105.11 14.0416 105.105 14.0712 105.102C14.1775 105.091 14.2844 105.083 14.3914 105.076C14.4184 105.075 14.4451 105.072 14.4721 105.07C14.6059 105.063 14.7402 105.059 14.875 105.059H16.5796C16.5891 105.059 16.5984 105.06 16.6078 105.06C16.6173 105.06 16.6266 105.059 16.6361 105.059H18.3408C18.4755 105.059 18.6099 105.063 18.7437 105.07C18.7707 105.072 18.7973 105.075 18.8242 105.076C18.9313 105.083 19.0382 105.091 19.1445 105.102C19.1741 105.105 19.2031 105.11 19.2325 105.113C19.3356 105.126 19.4384 105.139 19.5406 105.155C19.5719 105.16 19.6028 105.167 19.6341 105.172C19.7329 105.189 19.8315 105.207 19.9293 105.228C19.9642 105.236 19.9987 105.244 20.0334 105.252C20.1258 105.274 20.2178 105.296 20.3092 105.32C20.3491 105.331 20.3887 105.343 20.4284 105.354C20.512 105.378 20.5954 105.403 20.6781 105.43C20.7247 105.446 20.7711 105.462 20.8173 105.478C20.89 105.503 20.9623 105.529 21.0342 105.556C21.0889 105.577 21.1433 105.599 21.1974 105.621C21.2572 105.645 21.3166 105.671 21.3758 105.697C21.4398 105.725 21.5035 105.753 21.5666 105.783C21.6114 105.804 21.6557 105.826 21.7001 105.848C21.7749 105.886 21.8495 105.923 21.9229 105.963C21.9493 105.977 21.9754 105.992 22.0017 106.007C22.6233 106.352 23.1923 106.781 23.6914 107.281C23.6919 107.281 23.6925 107.282 23.6931 107.282C23.7679 107.357 23.8404 107.434 23.912 107.512C23.9297 107.531 23.9476 107.551 23.9651 107.57C25.1749 108.914 25.9128 110.692 25.9128 112.639V113.407H26.5234V112.639C26.5237 110.586 25.7634 108.708 24.5121 107.269ZM11.1728 99.0088C11.1728 96.0093 13.6111 93.569 16.608 93.569C19.605 93.569 22.0432 96.0093 22.0432 99.0088C22.0432 101.999 19.6202 104.433 16.6362 104.448H16.5798C13.5959 104.433 11.1728 101.999 11.1728 99.0088Z" fill="#BEBEBE"/>
<path d="M28.2689 65.1168C17.9566 65.1168 9.56689 56.7199 9.56689 46.3986C9.56689 36.0773 17.9566 27.6803 28.2689 27.6803C38.5812 27.6803 46.9709 36.0773 46.9709 46.3986C46.9709 56.7199 38.5812 65.1168 28.2689 65.1168ZM28.2689 28.2915C18.2933 28.2915 10.1776 36.4143 10.1776 46.3985C10.1776 56.3828 18.2933 64.5055 28.2689 64.5055C38.2444 64.5055 46.3602 56.3827 46.3602 46.3985C46.3602 36.4143 38.2444 28.2915 28.2689 28.2915Z" fill="#BEBEBE"/>
<path d="M28.2689 65.1168C17.9566 65.1168 9.56689 56.7199 9.56689 46.3986C9.56689 36.0773 17.9566 27.6803 28.2689 27.6803C38.5812 27.6803 46.9709 36.0773 46.9709 46.3986C46.9709 56.7199 38.5812 65.1168 28.2689 65.1168ZM28.2689 28.2915C18.2933 28.2915 10.1776 36.4143 10.1776 46.3985C10.1776 56.3828 18.2933 64.5055 28.2689 64.5055C38.2444 64.5055 46.3602 56.3827 46.3602 46.3985C46.3602 36.4143 38.2444 28.2915 28.2689 28.2915Z" fill="#BEBEBE"/>
<path d="M37.1585 54.3718L37.1619 54.3688C37.1261 54.3275 37.0879 54.2887 37.0514 54.2481C37.0321 54.2266 37.0125 54.2055 36.993 54.1842C36.3161 53.4448 35.531 52.8294 34.6711 52.3533C34.6386 52.3352 34.6064 52.3166 34.5736 52.299C34.4849 52.2512 34.395 52.2057 34.3048 52.161C34.2504 52.1338 34.196 52.1069 34.141 52.0809C34.0647 52.045 33.988 52.0103 33.9108 51.9765C33.8385 51.9447 33.7658 51.9139 33.6926 51.8839C33.6273 51.8573 33.5618 51.8312 33.4958 51.8061C33.4082 51.7726 33.3199 51.7407 33.231 51.7098C33.1752 51.6905 33.1194 51.6712 33.0632 51.6529C32.9625 51.6201 32.8609 51.5897 32.7587 51.5603C32.7109 51.5466 32.6633 51.5324 32.6152 51.5194C32.504 51.4894 32.3918 51.4624 32.2791 51.4365C32.2373 51.4269 32.1957 51.4165 32.1537 51.4075C32.035 51.382 31.9152 51.3599 31.7948 51.3391C31.7569 51.3325 31.7193 51.3249 31.6813 51.3188C31.5578 51.299 31.4331 51.2829 31.3079 51.2681C31.272 51.2639 31.2363 51.2582 31.2003 51.2544C31.1341 51.2474 31.0673 51.2429 31.0007 51.2373C33.3839 50.1833 35.0521 47.7963 35.0521 45.0253C35.0521 41.2819 32.0092 38.2363 28.2691 38.2363C24.5289 38.2363 21.486 41.2819 21.486 45.0253C21.486 47.7963 23.1542 50.1833 25.5374 51.2373C25.4708 51.2429 25.4039 51.2474 25.3377 51.2544C25.3019 51.2582 25.2665 51.2638 25.2308 51.2681C25.1054 51.2829 24.9805 51.299 24.8566 51.3188C24.8188 51.3249 24.7814 51.3325 24.7437 51.339C24.6232 51.3599 24.5031 51.3821 24.3842 51.4076C24.3424 51.4166 24.3011 51.427 24.2594 51.4365C24.1465 51.4624 24.0341 51.4895 23.9228 51.5195C23.8748 51.5324 23.8273 51.5466 23.7796 51.5603C23.6774 51.5897 23.5756 51.6202 23.4748 51.6531C23.4187 51.6713 23.363 51.6906 23.3073 51.7099C23.2183 51.7408 23.1298 51.7727 23.0421 51.8062C22.9762 51.8313 22.9108 51.8573 22.8456 51.884C22.7722 51.9139 22.6995 51.9449 22.6271 51.9767C22.55 52.0105 22.4734 52.045 22.3972 52.0809C22.3421 52.107 22.2875 52.1341 22.233 52.1613C22.1429 52.206 22.0532 52.2514 21.9646 52.2991C21.9316 52.3169 21.8992 52.3355 21.8665 52.3537C21.0073 52.8294 20.2228 53.4443 19.5464 54.1829C19.5261 54.205 19.5057 54.2271 19.4856 54.2494C19.4494 54.2896 19.4116 54.328 19.3761 54.369L19.3795 54.372C17.9735 55.989 17.1191 58.0989 17.1191 60.4061V61.272H17.7298V60.4061C17.7298 58.1999 18.5653 56.1857 19.9354 54.6625C19.9571 54.6383 19.9792 54.6146 20.0011 54.5907C20.0806 54.5043 20.1611 54.4187 20.2441 54.3356C20.247 54.3326 20.2501 54.3298 20.253 54.3268C20.7366 53.8436 21.2773 53.4177 21.864 53.0602C21.8646 53.0598 21.8653 53.0594 21.866 53.059C21.9626 53.0001 22.0613 52.9443 22.1605 52.8892C22.1917 52.8719 22.2226 52.854 22.2541 52.8371C22.3361 52.7928 22.4195 52.7509 22.5031 52.7092C22.5546 52.6837 22.606 52.658 22.6579 52.6335C22.7285 52.6001 22.7999 52.5682 22.8716 52.5367C22.9394 52.5069 23.0076 52.4777 23.0762 52.4497C23.1368 52.4249 23.1978 52.4008 23.2591 52.3774C23.3414 52.346 23.4242 52.316 23.5074 52.2872C23.5591 52.2692 23.6109 52.2514 23.6631 52.2344C23.7575 52.2037 23.8526 52.1751 23.9482 52.1477C23.9926 52.135 24.0368 52.1218 24.0815 52.1097C24.1857 52.0817 24.2907 52.0563 24.3961 52.0322C24.4348 52.0233 24.4733 52.0136 24.5122 52.0053C24.6236 51.9814 24.7358 51.9607 24.8483 51.9412C24.8834 51.9352 24.9181 51.928 24.9533 51.9224C25.0693 51.9038 25.1861 51.8888 25.3032 51.8749C25.3363 51.871 25.3691 51.8658 25.4024 51.8623C25.5233 51.8494 25.6449 51.8405 25.7667 51.8327C25.7968 51.8309 25.8265 51.8274 25.8567 51.8259C26.0084 51.8178 26.1608 51.8135 26.3136 51.8135H28.2361C28.2471 51.8136 28.258 51.8143 28.269 51.8143C28.28 51.8143 28.2909 51.8136 28.3019 51.8135H30.2244C30.3772 51.8135 30.5294 51.8178 30.6812 51.8259C30.7116 51.8274 30.7416 51.8309 30.7721 51.8328C30.8936 51.8405 31.0149 51.8494 31.1355 51.8623C31.169 51.8658 31.202 51.8711 31.2354 51.875C31.3522 51.8889 31.4688 51.9038 31.5845 51.9224C31.6199 51.928 31.6549 51.9352 31.6901 51.9413C31.8024 51.9607 31.9144 51.9813 32.0255 52.0052C32.0647 52.0136 32.1032 52.0233 32.1421 52.0323C32.2473 52.0564 32.3522 52.0817 32.4562 52.1097C32.501 52.1219 32.5455 52.1351 32.59 52.1479C32.6854 52.1752 32.7803 52.2038 32.8746 52.2344C32.9269 52.2515 32.9788 52.2694 33.0307 52.2874C33.1137 52.3162 33.1964 52.3462 33.2785 52.3775C33.3399 52.401 33.401 52.4251 33.4618 52.45C33.5303 52.4779 33.5983 52.507 33.666 52.5367C33.7378 52.5683 33.8094 52.6003 33.8801 52.6338C33.9319 52.6582 33.9831 52.6838 34.0344 52.7092C34.1182 52.7509 34.2018 52.793 34.284 52.8374C34.3153 52.8542 34.346 52.872 34.377 52.8892C34.4763 52.9444 34.5753 53.0003 34.6721 53.0593C34.6724 53.0595 34.6728 53.0597 34.6731 53.0599C35.2608 53.4178 35.8022 53.8445 36.2864 54.3285C36.2887 54.3307 36.291 54.3329 36.2932 54.3351C36.3768 54.4189 36.4579 54.5051 36.5381 54.5922C36.5593 54.6153 36.5806 54.6382 36.6015 54.6616C37.9722 56.1849 38.808 58.1995 38.808 60.4063V61.2722H39.4187V60.4063C39.4188 58.0987 38.5645 55.9888 37.1585 54.3718ZM22.0967 45.0251C22.0967 41.6186 24.8656 38.8473 28.2691 38.8473C31.6725 38.8473 34.4414 41.6186 34.4414 45.0251C34.4414 48.4204 31.6903 51.184 28.302 51.2019H28.2361C24.8478 51.184 22.0967 48.4204 22.0967 45.0251Z" fill="#BEBEBE"/>
<path d="M84.4045 28.2915C76.6113 28.2915 70.271 21.9458 70.271 14.1458C70.271 6.34578 76.6113 0 84.4045 0C92.1977 0 98.538 6.34578 98.538 14.1458C98.538 21.9458 92.1978 28.2915 84.4045 28.2915ZM84.4045 0.611195C76.948 0.611195 70.8817 6.68277 70.8817 14.1458C70.8817 21.6088 76.948 27.6804 84.4045 27.6804C91.861 27.6804 97.9273 21.6088 97.9273 14.1458C97.9273 6.68277 91.861 0.611195 84.4045 0.611195Z" fill="#BEBEBE"/>
<path d="M84.4045 28.2915C76.6113 28.2915 70.271 21.9458 70.271 14.1458C70.271 6.34578 76.6113 0 84.4045 0C92.1977 0 98.538 6.34578 98.538 14.1458C98.538 21.9458 92.1978 28.2915 84.4045 28.2915ZM84.4045 0.611195C76.948 0.611195 70.8817 6.68277 70.8817 14.1458C70.8817 21.6088 76.948 27.6804 84.4045 27.6804C91.861 27.6804 97.9273 21.6088 97.9273 14.1458C97.9273 6.68277 91.861 0.611195 84.4045 0.611195Z" fill="#BEBEBE"/>
<path d="M91.1439 20.0892L91.1464 20.0869C91.1188 20.0551 91.0894 20.0251 91.0612 19.9938C91.0475 19.9786 91.0335 19.9635 91.0196 19.9484C90.5045 19.3852 89.9067 18.9167 89.252 18.5543C89.228 18.541 89.2042 18.5274 89.1801 18.5143C89.1122 18.4778 89.0434 18.4429 88.9743 18.4086C88.9334 18.3883 88.8925 18.368 88.8512 18.3484C88.7929 18.321 88.7342 18.2945 88.6752 18.2687C88.6207 18.2447 88.5658 18.2214 88.5106 18.1987C88.4606 18.1783 88.4104 18.1584 88.3599 18.1391C88.2938 18.1139 88.2271 18.0898 88.16 18.0665C88.1172 18.0517 88.0743 18.0368 88.0312 18.0228C87.955 17.998 87.8781 17.9749 87.8007 17.9527C87.7642 17.9423 87.7279 17.9314 87.6911 17.9215C87.6067 17.8987 87.5214 17.8781 87.4359 17.8585C87.4041 17.8512 87.3725 17.8433 87.3406 17.8364C87.2504 17.8171 87.1594 17.8003 87.0679 17.7845C87.0391 17.7795 87.0104 17.7736 86.9815 17.769C86.8998 17.7559 86.8172 17.7454 86.7345 17.7352C88.4202 16.8805 89.579 15.1303 89.579 13.1133C89.579 10.2576 87.2577 7.93433 84.4045 7.93433C81.5514 7.93433 79.2302 10.2576 79.2302 13.1133C79.2302 15.1303 80.389 16.8805 82.0746 17.7352C81.992 17.7454 81.9094 17.7559 81.8276 17.769C81.7988 17.7736 81.7702 17.7795 81.7413 17.7845C81.6499 17.8003 81.5588 17.8171 81.4686 17.8364C81.4367 17.8433 81.4052 17.8512 81.3734 17.8585C81.2878 17.8781 81.2026 17.8987 81.1181 17.9215C81.0814 17.9314 81.045 17.9423 81.0085 17.9527C80.9312 17.9749 80.8542 17.998 80.778 18.0228C80.7349 18.0368 80.6921 18.0517 80.6493 18.0665C80.5822 18.0898 80.5154 18.1139 80.4492 18.1392C80.3988 18.1584 80.3488 18.1783 80.2988 18.1987C80.2435 18.2214 80.1885 18.2447 80.1339 18.2687C80.075 18.2946 80.0163 18.3209 79.9581 18.3484C79.9167 18.368 79.8757 18.3884 79.8347 18.4087C79.7657 18.443 79.6971 18.4777 79.6293 18.5142C79.6049 18.5274 79.5809 18.5411 79.5567 18.5546C78.9025 18.9167 78.3051 19.3849 77.7903 19.9476C77.776 19.9632 77.7616 19.9787 77.7474 19.9944C77.7194 20.0256 77.6903 20.0553 77.6628 20.0869L77.6654 20.0892C76.597 21.318 75.9478 22.9213 75.9478 24.6746V25.3254H76.5584V24.6746C76.5584 23.0357 77.179 21.5396 78.1967 20.4081C78.2129 20.3901 78.2294 20.3724 78.2458 20.3545C78.3048 20.2903 78.3646 20.2267 78.4263 20.165C78.4283 20.163 78.4303 20.1611 78.4323 20.1591C78.8516 19.7401 79.3292 19.3799 79.8509 19.09C79.8735 19.0775 79.8958 19.0646 79.9186 19.0523C79.98 19.0191 80.0425 18.9877 80.1051 18.9565C80.1428 18.9378 80.1806 18.919 80.2187 18.901C80.2715 18.876 80.3249 18.8521 80.3785 18.8285C80.4285 18.8066 80.4787 18.7851 80.5293 18.7645C80.5747 18.7458 80.6204 18.7279 80.6663 18.7103C80.727 18.6871 80.7881 18.665 80.8495 18.6437C80.8883 18.6302 80.927 18.6168 80.9661 18.6041C81.036 18.5814 81.1064 18.5602 81.1771 18.54C81.2103 18.5304 81.2434 18.5205 81.2769 18.5115C81.3541 18.4907 81.4319 18.4719 81.51 18.454C81.5389 18.4474 81.5676 18.4402 81.5966 18.434C81.6792 18.4162 81.7625 18.4009 81.846 18.3864C81.8722 18.3819 81.898 18.3766 81.9243 18.3724C82.0104 18.3586 82.0972 18.3475 82.1841 18.3372C82.2088 18.3343 82.2331 18.3304 82.2579 18.3278C82.3475 18.3182 82.4378 18.3116 82.5282 18.3058C82.5507 18.3044 82.5729 18.3019 82.5954 18.3007C82.708 18.2947 82.8212 18.2915 82.9347 18.2915H84.381C84.3889 18.2916 84.3967 18.2921 84.4045 18.2921C84.4124 18.2921 84.4201 18.2916 84.428 18.2915H85.8743C85.9878 18.2915 86.1009 18.2947 86.2137 18.3007C86.2363 18.3019 86.2585 18.3044 86.2811 18.3058C86.3714 18.3116 86.4616 18.3182 86.5513 18.3278C86.5761 18.3304 86.6004 18.3343 86.6251 18.3372C86.712 18.3475 86.7986 18.3586 86.8847 18.3724C86.9111 18.3766 86.9371 18.3819 86.9634 18.3865C87.0467 18.4009 87.1298 18.4162 87.2123 18.4339C87.2415 18.4402 87.2703 18.4475 87.2995 18.4541C87.3773 18.472 87.455 18.4907 87.532 18.5115C87.5656 18.5205 87.599 18.5304 87.6324 18.5401C87.7028 18.5603 87.7729 18.5814 87.8426 18.604C87.8819 18.6168 87.9209 18.6302 87.9599 18.6438C88.021 18.665 88.0819 18.687 88.1423 18.7101C88.1885 18.7277 88.2344 18.7459 88.2801 18.7646C88.3304 18.7851 88.3803 18.8065 88.43 18.8282C88.4839 18.8519 88.5377 18.8759 88.5908 18.9011C88.6285 18.9189 88.6658 18.9375 88.7032 18.956C88.7662 18.9874 88.8291 19.019 88.8909 19.0524C88.9131 19.0643 88.935 19.077 88.9571 19.0892C89.48 19.3796 89.9586 19.7407 90.3787 20.1608C90.3798 20.1619 90.381 20.163 90.3821 20.1641C90.4444 20.2265 90.5049 20.2908 90.5647 20.3558C90.5803 20.3728 90.596 20.3897 90.6114 20.4069C91.6296 21.5385 92.2506 23.0351 92.2506 24.6745V25.3253H92.8613V24.6745C92.8614 22.9213 92.2122 21.318 91.1439 20.0892ZM79.841 13.1133C79.841 10.5946 81.8882 8.54552 84.4047 8.54552C86.9211 8.54552 88.9684 10.5946 88.9684 13.1133C88.9684 15.624 86.9338 17.6676 84.4282 17.6804H84.3812C81.8756 17.6676 79.841 15.6241 79.841 13.1133Z" fill="#BEBEBE"/>
<path d="M182.866 98.5734C175.073 98.5734 168.733 92.2276 168.733 84.4276C168.733 76.6276 175.073 70.2819 182.866 70.2819C190.66 70.2819 197 76.6276 197 84.4276C197 92.2276 190.66 98.5734 182.866 98.5734ZM182.866 70.8931C175.41 70.8931 169.344 76.9646 169.344 84.4276C169.344 91.8906 175.41 97.9622 182.866 97.9622C190.323 97.9622 196.389 91.8906 196.389 84.4276C196.389 76.9646 190.323 70.8931 182.866 70.8931Z" fill="#BEBEBE"/>
<path d="M182.866 98.5734C175.073 98.5734 168.733 92.2276 168.733 84.4276C168.733 76.6276 175.073 70.2819 182.866 70.2819C190.66 70.2819 197 76.6276 197 84.4276C197 92.2276 190.66 98.5734 182.866 98.5734ZM182.866 70.8931C175.41 70.8931 169.344 76.9646 169.344 84.4276C169.344 91.8906 175.41 97.9622 182.866 97.9622C190.323 97.9622 196.389 91.8906 196.389 84.4276C196.389 76.9646 190.323 70.8931 182.866 70.8931Z" fill="#BEBEBE"/>
<path d="M175.02 95.6073H174.41V94.9564C174.41 91.0997 177.544 87.9622 181.396 87.9622H184.336C186.361 87.9622 188.283 88.8393 189.608 90.3689L189.147 90.7693C187.937 89.3738 186.184 88.5734 184.336 88.5734H181.396C177.88 88.5734 175.02 91.4369 175.02 94.9564L175.02 95.6073Z" fill="#BEBEBE"/>
<path d="M185.196 88.017C186.882 87.1623 188.041 85.4121 188.041 83.3951C188.041 80.5395 185.719 78.2162 182.866 78.2162C180.013 78.2162 177.692 80.5395 177.692 83.3951C177.692 85.4123 178.851 87.1626 180.537 88.0172C178.835 88.2282 177.26 89.0579 176.125 90.3689L176.586 90.7693C177.795 89.3738 179.549 88.5734 181.396 88.5734H182.838C182.848 88.5734 182.857 88.5741 182.866 88.5741C182.876 88.5741 182.885 88.5734 182.894 88.5734H184.337C187.852 88.5734 190.712 91.4368 190.712 94.9564V95.6074H191.323V94.9564C191.323 91.3913 188.644 88.4428 185.196 88.017ZM178.302 83.3952C178.302 80.8765 180.35 78.8274 182.866 78.8274C185.383 78.8274 187.43 80.8765 187.43 83.3952C187.43 85.9044 185.398 87.9469 182.894 87.9622H182.838C180.335 87.9469 178.302 85.9043 178.302 83.3952Z" fill="#BEBEBE"/>
<path d="M117.425 141.435C106.041 141.435 96.7803 132.166 96.7803 120.773C96.7803 109.379 106.041 100.11 117.425 100.11C128.808 100.11 138.069 109.379 138.069 120.773C138.069 132.166 128.808 141.435 117.425 141.435ZM117.425 100.721C106.378 100.721 97.3909 109.716 97.3909 120.773C97.3909 131.829 106.378 140.824 117.425 140.824C128.472 140.824 137.459 131.829 137.459 120.773C137.459 109.716 128.472 100.721 117.425 100.721Z" fill="#BEBEBE"/>
<path d="M117.425 141.435C106.041 141.435 96.7803 132.166 96.7803 120.773C96.7803 109.379 106.041 100.11 117.425 100.11C128.808 100.11 138.069 109.379 138.069 120.773C138.069 132.166 128.808 141.435 117.425 141.435ZM117.425 100.721C106.378 100.721 97.3909 109.716 97.3909 120.773C97.3909 131.829 106.378 140.824 117.425 140.824C128.472 140.824 137.459 131.829 137.459 120.773C137.459 109.716 128.472 100.721 117.425 100.721Z" fill="#BEBEBE"/>
<path d="M127.229 129.609L127.232 129.606C126.105 128.304 124.679 127.329 123.1 126.745C123.085 126.739 123.069 126.733 123.054 126.727C122.924 126.68 122.794 126.636 122.663 126.595C122.628 126.583 122.592 126.572 122.557 126.561C122.436 126.523 122.313 126.489 122.19 126.456C122.146 126.444 122.101 126.433 122.057 126.421C121.936 126.391 121.816 126.363 121.694 126.337C121.648 126.328 121.602 126.318 121.555 126.309C121.431 126.284 121.306 126.262 121.181 126.242C121.139 126.235 121.098 126.229 121.057 126.223C120.924 126.204 120.79 126.186 120.655 126.172C120.625 126.169 120.594 126.166 120.563 126.163C120.482 126.156 120.401 126.149 120.32 126.143C123.004 125.009 124.892 122.348 124.892 119.254C124.892 115.133 121.542 111.78 117.425 111.78C113.307 111.78 109.958 115.133 109.958 119.254C109.958 122.348 111.846 125.009 114.53 126.143C114.448 126.149 114.367 126.156 114.286 126.163C114.256 126.166 114.225 126.169 114.194 126.172C114.06 126.186 113.926 126.204 113.793 126.223C113.751 126.229 113.71 126.235 113.669 126.242C113.544 126.262 113.419 126.284 113.294 126.309C113.248 126.318 113.202 126.328 113.156 126.337C113.034 126.363 112.913 126.391 112.793 126.421C112.748 126.433 112.704 126.444 112.659 126.456C112.536 126.489 112.414 126.523 112.293 126.561C112.257 126.572 112.222 126.583 112.187 126.595C112.056 126.636 111.925 126.68 111.796 126.727C111.78 126.733 111.765 126.739 111.749 126.745C110.171 127.329 108.745 128.304 107.617 129.606L107.621 129.609C106.071 131.391 105.13 133.716 105.13 136.259V137.216H105.741V136.259C105.741 132.165 108.332 128.666 111.96 127.319C111.975 127.313 111.99 127.307 112.005 127.301C112.126 127.257 112.248 127.216 112.371 127.177C112.405 127.166 112.438 127.155 112.472 127.145C112.586 127.11 112.7 127.078 112.815 127.047C112.858 127.036 112.9 127.025 112.942 127.014C113.055 126.986 113.168 126.96 113.282 126.935C113.326 126.926 113.369 126.917 113.413 126.909C113.53 126.885 113.647 126.864 113.765 126.846C113.803 126.839 113.842 126.834 113.881 126.828C114.007 126.81 114.132 126.793 114.259 126.78C114.287 126.777 114.316 126.775 114.345 126.772C114.482 126.759 114.62 126.747 114.76 126.74C114.774 126.739 114.789 126.739 114.803 126.738C114.955 126.731 115.107 126.727 115.261 126.727C115.261 126.727 115.262 126.727 115.263 126.727H117.387C117.4 126.727 117.412 126.728 117.425 126.728C117.437 126.728 117.45 126.727 117.462 126.727H119.587C119.587 126.727 119.588 126.727 119.589 126.727C119.742 126.727 119.894 126.731 120.046 126.738C120.061 126.739 120.075 126.739 120.09 126.74C120.229 126.747 120.367 126.759 120.505 126.772C120.533 126.774 120.562 126.777 120.591 126.78C120.717 126.793 120.843 126.81 120.968 126.828C121.007 126.834 121.046 126.839 121.085 126.846C121.203 126.864 121.32 126.885 121.436 126.909C121.48 126.917 121.524 126.926 121.567 126.935C121.681 126.96 121.795 126.986 121.907 127.014C121.949 127.025 121.992 127.036 122.034 127.047C122.149 127.078 122.264 127.11 122.377 127.145C122.411 127.155 122.445 127.166 122.478 127.177C122.601 127.216 122.723 127.257 122.844 127.301C122.859 127.307 122.875 127.313 122.89 127.319C126.517 128.666 129.109 132.165 129.109 136.259V137.217H129.72V136.259C129.72 133.716 128.778 131.391 127.229 129.609ZM110.568 119.254C110.568 115.47 113.644 112.392 117.425 112.392C121.205 112.392 124.281 115.47 124.281 119.254C124.281 123.025 121.226 126.095 117.462 126.115H117.387C113.624 126.095 110.568 123.025 110.568 119.254Z" fill="#BEBEBE"/>
<path d="M128.363 94.5278C119.545 94.5278 112.371 87.3476 112.371 78.5218C112.371 69.696 119.545 62.5157 128.363 62.5157C137.181 62.5157 144.355 69.696 144.355 78.5218C144.355 87.3476 137.181 94.5278 128.363 94.5278ZM128.363 63.1269C119.881 63.1269 112.981 70.033 112.981 78.5218C112.981 87.0105 119.881 93.9166 128.363 93.9166C136.844 93.9166 143.744 87.0105 143.744 78.5218C143.744 70.033 136.844 63.1269 128.363 63.1269Z" fill="#BEBEBE"/>
<path d="M128.363 94.5278C119.545 94.5278 112.371 87.3476 112.371 78.5218C112.371 69.696 119.545 62.5157 128.363 62.5157C137.181 62.5157 144.355 69.696 144.355 78.5218C144.355 87.3476 137.181 94.5278 128.363 94.5278ZM128.363 63.1269C119.881 63.1269 112.981 70.033 112.981 78.5218C112.981 87.0105 119.881 93.9166 128.363 93.9166C136.844 93.9166 143.744 87.0105 143.744 78.5218C143.744 70.033 136.844 63.1269 128.363 63.1269Z" fill="#BEBEBE"/>
<path d="M135.976 85.2911L135.979 85.2886C135.948 85.2526 135.915 85.2189 135.883 85.1836C135.868 85.1663 135.852 85.1493 135.836 85.1322C135.255 84.4965 134.58 83.9675 133.841 83.5587C133.814 83.5438 133.788 83.5286 133.761 83.514C133.684 83.4726 133.606 83.4332 133.528 83.3944C133.482 83.3715 133.436 83.3487 133.389 83.3268C133.323 83.2957 133.257 83.2658 133.19 83.2364C133.129 83.2095 133.067 83.1833 133.005 83.1579C132.948 83.1348 132.892 83.1122 132.834 83.0904C132.76 83.0619 132.685 83.0348 132.609 83.0085C132.561 82.9918 132.513 82.975 132.464 82.9592C132.378 82.9313 132.291 82.9053 132.204 82.8802C132.163 82.8683 132.121 82.8561 132.08 82.8449C131.985 82.8192 131.889 82.7961 131.792 82.7739C131.756 82.7657 131.72 82.7566 131.684 82.7489C131.583 82.7271 131.48 82.7082 131.377 82.6904C131.345 82.6847 131.312 82.6781 131.279 82.6728C131.173 82.6558 131.066 82.6421 130.959 82.6294C130.929 82.6258 130.898 82.6209 130.867 82.6177C132.831 81.6783 134.191 79.6707 134.191 77.3508C134.191 74.1339 131.577 71.5168 128.362 71.5168C125.148 71.5168 122.534 74.1339 122.534 77.3508C122.534 79.6707 123.894 81.6783 125.858 82.6177C125.827 82.6209 125.797 82.6258 125.766 82.6294C125.659 82.642 125.552 82.6558 125.446 82.6728C125.413 82.678 125.381 82.6846 125.348 82.6903C125.245 82.7081 125.142 82.7271 125.041 82.7489C125.005 82.7566 124.969 82.7656 124.933 82.7738C124.836 82.796 124.74 82.8192 124.645 82.845C124.604 82.8561 124.563 82.8682 124.522 82.88C124.434 82.9052 124.347 82.9313 124.261 82.9594C124.212 82.975 124.165 82.9917 124.117 83.0083C124.041 83.0347 123.965 83.062 123.89 83.0907C123.833 83.1123 123.777 83.1347 123.721 83.1576C123.658 83.1833 123.596 83.2097 123.534 83.2368C123.468 83.2659 123.402 83.2956 123.336 83.3265C123.289 83.3487 123.243 83.3718 123.196 83.395C123.119 83.4335 123.041 83.4726 122.965 83.5136C122.937 83.5286 122.91 83.5443 122.883 83.5596C122.144 83.9683 121.47 84.4969 120.889 85.1321C120.873 85.1493 120.857 85.1664 120.842 85.1837C120.81 85.219 120.777 85.2527 120.745 85.2886L120.748 85.2912C119.543 86.6779 118.81 88.4874 118.81 90.466V91.2043H119.421V90.466C119.421 88.5957 120.129 86.8883 121.291 85.5973C121.308 85.5777 121.326 85.5585 121.344 85.5391C121.412 85.4651 121.481 85.3918 121.552 85.3207C121.554 85.319 121.556 85.3174 121.557 85.3157C121.968 84.9054 122.427 84.5437 122.925 84.2403C122.925 84.24 122.925 84.2398 122.926 84.2396C123.008 84.1897 123.091 84.1424 123.176 84.0957C123.202 84.0811 123.228 84.0659 123.255 84.0515C123.324 84.014 123.395 83.9785 123.466 83.9432C123.509 83.9216 123.553 83.8998 123.597 83.879C123.657 83.8507 123.717 83.8237 123.778 83.797C123.836 83.7717 123.893 83.747 123.952 83.7233C124.003 83.7022 124.055 83.6818 124.107 83.6619C124.176 83.6354 124.246 83.61 124.317 83.5856C124.361 83.5703 124.405 83.5552 124.449 83.5408C124.529 83.5148 124.61 83.4906 124.691 83.4673C124.728 83.4565 124.766 83.4454 124.803 83.4351C124.892 83.4113 124.981 83.3898 125.07 83.3693C125.103 83.3618 125.135 83.3536 125.168 83.3466C125.263 83.3263 125.358 83.3088 125.453 83.2923C125.483 83.2871 125.512 83.2811 125.542 83.2764C125.64 83.2606 125.739 83.2479 125.838 83.2362C125.867 83.2329 125.894 83.2284 125.923 83.2254C126.025 83.2145 126.129 83.2069 126.232 83.2003C126.257 83.1987 126.282 83.1959 126.308 83.1945C126.436 83.1877 126.565 83.1841 126.695 83.1841H128.334C128.344 83.1841 128.353 83.1848 128.362 83.1848C128.372 83.1848 128.381 83.1841 128.39 83.1841H130.03C130.159 83.1841 130.288 83.1877 130.417 83.1945C130.442 83.1959 130.468 83.1987 130.493 83.2003C130.596 83.2069 130.699 83.2144 130.802 83.2254C130.83 83.2284 130.858 83.2329 130.887 83.2362C130.986 83.2479 131.084 83.2606 131.182 83.2763C131.212 83.281 131.242 83.2871 131.272 83.2923C131.367 83.3088 131.462 83.3263 131.556 83.3465C131.589 83.3536 131.622 83.3618 131.655 83.3694C131.744 83.3899 131.833 83.4113 131.921 83.435C131.959 83.4453 131.997 83.4566 132.035 83.4675C132.115 83.4906 132.196 83.5148 132.275 83.5406C132.32 83.5551 132.364 83.5704 132.409 83.5858C132.479 83.6101 132.548 83.6353 132.617 83.6617C132.67 83.6817 132.722 83.7023 132.774 83.7235C132.832 83.747 132.889 83.7715 132.946 83.7966C133.007 83.8235 133.068 83.8507 133.128 83.8793C133.172 83.8997 133.215 83.9212 133.258 83.9426C133.329 83.9781 133.4 84.014 133.471 84.0518C133.496 84.0658 133.522 84.0805 133.548 84.0947C134.144 84.4257 134.689 84.8373 135.168 85.3161C135.169 85.3176 135.171 85.319 135.172 85.3205C135.243 85.3917 135.312 85.4649 135.38 85.5389C135.398 85.5584 135.416 85.5777 135.434 85.5974C136.596 86.8884 137.304 88.5957 137.304 90.466V91.2043H137.915V90.466C137.915 88.4873 137.182 86.6778 135.976 85.2911ZM123.144 77.3506C123.144 74.4708 125.485 72.1279 128.362 72.1279C131.24 72.1279 133.581 74.4708 133.581 77.3506C133.581 80.221 131.255 82.5573 128.391 82.5726H128.334C125.47 82.5574 123.144 80.221 123.144 77.3506Z" fill="#BEBEBE"/>
<path d="M87.7086 72.7521L87.1943 73.0818L106.662 103.497L107.176 103.168L87.7086 72.7521Z" fill="#BEBEBE"/>
<path d="M150.388 46.5353L149.932 46.9425L173.952 73.8561L174.408 73.4489L150.388 46.5353Z" fill="#BEBEBE"/>
<path d="M170.213 90.0817L134.608 109.856L134.905 110.39L170.509 90.6161L170.213 90.0817Z" fill="#BEBEBE"/>
<path d="M91.7318 55.0801L91.4697 54.5279L121.128 40.4275L121.39 40.9796L107.499 47.5848L91.7318 55.0801Z" fill="#BEBEBE"/>
<path d="M71.8087 19.9221L43.4912 36.0212L43.7928 36.5527L72.1103 20.4536L71.8087 19.9221Z" fill="#BEBEBE"/>
<path d="M38.7779 61.5309L38.2578 61.8513L58.6639 95.0313L59.1839 94.7109L38.7779 61.5309Z" fill="#BEBEBE"/>
<path d="M78.0143 100.655L77.7622 100.098L98.8018 90.5591L113.583 83.8556L113.835 84.4124L99.0538 91.1159L78.0143 100.655Z" fill="#BEBEBE"/>
<path d="M119.637 65.4816L107.116 47.4834L91.9849 25.73L92.486 25.3809L107.617 47.1342L120.138 65.1323L119.637 65.4816Z" fill="#BEBEBE"/>
<path d="M111.335 101.347L106.892 87.1852L96.0557 52.6389L88.1611 27.4755L88.7438 27.2924L96.6383 52.4558L107.475 87.0021L111.918 101.164L111.335 101.347Z" fill="#BEBEBE"/>
<path d="M79.3711 109.235L79.2134 109.826L97.9785 114.847L98.1362 114.257L79.3711 109.235Z" fill="#BEBEBE"/>
<path d="M74.9199 74.6291L69.1631 93.5159L69.7472 93.6942L75.504 74.8075L74.9199 74.6291Z" fill="#BEBEBE"/>
<path d="M82.5872 27.8696L80.5454 47.7618L81.1529 47.8243L83.1947 27.9321L82.5872 27.8696Z" fill="#BEBEBE"/>
<path d="M144.067 78.8835L144.001 79.4911L169.234 82.2243L169.3 81.6167L144.067 78.8835Z" fill="#BEBEBE"/>
<path d="M133.57 51.2558L131.086 63.0425L131.684 63.1686L134.168 51.382L133.57 51.2558Z" fill="#BEBEBE"/>
<path d="M97.7899 17.7456L97.5781 18.3188L121.275 27.0887L121.487 26.5155L97.7899 17.7456Z" fill="#BEBEBE"/>
<path d="M46.3042 50.1622L46.1274 50.7472L66.5259 56.9198L66.7027 56.3348L46.3042 50.1622Z" fill="#BEBEBE"/>
<path d="M119.988 35.6057L46.5107 44.0072L46.5801 44.6144L120.057 36.2129L119.988 35.6057Z" fill="#BEBEBE"/>
<path d="M123.81 93.5662L121.894 100.908L122.485 101.062L124.401 93.7207L123.81 93.5662Z" fill="#BEBEBE"/>
<path d="M124.376 45.747L74.6519 96.3595L75.0873 96.788L124.812 46.1755L124.376 45.747Z" fill="#BEBEBE"/>
<path d="M23.8021 64.277L19.5049 84.1624L20.1017 84.2915L24.3989 64.4062L23.8021 64.277Z" fill="#BEBEBE"/>
<path d="M32.9188 100.993L32.834 101.598L52.1485 104.309L52.2334 103.704L32.9188 100.993Z" fill="#BEBEBE"/>
<path d="M112.734 80.0701L32.293 95.6589L32.4091 96.259L112.85 80.6701L112.734 80.0701Z" fill="#BEBEBE"/>
<path d="M67.1352 67.763L29.791 90.5902L30.1093 91.1119L67.4535 68.2846L67.1352 67.763Z" fill="#BEBEBE"/>
<path d="M75.0925 24.4107L25.8706 86.7826L26.3498 87.1614L75.5718 24.7896L75.0925 24.4107Z" fill="#BEBEBE"/>
</svg>
