<svg width="173" height="153" viewBox="0 0 173 153" fill="none" xmlns="http://www.w3.org/2000/svg">
<path d="M172.519 112.095C172.103 111.55 171.503 111.694 170.968 111.828C168.75 112.385 166.52 112.912 164.334 113.576C163.261 113.903 162.893 113.624 162.611 112.581C159.574 101.363 156.489 90.1565 153.42 78.947C153.099 77.7782 152.794 76.6051 152.482 75.4339C152.236 74.5328 151.99 73.6329 151.744 72.7319C151.448 71.6477 151.15 70.5638 150.854 69.4796C150.72 69.0859 150.586 68.6922 150.452 68.2985C150.031 68.0108 149.642 67.73 149.053 67.8753C146.026 68.6228 142.95 69.1672 139.979 70.1386C139.85 70.436 139.72 70.7324 139.59 71.0297L139.594 71.0775C143.594 85.8142 147.58 100.556 151.623 115.281C151.961 116.508 151.775 116.999 150.498 117.263C148.626 117.65 146.782 118.189 144.951 118.75C144.1 119.01 143.836 118.78 143.64 117.947C143.136 115.814 142.496 113.713 141.955 111.588C141.643 110.363 141.005 109.881 139.715 110.214C137.413 110.806 135.089 111.318 132.773 111.856C132.176 111.994 131.62 112.199 131.183 112.65C131.094 114.762 131.976 116.657 132.613 118.584C133.675 121.798 133.747 121.774 130.572 122.634C129.489 122.927 128.384 123.161 127.329 123.533C126.394 123.861 126.232 123.37 126.042 122.65C125.072 118.989 124.065 115.34 123.075 111.684C116.82 88.579 110.566 65.4723 104.312 42.3668C103.716 40.164 103.555 40.0627 101.41 40.6431C98.9278 41.3141 96.4653 42.0678 93.9631 42.6489C92.6132 42.9627 92.4998 43.6442 92.8162 44.7862C94.2635 50.0126 95.6725 55.2504 97.0938 60.4838C102.963 82.096 108.822 103.71 114.725 125.313C115.036 126.45 114.992 126.971 113.686 127.203C111.988 127.505 110.324 128.014 108.661 128.487C107.95 128.69 107.559 128.638 107.372 127.803C107.045 126.346 106.606 124.915 106.214 123.472C106.081 123.025 105.949 122.577 105.816 122.13C105.679 121.837 105.501 121.556 105.409 121.251C104.012 116.629 102.626 112.004 101.238 107.38C101.211 107.287 101.184 107.194 101.156 107.101C100.28 104.925 99.7346 102.659 99.325 100.357C99.2788 100.171 99.2326 99.9861 99.1864 99.8007C98.8995 98.7139 98.6117 97.6274 98.3248 96.5406C98.2037 96.0906 98.0825 95.6406 97.9616 95.1916C97.8877 94.9195 97.8145 94.6461 97.7406 94.374C97.6053 93.9216 97.4697 93.4683 97.3335 93.0162C96.6554 92.3392 95.8343 92.3456 94.9918 92.5589C92.8192 93.1096 90.6532 93.6885 88.48 94.2372C87.811 94.4065 87.284 94.7361 86.9309 95.3325C86.9752 95.4117 86.9734 95.4888 86.926 95.566C90.0167 107.21 93.0956 118.856 96.2202 130.491C96.4817 131.465 96.2497 131.798 95.311 132.004C93.7163 132.355 92.1307 132.775 90.5789 133.28C89.606 133.597 89.3146 133.272 89.0645 132.37C87.5917 127.061 86.0553 121.77 84.5439 116.472C84.0335 114.684 83.9119 114.599 82.0895 115.157C79.2434 116.029 76.2642 116.482 73.5722 117.841C73.3102 118.441 73.5171 119.012 73.6767 119.588C74.268 121.731 74.8557 123.876 75.4451 126.019C75.5506 126.381 75.6569 126.742 75.7624 127.104C76.9995 129.897 77.4497 132.932 78.4392 135.801C78.631 136.358 78.3285 136.542 77.8568 136.667C75.8229 137.205 73.786 137.737 71.7662 138.324C70.7683 138.613 70.8248 137.856 70.6733 137.325C68.8921 131.076 67.0904 124.831 65.3565 118.568C62.7003 108.971 60.0931 99.3591 57.4676 89.7524C57.4068 89.5285 57.3785 89.2947 57.3351 89.0661C56.3189 85.3703 55.3025 81.6734 54.2873 77.9773C53.9683 76.9552 53.6519 75.9313 53.3299 74.91C52.8715 73.4584 52.2786 73.0153 50.8562 73.3674C48.0451 74.0624 45.2578 74.8567 42.4638 75.6186C41.583 75.8589 41.4529 76.4786 41.679 77.2617C47.3178 96.7387 52.3681 116.377 57.782 135.915C58.1434 137.218 58.4838 138.529 58.8335 139.836C58.931 140.195 59.0285 140.554 59.126 140.913C59.6407 141.942 58.7246 141.843 58.2348 141.974C52.2359 143.568 46.2301 145.137 40.227 146.715C37.9706 147.308 35.7184 147.921 33.4583 148.5C32.7406 148.685 32.1436 148.975 31.8876 149.726C31.9434 149.931 32.0002 150.137 32.0568 150.341C32.882 150.999 33.744 150.655 34.5966 150.425C50.4434 146.159 66.2817 141.858 82.1378 137.629C111.592 129.773 141.058 121.957 170.519 114.128C170.789 114.057 171.068 114.02 171.342 113.967C171.663 113.854 171.984 113.741 172.305 113.629C172.619 113.148 172.946 112.654 172.519 112.095ZM63.3006 118.831C63.3786 119.115 63.411 119.398 63.2084 119.625C61.1678 121.917 59.5738 124.549 57.5171 127.175C57.1022 125.647 56.7331 124.33 56.397 123.004C56.3456 122.804 56.3754 122.513 56.4895 122.349C58.2857 119.771 60.1023 117.208 62.0923 114.39C62.5505 116.081 62.921 117.457 63.3006 118.831ZM59.2763 115.326C57.9972 116.794 56.9979 118.506 55.6773 120.388C55.2013 118.636 54.7953 117.141 54.3894 115.646C54.3076 115.345 54.4272 115.084 54.5965 114.864C56.4013 112.508 58.2145 110.161 60.0448 107.785C61.8479 110.678 61.2736 113.035 59.2763 115.326ZM54.2359 85.8043C54.7071 87.5395 55.0653 88.866 55.4292 90.1909C55.512 90.4918 55.4026 90.7225 55.2328 90.9634C53.471 93.4615 51.7164 95.9638 49.7761 98.728C49.2967 96.9629 48.9043 95.5027 48.501 94.0444C48.4204 93.7513 48.4507 93.4737 48.621 93.2461C50.3969 90.8799 52.1832 88.5213 54.2359 85.8043ZM46.8398 87.9922C46.684 87.4874 46.8167 87.1177 47.1005 86.7049C48.7818 84.2536 50.439 81.786 52.2956 79.0415C52.7288 80.6367 53.0963 81.9938 53.4658 83.3504C53.5649 83.7152 53.3636 83.9699 53.1634 84.2325C51.4265 86.5249 49.693 88.8184 47.7655 91.3666C47.4074 90.0442 47.1524 89.0099 46.8398 87.9922ZM46.5948 76.6966C46.2134 77.9058 45.4213 79.1675 44.6584 79.7809C43.8147 77.1967 43.8147 77.1967 46.5948 76.6966ZM46.3712 80.7955C47.3399 79.49 48.1116 78.039 48.9724 76.6529C49.1195 76.4161 49.2306 76.1041 49.447 75.9738C49.9913 75.6467 50.6795 75.1894 51.2226 75.6056C51.7013 75.9719 51.6078 76.6616 51.218 77.2524C49.5534 79.7727 47.9229 82.316 46.1786 85.0082C45.3129 83.3927 45.3895 82.118 46.3712 80.7955ZM53.419 96.6392C54.3033 95.4581 55.1707 94.2641 56.2252 92.8316C56.7378 94.7193 57.1673 96.3238 57.613 97.9229C57.7069 98.2611 57.7002 98.5758 57.4962 98.855C55.6854 101.329 53.8691 103.798 51.9579 106.399C51.8157 106.12 51.7884 106.081 51.7744 106.037C50.2128 100.916 50.2143 100.918 53.419 96.6392ZM52.6483 109.315C52.5186 108.865 52.6301 108.501 52.8939 108.144C54.656 105.758 56.4155 103.369 58.3719 100.714C58.796 102.275 59.133 103.55 59.4922 104.819C59.6247 105.288 59.4179 105.645 59.1641 105.977C57.4095 108.262 55.6434 110.538 53.6777 113.079C53.282 111.626 52.9796 110.467 52.6483 109.315ZM58.2473 129.89C58.1704 129.61 58.1609 129.358 58.3483 129.102C60.1608 126.634 61.9646 124.161 64.025 121.342C64.4613 122.949 64.7911 124.178 65.1303 125.404C65.2326 125.773 65.0419 126.025 64.8299 126.279C62.977 128.499 61.3057 130.853 59.7015 133.257C59.6374 133.353 59.4989 133.4 59.2476 133.57C58.899 132.282 58.5749 131.085 58.2473 129.89ZM60.0819 136.534C59.9808 136.178 60.1057 135.901 60.2815 135.621C61.9067 133.02 63.7034 130.544 65.8481 127.914C66.2297 129.319 66.5371 130.436 66.8335 131.554C66.9147 131.86 67.0224 132.15 66.7979 132.48C65.0202 135.083 63.3232 137.744 61.1554 140.465C60.7583 139.002 60.4315 137.765 60.0819 136.534ZM68.1165 139.308C66.6393 139.687 65.1713 140.1 63.331 140.6C64.8859 138.412 66.1957 136.569 67.6832 134.476C68.0784 135.932 68.3865 137.135 68.7369 138.326C68.9145 138.93 68.6687 139.166 68.1165 139.308ZM78.7238 118.191C79.2869 118.013 79.8647 117.878 80.8201 117.618C79.3066 119.493 78.1899 121.135 76.7894 122.533C76.6729 122.459 76.6158 122.444 76.6079 122.415C75.5217 118.346 75.0018 119.366 78.7238 118.191ZM78.8857 122.793C80.2585 121.426 81.3907 119.818 82.8578 118.04C83.1686 119.184 83.3874 120.024 83.6284 120.858C83.7275 121.2 83.6913 121.494 83.459 121.764C81.7764 123.723 80.0951 125.682 78.3949 127.663C77.282 125.843 77.3454 124.325 78.8857 122.793ZM80.1149 134.405C79.7074 132.904 79.3896 131.703 79.0518 130.509C78.951 130.153 79.0691 129.874 79.2565 129.596C80.6896 127.462 82.5152 125.672 84.1708 123.737C85.8219 126.394 85.59 128.554 83.3098 130.54C82.1457 131.554 81.3033 132.939 80.1149 134.405ZM83.9281 135.015C83.2275 135.205 82.5278 135.395 81.6504 135.346C83.0681 133.611 84.4849 131.876 85.9586 130.072C86.1564 130.243 86.2026 130.264 86.2159 130.298C87.6819 133.998 87.6819 133.998 83.9281 135.015ZM99.5354 121.117C98.708 122.119 97.8311 123.08 96.7976 124.265C96.4079 122.83 96.0663 121.603 95.7497 120.368C95.709 120.211 95.7528 119.99 95.8382 119.847C97.2408 117.491 98.8104 115.254 100.593 113.13C100.734 113.299 100.81 113.355 100.838 113.43C102.394 117.641 102.401 117.646 99.5354 121.117ZM95.1657 112.101C96.5185 110.657 97.5435 108.907 98.8297 107.134C99.922 109.255 100.336 111.006 98.5417 112.846C97.227 114.193 96.2851 115.903 95.0012 117.696C94.6661 115.688 93.375 114.013 95.1657 112.101ZM94.1502 105.485C95.3262 104.256 96.2209 102.758 97.3759 101.2C98.0529 103.182 98.7564 104.811 97.0859 106.573C95.7327 108.001 94.7276 109.759 93.5225 111.435C92.2182 109.143 92.4276 107.285 94.1502 105.485ZM95.4147 100.885C94.1446 102.29 93.1438 103.939 91.9394 105.598C90.895 103.652 90.8074 102.067 92.3433 100.427C93.624 99.0607 94.6088 97.414 95.9246 95.9976C96.9299 97.8561 96.7974 99.3563 95.4147 100.885ZM89.4801 96.2982C89.8308 95.3574 91.5419 95.6408 92.6131 95.2391C93.1247 95.0473 93.6684 94.9431 94.4771 94.7235C93.0347 96.6312 91.7512 98.3269 90.4437 100.056C90.29 99.8718 90.2064 99.8158 90.189 99.7438C89.903 98.5801 89.1334 97.2306 89.4801 96.2982ZM97.4866 126.993C97.3597 126.548 97.4349 126.2 97.748 125.845C99.4057 123.967 101.045 122.073 102.927 119.911C103.26 121.14 103.521 122.147 103.81 123.145C103.946 123.613 103.751 123.968 103.488 124.3C101.875 126.333 100.254 128.359 98.4696 130.597C98.1005 129.234 97.8047 128.11 97.4866 126.993ZM102.766 129.988C102.272 130.119 101.781 130.255 100.967 130.476C102.044 128.664 103.382 127.424 104.487 125.981C104.702 126.092 104.763 126.104 104.774 126.133C105.89 129.16 105.889 129.16 102.766 129.988ZM95.0642 45.0358C94.9489 44.5997 95.2732 44.4816 95.6045 44.3927C97.0311 44.0063 98.4562 43.6182 99.8314 43.2447C98.7244 45.3308 97.6378 47.3771 96.3525 49.7986C95.8603 47.9862 95.4531 46.5135 95.0642 45.0358ZM98.0927 50.071C99.6085 47.9527 100.812 45.6105 102.332 43.0702C102.852 44.9849 103.267 46.5974 103.737 48.1941C103.894 48.7275 103.661 49.0852 103.41 49.4808C101.807 52.0009 100.21 54.5239 98.3699 57.4255C97.9136 54.7381 96.2728 52.6149 98.0927 50.071ZM107.01 89.121C106.901 88.736 106.925 88.401 107.16 88.0719C108.877 85.6597 110.59 83.2453 112.43 80.6556C113.253 82.8703 113.962 84.7304 112.351 86.7854C110.836 88.7159 109.641 90.8964 108.134 93.2331C107.715 91.6992 107.374 90.4064 107.01 89.121ZM105.178 82.338C105.097 82.0429 105.17 81.7857 105.324 81.542C106.923 78.9897 108.731 76.595 110.749 74.0605C111.137 75.4887 111.466 76.6875 111.787 77.8874C111.857 78.1492 111.907 78.3779 111.701 78.6598C109.922 81.0952 108.171 83.5498 106.24 86.2379C105.847 84.7915 105.516 83.5632 105.178 82.338ZM108.917 95.9323C108.86 95.7093 109.045 95.4031 109.168 95.1614C110.575 92.4189 112.391 89.9423 114.291 87.1147C114.919 89.4289 115.423 91.4142 116.009 93.375C116.224 94.0938 115.858 94.5384 115.509 95.0207C113.897 97.2491 112.14 99.3718 110.549 102.021C109.953 99.8238 109.41 97.8841 108.917 95.9323ZM108.738 73.6678C107.364 75.5497 105.982 77.4234 104.422 79.5487C104.055 78.1986 103.769 77.0837 103.444 75.9792C103.309 75.5205 103.45 75.1848 103.71 74.822C105.389 72.476 107.052 70.1187 108.746 67.727C110.208 70.0728 110.192 71.6772 108.738 73.6678ZM108.275 64.9919C108.357 65.2949 108.198 65.5206 108.027 65.7536C106.298 68.1195 104.575 70.4899 102.668 73.1093C102.18 71.3153 101.787 69.785 101.343 68.2703C101.149 67.6081 101.408 67.0745 101.691 66.5426C103.06 63.9846 104.86 61.7145 106.644 58.9814C107.244 61.1913 107.761 63.0912 108.275 64.9919ZM112.354 108.793C111.956 107.212 111.059 105.546 111.309 104.075C111.548 102.671 112.966 101.458 113.897 100.184C114.773 98.9821 115.687 97.8094 116.792 96.351C117.331 98.3361 117.797 100.058 118.267 101.779C118.35 102.084 118.216 102.312 118.048 102.548C116.325 104.969 114.607 107.393 112.703 110.076C112.524 109.42 112.434 109.108 112.354 108.793ZM113.394 112.611C113.27 112.17 113.553 111.906 113.764 111.614C115.426 109.317 117.096 107.026 118.985 104.428C119.408 105.986 119.746 107.228 120.083 108.469C120.24 109.05 119.854 109.45 119.579 109.86C117.997 112.214 116.393 114.551 114.628 117.14C114.184 115.501 113.8 114.053 113.394 112.611ZM124.235 124.171C122.495 125.066 120.54 125.196 118.652 125.763C119.801 123.497 121.398 121.601 122.859 119.525C123.052 119.683 123.105 119.704 123.113 119.736C123.513 121.207 124.06 122.642 124.235 124.171ZM119.483 121.207C118.447 122.219 117.756 123.583 116.763 124.99C116.271 123.178 115.838 121.579 115.402 119.98C115.308 119.634 115.435 119.335 115.602 119.051C117.135 116.446 118.905 114.005 120.806 111.432C120.926 111.691 120.945 111.733 120.965 111.773C122.632 115.257 122.373 118.383 119.483 121.207ZM103.309 60.7895C102.268 61.9541 101.523 63.3844 100.463 64.9603C99.958 63.1016 99.5101 61.4752 99.0837 59.8439C99.0437 59.689 99.1173 59.4908 99.181 59.3284C99.2299 59.2032 99.3515 59.1091 99.4277 58.993C101.076 56.4781 102.722 53.9607 104.339 51.4906C106.57 54.9756 105.838 57.9599 103.309 60.7895ZM133.921 116.28C133.231 113.736 133.227 113.72 135.862 113.148C136.769 112.952 137.698 112.858 138.845 112.682C137.312 114.66 135.96 116.404 134.475 118.321C134.252 117.502 134.087 116.891 133.921 116.28ZM141.714 118.719C141.876 119.323 141.672 119.651 141.024 119.808C139.487 120.182 137.97 120.635 136.437 121.031C136.114 121.114 135.736 121.411 135.44 120.956C135.152 120.514 135.403 120.179 135.645 119.823C137.056 117.745 138.646 115.807 140.365 113.743C140.844 115.509 141.283 117.113 141.714 118.719ZM149.294 72.277C150.308 74.2069 150.085 75.8715 148.564 77.5416C147.236 78.9985 146.195 80.7154 144.835 82.58C144.496 81.3341 144.241 80.3704 143.971 79.4116C143.876 79.0717 143.921 78.787 144.139 78.5006C145.762 76.3656 147.377 74.2247 149.091 71.957C149.244 72.1985 149.273 72.2362 149.294 72.277ZM142.65 71.4776C144.367 71.12 146.078 70.7352 148.048 70.3038C146.426 72.4975 144.947 74.4982 143.259 76.7791C142.816 75.1462 142.47 73.8062 142.083 72.4771C141.918 71.9094 142.044 71.6036 142.65 71.4776ZM145.781 84.3157C147.402 82.1087 149.01 79.8907 150.722 77.5409C151.363 78.8299 151.543 80.0712 151.916 81.2456C152.029 81.6023 151.832 81.861 151.628 82.1279C149.987 84.2686 148.354 86.4147 146.525 88.8118C146.164 87.482 145.887 86.4112 145.578 85.3501C145.463 84.9512 145.54 84.6432 145.781 84.3157ZM149.612 87.6389C150.676 86.5643 151.476 85.227 152.605 83.7307C153.037 85.3231 153.394 86.595 153.718 87.8759C153.769 88.0776 153.742 88.37 153.626 88.532C151.949 90.867 150.252 93.186 148.572 95.4908C146.691 92.4846 147.296 89.9754 149.612 87.6389ZM150.06 96.5291C151.454 94.6097 152.706 92.5838 154.359 90.707C154.5 90.8905 154.532 90.9199 154.55 90.9566C155.406 92.7643 155.25 94.2771 153.747 95.8231C152.33 97.2806 151.269 99.0845 150.04 100.751C148.895 98.9687 148.899 98.1284 150.06 96.5291ZM150.583 103.763C150.491 103.43 150.486 103.126 150.701 102.837C152.36 100.605 154.016 98.3716 155.906 95.8275C156.381 97.5771 156.744 98.9178 157.109 100.258C157.195 100.575 157.306 100.901 157.053 101.186C155.28 103.19 153.501 105.19 151.565 107.371C151.189 105.983 150.893 104.87 150.583 103.763ZM160.308 114.632C158.255 115.172 156.208 115.738 154.159 116.295C155.683 113.75 157.402 111.523 159.603 109.274C160.049 110.916 160.419 112.327 160.82 113.729C160.966 114.241 160.828 114.495 160.308 114.632ZM156.577 109.986C155.39 111.051 154.495 112.439 153.326 113.855C152.928 112.389 152.597 111.142 152.248 109.902C152.152 109.562 152.156 109.272 152.409 108.999C154.173 107.092 155.934 105.182 157.697 103.271C159.448 105.974 158.732 108.05 156.577 109.986Z" fill="#DCDCDC"/>
<path d="M73.5605 117.844C73.5641 117.842 73.568 117.841 73.5716 117.839C73.5737 117.835 73.5726 117.831 73.575 117.828L73.5605 117.844Z" fill="#DCDCDC"/>
<path d="M131.175 112.655L131.183 112.648L131.182 112.642L131.175 112.655Z" fill="#DCDCDC"/>
<path d="M139.976 70.1385L139.979 70.1377L139.983 70.1294L139.976 70.1385Z" fill="#DCDCDC"/>
<path d="M17.4515 66.866C18.1519 66.6861 18.6396 66.3454 18.7581 65.5951C18.672 65.3771 18.5851 65.1603 18.4989 64.9422C18.3467 64.8509 18.1957 64.7603 18.0434 64.6691C17.9856 64.7117 17.9324 64.7065 17.8828 64.6536C15.2166 65.3518 12.5473 66.0425 9.88448 66.7533C9.21878 66.931 8.36281 67.0567 8.5911 68.0423C8.82543 69.0501 9.63464 68.9278 10.4032 68.7242C12.7524 68.1028 15.0976 67.47 17.4515 66.866Z" fill="#DCDCDC"/>
<path d="M31.4751 132.452C31.5397 132.412 31.5979 132.42 31.6488 132.478C33.2649 132.011 34.8823 131.545 36.4994 131.078L36.5763 131.044C36.6845 130.84 36.7924 130.634 36.9016 130.429C36.8059 130.089 36.7093 129.748 36.6136 129.407C34.4815 129.432 32.4314 129.709 30.797 131.276C30.8573 131.761 31.067 132.163 31.4751 132.452Z" fill="#DCDCDC"/>
<path d="M30.7854 131.282C30.7887 131.279 30.7923 131.277 30.7956 131.274C30.7951 131.272 30.7946 131.27 30.7938 131.267L30.7854 131.282Z" fill="#DCDCDC"/>
<path d="M19.8261 73.9525C18.6231 74.2999 17.4136 74.6273 16.2176 74.9967C15.5819 75.1932 15.1231 75.6328 15.3045 76.3389C15.4985 77.0955 16.1359 77.1721 16.7597 76.9281C18.278 76.3334 20.1254 76.5312 21.286 75.0699C21.249 74.9794 21.2493 74.8892 21.2858 74.7985C21.0726 74.044 20.6092 73.7263 19.8261 73.9525Z" fill="#DCDCDC"/>
<path d="M11.3596 45.4345C9.97684 45.8411 8.59905 46.266 7.22013 46.683C7.08832 46.9188 6.95677 47.1555 6.82496 47.3913C6.88345 47.6449 6.94291 47.8981 7.00114 48.1507C7.48979 48.5268 8.01375 48.5254 8.58367 48.3499C9.69483 48.0077 10.8226 47.7191 11.9297 47.3656C12.557 47.1651 13.023 46.7557 12.8235 46.0172C12.6098 45.2265 11.989 45.249 11.3596 45.4345Z" fill="#DCDCDC"/>
<path d="M7.21945 46.6833L7.22042 46.6831L7.22789 46.6686L7.21945 46.6833Z" fill="#DCDCDC"/>
<path d="M34.2392 120.783C33.9807 119.95 33.284 120.043 32.6126 120.227C31.3978 120.558 30.1826 120.887 28.9666 121.217C28.9616 121.199 28.9564 121.179 28.9514 121.161C27.7364 121.491 26.5193 121.813 25.3072 122.154C24.6545 122.337 23.9781 122.575 24.2135 123.457C24.4346 124.286 25.1032 124.314 25.7941 124.133C28.2757 123.484 30.7555 122.828 33.232 122.164C33.9283 121.977 34.4924 121.597 34.2392 120.783Z" fill="#DCDCDC"/>
<path d="M1.25361 40.3069C4.04719 39.5969 6.84077 38.887 9.62037 38.1217C10.2211 37.9565 10.5169 37.4203 10.2662 36.791C10.0108 36.1484 9.45719 36.1091 8.85975 36.2672C6.38574 36.9215 3.91567 37.5903 1.43556 38.2182C0.229538 38.524 -0.125971 39.1303 0.570998 40.2239C0.799437 40.2562 1.04631 40.3601 1.25361 40.3069Z" fill="#DCDCDC"/>
<path d="M0.532162 40.3132L0.571107 40.2238L0.566726 40.223L0.532162 40.3132Z" fill="#DCDCDC"/>
<path d="M26.1411 94.0633C26.6651 93.921 26.8899 93.3522 26.6384 92.7884C26.3891 92.2292 25.899 92.1187 25.3475 92.2706C22.4763 93.0607 19.6056 93.8569 16.7354 94.6509C16.4701 95.2235 16.5791 95.743 16.9583 96.2235C20.1732 96.1607 23.1061 94.8875 26.1411 94.0633Z" fill="#DCDCDC"/>
<path d="M30.8696 110.919C29.2181 111.222 27.5844 111.635 26.0236 112.26C25.4882 112.475 25.3348 113.013 25.5685 113.568C25.7866 114.085 26.2229 114.2 26.7311 114.068C27.5 113.87 28.2644 113.655 29.0307 113.447C29.0299 113.444 29.0291 113.441 29.0283 113.438C29.7492 113.242 30.4703 113.047 31.1919 112.85C31.761 112.695 32.1079 112.335 32.0046 111.733C31.9008 111.134 31.4063 110.82 30.8696 110.919Z" fill="#DCDCDC"/>
<path d="M38.3868 138.814C36.8001 139.191 35.2228 139.622 33.6673 140.109C33.1278 140.279 32.9166 140.802 33.1146 141.379C33.3234 141.987 33.8031 142.09 34.3613 141.948C35.0854 141.763 35.8039 141.559 36.5248 141.363C36.5235 141.358 36.5222 141.354 36.5209 141.349C37.2871 141.141 38.0545 140.941 38.8178 140.722C39.3928 140.557 39.7087 140.16 39.5648 139.569C39.4253 138.994 38.9271 138.686 38.3868 138.814Z" fill="#DCDCDC"/>
<path d="M14.4636 54.8978C12.8749 55.2671 11.2985 55.6973 9.74043 56.1795C9.20428 56.3459 8.97104 56.8568 9.15408 57.4392C9.34743 58.052 9.81933 58.1756 10.3836 58.0328C11.1523 57.8375 11.9169 57.6195 12.6822 57.4116C12.6816 57.4097 12.6809 57.4068 12.6803 57.4049C13.4012 57.2091 14.1232 57.0172 14.8437 56.8163C15.4188 56.656 15.7429 56.2737 15.6188 55.6794C15.4971 55.0938 14.9999 54.774 14.4636 54.8978Z" fill="#DCDCDC"/>
<path d="M18.0394 84.7803C17.168 85.0895 17.2472 85.9342 17.8939 86.6062C19.6534 86.5947 21.2413 85.837 22.9138 85.4481C24.1107 85.1697 24.3078 84.4799 23.5535 83.5149C21.5905 83.3796 19.8133 84.1503 18.0394 84.7803Z" fill="#DCDCDC"/>
<path d="M23.6165 102.714C23.4847 102.939 23.3541 103.164 23.2223 103.388C23.3116 103.919 23.537 104.593 24.09 104.465C25.9041 104.048 27.9091 104.075 29.3221 102.547C29.2207 102.201 29.1184 101.854 29.017 101.508C27.0732 101.268 25.4048 102.256 23.6165 102.714Z" fill="#DCDCDC"/>
</svg>
