<svg width="19" height="18" viewBox="0 0 19 18" fill="none" xmlns="http://www.w3.org/2000/svg">
<g clip-path="url(#clip0_1049_7359)">
<path d="M18.4993 9.00023C18.4993 13.963 14.462 18.0002 9.49925 18.0002C8.888 18.0002 8.276 17.938 7.67975 17.8157C7.274 17.7325 7.01225 17.3357 7.09625 16.93C7.1795 16.5242 7.57475 16.2625 7.982 16.3465C8.4785 16.4485 8.98925 16.5002 9.49925 16.5002C13.6348 16.5002 16.9993 13.1357 16.9993 9.00023C16.9993 4.86473 13.6348 1.50023 9.49925 1.50023C9.017 1.50023 8.53475 1.54598 8.06525 1.63673C7.65575 1.71398 7.265 1.44923 7.187 1.04273C7.109 0.636227 7.3745 0.243227 7.781 0.164477C8.3435 0.0557266 8.92175 0.000976562 9.49925 0.000976562C14.462 0.000976562 18.4993 4.03823 18.4993 9.00098V9.00023ZM9.4895 13.498C9.4895 13.498 9.49625 13.5002 9.49925 13.5002C9.503 13.5002 9.506 13.498 9.50975 13.498C9.93275 13.495 10.355 13.3337 10.6783 13.012L13.0303 10.6555C13.3228 10.3622 13.3228 9.88748 13.0288 9.59423C12.7355 9.30173 12.2615 9.30248 11.9683 9.59498L10.2493 11.3177V5.25023C10.2493 4.83623 9.91325 4.50023 9.49925 4.50023C9.08525 4.50023 8.74925 4.83623 8.74925 5.25023V11.3177L7.03025 9.59498C6.73775 9.30173 6.263 9.30098 5.969 9.59423C5.67575 9.88673 5.675 10.3615 5.96825 10.6555L8.321 13.0127C8.6435 13.3352 9.06575 13.4957 9.4895 13.498ZM4.0235 14.1257C3.74075 13.8227 3.266 13.8077 2.96375 14.0912C2.6615 14.374 2.64575 14.8487 2.92925 15.151C3.35075 15.601 3.82025 16.009 4.3235 16.3637C4.45475 16.456 4.6055 16.5002 4.75475 16.5002C4.99025 16.5002 5.22275 16.3892 5.369 16.1822C5.6075 15.8432 5.52575 15.3752 5.1875 15.1367C4.7675 14.8412 4.37525 14.5007 4.0235 14.1257ZM2.1245 10.3705C2.0495 9.96323 1.65875 9.69248 1.25075 9.76898C0.843504 9.84398 0.574254 10.2355 0.649254 10.6427C0.755004 11.2142 0.916254 11.7767 1.13 12.3145C1.247 12.6092 1.529 12.7885 1.8275 12.7885C1.91975 12.7885 2.01275 12.7712 2.1035 12.7352C2.489 12.5822 2.67725 12.1465 2.52425 11.7617C2.3465 11.314 2.21225 10.846 2.1245 10.3705ZM4.3235 1.63673C3.82025 1.99148 3.35075 2.39948 2.92925 2.84948C2.64575 3.15173 2.6615 3.62648 2.96375 3.90923C3.1085 4.04498 3.29225 4.11248 3.47675 4.11248C3.677 4.11248 3.8765 4.03298 4.0235 3.87548C4.37525 3.50048 4.76675 3.15998 5.18675 2.86448C5.52575 2.62598 5.60675 2.15798 5.36825 1.81898C5.1305 1.48073 4.66325 1.39898 4.32275 1.63748L4.3235 1.63673ZM2.1035 5.26523C1.7165 5.11148 1.28225 5.30048 1.13 5.68598C0.916254 6.22373 0.755004 6.78623 0.649254 7.35773C0.574254 7.76498 0.843504 8.15648 1.25075 8.23148C1.29725 8.23973 1.343 8.24423 1.388 8.24423C1.74275 8.24423 2.0585 7.99148 2.1245 7.63073C2.21225 7.15523 2.3465 6.68723 2.52425 6.23948C2.67725 5.85473 2.489 5.41748 2.1035 5.26523Z" fill="white"/>
</g>
<defs>
<clipPath id="clip0_1049_7359">
<rect width="18" height="18" fill="white" transform="translate(0.5)"/>
</clipPath>
</defs>
</svg>
