<svg width="19" height="18" viewBox="0 0 19 18" fill="none" xmlns="http://www.w3.org/2000/svg">
<g clip-path="url(#clip0_633_5485)">
<path d="M18.4993 8.99974C18.4993 13.9625 14.462 17.9997 9.49925 17.9997C8.888 17.9997 8.276 17.9375 7.67975 17.8152C7.274 17.732 7.01225 17.3352 7.09625 16.9295C7.1795 16.5237 7.57475 16.262 7.982 16.346C8.4785 16.448 8.98925 16.4997 9.49925 16.4997C13.6348 16.4997 16.9993 13.1352 16.9993 8.99974C16.9993 4.86424 13.6348 1.49974 9.49925 1.49974C9.017 1.49974 8.53475 1.54549 8.06525 1.63624C7.65575 1.71349 7.265 1.44874 7.187 1.04224C7.109 0.635738 7.3745 0.242738 7.781 0.163988C8.3435 0.0552383 8.92175 0.000488281 9.49925 0.000488281C14.462 0.000488281 18.4993 4.03774 18.4993 9.00049V8.99974ZM9.4895 13.4975C9.4895 13.4975 9.49625 13.4997 9.49925 13.4997C9.503 13.4997 9.506 13.4975 9.50975 13.4975C9.93275 13.4945 10.355 13.3332 10.6783 13.0115L13.0303 10.655C13.3228 10.3617 13.3228 9.88699 13.0288 9.59374C12.7355 9.30124 12.2615 9.30199 11.9683 9.59449L10.2493 11.3172V5.24974C10.2493 4.83574 9.91325 4.49974 9.49925 4.49974C9.08525 4.49974 8.74925 4.83574 8.74925 5.24974V11.3172L7.03025 9.59449C6.73775 9.30124 6.263 9.30049 5.969 9.59374C5.67575 9.88624 5.675 10.361 5.96825 10.655L8.321 13.0122C8.6435 13.3347 9.06575 13.4952 9.4895 13.4975ZM4.0235 14.1252C3.74075 13.8222 3.266 13.8072 2.96375 14.0907C2.6615 14.3735 2.64575 14.8482 2.92925 15.1505C3.35075 15.6005 3.82025 16.0085 4.3235 16.3632C4.45475 16.4555 4.6055 16.4997 4.75475 16.4997C4.99025 16.4997 5.22275 16.3887 5.369 16.1817C5.6075 15.8427 5.52575 15.3747 5.1875 15.1362C4.7675 14.8407 4.37525 14.5002 4.0235 14.1252ZM2.1245 10.37C2.0495 9.96274 1.65875 9.69199 1.25075 9.76849C0.843504 9.84349 0.574254 10.235 0.649254 10.6422C0.755004 11.2137 0.916254 11.7762 1.13 12.314C1.247 12.6087 1.529 12.788 1.8275 12.788C1.91975 12.788 2.01275 12.7707 2.1035 12.7347C2.489 12.5817 2.67725 12.146 2.52425 11.7612C2.3465 11.3135 2.21225 10.8455 2.1245 10.37ZM4.3235 1.63624C3.82025 1.99099 3.35075 2.39899 2.92925 2.84899C2.64575 3.15124 2.6615 3.62599 2.96375 3.90874C3.1085 4.04449 3.29225 4.11199 3.47675 4.11199C3.677 4.11199 3.8765 4.03249 4.0235 3.87499C4.37525 3.49999 4.76675 3.15949 5.18675 2.86399C5.52575 2.62549 5.60675 2.15749 5.36825 1.81849C5.1305 1.48024 4.66325 1.39849 4.32275 1.63699L4.3235 1.63624ZM2.1035 5.26474C1.7165 5.11099 1.28225 5.29999 1.13 5.68549C0.916254 6.22324 0.755004 6.78574 0.649254 7.35724C0.574254 7.76449 0.843504 8.15599 1.25075 8.23099C1.29725 8.23924 1.343 8.24374 1.388 8.24374C1.74275 8.24374 2.0585 7.99099 2.1245 7.63024C2.21225 7.15474 2.3465 6.68674 2.52425 6.23899C2.67725 5.85424 2.489 5.41699 2.1035 5.26474Z" fill="white"/>
</g>
<defs>
<clipPath id="clip0_633_5485">
<rect width="18" height="18" fill="white" transform="translate(0.5 -0.000244141)"/>
</clipPath>
</defs>
</svg>
