<svg width="94" height="107" viewBox="0 0 94 107" fill="none" xmlns="http://www.w3.org/2000/svg">
<path d="M91.5483 74.8931C82.664 57.2653 70.8689 41.2314 57.3545 26.8806C53.498 22.7854 49.4991 18.8267 45.3875 14.988C45.3763 14.9775 45.3642 14.9713 45.353 14.9615C42.9029 9.63112 39.4845 4.88262 34.0934 2.04798C29.4241 -0.407168 24.1523 -0.456225 19.1284 0.854527C14.3726 2.09522 9.24546 4.1914 5.66737 7.65837C4.4148 8.87191 3.38818 10.3392 2.6915 11.9279C2.51351 12.115 2.44046 12.3236 2.44868 12.5255C1.34285 15.4421 1.35381 18.7003 3.10201 21.5269C3.25718 21.7777 3.47306 21.9078 3.69966 21.9464C3.94063 22.099 4.25074 22.1196 4.56634 21.893C8.05909 19.3835 12.147 17.5424 16.2958 16.3989C16.8852 17.0376 17.4324 17.6827 17.926 18.2968C14.3714 19.5298 10.9314 21.3056 7.9694 23.6108C5.91907 25.2066 4.79248 28.2169 3.72225 30.4902C2.95437 32.1211 2.22894 33.7719 1.52473 35.4313C0.828506 37.0718 0.144135 38.6548 0.0206812 40.4573C-0.270952 44.7122 2.57853 48.2194 4.98234 51.4419C6.26753 53.1648 7.6294 54.8523 9.1218 56.409C9.19756 56.5304 9.29682 56.634 9.41412 56.7119C10.3563 57.6723 11.351 58.5792 12.4124 59.4082C15.5097 61.8273 19.5008 62.9338 21.924 66.1772C24.2758 69.3249 25.5217 73.2222 27.2893 76.7011C29.106 80.2764 31.1798 83.7213 33.4846 87.0032C38.658 94.3693 44.9505 100.865 52.1213 106.301C52.2338 106.387 52.3456 106.438 52.4542 106.463C52.5535 106.549 52.679 106.618 52.8399 106.656C57.2536 107.692 61.5386 106.205 65.6254 104.619C69.3924 103.158 73.1734 101.676 76.744 99.7718C80.1982 97.9298 83.1695 95.6219 86.0224 92.9611C88.2799 90.8556 90.6376 88.6124 91.971 85.7766C93.6658 82.1723 93.1635 78.4306 91.5483 74.8931ZM53.382 25.3864C52.9083 25.5872 52.4321 25.7826 51.9558 25.9774C51.1939 26.2889 50.4308 26.5977 49.6668 26.9034C49.6198 26.9224 49.5767 26.9445 49.5356 26.968C48.7919 24.3743 47.9932 21.696 47.0339 19.0722C49.1849 21.1406 51.3027 23.2448 53.382 25.3864ZM6.96238 8.95383C10.226 5.79858 14.876 3.92101 19.1911 2.73485C23.8513 1.45376 28.7997 1.33259 33.1688 3.62983C36.9068 5.59528 39.8624 8.81282 42.0024 12.4131C44.8049 17.1278 46.3367 22.4349 47.8321 27.6738C41.0949 30.2294 34.3533 32.7735 27.6163 35.3302C26.4514 28.5426 23.4837 22.1362 19.0745 16.8393C16.9386 14.2733 14.3716 11.5459 11.2175 10.2698C9.49831 9.57429 7.68257 9.50243 6.00899 9.99213C6.30747 9.62771 6.62534 9.2797 6.96238 8.95383ZM4.27973 19.8659C3.21178 17.6451 3.33544 15.2073 4.21627 13.0061C7.71929 9.90405 11.6698 11.9799 14.8239 14.9159C11.1194 16.0329 7.4651 17.6928 4.27973 19.8659ZM19.1017 19.8333C22.5721 24.5656 24.8679 30.0626 25.8556 35.8391C25.2689 36.0175 24.6811 36.2809 24.1596 36.4504C23.3781 36.7044 22.5956 36.9566 21.8078 37.1914C21.3859 37.3171 20.9288 37.4018 20.508 37.5531C17.241 32.9625 13.8949 28.4216 10.326 24.0626C11.2109 23.4776 12.1812 22.978 13.0166 22.5079C14.9577 21.4156 16.9886 20.5261 19.1017 19.8333ZM2.99156 45.2724C1.93844 43.4889 1.57059 41.368 2.01488 39.3376C2.37566 37.6889 3.20379 36.1047 3.87788 34.5651C5.17608 31.5995 6.43892 28.1393 8.51891 25.6105C8.76217 25.3147 9.04672 25.04 9.35593 24.7808C9.3719 24.8066 9.38673 24.8326 9.40704 24.8574C12.9324 29.1584 16.2705 33.6165 19.5063 38.1512C18.7678 38.754 18.1042 39.5543 17.4794 40.2255C13.8459 44.129 10.7568 48.8031 9.38991 53.9998C6.98314 51.3271 4.80936 48.351 2.99156 45.2724ZM36.7172 88.3493C34.4663 85.3585 32.4118 82.2195 30.5744 78.9584C28.7101 75.6491 27.2583 72.1705 25.5829 68.7701C23.8687 65.2909 21.6328 62.692 18.2119 60.8153C15.4775 59.3153 13.0933 57.7623 10.8981 55.5953C12.0292 50.2907 15.0453 45.5499 18.6978 41.6037C19.2092 41.0513 19.8536 40.1817 20.5359 39.6014C24.1683 44.743 27.6807 49.9724 31.1926 55.1761C35.0445 60.8833 38.8583 66.616 42.6868 72.3391C46.2683 77.693 50.0796 82.9331 53.5098 88.384C54.4692 89.9085 55.6024 91.6647 55.9465 93.4593C56.1866 94.7125 56.085 96.0693 55.9273 97.326C55.6122 99.8355 54.921 102.856 53.1717 104.833C53.1338 104.794 53.0929 104.755 53.0459 104.72C46.8901 100.053 41.363 94.5222 36.7172 88.3493ZM67.0573 97.5492C67.3492 97.425 67.6413 97.3009 67.9331 97.177C68.6515 96.8724 69.3701 96.5684 70.0887 96.2642C71.5386 95.6504 72.9886 95.0363 74.4333 94.4099C78.2211 92.7681 82.0721 91.0819 85.5845 88.8771C84.7607 90.0872 83.8447 91.2416 82.782 92.1907C81.1208 93.6742 78.6845 94.5174 76.683 95.4121C73.0525 97.0351 69.3678 98.5448 65.6649 99.9968C65.6877 99.8482 65.7105 99.6997 65.7333 99.5511C65.786 99.2091 65.7664 98.0293 66.0069 97.7728C65.802 97.9921 67.1418 97.5134 67.0573 97.5492ZM90.3234 84.9875C89.2365 87.2419 87.466 89.074 85.6618 90.7873C86.5854 89.5964 87.4192 88.3242 88.1825 87.039C88.3468 86.7622 88.266 86.4975 88.0878 86.3254C87.9251 86.0986 87.6394 85.9868 87.347 86.2036C87.3457 86.2045 87.3443 86.2056 87.3429 86.2065C87.316 86.2223 87.2902 86.241 87.2654 86.2625C82.944 89.4444 77.9128 91.5956 73.0103 93.7043C71.5482 94.3332 70.0821 94.9523 68.6164 95.5726C67.8912 95.8795 67.1657 96.1866 66.441 96.4951C65.951 96.7037 65.1295 96.8534 64.8639 97.3539C64.6376 97.7801 64.6652 98.5192 64.5931 98.9873C64.5006 99.5874 64.4084 100.188 64.316 100.788C64.2537 101.192 64.5835 101.727 65.0672 101.539C68 100.398 70.9152 99.2084 73.813 97.9809C75.9243 97.0866 78.0314 96.1748 80.0941 95.1721C80.5724 94.9396 81.0388 94.7066 81.4909 94.4599C79.9923 95.6504 78.424 96.7427 76.7139 97.7014C73.4997 99.5032 70.0887 100.913 66.6641 102.258C62.8426 103.759 58.704 105.607 54.5271 105.101C55.7046 103.503 56.352 101.454 56.768 99.5767C57.2472 97.4139 57.6379 94.8611 57.0177 92.6854C56.0656 89.3465 53.6696 86.3959 51.7397 83.5766C49.8893 80.8732 48.0569 78.1574 46.2306 75.4376C38.3207 63.6568 30.539 51.7854 22.3694 40.1814C22.1326 39.8448 21.8943 39.5091 21.6568 39.173C21.8759 39.1135 22.1027 39.0158 22.2953 38.9583C22.9821 38.7536 23.6647 38.5354 24.3465 38.315C24.9307 38.1261 25.513 37.9321 26.0977 37.7447C26.2891 37.6834 26.4826 37.627 26.6732 37.5633C26.7124 37.5501 26.8217 37.5318 26.9066 37.5159C26.9829 37.5077 27.0616 37.4921 27.1453 37.4604C34.7785 34.5619 42.4189 31.6834 50.052 28.7849C50.1859 28.734 50.2955 28.6624 50.384 28.5772C51.2181 28.2427 52.0515 27.9061 52.8825 27.5643C53.4222 27.3423 54.1618 27.1455 54.7752 26.8336C64.8892 37.4175 74.0688 48.8887 81.8199 61.3253C84.7529 66.0311 87.4714 70.867 89.967 75.8184C91.3135 78.7676 91.7699 81.9865 90.3234 84.9875Z" fill="#DCDCDC"/>
<path d="M88.4207 76.5984C82.1786 84.8266 72.1643 89.4547 62.1572 91.0538C61.3832 91.1775 61.7118 92.3546 62.4819 92.2316C72.8365 90.5769 83.0352 85.7038 89.4751 77.215C89.9502 76.5888 88.8903 75.9795 88.4207 76.5984Z" fill="#DCDCDC"/>
<path d="M60.7958 49.0291C62.4021 48.3306 64.0081 47.6314 65.6132 46.9306C66.741 46.4382 67.7815 45.8027 67.7505 44.4095C67.7247 43.248 66.7693 42.4423 66.0616 41.6281C64.8006 40.1774 63.5378 38.7284 62.2811 37.2741C61.0562 35.8563 59.8677 34.4039 58.6282 32.9993C57.6495 31.8903 56.7145 31.653 55.3086 32.1094C52.2047 33.1168 49.2724 34.4915 46.2933 35.8086C42.9845 37.2716 39.6538 38.6825 36.2804 39.9905C34.1693 40.8091 29.6654 41.5801 30.9661 44.7484C30.9801 44.7979 30.9988 44.8481 31.028 44.8988C31.0499 44.9465 31.0752 44.9871 31.1028 45.0234C32.5199 47.4676 34.4304 49.7429 36.2733 51.8713C37.0937 52.8185 37.9343 53.7477 38.7606 54.6899C39.5614 55.6027 40.3066 56.8959 41.6297 57.0324C42.9544 57.1691 44.455 56.1326 45.6217 55.6237C47.239 54.9184 48.8571 54.2144 50.4755 53.5113C53.9148 52.0162 57.3562 50.5245 60.7958 49.0291ZM43.0409 55.4268C41.9729 55.8638 41.4143 55.909 40.6186 54.9754C40.2197 54.5074 39.816 54.0439 39.4096 53.5825C38.6529 52.7234 37.8862 51.8731 37.1365 51.0075C35.3263 48.917 33.4578 46.6899 32.0823 44.2824C31.3119 42.6011 34.1105 42.1205 35.2021 41.7061C36.3586 41.267 37.5115 40.8182 38.6598 40.3581C40.9248 39.4508 43.1719 38.4995 45.4079 37.5233C48.1205 36.3387 50.7892 35.0175 53.5693 33.9981C54.6786 33.5915 56.4473 32.6041 57.4605 33.5018C58.5919 34.5043 59.5207 35.9351 60.5092 37.0842C61.5005 38.2369 62.4965 39.3849 63.494 40.5323C63.9225 41.0254 64.3513 41.5181 64.7801 42.011C65.2696 42.5737 66.0178 43.2024 66.369 43.8694C67.1946 45.4373 64.5971 46.0509 63.6115 46.4804C62.1951 47.0979 60.778 47.7145 59.3609 48.3304C53.9251 50.6927 48.5258 53.182 43.0409 55.4268Z" fill="#DCDCDC"/>
<path d="M63.9662 76.7109C64.8 75.569 64.8523 73.7346 63.1632 73.4468C60.9652 73.0724 58.286 74.609 56.6751 75.9453C55.3929 77.1304 54.7784 79.2875 57.0286 79.7644C59.3144 80.2493 62.6299 78.5408 63.9662 76.7109ZM63.1522 75.7333C62.448 77.0811 60.4022 77.9843 59.0531 78.3838C58.5598 78.5299 57.3698 78.8683 56.8819 78.4333C56.2984 77.9131 57.1413 77.1762 57.5384 76.8093C58.6825 75.8602 60.0889 75.1581 61.5311 74.7984C62.4192 74.5766 63.8445 74.4082 63.1522 75.7333Z" fill="#DCDCDC"/>
<path d="M66.3678 75.176C68.6541 75.6607 71.9693 73.9522 73.3056 72.1223C74.1395 70.9804 74.1917 69.146 72.5026 68.8582C70.3044 68.4838 67.6254 70.0204 66.0146 71.3567C64.7321 72.542 64.1178 74.6991 66.3678 75.176ZM72.4917 71.1447C71.7875 72.4925 69.7417 73.3957 68.3926 73.7952C67.8992 73.9413 66.7094 74.2797 66.2213 73.8447C65.6378 73.3244 66.4808 72.5876 66.8779 72.2207C68.022 71.2716 69.4284 70.5695 70.8704 70.2098C71.7587 69.9882 73.184 69.8196 72.4917 71.1447Z" fill="#DCDCDC"/>
<path d="M75.4519 70.0687C77.7382 70.5534 81.0534 68.8449 82.3897 67.015C83.2235 65.8731 83.2758 64.0387 81.5867 63.7509C79.3885 63.3765 76.7095 64.9131 75.0987 66.2494C73.8162 67.4347 73.2017 69.5918 75.4519 70.0687ZM81.5755 66.0374C80.8713 67.3852 78.8256 68.2884 77.4765 68.6879C76.9831 68.834 75.7933 69.1724 75.3052 68.7374C74.7217 68.2171 75.5646 67.4803 75.9617 67.1134C77.1059 66.1643 78.5122 65.4622 79.9542 65.1025C80.8426 64.8809 82.2681 64.7123 81.5755 66.0374Z" fill="#DCDCDC"/>
<path d="M69.1366 84.2083C69.9704 83.0664 70.0227 81.2319 68.3336 80.9442C66.1356 80.5697 63.4564 82.1064 61.8455 83.4427C60.5633 84.6277 59.9488 86.7848 62.199 87.2617C64.4851 87.7464 67.8003 86.0381 69.1366 84.2083ZM62.709 84.3062C63.8532 83.3571 65.2596 82.6549 66.7015 82.2953C67.5897 82.074 69.015 81.9053 68.3226 83.2304C67.6184 84.5781 65.5727 85.4814 64.2236 85.8809C63.7302 86.027 62.5404 86.3654 62.0523 85.9304C61.4688 85.4102 62.3117 84.6733 62.709 84.3062Z" fill="#DCDCDC"/>
<path d="M71.5378 82.6735C73.8241 83.1582 77.1393 81.4496 78.4756 79.6198C79.3095 78.4779 79.3617 76.6434 77.6726 76.3557C75.4744 75.9812 72.7952 77.5179 71.1846 78.8542C69.9021 80.0394 69.2876 82.1965 71.5378 82.6735ZM77.6614 78.6422C76.9572 79.9899 74.9115 80.8931 73.5624 81.2927C73.069 81.4387 71.8792 81.7771 71.3911 81.3422C70.8076 80.8219 71.6506 80.085 72.0476 79.7181C73.1918 78.769 74.5982 78.0669 76.0404 77.7073C76.9285 77.4857 78.354 77.317 77.6614 78.6422Z" fill="#DCDCDC"/>
<path d="M80.6223 77.5663C82.9086 78.051 86.2238 76.3425 87.5601 74.5128C88.394 73.3709 88.4462 71.5365 86.7571 71.2487C84.5589 70.8743 81.8797 72.4109 80.2691 73.7472C78.9866 74.9322 78.3721 77.0894 80.6223 77.5663ZM86.7462 73.535C86.042 74.8827 83.9962 75.7859 82.6471 76.1855C82.1537 76.3315 80.9639 76.6699 80.4758 76.235C79.8923 75.7147 80.7353 74.9779 81.1324 74.611C82.2765 73.6619 83.6829 72.9597 85.1251 72.6001C86.0132 72.3783 87.4385 72.2099 86.7462 73.535Z" fill="#DCDCDC"/>
<path d="M59.5712 69.9891C60.405 68.8472 60.4573 67.0128 58.7682 66.725C56.5699 66.3506 53.8909 67.8872 52.2801 69.2235C50.9979 70.4086 50.3833 72.5657 52.6336 73.0426C54.9196 73.5276 58.2348 71.819 59.5712 69.9891ZM58.7572 69.0116C58.053 70.3593 56.0072 71.2625 54.6581 71.662C54.1647 71.8081 52.975 72.1465 52.4869 71.7116C51.9034 71.1913 52.7463 70.4544 53.1434 70.0875C54.2875 69.1384 55.6939 68.4363 57.1359 68.0766C58.0242 67.8551 59.4495 67.6864 58.7572 69.0116Z" fill="#DCDCDC"/>
<path d="M61.9729 68.4544C64.2592 68.939 67.5744 67.2305 68.9107 65.4009C69.7445 64.259 69.7968 62.4245 68.1077 62.1368C65.9097 61.7623 63.2305 63.299 61.6197 64.6353C60.3372 65.8203 59.7227 67.9774 61.9729 68.4544ZM68.0965 64.4231C67.3923 65.7708 65.3465 66.674 63.9974 67.0735C63.5041 67.2196 62.3143 67.558 61.8262 67.1231C61.2427 66.6028 62.0856 65.8659 62.4827 65.499C63.6269 64.5499 65.0332 63.8478 66.4754 63.4882C67.3635 63.2666 68.7891 63.0979 68.0965 64.4231Z" fill="#DCDCDC"/>
<path d="M71.0574 63.3472C73.3437 63.8319 76.6589 62.1234 77.9952 60.2937C78.829 59.1518 78.8813 57.3174 77.1922 57.0296C74.9942 56.6551 72.315 58.1918 70.7041 59.5281C69.4217 60.7132 68.8071 62.8703 71.0574 63.3472ZM77.1812 59.3159C76.477 60.6636 74.4312 61.5668 73.0822 61.9664C72.5888 62.1124 71.399 62.4509 70.9109 62.0159C70.3274 61.4956 71.1703 60.7588 71.5674 60.3918C72.7116 59.4428 74.1179 58.7406 75.5601 58.381C76.4483 58.1594 77.8736 57.9908 77.1812 59.3159Z" fill="#DCDCDC"/>
<path d="M54.659 63.2676C55.4929 62.1257 55.5451 60.2912 53.856 60.0035C51.6578 59.629 48.9786 61.1657 47.368 62.502C46.0858 63.687 45.4712 65.8441 47.7215 66.3211C50.0073 66.8057 53.3227 65.0972 54.659 63.2676ZM53.8448 62.2898C53.1406 63.6375 51.0949 64.5407 49.7458 64.9402C49.2524 65.0863 48.0624 65.4247 47.5745 64.9898C46.991 64.4695 47.834 63.7327 48.231 63.3657C49.3752 62.4167 50.7816 61.7145 52.2237 61.3549C53.1121 61.1333 54.5374 60.9646 53.8448 62.2898Z" fill="#DCDCDC"/>
<path d="M63.9984 58.6792C64.8322 57.5373 64.8845 55.7029 63.1954 55.4151C60.9974 55.0406 58.3182 56.5775 56.7074 57.9136C55.4251 59.0986 54.8106 61.2557 57.0608 61.7327C59.3469 62.2174 62.6621 60.5091 63.9984 58.6792ZM63.1844 57.7016C62.4802 59.0493 60.4344 59.9525 59.0854 60.3521C58.592 60.4981 57.4022 60.8366 56.9141 60.4016C56.3306 59.8813 57.1735 59.1445 57.5706 58.7776C58.7148 57.8285 60.1211 57.1263 61.5631 56.7667C62.4515 56.5449 63.8768 56.3763 63.1844 57.7016Z" fill="#DCDCDC"/>
<path d="M66.1453 56.6254C68.4316 57.11 71.7468 55.4016 73.0831 53.5717C73.9169 52.4298 73.9692 50.5953 72.2801 50.3076C70.0821 49.9331 67.4029 51.4698 65.792 52.8061C64.5096 53.9913 63.895 56.1484 66.1453 56.6254ZM72.2689 52.5941C71.5647 53.9418 69.5189 54.845 68.1698 55.2446C67.6765 55.3906 66.4867 55.729 65.9985 55.2941C65.4151 54.7738 66.258 54.037 66.6551 53.67C67.7992 52.721 69.2056 52.0188 70.6476 51.6592C71.5359 51.4376 72.9615 51.2689 72.2689 52.5941Z" fill="#DCDCDC"/>
<path d="M19.0515 10.0661C21.8526 8.25039 24.9323 7.06217 28.2247 6.5161C28.9983 6.38786 28.6702 5.21082 27.9 5.33838C24.5131 5.89997 21.3154 7.14434 18.4352 9.01143C17.778 9.4377 18.3895 10.4954 19.0515 10.0661Z" fill="#DCDCDC"/>
<path d="M23.4679 12.9421C26.1255 11.3242 29.0229 10.3023 32.1035 9.87649C32.8787 9.76947 32.5487 8.59246 31.7788 8.6988C28.5996 9.13808 25.5917 10.219 22.8513 11.8876C22.1811 12.2956 22.7943 13.3524 23.4679 12.9421Z" fill="#DCDCDC"/>
<path d="M26.2917 16.7826C29.1302 15.394 32.1116 14.3979 35.2096 13.7784C35.9797 13.6244 35.6536 12.4471 34.8848 12.6007C31.6826 13.241 28.6079 14.2934 25.6754 15.7279C24.9696 16.0734 25.5877 17.1272 26.2917 16.7826Z" fill="#DCDCDC"/>
<path d="M29.7781 21.5244C32.1048 20.6628 34.4317 19.8009 36.7584 18.9392C37.489 18.6686 37.173 17.4876 36.4337 17.7615C34.107 18.6231 31.7801 19.485 29.4534 20.3467C28.7227 20.6173 29.0388 21.7982 29.7781 21.5244Z" fill="#DCDCDC"/>
</svg>
