<svg width="154" height="112" viewBox="0 0 154 112" fill="none" xmlns="http://www.w3.org/2000/svg">
<path d="M109.884 6.13608L109.837 6.11194L109.834 6.11505L109.884 6.13608Z" fill="#DCDCDC"/>
<path d="M110.312 5.71704L110.31 5.71805L110.312 5.71704Z" fill="#DCDCDC"/>
<path d="M114.677 2.21472L114.676 2.21573L114.677 2.21472Z" fill="#DCDCDC"/>
<path d="M101.145 10.9807L101.149 10.9787V10.9777L101.145 10.9807Z" fill="#DCDCDC"/>
<path d="M153.99 0.37159C153.62 -0.00232982 153.151 0.00624373 152.671 0.00624373C140.407 0.0109177 128.142 0.0148043 115.878 3.26236e-06C115.265 -0.000775738 114.741 0.137897 114.253 0.47832L114.25 0.48065C114.118 0.576467 113.987 0.671502 113.855 0.767319L113.876 0.74162C113.793 0.816404 113.709 0.891968 113.626 0.966752L113.64 0.956625C113.324 1.31419 113.002 1.66317 112.534 1.82832C112.442 2.03475 112.294 2.17653 112.068 2.23029L112.068 2.23107C111.555 2.75612 111.008 3.23831 110.352 3.58262L110.356 3.57718C108.986 4.85162 107.524 6.01233 105.991 7.08501L105.991 7.08268C105.897 7.29457 105.733 7.41999 105.513 7.47919L105.514 7.47841C104.13 8.73416 102.672 9.89876 101.148 10.9792C100.51 11.7068 99.8716 12.2171 98.7429 11.9024C97.8828 11.6624 97.2565 12.302 96.8694 13.0841C96.4066 14.0189 96.4285 14.9295 97.1132 15.7319C97.72 16.4431 98.5465 16.3294 99.3403 16.13C99.6504 16.0521 99.934 15.8721 100.229 15.7381C100.665 15.1079 101.064 14.4653 100.851 13.6434C100.774 13.3458 100.932 13.1589 101.141 12.9992C101.856 12.4531 102.485 11.7941 103.291 11.3687L103.287 11.3742C105.015 9.80061 106.854 8.36257 108.736 6.97906L108.737 6.98375C109.056 6.63398 109.372 6.2803 109.836 6.11282L109.837 6.1136C109.932 5.90717 110.097 5.78252 110.312 5.71865C110.817 5.18581 111.364 4.70751 112.018 4.36085L112.019 4.36319C112.83 3.55459 113.721 2.84491 114.678 2.21626C114.758 2.00593 114.927 1.90076 115.13 1.83844C115.151 1.7769 115.194 1.75042 115.258 1.75821C115.659 1.37728 116.158 1.54866 116.611 1.54632C128.939 1.48244 141.268 1.43104 153.595 1.37651L153.649 1.32353L153.724 1.32431C153.816 1.22304 153.907 1.12098 153.999 1.01893C153.995 0.802372 153.993 0.587373 153.99 0.37159Z" fill="#DCDCDC"/>
<path d="M100.231 15.7366L100.229 15.7374L100.223 15.7451L100.231 15.7366Z" fill="#DCDCDC"/>
<path d="M112.533 1.82923L112.534 1.82835L112.54 1.82129L112.533 1.82923Z" fill="#DCDCDC"/>
<path d="M43.8375 109.722L43.8296 109.727V109.728L43.8375 109.722Z" fill="#DCDCDC"/>
<path d="M46.4647 106.231L46.4585 106.235L46.4647 106.231Z" fill="#DCDCDC"/>
<path d="M51.7349 98.8379L51.7359 98.8389L51.7349 98.8379Z" fill="#DCDCDC"/>
<path d="M52.1566 99.7594C52.0164 99.4525 51.8762 99.1456 51.7352 98.8379C51.5926 98.6899 51.4501 98.5426 51.3075 98.3946L51.3044 98.3923C50.4288 97.9023 49.5547 98.2825 48.6799 98.3939L48.6784 98.3946C47.7521 99.0256 47.2536 99.8708 47.3595 101.02C47.4094 101.063 47.4211 101.114 47.3938 101.175C48.3348 102.363 46.9357 102.745 46.5969 103.494L46.5922 103.509C46.3491 103.982 46.0555 104.418 45.6434 104.763L45.6519 104.75C45.5842 104.839 45.5164 104.927 45.4486 105.015L45.465 105.009C45.3061 105.35 45.1035 105.655 44.7818 105.865L44.788 105.861C44.6283 106.323 44.2786 106.642 43.9475 106.975L43.9483 106.976C43.8961 107.059 43.8439 107.143 43.7925 107.226L43.7699 107.276C43.6655 107.384 43.5611 107.492 43.4567 107.6L43.4614 107.595C43.1327 108.264 42.6536 108.817 42.1293 109.336C42.0686 109.41 42.0086 109.486 41.9478 109.561C41.6378 110.39 41.0535 110.63 40.1701 110.624C27.5386 110.537 14.9064 110.484 2.27488 110.422C1.98354 110.421 1.69219 110.415 1.40162 110.423C0.797898 110.441 -0.0146017 110.297 0.000199348 111.191C0.0134424 111.973 0.766736 111.922 1.35177 111.923C14.4935 111.942 27.6352 111.943 40.777 112C42.1792 112.006 42.6629 110.963 43.4349 110.201L43.438 110.196C43.4871 109.971 43.6289 109.823 43.8306 109.726C44.0192 109.219 44.3806 108.84 44.7592 108.474L44.7678 108.459C45.102 107.804 45.5709 107.25 46.0633 106.712L46.0679 106.704C46.1194 106.481 46.2611 106.334 46.4598 106.234C47.1196 105.165 47.8339 104.135 48.6745 103.196L48.6737 103.197C48.8451 102.69 49.1871 102.54 49.7277 102.511C51.3472 102.421 51.9743 101.782 52.2033 100.142C52.187 100.015 52.1714 99.8872 52.1566 99.7594Z" fill="#DCDCDC"/>
<path d="M43.9418 106.981L43.9472 106.975L43.895 106.919L43.9418 106.981Z" fill="#DCDCDC"/>
<path d="M99.8364 34.593H99.8391L99.8444 34.5876L99.8364 34.593Z" fill="#DCDCDC"/>
<path d="M106.379 33.2571L106.376 33.2591L106.379 33.2571Z" fill="#DCDCDC"/>
<path d="M102.902 33.7261L102.906 33.7243L102.91 33.719L102.902 33.7261Z" fill="#DCDCDC"/>
<path d="M98.9673 35.4695L98.9727 35.4648V35.4633L98.9673 35.4695Z" fill="#DCDCDC"/>
<path d="M105.534 31.9857L105.535 31.985L105.54 31.9795L105.534 31.9857Z" fill="#DCDCDC"/>
<path d="M140.661 25.841C135.859 25.9376 131.057 26.0459 126.254 26.1324C122.618 26.1978 118.981 26.2375 115.344 26.2882C115.29 26.3357 115.236 26.3357 115.181 26.2897C114.747 26.4767 114.224 26.3941 113.84 26.7299C113.782 26.9737 113.634 27.1186 113.379 27.1443L113.377 27.1459C113.034 27.498 112.612 27.7239 112.164 27.9108L112.149 27.9132C112.059 27.9615 111.97 28.009 111.88 28.0573C111.713 28.291 111.491 28.4336 111.205 28.4748L111.209 28.4702C110.54 29.0061 109.831 29.4766 109.036 29.8061L109.041 29.7984C107.93 30.6194 106.758 31.3439 105.534 31.9842C105.438 32.1798 105.265 32.2709 105.066 32.327C105.023 32.3862 104.965 32.4119 104.892 32.4041C104.286 32.9299 103.622 33.3662 102.905 33.723C102.137 34.9094 100.938 34.576 99.8376 34.5915C99.5493 34.8821 99.2603 35.1734 98.9721 35.464C98.6597 36.1807 98.581 36.9028 98.9191 37.6359C98.9752 37.6538 98.9986 37.692 98.9885 37.7504C99.7737 38.4694 100.655 38.4328 101.576 38.0776L101.58 38.0752C101.941 37.752 102.216 37.3648 102.429 36.9309C102.394 36.8694 102.4 36.8133 102.447 36.7611C102.252 36.1846 102.341 35.7741 102.94 35.4336C103.972 34.847 104.949 34.16 105.948 33.515C105.968 33.4573 106.007 33.4339 106.067 33.4464C106.171 33.3833 106.274 33.3202 106.378 33.2571C107.75 32.2429 109.225 31.4008 110.738 30.6194L110.733 30.6241C111.408 30.0936 112.125 29.6324 112.922 29.3068L112.919 29.3115C113.59 28.7771 114.303 28.3105 115.107 27.9957L115.108 28.0004C115.718 27.6623 116.38 27.8524 117.016 27.8384C124.692 27.6678 132.368 27.5151 140.044 27.3585C140.262 27.3539 140.481 27.3562 140.699 27.3484C141.205 27.3289 141.719 27.2113 141.736 26.6177C141.756 25.9384 141.213 25.8301 140.661 25.841Z" fill="#DCDCDC"/>
<path d="M113.834 26.7346L113.842 26.7302L113.842 26.7275L113.834 26.7346Z" fill="#DCDCDC"/>
<path d="M111.872 28.062L111.88 28.0581L111.885 28.0542L111.872 28.062Z" fill="#DCDCDC"/>
<path d="M48.9258 28.4912H48.9267L48.9337 28.4833L48.9258 28.4912Z" fill="#DCDCDC"/>
<path d="M44.3423 31.9896L44.3454 31.9873L44.3477 31.985L44.3423 31.9896Z" fill="#DCDCDC"/>
<path d="M43.8862 32.4071L43.8893 32.4063L43.8909 32.4032L43.8862 32.4071Z" fill="#DCDCDC"/>
<path d="M98.0609 24.3087L98.0181 24.3516L98.0196 24.3531L98.0243 24.357L98.0609 24.3087Z" fill="#DCDCDC"/>
<path d="M97.4169 23.6598L97.3701 23.6948L97.374 23.7003L97.3748 23.7011L97.4169 23.6598Z" fill="#DCDCDC"/>
<path d="M100.688 86.5773L100.686 86.5783L100.684 86.5813L100.688 86.5773Z" fill="#DCDCDC"/>
<path d="M105.045 81.7552L105.04 81.7591L105.04 81.7599L105.045 81.7552Z" fill="#DCDCDC"/>
<path d="M98.2379 88.7024C98.2348 88.7047 98.2316 88.7071 98.2285 88.7086L98.2558 88.7616L98.2379 88.7024Z" fill="#DCDCDC"/>
<path d="M100.236 86.9972L100.232 87.0011L100.23 87.0034L100.236 86.9972Z" fill="#DCDCDC"/>
<path d="M44.3208 87.4596L44.3188 87.4576L44.3208 87.4596Z" fill="#DCDCDC"/>
<path d="M91.2963 93.1395L91.2932 93.1403L91.29 93.1419L91.2963 93.1395Z" fill="#DCDCDC"/>
<path d="M49.577 91.3845L49.5739 91.3798L49.5708 91.379L49.577 91.3845Z" fill="#DCDCDC"/>
<path d="M99.8301 44.1993L99.8331 44.1983L99.8341 44.1973L99.8301 44.1993Z" fill="#DCDCDC"/>
<path d="M95.4414 39.3932L95.4444 39.3972L95.4414 39.3932Z" fill="#DCDCDC"/>
<path d="M115.468 51.3766C115.259 50.4278 114.958 49.4984 114.699 48.5605C114.647 48.5239 114.634 48.4772 114.659 48.4195C114.259 47.7098 114.036 46.9332 113.818 46.1557L113.817 46.1526C113.236 44.914 112.655 43.6762 112.074 42.4376L112.072 42.4313C111.626 41.7972 111.181 41.1616 110.732 40.5282C110.425 40.0951 110.011 39.8607 109.472 39.8622L109.477 39.8513C107.562 40.8383 105.599 41.7217 103.592 42.5046L103.591 42.4944C102.68 43.0203 101.735 43.4744 100.728 43.7884L100.73 43.7829C100.483 44.0337 100.172 44.1459 99.8324 44.1966C99.7825 44.2464 99.7405 44.3134 99.6805 44.343C97.99 45.1804 97.9893 45.1797 97.6224 43.3272L97.6263 43.3326C97.4042 43.0748 97.2812 42.7733 97.2344 42.4391C97.1807 42.3971 97.1635 42.3433 97.1814 42.2779C96.6019 41.3158 96.0215 40.3545 95.4419 39.3925C95.3422 39.2663 95.2433 39.1401 95.1436 39.0146L95.1623 39.0263C95.0968 38.9375 95.0314 38.8487 94.9652 38.7599L94.9815 38.7786C94.9107 38.6937 94.839 38.6096 94.7681 38.5247L94.7837 38.5387C94.7105 38.4584 94.6365 38.379 94.5632 38.2987L94.5695 38.3073C93.8652 37.5891 92.6819 36.9183 92.6056 36.1386C92.5425 35.492 93.771 34.7052 94.4503 34.0041C95.9171 32.4897 97.4003 30.9902 98.875 29.4828C100.233 28.0954 100.278 27.6506 99.2458 25.9804C99.1321 25.7966 99.0331 25.6042 98.9272 25.4156L98.9319 25.4203C98.8306 25.2949 98.7285 25.1695 98.6273 25.0448L98.6475 25.055C98.3624 24.889 98.1583 24.6514 98.0204 24.3546C97.7415 24.1996 97.5328 23.9761 97.3746 23.7018C96.8029 23.3326 96.2965 22.8893 95.8556 22.3705L95.8587 22.3752C95.3563 22.1812 94.9862 21.8089 94.6076 21.4482L94.5905 21.4389C93.7087 20.8671 92.8276 20.2945 91.9466 19.7227L91.9497 19.725C89.9484 18.7131 87.9472 17.7012 85.9459 16.6893L85.882 16.7017L85.84 16.6527C83.8348 15.936 81.8297 15.2193 79.8238 14.5034L79.7622 14.5229L79.7186 14.4761C78.0741 14.223 76.485 13.7158 74.8273 13.4985C73.1579 13.2788 71.4947 13.278 69.8331 13.3832C68.1045 13.4923 67.6799 14.0384 67.6986 15.788C67.7173 17.5664 67.7173 19.3457 67.7672 21.1234C67.782 21.6476 67.6753 21.9374 67.1035 21.9904C64.8631 22.1991 62.692 22.7912 60.4929 23.2243L60.4976 23.2212C59.1881 23.6644 57.8793 24.1085 56.5698 24.5517L56.5761 24.5447C55.5564 24.9872 54.5374 25.4289 53.5185 25.8714L53.5224 25.8651C53.2864 26.1206 52.9903 26.2616 52.6499 26.3154L52.6546 26.3076C51.6364 26.895 50.6175 27.4823 49.5993 28.0689L49.6009 28.0635C49.4404 28.3073 49.2114 28.4413 48.9278 28.4919C48.7689 28.7272 48.55 28.8736 48.2688 28.925L48.2743 28.9188C46.9655 29.9416 45.656 30.9652 44.3465 31.9881C44.2554 32.1937 44.1035 32.3339 43.89 32.4072C43.8106 32.623 43.6532 32.7562 43.4406 32.8317C43.3603 33.0436 43.203 33.176 42.9981 33.2594L42.9934 33.2625C42.8244 33.5881 42.5525 33.8133 42.2588 34.0166L42.2199 34.0555C41.8795 34.4131 41.5398 34.7706 41.1994 35.1282L41.1542 35.1843C41.0529 35.2856 40.9517 35.3868 40.8496 35.4889L40.8527 35.4858C40.344 36.2765 39.7341 36.9846 39.0813 37.6568L39.0859 37.6514C39.0236 37.9295 38.8694 38.1422 38.6271 38.2917L38.6279 38.2909C38.5601 38.3743 38.4931 38.4577 38.4254 38.541L38.4402 38.5309C38.1644 39.1673 37.7476 39.7103 37.3028 40.2346L37.2958 40.2494C36.7303 41.2286 36.1647 42.207 35.5984 43.1862C35.6178 43.2454 35.5999 43.2882 35.5438 43.3147C35.5174 43.6201 35.3717 43.8655 35.1668 44.0828C35.1878 44.135 35.1715 44.1709 35.1177 44.1895C34.4042 46.0467 33.6906 47.903 32.9763 49.7602C32.9568 49.8708 32.9373 49.9806 32.9171 50.0912C32.8812 50.5812 32.7706 51.0494 32.5338 51.4841C32.5665 51.5394 32.5572 51.5854 32.505 51.622C32.4754 52.3207 32.3242 52.9954 32.0913 53.6536C32.1264 53.712 32.1178 53.7634 32.0656 53.8071C31.8093 56.2788 31.5655 58.7522 31.6005 61.2418C31.6169 61.5301 31.6325 61.8175 31.6488 62.1058C31.9285 64.0034 32.2082 65.9011 32.487 67.7987C32.5369 67.8532 32.547 67.914 32.5182 67.9818C33.104 69.8085 33.6906 71.6361 34.2764 73.4628L34.2717 73.4597C34.8388 74.6329 35.4067 75.8068 35.9738 76.98C36.0276 77.0158 36.0455 77.0649 36.0284 77.1272C36.2418 77.3259 36.3852 77.5627 36.4327 77.8533L36.435 77.8579C36.9608 78.5287 37.4329 79.2329 37.7733 80.0189L37.7687 80.015C38.1558 80.385 38.483 80.7971 38.6715 81.3058L38.6676 81.305C38.8756 81.4024 38.9979 81.5683 39.0548 81.7872L39.0587 81.7919C39.5378 82.3863 40.0169 82.9806 40.4959 83.575L40.5497 83.6342C40.6401 83.7433 40.7296 83.8523 40.82 83.9606L40.8192 83.9598C41.867 85.0084 42.9155 86.0577 43.9633 87.1062L43.9999 87.1366C44.1051 87.2433 44.2102 87.3508 44.3154 87.4576C45.2003 88.1758 46.0853 88.894 46.9702 89.6123L46.9679 89.6068C47.4602 89.8203 47.8848 90.1287 48.2563 90.5136L48.2525 90.5097C48.5407 90.5556 48.7565 90.7091 48.9123 90.9521L48.9045 90.9475C48.9941 91.0113 49.0844 91.0752 49.174 91.1391L49.153 91.115C49.3251 91.1516 49.4887 91.2022 49.5697 91.3798C49.8603 91.4141 50.0792 91.5668 50.2521 91.795L50.2475 91.7872C50.8076 91.9968 51.3388 92.2539 51.7782 92.6722L51.7759 92.6652C52.1132 92.7252 52.4076 92.8646 52.6359 93.1271L52.6328 93.1217C53.9446 93.7082 55.2557 94.2948 56.5667 94.8806L56.5605 94.8744C56.9944 94.8861 57.3652 95.0637 57.7118 95.3075L57.7913 95.2966L57.8544 95.3457C58.7557 95.5685 59.6586 95.7874 60.503 96.1894L60.4976 96.1816C61.1145 96.2034 61.6949 96.3693 62.2519 96.6264L62.2464 96.6186C64.8623 97.005 67.4564 97.4786 70.1174 97.597C76.2357 97.8704 82.1101 96.8585 87.7945 94.6423C88.875 94.2208 89.9266 93.7262 90.9915 93.265L90.9993 93.2743C91.0959 93.2299 91.1925 93.1855 91.2891 93.1403C92.0899 92.7018 92.8907 92.2624 93.6908 91.8238L93.6869 91.827C94.5671 91.2505 95.4466 90.674 96.3269 90.0976L96.3323 90.0945C96.8667 89.6948 97.4011 89.2952 97.9347 88.8948L97.9815 88.8714C98.0625 88.8177 98.1427 88.7632 98.2237 88.7094L98.2222 88.7071C98.8353 88.0745 99.4896 87.4887 100.227 87.0018C100.315 86.7915 100.466 86.6505 100.681 86.5788C100.902 86.2158 101.193 85.9237 101.562 85.7118C101.941 85.1735 102.406 84.7178 102.912 84.301L102.966 84.2278C103.523 83.5657 104.081 82.9027 104.638 82.2406L104.645 82.2305C104.704 82.0147 104.835 81.8589 105.035 81.7592C105.229 81.2559 105.6 80.8773 105.942 80.4785L105.944 80.4746C106.804 79.0537 107.665 77.6328 108.525 76.2119C108.507 76.1582 108.524 76.1223 108.577 76.1044C108.998 75.2179 109.418 74.3306 109.839 73.4441L109.831 73.4449C110.283 72.1463 110.735 70.8477 111.188 69.5491L111.189 69.5468C111.202 68.9898 111.385 68.4772 111.607 67.9755C111.578 67.9093 111.589 67.8509 111.639 67.7987C111.918 66.0467 112.197 64.294 112.476 62.542C112.49 62.4002 112.504 62.2577 112.518 62.1159C112.522 61.1429 112.567 60.1676 112.518 59.197C112.484 58.5481 112.702 58.3447 113.346 58.2598C114.223 58.1445 115.164 58.4912 115.979 57.9264C116.01 57.8501 116.041 57.7738 116.071 57.6974C116.547 55.5256 115.924 53.4565 115.468 51.3766ZM109.906 41.9086C111.096 43.5889 111.788 45.3066 112.472 47.0251C112.623 47.4052 112.5 47.8064 112.37 48.1967C111.464 50.9178 110.549 53.6373 109.695 56.3755C109.543 56.8608 109.293 56.8787 108.916 56.8919C107.97 56.9254 107.02 56.9324 106.081 57.0345C105.26 57.1233 105.145 56.8179 105.369 56.1199C106.487 52.6277 107.587 49.1284 108.698 45.6338C109.071 44.463 109.456 43.2952 109.906 41.9086ZM100.995 47.7418C101.62 45.5092 102.826 44.2355 104.954 43.5679C106.052 43.2236 107.079 42.6549 108.408 42.0691C107.34 45.291 106.352 48.2396 105.386 51.1943C104.833 52.8848 104.286 54.5783 103.798 56.289C103.642 56.8343 103.444 57.0781 102.849 57.0664C101.54 57.0407 100.229 57.054 98.921 57.1108C98.191 57.1428 97.969 57.0064 98.1941 56.2079C99.0027 53.3397 100.195 50.5945 100.995 47.7418ZM100.331 45.7039C99.6594 47.5283 99.0581 49.1783 98.445 50.8235C97.7735 52.6261 97.1285 54.4381 96.7125 56.3178C96.5606 57.0049 96.2093 57.2822 95.5159 57.2596C94.5367 57.2277 93.556 57.2518 92.4303 57.2518C93.168 54.1553 94.2477 51.2683 95.1786 48.3369C95.2791 48.0207 95.4824 47.861 95.7551 47.7395C97.2103 47.0921 98.6647 46.4448 100.331 45.7039ZM88.8017 51.1694C88.9085 50.8438 89.1492 50.7238 89.4109 50.6062C90.7305 50.0118 92.0533 49.4229 93.5895 48.7366C92.7006 51.6033 91.6911 54.1639 91.0554 56.8374C90.972 57.1895 90.7352 57.2799 90.4112 57.2791C89.2208 57.2744 88.0305 57.2775 86.753 57.2775C87.4494 55.2093 88.1357 53.1932 88.8017 51.1694ZM85.3391 57.082C85.2261 57.4092 84.9683 57.4879 84.6505 57.4847C84.0701 57.4785 83.4897 57.491 82.9094 57.4902C81.6279 57.4894 81.7728 57.5128 81.998 56.2041C82.3485 54.1662 83.3978 52.9237 85.3928 52.4088C85.967 52.2608 86.4967 51.939 87.2211 51.6204C86.5559 53.5516 85.949 55.3168 85.3391 57.082ZM96.4367 44.8735C96.5847 45.4414 96.5247 45.7771 95.9039 46.0545C88.5096 49.3551 81.1294 52.6884 73.7444 56.0117C73.4928 56.1246 73.2545 56.3061 72.9514 56.2064C73.8792 54.9016 75.089 53.8562 76.1952 52.718C80.937 47.8399 85.7192 43.0016 90.4384 38.1017C91.1567 37.3562 91.5906 37.4013 92.2434 38.0876C94.1208 40.0593 95.7356 42.1774 96.4367 44.8735ZM81.1707 54.3298C80.8294 55.4282 80.5708 56.2765 80.3013 57.121C80.1946 57.4567 79.9126 57.5089 79.6064 57.5081C77.7797 57.5065 75.9537 57.5073 74.116 57.5073C76.3549 56.4993 78.6342 55.4726 81.1707 54.3298ZM81.8951 44.4201C81.9162 44.4793 81.9512 44.5448 81.9325 44.5845C81.8756 44.7029 81.7837 44.6686 81.6957 44.6227C81.7627 44.5557 81.8289 44.4879 81.8951 44.4201ZM81.9091 44.3913C81.9785 43.7486 82.3368 43.3981 82.974 43.3287C82.833 43.8966 82.5355 44.308 81.9091 44.3913ZM69.5223 14.963C69.985 14.7644 70.369 15.0113 70.7344 15.2458C71.0327 15.4374 71.3366 15.6376 71.5858 15.8861C72.1358 16.4345 72.7699 16.3567 73.2389 15.9352C73.7585 15.4686 72.946 15.1983 72.8642 14.7542C79.3143 15.4507 85.2308 17.688 90.7843 20.9006C92.0128 21.611 93.2428 22.3752 94.4082 23.222C95.2674 23.8467 95.4489 24.4053 94.8203 25.2731C94.5266 25.6782 94.2002 26.2305 94.7058 26.6558C95.1412 27.0219 95.6819 27.1645 95.9623 26.3606C96.0994 25.968 96.3666 25.6205 96.6026 25.2045C96.774 25.3549 96.915 25.4593 97.0319 25.5839C98.6873 27.346 98.6849 27.526 97.0319 29.2172C94.6645 31.6375 92.2995 34.061 89.9305 36.4806C89.6189 36.7992 89.4312 37.0321 88.7932 36.814C87.6036 36.4065 87.1869 37.6701 86.6034 38.3541C86.3159 38.6914 86.0168 39.1042 85.7816 39.5218C85.7122 39.6449 85.4832 39.7703 85.505 39.8396C86.055 41.5892 84.2874 41.8876 83.6245 42.8707C83.4477 43.06 83.4048 43.4503 83.0029 43.3015C83.0153 43.014 83.0286 42.7274 83.041 42.4399C82.6297 41.7848 82.1943 41.4833 81.5415 42.2132C80.9323 42.8941 80.2226 43.4869 79.6282 44.1794C78.9941 44.9195 79.1943 45.51 80.1502 45.9898C80.6526 45.5458 81.1551 45.1017 81.6575 44.6577C81.4861 45.5131 80.6846 45.8395 80.1657 46.4035C77.856 48.8098 75.5455 51.2169 73.235 53.6232C73.2272 52.9603 73.0106 52.4228 72.9631 51.8674C72.9281 51.4615 72.9725 50.9848 72.4178 50.9816C71.8577 50.9785 71.4705 51.347 71.4222 51.9024C71.3623 52.5895 71.2828 53.3116 71.4269 53.9715C71.7533 55.4679 70.7656 56.155 69.7217 57.0913C69.6578 52.0567 69.6788 47.2027 69.4335 42.0855C69.8923 42.5895 70.2031 42.5988 70.6464 42.4944C71.5897 42.2724 72.4201 41.7926 73.3269 41.4973C73.8901 41.3143 74.1028 40.8274 73.9166 40.2268C73.7071 39.5498 73.0909 39.7313 72.738 39.8505C71.6723 40.212 70.6534 40.7105 69.4794 41.2145C69.4794 36.7252 69.4794 32.3176 69.4794 27.9497C70.4095 28.661 71.6217 28.9562 72.6873 29.5467C73.2124 29.8372 73.7756 29.588 73.9992 29.112C74.2352 28.6095 73.901 28.2917 73.3884 27.9653C72.7473 27.5563 72.0501 27.3289 71.4036 26.9814C70.5217 26.5078 69.9203 26.6472 69.4895 27.5633C69.1367 27.2315 69.273 26.8451 69.2706 26.507C69.2442 23.0109 69.2278 19.5139 69.2309 16.0178C69.2317 15.6579 69.0066 15.185 69.5223 14.963ZM72.9265 56.2243C72.921 56.2687 72.9156 56.3131 72.9101 56.3567C72.8673 56.3365 72.8244 56.317 72.7816 56.2968C72.8299 56.2734 72.8782 56.2485 72.9265 56.2243ZM111.029 59.7734C110.576 73.769 103.888 83.9887 91.9964 90.9475C85.2659 94.8861 77.8615 96.6178 70.112 96.1185C56.1344 95.2179 44.9627 89.1916 37.7679 76.9083C30.4539 64.421 31.867 48.9181 41.0677 37.6981C47.7726 29.5218 56.5161 24.9888 66.9134 23.4822C67.7383 23.363 67.8801 23.6715 67.877 24.4053C67.8536 29.9035 67.8646 35.4016 67.8646 40.8991C68.0757 46.3606 68.0515 51.8237 68.2587 57.283C68.3257 59.0513 68.8476 59.4525 70.6121 59.2492C72.8618 58.9898 75.1233 59.1292 77.3793 59.0809C88.1536 58.8527 98.928 58.6509 109.701 58.3689C110.903 58.3385 111.062 58.7522 111.029 59.7734ZM113.913 56.8452C113.012 56.7914 111.715 57.1529 111.306 56.6948C110.825 56.1558 111.626 55.0589 111.876 54.2098C112.292 52.7921 112.8 51.4015 113.269 49.9993C114.111 51.9671 114.672 53.9621 114.75 56.0685C114.773 56.7011 114.509 56.8802 113.913 56.8452Z" fill="#DCDCDC"/>
<path d="M78.942 26.6636C79.3791 26.5257 79.8589 26.3177 79.6509 25.4016C79.1742 24.6803 79.0355 23.546 78.6499 22.496C78.5541 22.235 78.3251 21.7255 77.7463 21.9748C77.2228 22.1999 76.8769 22.5801 76.9237 23.1028C77.0202 24.1802 77.6419 25.1087 77.9286 26.1401C78.0664 26.6363 78.4949 26.8046 78.942 26.6636Z" fill="#DCDCDC"/>
<path d="M85.8996 31.4365C86.1021 31.8611 86.6607 31.9296 87.0291 31.8899C87.4334 31.8463 87.3991 31.3438 87.3812 31.0104C87.4474 29.8988 86.5867 29.1805 86.321 28.2465C86.1021 27.4761 85.6355 27.1489 84.9944 27.3951C84.3642 27.6373 84.46 28.294 84.6057 28.8876C84.8401 29.8419 85.4898 30.5757 85.8996 31.4365Z" fill="#DCDCDC"/>
<path d="M73.2695 33.2562C72.7188 33.8623 72.2443 34.5634 71.6094 35.0604C71.0852 35.4702 71.0073 35.904 71.3446 36.2935C71.6616 36.6597 72.1026 37.0313 72.7258 36.4907C73.564 35.7638 74.1778 34.8594 74.854 34.0165C75.3136 33.4432 74.8758 32.7966 74.1085 32.8177C73.747 32.686 73.5118 32.989 73.2695 33.2562Z" fill="#DCDCDC"/>
<path d="M71.8 23.0039C72.1614 23.3319 72.5018 22.9252 72.7433 22.6448C73.2279 22.0816 73.513 21.3968 73.83 20.7323C74.0419 20.2883 74.2842 19.8599 74.5062 19.4376C74.4221 19.0045 74.1658 18.7163 73.8183 18.6392C73.5496 18.5792 73.1803 18.4506 72.9466 18.8121C72.3484 19.7391 71.8856 20.7386 71.3622 21.7045C70.9688 22.4298 71.4782 22.7118 71.8 23.0039Z" fill="#DCDCDC"/>
<path d="M81.7616 22.6479C82.391 22.6642 82.7727 21.96 82.7665 21.2831C82.7595 20.5337 82.8257 19.81 82.9861 19.0754C83.0757 18.6641 83.1708 18.0759 82.4751 17.9661C81.9143 17.8773 81.4414 17.917 81.2279 18.615C81.034 19.2491 81.0122 19.8793 81.02 20.5228C81.02 20.7759 81.055 21.0346 81.0137 21.2807C80.9008 21.9577 81.2677 22.6346 81.7616 22.6479Z" fill="#DCDCDC"/>
<path d="M79.0162 32.2919C79.3769 32.5381 79.5249 32.2522 79.7368 32.0707C80.4449 31.4638 80.9956 30.7004 81.7723 30.1473C82.0465 29.9518 82.2451 29.4073 81.9382 28.9001C81.738 28.5698 81.5363 28.4218 81.1764 28.4499C80.4558 28.506 78.3984 30.6934 78.4 31.4942C78.2645 31.9359 78.6875 32.0676 79.0162 32.2919Z" fill="#DCDCDC"/>
<path d="M85.9725 24.0501C86.6611 24.5159 87.1418 25.189 87.8039 25.6681C88.0618 25.8542 88.3095 26.0451 88.6375 26.0599C88.9732 26.0864 89.2466 26.0825 89.4274 25.6899C89.6408 25.2271 89.6354 24.8431 89.2451 24.5276C88.5214 23.9426 87.9239 23.2228 87.1543 22.6782C86.665 22.3324 86.309 22.376 85.9671 22.7569C85.5994 23.1651 85.4903 23.7237 85.9725 24.0501Z" fill="#DCDCDC"/>
<path d="M72.2061 47.0493C72.2279 47.6997 72.8223 47.7387 73.6761 47.7262C74.3966 47.4496 75.453 47.1077 76.4439 46.6286C76.7695 46.4712 76.919 45.9361 76.6581 45.5271C76.415 45.1461 76.0497 44.9249 75.5807 45.1438C74.8095 45.5037 74.0025 45.7359 73.1853 45.9649C72.7062 46.0997 72.1866 46.4798 72.2061 47.0493Z" fill="#DCDCDC"/>
<path d="M76.595 39.2912C77.1691 39.9658 78.0151 40.2337 78.6337 40.8234C78.9024 41.0797 79.1361 41.6624 79.6549 41.1047C80.0974 40.6302 80.1099 40.12 79.6783 39.669C79.0629 39.0247 78.3937 38.4319 77.7472 37.8173C77.3795 37.4675 76.9339 37.5968 76.5436 37.6958C76.1595 37.7939 76.1759 38.1818 76.2071 38.6165C76.119 38.8923 76.3785 39.0372 76.595 39.2912Z" fill="#DCDCDC"/>
<path d="M80.7843 36.0981C80.8567 36.8849 81.3927 36.754 81.9949 36.7712C82.7637 36.86 83.5568 36.4619 84.3755 36.2664C84.8351 36.1565 85.6414 36.021 85.3913 35.1945C85.1708 34.4669 84.4487 34.4887 83.9058 34.6095C83.1797 34.7707 82.4817 34.9873 81.7222 35.0387C81.2034 35.0745 80.7157 35.3557 80.7843 36.0981Z" fill="#DCDCDC"/>
<path d="M90.8416 31.8455C90.7138 32.4742 91.1399 32.6791 91.5871 32.7601C92.1425 32.8613 92.2679 32.5014 92.4565 31.9889C92.8327 30.9684 92.3887 29.9074 92.7829 28.9017C92.8802 28.654 92.6473 28.1873 92.1511 28.2263C91.6969 28.2621 91.1166 28.2193 91.0987 28.8448C91.0769 29.6036 90.671 30.3117 90.8494 30.9808C90.8494 31.3392 90.8914 31.6017 90.8416 31.8455Z" fill="#DCDCDC"/>
</svg>
