<svg width="125" height="81" viewBox="0 0 125 81" fill="none" xmlns="http://www.w3.org/2000/svg">
<path d="M100.42 57.218C99.4119 57.027 99.8388 55.4884 100.844 55.6789C104.214 56.3175 107.585 56.9562 110.955 57.5948C111.963 57.7859 111.536 59.3244 110.531 59.134C107.16 58.4953 103.79 57.8567 100.42 57.218Z" fill="#DCDCDC"/>
<path d="M82.7201 70.2838C82.5126 70.3748 82.5217 70.2671 82.7201 70.2838V70.2838Z" fill="#DCDCDC"/>
<path d="M81.9531 68.9231C82.5325 68.4634 83.4885 68.7913 84.1468 68.8865C85.6386 69.1024 87.1277 69.3382 88.6169 69.5717C93.0886 70.2725 97.5581 70.9871 102.032 71.6751C104.423 72.0429 106.816 72.4052 109.212 72.7416C110.225 72.8838 109.794 74.4219 108.787 74.2807C103.393 73.5234 98.0134 72.6595 92.6329 71.8103C90.3048 71.4428 87.9771 71.0728 85.6476 70.7151C84.9072 70.6014 84.1665 70.4877 83.4245 70.3829C83.1783 70.3481 83.0785 70.3694 82.8417 70.3055C82.795 70.293 82.755 70.2866 82.7198 70.2839C82.8043 70.2469 82.9238 70.1771 83.0817 70.0518C82.2854 70.6837 81.1485 69.5615 81.9531 68.9231Z" fill="#DCDCDC"/>
<path d="M109.572 69.201C104.178 68.4436 98.7982 67.5797 93.4177 66.7305C91.0896 66.3631 88.7621 65.993 86.4324 65.6353C85.6919 65.5216 84.9513 65.4079 84.2093 65.3031C83.9631 65.2683 83.8633 65.2896 83.6265 65.2258C83.5798 65.2132 83.5396 65.2069 83.5046 65.2041C83.5891 65.1671 83.7086 65.0973 83.8665 64.972C83.07 65.6039 81.9331 64.4819 82.7379 63.8435C83.3173 63.3838 84.2733 63.7117 84.9316 63.8069C86.4234 64.0228 87.9125 64.2586 89.4017 64.4921C93.8734 65.1929 98.3429 65.9075 102.817 66.5955C105.208 66.9633 107.6 67.3256 109.997 67.662C111.009 67.804 110.578 69.3421 109.572 69.201Z" fill="#DCDCDC"/>
<path d="M83.5043 65.2041C83.2967 65.2951 83.306 65.1874 83.5043 65.2041V65.2041Z" fill="#DCDCDC"/>
<path d="M0.564249 33.201C3.35145 40.5554 6.13864 47.9097 8.92604 55.264C10.5849 59.6408 12.2437 64.0179 13.9025 68.3947C14.5044 69.9828 15.1063 71.5708 15.7081 73.1589C16.2332 74.5441 16.8695 75.7878 18.3221 76.4215C20.5125 77.3771 23.3152 75.9041 25.4104 75.1955C29.6984 73.7452 33.9816 72.2806 38.2588 70.799C39.0545 70.5234 39.8492 70.2454 40.6442 69.9683C41.2689 70.0661 41.8747 70.1504 42.4185 70.2546C46.8642 71.1066 51.3128 71.944 55.7644 72.7634C66.2417 74.6921 76.7306 76.4925 87.2928 77.8938C95.768 79.0182 104.259 80.0275 112.757 80.9667C114.566 81.1666 116.338 80.4687 117.238 78.8082C117.827 77.7206 117.875 76.2902 118.06 75.0915C119.008 68.954 119.956 62.8163 120.904 56.6789C121.879 50.3688 122.853 44.0587 123.828 37.7489C124.042 36.3656 124.274 34.9839 124.469 33.5979C124.8 31.2489 123.395 29.0948 121.028 28.6256C120.406 28.5124 119.784 28.4001 119.162 28.288C109.249 26.5009 99.3256 24.7605 89.3811 23.1548C88.3257 22.9844 87.2696 22.8185 86.2134 22.6529C84.2066 17.3577 82.1996 12.0624 80.1928 6.76721C79.6969 5.45871 79.2219 4.13987 78.7044 2.83972C77.8251 0.630719 75.534 -0.525475 73.2459 0.232067C72.6492 0.440043 72.0527 0.649012 71.4564 0.857982C61.9504 4.19037 52.4588 7.56809 43.0152 11.0737C32.6967 14.9039 22.4739 18.9903 12.2642 23.1001C9.26007 24.3094 6.25774 25.523 3.25859 26.7442C1.93757 27.2821 0.805827 28.0187 0.274156 29.4255C-0.225702 30.7495 0.0930222 31.958 0.564249 33.201ZM17.8308 74.0347C17.296 73.2653 17.0508 72.217 16.7234 71.3529C13.9429 64.0165 11.1625 56.6801 8.38184 49.3436L83.7964 20.7618C85.8094 26.073 87.8223 31.3843 89.8353 36.6955C90.6598 38.8709 91.4842 41.0463 92.3087 43.2219C92.7982 44.5137 93.5263 45.8796 92.7181 47.2193C92.1817 48.1085 91.1462 48.4306 90.2399 48.8187C88.938 49.3764 87.6348 49.9314 86.3309 50.4845C76.9089 54.4822 67.4619 58.4487 57.8903 62.0763C48.6085 65.594 39.21 68.8113 29.8167 72.0158C27.0536 72.9585 24.2888 73.8959 21.5209 74.8247C20.1836 75.273 18.7466 75.3522 17.8308 74.0347ZM3.02556 28.5709C4.89516 27.5738 7.03298 26.9226 8.99324 26.1302C13.4315 24.3362 17.874 22.5529 22.3226 20.7847C32.4754 16.7489 42.674 12.8492 52.9488 9.13408C59.842 6.64155 66.7485 4.18441 73.6702 1.7718C75.6281 1.12362 76.8232 2.36213 77.4516 4.02037C78.3055 6.27351 79.1595 8.52665 80.0133 10.7798L4.5989 39.3612C4.21675 38.3527 3.8346 37.3444 3.45245 36.336C2.97506 35.0766 2.49787 33.817 2.02048 32.5576C1.46296 31.0873 1.40928 29.433 3.02556 28.5709ZM43.7316 68.8858C51.9838 65.9789 60.1913 62.9629 68.3072 59.6832C73.2525 57.6847 78.1799 55.6414 83.0957 53.5708C83.0434 53.9231 83.2039 54.2802 83.6612 54.3571C86.9759 54.9148 90.2906 55.4724 93.6053 56.0301C94.6118 56.1995 95.0402 54.6609 94.0296 54.4909C90.9048 53.9652 87.7802 53.4395 84.6556 52.9138C87.0664 51.8946 89.4752 50.8708 91.8804 49.8385C93.5504 49.1217 94.7482 47.6325 94.7054 45.746C94.6774 44.5065 94.0151 43.2376 93.584 42.1005C91.3832 36.2932 89.1821 30.486 86.9813 24.6788C86.9437 24.5796 86.9061 24.4804 86.8685 24.3813C90.8978 25.0136 94.9233 25.6704 98.9456 26.3549C106.172 27.5847 113.392 28.8518 120.604 30.1649C122.623 30.5653 123.079 32.2144 122.807 33.9725C121.029 45.4837 119.251 56.995 117.473 68.5063C117.118 70.8055 116.763 73.1046 116.407 75.4039C116.196 76.7734 116.155 78.3338 114.786 79.1021C113.884 79.6087 112.831 79.3795 111.854 79.2709C110.447 79.1142 109.039 78.9546 107.632 78.7931C97.4664 77.6266 87.2938 76.4241 77.1799 74.8619C67.3703 73.3466 57.6073 71.5122 47.8549 69.6694C46.48 69.4097 45.1057 69.1485 43.7316 68.8858Z" fill="#DCDCDC"/>
<path d="M21.608 57.4919C23.7125 56.6753 25.821 55.8692 27.9296 55.0632C32.8039 53.2001 37.6816 51.346 42.5601 49.4943C43.7281 49.051 44.896 48.6078 46.0641 48.1652C47.0257 47.8007 47.4412 49.3432 46.4884 49.7043C38.7335 52.6434 30.9769 55.5795 23.2394 58.5642C22.4374 58.8735 21.6351 59.1831 20.8352 59.4983C20.5984 59.5915 20.3594 59.7106 20.116 59.785C19.6299 60.1968 18.6393 59.7637 18.8107 58.9453C18.9777 58.149 21.0024 57.7269 21.608 57.4919Z" fill="#DCDCDC"/>
<path d="M21.8845 65.2484C29.6969 62.2877 37.5091 59.3267 45.3213 56.3659C46.4439 55.9404 47.5663 55.5151 48.6889 55.0896C49.6505 54.7252 50.066 56.2677 49.1132 56.6288C41.3008 59.5895 33.4886 62.5505 25.6764 65.5113C24.5538 65.9368 23.4314 66.3621 22.3088 66.7876C21.3472 67.152 20.9317 65.6097 21.8845 65.2484Z" fill="#DCDCDC"/>
</svg>
