<svg width="138" height="154" viewBox="0 0 138 154" fill="none" xmlns="http://www.w3.org/2000/svg">
<path d="M105.06 65.9081C104.942 65.6817 104.739 65.5144 104.541 65.3536C102.584 63.7641 100.595 62.155 98.2844 61.1453C96.3107 60.2828 92.5578 58.7104 90.376 58.9298C87.3363 59.2354 89.2027 61.8886 90.1937 64.0821C95.6744 64.5875 100.899 66.7679 105.565 69.6871C105.449 68.6477 105.333 67.6084 105.217 66.5691C105.192 66.3428 105.164 66.1103 105.06 65.9081Z" fill="#DCDCDC"/>
<path d="M49.9755 70.4037C48.4621 69.9008 46.8277 70.7199 46.3245 72.2331C45.8215 73.7464 46.6406 75.3809 48.1539 75.8841C49.6672 76.3873 51.3017 75.568 51.8049 74.0547C52.3076 72.5413 51.4888 70.9067 49.9755 70.4037Z" fill="#DCDCDC"/>
<path d="M36.7822 63.4503C36.2837 62.8892 34.9133 63.293 33.7209 64.3521C32.5288 65.4111 31.9661 66.7247 32.4646 67.2856C32.9631 67.8468 34.3336 67.443 35.5259 66.384C36.7181 65.3246 37.2807 64.0113 36.7822 63.4503Z" fill="#DCDCDC"/>
<path d="M24.905 84.9134C24.1929 84.6767 23.2317 85.6394 22.7584 87.0636C22.285 88.4879 22.4785 89.8344 23.1907 90.071C23.9028 90.3077 24.8639 89.3451 25.3373 87.9208C25.8106 86.4968 25.6171 85.1503 24.905 84.9134Z" fill="#DCDCDC"/>
<path d="M17.7753 80.0598C17.1302 79.9365 16.4077 80.8825 16.1612 82.1723C15.9149 83.4622 16.2379 84.608 16.8828 84.731C17.5278 84.8543 18.2504 83.9084 18.4967 82.6185C18.7434 81.3287 18.4203 80.1831 17.7753 80.0598Z" fill="#DCDCDC"/>
<path d="M93.9313 43.9406C94.8236 45.3612 96.0229 46.5813 97.448 47.4685C99.1643 48.537 101.249 48.8844 103.147 49.5033C103.168 49.5102 103.187 49.5111 103.208 49.5167C105.103 50.4529 107.275 50.7808 109.464 50.2727C115.251 48.93 118.655 42.5789 119.946 37.2741C121.456 31.0662 119.566 23.9602 113.043 21.6962C112.779 21.6128 112.518 21.5435 112.259 21.4803C110.012 20.7043 107.706 19.6556 105.305 19.5383C102.216 19.3874 99.3279 20.8553 97.2152 23.0379C92.2255 28.1926 89.9548 37.6101 93.9313 43.9406ZM95.618 28.7792C95.6851 28.8233 95.768 28.8549 95.8676 28.8693C96.8962 29.0181 97.8408 29.3386 98.7322 29.8374C98.0734 31.3496 97.588 32.963 97.2974 34.5952C96.3488 34.409 95.3999 34.2228 94.4512 34.0366C94.269 34.0009 94.1158 34.0404 93.995 34.1212C94.2729 32.4158 94.813 30.5475 95.618 28.7792ZM94.1244 39.5013C93.7963 38.0661 93.722 36.5668 93.8668 35.099C93.9423 35.1739 94.043 35.2323 94.1767 35.2585C95.1562 35.4507 96.1355 35.6428 97.1149 35.8352C96.9693 37.0836 96.9405 38.33 97.037 39.5384C96.1481 39.5121 95.2593 39.4862 94.3704 39.4599C94.2763 39.4572 94.1952 39.4733 94.1244 39.5013ZM96.0185 43.6652C95.338 42.7631 94.8293 41.7639 94.4688 40.7123C95.3742 40.7389 96.2795 40.7658 97.1849 40.7923C97.4578 42.5221 98.0083 44.1416 98.8684 45.5327C99.0174 45.7736 99.1755 46.0072 99.3409 46.2341C98.0945 45.6745 96.9625 44.9164 96.0185 43.6652ZM112.631 23.529C117.407 25.1865 119.127 30.4334 118.46 35.0795C117.764 39.9242 115.072 46.0634 110.219 48.0618C106.931 49.4156 103.328 48.2491 101.145 45.515C98.2268 41.8597 98.3705 36.9077 99.7424 32.6669C101.543 27.1024 106.201 21.4935 112.631 23.529ZM105.121 21.4051C105.695 21.4181 106.27 21.4983 106.843 21.623C105.068 22.1873 103.482 23.2499 102.129 24.6466C101.169 24.3152 100.21 23.9838 99.2501 23.6522C100.855 22.2405 102.811 21.3535 105.121 21.4051ZM98.4237 24.6835C99.3616 25.0074 100.3 25.3312 101.237 25.6552C100.492 26.5776 99.8325 27.6047 99.2696 28.7026C98.3089 28.1686 97.2724 27.8161 96.1759 27.6536C96.7678 26.5507 97.4701 25.5152 98.2811 24.6146C98.3241 24.6412 98.3707 24.6652 98.4237 24.6835Z" fill="#DCDCDC"/>
<path d="M106.376 42.6552C106.219 43.2523 106.063 43.8494 105.907 44.4465C105.601 45.617 107.434 46.027 107.74 44.8582C107.909 44.2119 108.078 43.5654 108.247 42.9191C110.149 42.8174 112.04 41.73 112.74 39.9067C113.478 37.9852 112.749 36.0348 111.397 34.6054C110.65 33.8157 109.325 32.9465 109.413 31.7224C109.512 30.3394 111.345 30.2473 111.997 31.2835C112.641 32.3082 114.229 31.3036 113.584 30.2786C113.262 29.7661 112.8 29.3652 112.271 29.094C112.419 28.6472 112.568 28.2002 112.717 27.7534C112.877 27.2714 112.466 26.7344 112.006 26.6312C111.469 26.5106 111.044 26.8584 110.884 27.3418C110.733 27.7948 110.583 28.2481 110.432 28.7011C110.136 28.7179 109.842 28.7717 109.557 28.8672C107.801 29.4554 107.123 31.4858 107.781 33.1277C108.525 34.9842 110.917 35.894 111.144 37.9758C111.262 39.0551 110.742 40.0054 109.821 40.5558C109.279 40.8796 105.697 41.5901 106.23 40.0042C106.614 38.8591 104.778 38.4558 104.397 39.5925C103.875 41.149 105.032 42.1924 106.376 42.6552Z" fill="#DCDCDC"/>
<path d="M89.8313 21.2287C90.8474 19.2919 92.2934 17.7318 94.1475 16.5719C94.8318 16.1437 94.1619 15.0858 93.4777 15.5139C91.4491 16.7827 89.8379 18.5203 88.726 20.6391C88.3513 21.3538 89.4568 21.9427 89.8313 21.2287Z" fill="#DCDCDC"/>
<path d="M92.6758 22.7399C93.9712 20.0634 96.2412 18.1049 99.0849 17.23C99.8552 16.9932 99.4776 15.7989 98.7052 16.0365C95.5678 17.0018 93.0013 19.1942 91.5706 22.1504C91.2199 22.875 92.3243 23.4663 92.6758 22.7399Z" fill="#DCDCDC"/>
<path d="M123.938 35.232C123.509 35.9159 124.617 36.5004 125.044 35.8215C126.606 33.3342 126.662 30.2791 125.291 27.6993C124.912 26.9866 123.857 27.6606 124.233 28.3692C125.401 30.5672 125.253 33.1379 123.938 35.232Z" fill="#DCDCDC"/>
<path d="M127.431 38.916C127.221 39.6947 128.443 39.9673 128.653 39.1904C129.624 35.5981 129.864 31.8877 129.357 28.2009C129.248 27.4097 127.995 27.4604 128.106 28.2612C128.599 31.847 128.376 35.4213 127.431 38.916Z" fill="#DCDCDC"/>
<path d="M127.153 71.6987C126.214 68.7083 122.395 67.172 119.823 69.1877C119.65 69.323 119.489 69.476 119.337 69.6412C117.136 69.1011 114.71 69.6739 112.958 71.1774C110.415 66.8885 107.049 63.0672 103.052 59.9738C97.83 55.9323 91.6792 53.163 85.1416 52.1533C84.8849 51.0869 84.5689 50.0441 84.1919 49.0361C83.0619 46.0147 81.0849 42.9155 77.5025 42.8753C74.3653 42.8398 71.5648 45.1528 69.874 47.6047C69.6154 47.9796 69.3608 48.3562 69.107 48.7335C66.4007 48.1166 63.6615 47.7743 60.9278 47.6971C59.1707 44.6646 56.6393 42.2472 53.762 40.2666C50.8068 38.2325 47.379 36.3786 43.9684 35.2368C42.5466 34.7609 40.9241 34.7432 39.7783 35.8491C38.6505 36.9374 38.3859 38.6016 38.3372 40.0966C38.1963 44.4207 38.6036 48.8306 38.781 53.1609C35.5883 54.9578 32.6106 57.1763 29.948 59.7973C27.1975 62.5048 24.842 65.5945 22.9176 68.9379C22.0641 69.1237 21.2279 69.3914 20.4269 69.7413C16.3395 71.5268 13.4569 75.2645 12.1099 79.4467C9.77288 86.7022 12.674 95.9459 19.9181 98.9579C19.8872 99.0902 19.8818 99.2346 19.9142 99.3908C20.4894 102.162 21.4432 104.849 22.7206 107.371C21.7564 108.591 20.7597 109.792 19.6932 110.921C17.8593 112.862 15.1316 114.272 15.3039 117.362C15.479 120.508 18.7361 123 21.0529 124.704C22.4426 125.726 23.9119 126.634 25.4612 127.395C26.8947 128.098 28.5535 128.932 30.168 129.054C34.5275 129.386 35.039 124.451 36.9999 121.802C37.0557 121.727 37.0948 121.649 37.1265 121.571C38.2918 122.134 39.4906 122.624 40.7145 123.043C39.5582 124.204 38.5087 125.499 38.0362 127.084C37.4889 128.919 37.9333 130.84 38.9587 132.422C40.0365 134.085 41.6548 135.257 43.2579 136.369C45.1474 137.68 47.0819 138.976 49.2524 139.776C53.0567 141.177 56.9109 140.316 59.6844 137.355C62.1475 134.726 63.1222 131.288 63.6998 127.814C67.0285 128.285 70.3933 128.556 73.7493 128.227C76.9935 127.908 80.1387 127.071 83.2114 126.017C83.0101 126.485 82.8023 126.947 82.6126 127.402C82.0267 128.806 81.5485 130.277 81.5351 131.814C81.5041 135.405 84.4702 136.94 87.4488 137.966C90.5635 139.039 94.0416 139.878 97.0128 137.947C99.7048 136.198 101.098 133.058 102.034 130.109C102.931 127.285 103.416 124.345 103.512 121.391C103.526 121.38 103.54 121.371 103.554 121.36C112.889 113.846 118.313 102.106 118.281 90.1428C118.265 84.0372 116.685 78.1184 113.883 72.8283C113.954 72.7888 114.023 72.7396 114.089 72.6773C115.216 71.6146 116.792 71.1554 118.312 71.3557C117.568 73.3822 117.963 75.8763 120.209 76.7033C121.726 77.2621 123.243 76.2876 123.592 74.7484C123.967 73.0958 122.859 71.5676 121.576 70.6594C121.478 70.5899 121.377 70.5241 121.276 70.4607C121.294 70.4503 121.311 70.4368 121.329 70.4272C122.905 69.5721 124.86 70.6681 125.362 72.269C125.724 73.4214 127.516 72.8554 127.153 71.6987ZM40.2539 41.9684C40.2038 40.6005 39.9913 38.8665 40.7455 37.6365C41.7367 36.0201 43.7627 37.1354 45.0625 37.7091C50.2535 40 55.4932 42.9132 58.7082 47.6903C57.4635 47.7201 56.2225 47.8011 54.9888 47.9389C53.5726 46.2752 52.0025 44.7551 50.2639 43.4271C48.799 42.3081 46.9546 40.735 45.0593 40.5144C43.4672 40.329 42.619 41.5055 42.5664 42.9818C42.4747 45.5512 42.7497 48.1827 42.849 50.7522C42.8546 50.8959 42.9002 51.0108 42.9694 51.1002C42.1786 51.437 41.3974 51.7971 40.6275 52.1818C40.5028 48.7772 40.3784 45.3727 40.2539 41.9684ZM53.5046 48.1327C50.9748 48.5054 48.4835 49.1045 46.0629 49.9202C45.4042 50.0598 44.7454 50.1994 44.0865 50.339C44.0167 48.5289 43.9467 46.7188 43.877 44.9085C43.8456 44.0978 43.5632 42.833 44.113 42.1672C44.5409 41.6489 44.8622 41.6858 45.4822 41.9003C45.836 42.0227 46.155 42.199 46.4784 42.385C49.1174 43.9042 51.4683 45.8769 53.5046 48.1327ZM15.1057 92.1986C11.3084 85.6136 13.2429 76.1033 19.9017 72.1096C21.017 71.4406 22.2349 70.9803 23.4885 70.7303C23.5356 70.7512 23.5864 70.7686 23.6451 70.7787C29.6061 71.8076 31.8421 78.1226 31.6447 83.4854C31.4425 88.975 29.5977 95.8232 23.7623 97.7213C23.6066 97.7719 23.5003 97.8627 23.4328 97.9713C23.3815 97.9646 23.3301 97.9607 23.2788 97.953C19.7509 97.4365 16.8704 95.2589 15.1057 92.1986ZM33.1781 125.246C32.7601 125.963 32.1611 126.74 31.3558 127.05C30.2876 127.461 29.0909 126.925 28.1044 126.526C24.647 125.128 21.3878 122.999 18.829 120.273C17.5037 118.861 16.5662 117.135 17.7835 115.318C18.5564 114.164 19.8308 113.471 20.7928 112.489C21.8199 111.441 22.7741 110.313 23.6935 109.163C25.4822 112.204 27.7666 114.953 30.4628 117.243C32.025 118.57 33.7105 119.729 35.4865 120.718C34.5032 122.135 34.0436 123.763 33.1781 125.246ZM113.679 104.479C111.47 110.024 108.018 115.062 103.504 118.973C103.47 118.11 103.403 117.248 103.303 116.39C103.164 115.197 101.286 115.275 101.426 116.48C101.954 121.01 101.545 125.575 100.131 129.918C99.0026 133.383 96.8894 137.323 92.722 137.257C90.7359 137.226 88.6799 136.483 86.8458 135.769C85.0406 135.067 83.4571 134.015 83.4102 131.902C83.3678 129.985 84.3291 128.229 85.0348 126.506C85.2493 125.982 85.4406 125.464 85.5984 124.945C85.6826 124.804 85.725 124.644 85.7295 124.483C86.0423 123.286 86.1521 122.076 85.9002 120.776C85.6709 119.592 83.8819 120.169 84.1097 121.345C84.2676 122.16 84.201 122.958 84.0155 123.74C80.6623 124.965 77.225 126 73.6593 126.35C70.4191 126.667 67.1874 126.416 63.9766 125.962C64.0274 125.587 64.0763 125.213 64.1237 124.842C64.2761 123.653 62.4447 123.23 62.2909 124.43C62.2099 125.062 62.1289 125.702 62.0395 126.346C61.9292 126.561 61.8918 126.809 61.9398 127.034C61.5134 129.868 60.8514 132.714 59.1601 135.044C57.0983 137.886 53.9258 139.278 50.4853 138.223C48.7277 137.685 47.1231 136.705 45.5985 135.699C44.1134 134.719 42.5654 133.729 41.3401 132.425C40.2062 131.219 39.3932 129.574 39.7632 127.889C40.1383 126.181 41.4983 124.841 42.7596 123.668C45.7497 124.476 48.8589 124.86 51.9773 124.792C53.1853 124.765 53.0977 122.888 51.8871 122.915C44.4651 123.077 37.0626 120.508 31.4508 115.616C28.7202 113.236 26.4725 110.381 24.7711 107.227C24.7294 107.042 24.6367 106.873 24.5108 106.736C23.347 104.482 22.4632 102.08 21.8805 99.5917C26.0818 100.58 30.7536 99.4627 33.665 96.182C34.468 95.2771 33.0935 93.9961 32.2901 94.9014C30.7032 96.6898 28.5097 97.7128 26.1924 97.9901C31.0198 95.1502 32.7027 88.7973 32.8958 83.4249C33.0728 78.499 31.2345 72.9375 26.8581 70.5681C28.6318 70.7489 30.361 71.3522 31.8633 72.394C32.8563 73.0825 33.7297 71.4171 32.7475 70.7361C30.5591 69.2186 27.9127 68.541 25.2834 68.6383C29.472 61.9038 35.6197 56.4069 42.8546 53.1189C50.6972 49.5549 59.5732 48.6505 67.9826 50.4071C67.188 51.5861 66.3796 52.7552 65.4984 53.8778C64.3455 55.3464 63.08 56.9669 61.4054 57.8645C60.3382 58.4366 61.3493 60.0204 62.4105 59.4515C65.0155 58.0548 66.8934 55.2291 68.5602 52.8864C69.1336 52.0803 69.6758 51.2112 70.2376 50.349C70.247 50.3348 70.2566 50.3209 70.2654 50.3061C71.5639 48.3167 72.9742 46.3716 75.1356 45.3358C82.2484 41.9271 83.8975 54.0618 84.0061 58.5525C84.0935 62.171 83.6343 65.9016 82.2829 69.2792C81.8379 70.3914 83.4921 71.2845 83.9408 70.1634C85.9025 65.2601 86.4459 59.4845 85.5435 54.1226C96.275 56.0368 105.849 62.8347 111.421 72.1924C117.227 81.9424 117.859 93.9847 113.679 104.479ZM121.084 72.6815C121.469 73.0886 121.945 73.7321 121.759 74.3361C121.552 75.0074 121.047 75.1297 120.522 74.7228C119.659 74.0539 119.643 72.891 120.063 71.9131C120.442 72.1165 120.791 72.3713 121.084 72.6815Z" fill="#DCDCDC"/>
<path d="M77.2512 48.6409C77.1308 48.4709 76.9708 48.3911 76.8074 48.3755C76.7156 47.8987 76.124 47.5495 75.7755 48.0344C73.1558 51.6769 70.6724 55.4111 68.336 59.2414C68.1668 59.5185 68.2997 59.953 68.5939 60.0888C71.9273 61.6287 75.2605 63.1682 78.5939 64.7081C78.9945 64.8933 79.3628 64.6889 79.4995 64.2927C81.3084 59.0544 80.451 53.1608 77.2512 48.6409ZM78.5081 63.2906C75.6024 61.9483 72.6963 60.6061 69.7906 59.2637C71.8468 55.9209 74.012 52.6479 76.2902 49.4523C79.0936 53.5026 79.8909 58.5881 78.5081 63.2906Z" fill="#DCDCDC"/>
</svg>
