<svg width="58" height="60" viewBox="0 0 58 60" fill="none" xmlns="http://www.w3.org/2000/svg">
<path d="M56.5222 21.0049C56.8927 18.3411 57.2629 15.6775 57.6333 13.0136C57.6485 12.9039 57.6419 12.8051 57.626 12.7115C57.7484 12.2702 57.8202 11.8001 57.8315 11.2984C57.9047 8.07083 54.8636 5.97628 52.285 4.70239C47.041 2.11201 40.9528 1.12055 35.2203 0.312316C29.9649 -0.38126 23.9897 -0.0279209 19.2138 2.47869C16.8192 3.73527 14.4399 5.94189 14.3681 8.72532C14.2345 10.3083 14.1011 11.8913 13.9675 13.4743C11.0822 13.7645 8.24968 14.4822 5.74682 15.7959C3.3523 17.0524 0.972982 19.2591 0.901144 22.0425C0.721666 24.171 0.542188 26.2997 0.362476 28.4284C0.214354 30.1852 -0.247093 32.2276 0.171065 33.9802C0.986789 37.3966 4.40413 39.4596 7.71804 40.7733C7.63543 41.753 7.55283 42.7325 7.47023 43.7123C7.3221 45.4692 6.86066 47.5115 7.27882 49.2642C8.35288 53.7633 13.9392 55.9166 17.8591 57.0999C23.6995 58.8631 29.9368 59.541 36.0248 59.2635C38.6968 59.1415 41.3871 58.8132 43.9504 58.0228C45.7231 57.4762 47.6267 56.6303 48.7864 55.1168C49.9433 53.607 49.9127 51.4053 50.1628 49.6065C50.5332 46.9427 50.9034 44.279 51.2739 41.6152C51.2891 41.5054 51.2825 41.4067 51.2666 41.3131C51.389 40.8718 51.4608 40.4017 51.472 39.9C51.5451 36.6724 48.5042 34.5779 45.9255 33.304C45.0883 32.8905 44.2279 32.5215 43.3525 32.1838C43.4262 31.6533 43.4999 31.1229 43.5739 30.5924C45.8514 30.4316 48.1266 30.0954 50.3093 29.4224C52.0821 28.8758 53.9857 28.0299 55.1454 26.5163C56.3027 25.0056 56.2721 22.8039 56.5222 21.0049ZM54.1277 24.4707C53.7341 25.8422 52.1771 26.7024 50.8751 27.2317C50.2557 27.4835 49.6188 27.6882 48.9722 27.8625C49.4196 24.6811 49.879 21.5013 50.3233 18.3193C52.1064 17.8069 53.9248 17.0578 55.3267 15.9611C55.1884 16.9565 55.0499 17.9519 54.9116 18.9474C54.6657 20.7178 54.6098 22.7918 54.1277 24.4707ZM5.35884 18.2033C7.76319 16.5311 10.7504 15.6749 13.8074 15.3473C13.6415 17.0494 13.2386 18.9881 13.6382 20.6628C13.8205 21.4261 14.135 22.1202 14.5469 22.7553C13.945 22.9942 13.3153 23.1039 12.6742 22.9401C10.6821 22.4316 11.4288 20.1581 12.5787 19.1973C13.5046 18.4237 12.376 16.9216 11.4459 17.6988C10.8511 18.1958 10.3372 18.8584 9.99298 19.5883C9.33965 19.6473 8.68633 19.706 8.03323 19.765C6.82977 19.8733 7.07384 21.7364 8.27847 21.6278C8.69874 21.5899 9.11899 21.552 9.53949 21.5144C9.54464 22.3277 9.81936 23.1236 10.4706 23.7872C11.9864 25.3316 13.9846 25.0178 15.7459 24.2026C18.0073 26.4 21.5105 27.6812 24.2188 28.4988C27.3422 29.4418 30.5794 30.0713 33.8465 30.4134C28.3196 31.4491 22.479 31.1725 16.9746 30.2173C14.1856 29.7334 11.4127 29.0424 8.79655 27.9466C6.93227 27.1655 4.92103 26.1529 3.65813 24.5166C1.90032 22.2388 3.1789 19.7193 5.35884 18.2033ZM18.8256 4.88631C23.2893 1.7816 29.7625 1.48676 34.9617 2.17285C39.89 2.86759 44.9116 3.73246 49.5645 5.56023C51.7477 6.41784 54.8941 7.72286 55.7713 10.1441C57.264 14.2639 51.0885 16.2957 48.2508 16.9092C42.4504 18.1632 36.2578 17.9094 30.4413 16.9001C27.6523 16.416 24.8794 15.7252 22.2632 14.6294C20.399 13.8483 18.3877 12.8358 17.1248 11.1994C15.367 8.92164 16.6456 6.4024 18.8256 4.88631ZM30.6835 41.9795C29.9958 42.0427 29.3055 42.09 28.6133 42.1232C29.2926 39.0101 30.0058 35.9044 30.6788 32.7899C30.6826 32.7721 30.6821 32.7564 30.6847 32.7393C31.6296 32.6481 32.5686 32.5301 33.4978 32.3783C34.1327 32.2744 34.8255 32.1429 35.5441 31.9763C35.0993 35.1479 34.6416 38.3174 34.1972 41.4891C33.035 41.724 31.853 41.8721 30.6835 41.9795ZM21.1288 41.9271C21.1309 41.9149 21.1351 41.9046 21.1368 41.8918C21.5086 38.8636 21.868 35.834 22.2394 32.8058C24.6229 32.9881 27.0207 33.0063 29.3883 32.8456C28.7141 35.9557 28.0023 39.0576 27.3254 42.167C25.2629 42.2119 23.1896 42.1293 21.1288 41.9271ZM14.7111 40.9118C14.7979 37.8557 14.8742 34.7995 14.9601 31.7432C16.9346 32.1691 18.954 32.4913 20.9915 32.6956C20.6227 35.7029 20.2656 38.7119 19.8963 41.7195C19.8933 41.7448 19.8952 41.7678 19.8947 41.7916C18.1495 41.5801 16.4165 41.2853 14.7111 40.9118ZM33.3633 28.4026C33.3602 28.4279 33.3621 28.4508 33.3616 28.4747C31.6162 28.2631 29.8834 27.9683 28.1781 27.5948C28.2649 24.5388 28.3412 21.4825 28.427 18.4263C30.4015 18.8521 32.4209 19.1744 34.4584 19.3786C34.0894 22.3862 33.7323 25.395 33.3633 28.4026ZM26.7956 18.0516C26.9262 18.0839 27.0584 18.1132 27.1894 18.1445C27.1033 21.1987 27.0273 24.2531 26.9407 27.3073C24.8794 26.8049 22.8312 26.1562 20.9051 25.2558C21.3352 22.3378 21.623 19.4049 21.7679 16.4581C23.3958 17.1243 25.0939 17.6295 26.7956 18.0516ZM40.7923 28.8503C38.7298 28.895 36.6563 28.8124 34.5957 28.6102C34.5979 28.598 34.6021 28.5877 34.6037 28.5748C34.9755 25.5466 35.3347 22.517 35.7063 19.4888C38.0898 19.6711 40.4876 19.6894 42.8552 19.5286C42.1809 22.639 41.469 25.7406 40.7923 28.8503ZM15.9169 12.682C16.6933 13.5733 17.6752 14.3102 18.6641 14.9106C19.2765 15.2825 19.908 15.6183 20.5536 15.9243C20.5494 15.9501 20.5436 15.9742 20.5422 16.0025C20.4088 18.9039 20.1364 21.7919 19.7264 24.6654C18.1886 23.8356 16.5775 22.7157 15.7861 21.1215C14.9929 19.5237 15.5081 17.5289 15.6504 15.8424C15.7391 14.7887 15.828 13.7355 15.9169 12.682ZM2.44999 25.999C3.22641 26.8905 4.20826 27.6271 5.19738 28.2276C5.80976 28.5994 6.44133 28.9352 7.08693 29.2413C7.08272 29.267 7.07687 29.2911 7.07546 29.3194C6.94208 32.2208 6.66972 35.1088 6.25975 37.9823C4.7219 37.1526 3.11081 36.0327 2.31943 34.4384C1.52617 32.8407 2.04143 30.8458 2.1837 29.1594C2.27239 28.1059 2.36131 27.0524 2.44999 25.999ZM8.30092 29.775C9.9291 30.4412 11.627 30.9464 13.3289 31.3686C13.4595 31.4009 13.5917 31.4301 13.7227 31.4615C13.6366 34.5156 13.5606 37.57 13.474 40.6242C11.4127 40.1218 9.36446 39.4731 7.43818 38.5727C7.8685 35.6547 8.15631 32.7218 8.30092 29.775ZM40.661 37.7877C40.2674 39.1591 38.7104 40.0193 37.4084 40.5486C36.7893 40.8004 36.1521 41.0049 35.5055 41.1795C35.9529 37.998 36.4123 34.8182 36.8566 31.6363C37.7154 31.3894 38.5819 31.0871 39.407 30.7183C40.1607 30.7227 40.9133 30.7124 41.6642 30.6876C41.5912 31.2132 41.5179 31.7388 41.4449 32.2641C41.199 34.0348 41.1431 36.1087 40.661 37.7877ZM42.08 28.8063C42.7595 25.6931 43.4725 22.5875 44.1455 19.4729C44.1493 19.4552 44.1488 19.4395 44.1514 19.4224C45.0963 19.3311 46.0353 19.2134 46.9645 19.0613C47.5993 18.9574 48.2922 18.8259 49.0108 18.6593C48.566 21.831 48.1083 25.0007 47.6642 28.1724C46.5021 28.4071 45.3202 28.5552 44.1507 28.6626C43.4625 28.7258 42.7722 28.773 42.08 28.8063ZM9.42718 49.7221C8.63392 48.1244 9.14918 46.1295 9.29145 44.4431C9.37616 43.4402 9.46064 42.437 9.54535 41.4341C9.61531 41.4572 9.6848 41.4799 9.7543 41.5026C10.4965 42.2966 11.3986 42.9612 12.3054 43.5118C12.9178 43.8836 13.5493 44.2194 14.1949 44.5254C14.1907 44.5512 14.1849 44.5753 14.1835 44.6036C14.0501 47.505 13.7777 50.393 13.3677 53.2665C11.8296 52.4363 10.2186 51.3164 9.42718 49.7221ZM14.5462 53.8567C14.9762 50.9387 15.2641 48.0057 15.4089 45.059C17.0371 45.7252 18.735 46.2301 20.4369 46.6525C20.5674 46.6848 20.6997 46.7141 20.8307 46.7454C20.7446 49.7996 20.6685 52.854 20.582 55.9081C18.5204 55.4057 16.4722 54.7571 14.5462 53.8567ZM21.8189 56.1957C21.9057 53.1397 21.982 50.0834 22.0678 47.0271C24.0423 47.453 26.0618 47.775 28.0992 47.9795C27.7304 50.9871 27.3733 53.9959 27.0041 57.0035C27.001 57.0288 27.0029 57.0517 27.0024 57.0756C25.257 56.864 23.5243 56.5692 21.8189 56.1957ZM29.3471 48.09C31.7306 48.2722 34.1284 48.2905 36.4961 48.1298C35.8219 51.2398 35.1101 54.3417 34.4331 57.4511C32.3706 57.4958 30.2972 57.4132 28.2366 57.211C28.2387 57.1989 28.2429 57.1886 28.2445 57.1757C28.6163 54.1478 28.9758 51.1182 29.3471 48.09ZM35.7211 57.4071C36.4004 54.294 37.1136 51.1884 37.7866 48.0738C37.7903 48.056 37.7898 48.0404 37.7924 48.0233C38.7373 47.932 39.6763 47.8141 40.6056 47.6622C41.2404 47.5586 41.9333 47.4268 42.6519 47.2602C42.2071 50.4318 41.7494 53.6014 41.3052 56.773C40.1432 57.0077 38.9613 57.1558 37.7917 57.2632C37.1035 57.3267 36.4132 57.3739 35.7211 57.4071ZM47.7688 53.0716C47.3752 54.4431 45.8182 55.3032 44.5162 55.8326C43.897 56.0843 43.2598 56.2889 42.6133 56.4634C43.0607 53.282 43.52 50.1021 43.9644 46.9202C45.7475 46.4077 47.5661 45.6587 48.9678 44.562C48.8295 45.5574 48.691 46.5528 48.5527 47.5483C48.3067 49.3187 48.2508 51.3926 47.7688 53.0716ZM43.2053 34.1611C45.3885 35.0187 48.5349 36.3237 49.4122 38.7449C50.9048 42.8647 44.7294 44.8966 41.8916 45.5099C36.0912 46.7639 29.8987 46.51 24.0821 45.5008C21.2931 45.0168 18.5202 44.3261 15.9041 43.23C15.686 43.1388 15.466 43.0438 15.2453 42.9455C19.7342 43.8597 24.3674 44.1864 28.9175 43.9788C31.5895 43.8569 34.2798 43.5286 36.8431 42.7382C37.4494 42.5512 38.0702 42.3279 38.672 42.0565C38.7883 42.7522 39.7732 43.2464 40.3411 42.5261C40.8672 41.8588 41.1658 41.0931 41.2706 40.305C41.2779 40.2973 41.2851 40.2893 41.2924 40.2816C42.2459 40.4995 43.2137 40.5528 44.1895 40.4712C45.3937 40.3701 45.1489 38.5072 43.9443 38.6083C43.407 38.6535 42.8789 38.6366 42.3538 38.5678C42.8382 37.2314 42.8688 35.6648 43.0555 34.3221C43.0651 34.2533 43.0747 34.1843 43.0843 34.1155C43.1243 34.1309 43.1651 34.1454 43.2053 34.1611Z" fill="#DCDCDC"/>
<path d="M21.7449 8.31092C22.1651 8.27301 22.5856 8.2351 23.0059 8.19719C23.011 9.01057 23.2858 9.80641 23.937 10.47C26.0268 12.5992 29.034 11.1973 31.073 9.81694C33.8614 7.92926 37.0071 6.62963 40.4426 6.9357C41.9388 7.06908 43.53 7.47811 44.6584 8.52877C45.8237 9.61382 46.259 11.4505 45.2242 12.7628C44.4742 13.714 45.9512 14.8751 46.7003 13.9253C47.2324 13.2502 47.5319 12.4745 47.6332 11.6768C48.5926 11.8981 49.5665 11.9524 50.5484 11.8701C51.7526 11.7692 51.5078 9.9061 50.3032 10.0072C49.4542 10.0783 48.6284 9.99643 47.8012 9.79636C47.7032 9.77272 47.6051 9.77225 47.5099 9.78933C47.2834 8.91183 46.8304 8.08113 46.1808 7.40627C44.2042 5.35292 41.1011 4.86434 38.3757 5.0609C35.4224 5.27407 32.69 6.45038 30.2632 8.09657C29.1007 8.88515 27.6515 10.0086 26.1408 9.62296C24.149 9.11447 24.8955 6.84093 26.0453 5.88013C26.9713 5.10652 25.8427 3.60448 24.9125 4.38159C24.3177 4.87861 23.8038 5.5413 23.4596 6.27115C22.8063 6.33011 22.153 6.38885 21.4996 6.44782C20.2962 6.55639 20.5402 8.41926 21.7449 8.31092Z" fill="#DCDCDC"/>
</svg>
