<svg width="16" height="16" viewBox="0 0 16 16" fill="none" xmlns="http://www.w3.org/2000/svg">
<path d="M8 0C3.58867 0 0 3.58867 0 8C0 12.4113 3.58867 16 8 16C12.4113 16 16 12.4113 16 8C16 3.58867 12.4113 0 8 0ZM10.4713 9.52867C10.732 9.78933 10.732 10.2107 10.4713 10.4713C10.3413 10.6013 10.1707 10.6667 10 10.6667C9.82933 10.6667 9.65867 10.6013 9.52867 10.4713L8 8.94267L6.47133 10.4713C6.34133 10.6013 6.17067 10.6667 6 10.6667C5.82933 10.6667 5.65867 10.6013 5.52867 10.4713C5.268 10.2107 5.268 9.78933 5.52867 9.52867L7.05733 8L5.52867 6.47133C5.268 6.21067 5.268 5.78933 5.52867 5.52867C5.78933 5.268 6.21067 5.268 6.47133 5.52867L8 7.05733L9.52867 5.52867C9.78933 5.268 10.2107 5.268 10.4713 5.52867C10.732 5.78933 10.732 6.21067 10.4713 6.47133L8.94267 8L10.4713 9.52867Z" fill="#FF383B"/>
</svg>
