<svg width="18" height="18" viewBox="0 0 18 18" fill="none" xmlns="http://www.w3.org/2000/svg">
<path d="M17.9993 8.99998C17.9993 13.9627 13.962 18 8.99925 18C8.388 18 7.776 17.9377 7.17975 17.8155C6.774 17.7322 6.51225 17.3355 6.59625 16.9297C6.6795 16.524 7.07475 16.2622 7.482 16.3462C7.9785 16.4482 8.48925 16.5 8.99925 16.5C13.1348 16.5 16.4993 13.1355 16.4993 8.99998C16.4993 4.86448 13.1348 1.49998 8.99925 1.49998C8.517 1.49998 8.03475 1.54573 7.56525 1.63648C7.15575 1.71373 6.765 1.44898 6.687 1.04248C6.609 0.635982 6.8745 0.242982 7.281 0.164232C7.8435 0.0554824 8.42175 0.000732422 8.99925 0.000732422C13.962 0.000732422 17.9993 4.03798 17.9993 9.00073V8.99998ZM8.9895 13.4977C8.9895 13.4977 8.99625 13.5 8.99925 13.5C9.003 13.5 9.006 13.4977 9.00975 13.4977C9.43275 13.4947 9.855 13.3335 10.1783 13.0117L12.5303 10.6552C12.8228 10.362 12.8228 9.88723 12.5288 9.59398C12.2355 9.30148 11.7615 9.30223 11.4683 9.59473L9.74925 11.3175V5.24998C9.74925 4.83598 9.41325 4.49998 8.99925 4.49998C8.58525 4.49998 8.24925 4.83598 8.24925 5.24998V11.3175L6.53025 9.59473C6.23775 9.30148 5.763 9.30073 5.469 9.59398C5.17575 9.88648 5.175 10.3612 5.46825 10.6552L7.821 13.0125C8.1435 13.335 8.56575 13.4955 8.9895 13.4977ZM3.5235 14.1255C3.24075 13.8225 2.766 13.8075 2.46375 14.091C2.1615 14.3737 2.14575 14.8485 2.42925 15.1507C2.85075 15.6007 3.32025 16.0087 3.8235 16.3635C3.95475 16.4557 4.1055 16.5 4.25475 16.5C4.49025 16.5 4.72275 16.389 4.869 16.182C5.1075 15.843 5.02575 15.375 4.6875 15.1365C4.2675 14.841 3.87525 14.5005 3.5235 14.1255ZM1.6245 10.3702C1.5495 9.96298 1.15875 9.69223 0.750754 9.76873C0.343504 9.84373 0.0742542 10.2352 0.149254 10.6425C0.255004 11.214 0.416254 11.7765 0.630004 12.3142C0.747004 12.609 1.029 12.7882 1.3275 12.7882C1.41975 12.7882 1.51275 12.771 1.6035 12.735C1.989 12.582 2.17725 12.1462 2.02425 11.7615C1.8465 11.3137 1.71225 10.8457 1.6245 10.3702ZM3.8235 1.63648C3.32025 1.99123 2.85075 2.39923 2.42925 2.84923C2.14575 3.15148 2.1615 3.62623 2.46375 3.90898C2.6085 4.04473 2.79225 4.11223 2.97675 4.11223C3.177 4.11223 3.3765 4.03273 3.5235 3.87523C3.87525 3.50023 4.26675 3.15973 4.68675 2.86423C5.02575 2.62573 5.10675 2.15773 4.86825 1.81873C4.6305 1.48048 4.16325 1.39873 3.82275 1.63723L3.8235 1.63648ZM1.6035 5.26498C1.2165 5.11123 0.782254 5.30023 0.630004 5.68573C0.416254 6.22348 0.255004 6.78598 0.149254 7.35748C0.0742542 7.76473 0.343504 8.15623 0.750754 8.23123C0.797254 8.23948 0.843004 8.24398 0.888004 8.24398C1.24275 8.24398 1.5585 7.99123 1.6245 7.63048C1.71225 7.15498 1.8465 6.68698 2.02425 6.23923C2.17725 5.85448 1.989 5.41723 1.6035 5.26498Z" fill="#FF383B"/>
</svg>
