<svg width="12" height="13" viewBox="0 0 12 13" fill="none" xmlns="http://www.w3.org/2000/svg">
<path d="M10.5 5.37598H7.5V2.37598C7.5 1.97815 7.34196 1.59662 7.06066 1.31532C6.77936 1.03401 6.39782 0.875977 6 0.875977C5.60218 0.875977 5.22064 1.03401 4.93934 1.31532C4.65804 1.59662 4.5 1.97815 4.5 2.37598V5.37598H1.5C1.10218 5.37598 0.720644 5.53401 0.43934 5.81532C0.158035 6.09662 0 6.47815 0 6.87598C0 7.2738 0.158035 7.65533 0.43934 7.93664C0.720644 8.21794 1.10218 8.37598 1.5 8.37598H4.5V11.376C4.5 11.7738 4.65804 12.1553 4.93934 12.4366C5.22064 12.7179 5.60218 12.876 6 12.876C6.39782 12.876 6.77936 12.7179 7.06066 12.4366C7.34196 12.1553 7.5 11.7738 7.5 11.376V8.37598H10.5C10.8978 8.37598 11.2794 8.21794 11.5607 7.93664C11.842 7.65533 12 7.2738 12 6.87598C12 6.47815 11.842 6.09662 11.5607 5.81532C11.2794 5.53401 10.8978 5.37598 10.5 5.37598Z" fill="#6D758F"/>
</svg>
