<svg width="12" height="16" viewBox="0 0 12 16" fill="none" xmlns="http://www.w3.org/2000/svg">
<path d="M11.9955 4.33819C11.9955 4.8913 11.549 5.33778 10.9959 5.33778H9.98303C9.80977 7.93669 7.63734 10.0025 4.99844 10.0025H3.79894L8.96346 14.2274C9.38994 14.5739 9.45658 15.207 9.1034 15.6335C8.90348 15.8734 8.61693 16 8.33039 16C8.11048 16 7.8839 15.9267 7.69732 15.7734L0.367037 9.77593C0.0405062 9.50937 -0.0861077 9.06289 0.0604979 8.66306C0.20044 8.26322 0.580281 7.99667 1.00011 7.99667H4.99844C6.5378 7.99667 7.8106 6.83049 7.9772 5.33111H1.00011C0.447004 5.33111 0.000522904 4.88463 0.000522904 4.33153C0.000522904 3.77843 0.447004 3.33194 1.00011 3.33194H7.49074C6.95096 2.52561 6.03801 1.99917 4.99844 1.99917H1.00011C0.447004 1.99917 0.000522904 1.55269 0.000522904 0.999583C0.000522904 0.446481 0.447004 0 1.00011 0H10.9959C11.549 0 11.9955 0.446481 11.9955 0.999583C11.9955 1.55269 11.549 1.99917 10.9959 1.99917H8.99677C9.29665 2.399 9.54321 2.85214 9.71647 3.33194H11.0026C11.5557 3.33194 12.0022 3.77843 12.0022 4.33153L11.9955 4.33819Z" fill="#FF383B"/>
</svg>
