<svg width="17" height="17" viewBox="0 0 17 17" fill="none" xmlns="http://www.w3.org/2000/svg">
<path d="M15.8447 5.85506L11.1129 5.44445L9.26513 1.09392C8.93273 0.302026 7.79865 0.302026 7.46625 1.09392L5.6185 5.45423L0.896461 5.85506C0.0361314 5.9235 -0.315822 6.99891 0.339202 7.56595L3.92717 10.6749L2.85176 15.2894C2.65623 16.1301 3.56544 16.7949 4.30845 16.3452L8.36569 13.9011L12.4229 16.355C13.1659 16.8047 14.0752 16.1399 13.8796 15.2991L12.8042 10.6749L16.3922 7.56595C17.0472 6.99891 16.705 5.9235 15.8447 5.85506ZM8.36569 12.0729L4.68973 14.2922L5.66738 10.1078L2.42159 7.29221L6.70369 6.9207L8.36569 2.98078L10.0375 6.93048L14.3196 7.30198L11.0738 10.1176L12.0514 14.3019L8.36569 12.0729Z" fill="#FF383B"/>
</svg>
