<svg width="20" height="20" viewBox="0 0 20 20" fill="none" xmlns="http://www.w3.org/2000/svg">
<g clip-path="url(#clip0_176_3739)">
<path d="M14.4205 7.94884C13.3272 9.65967 11.7705 11.8038 9.41967 13.2147C9.14967 13.3772 8.81051 13.373 8.54467 13.2038C7.27801 12.4013 6.32717 11.5413 5.54967 10.4972C5.27467 10.128 5.35134 9.60634 5.72051 9.33134C6.08884 9.05634 6.61134 9.13384 6.88551 9.50217C7.44717 10.2563 8.12551 10.9013 8.99884 11.5063C10.7988 10.2897 12.0355 8.58384 13.0147 7.05134C13.2638 6.66301 13.7788 6.54967 14.1655 6.79801C14.5538 7.04634 14.668 7.56134 14.4205 7.94884ZM19.1663 9.99967C19.1663 16.4247 16.4247 19.1663 9.99967 19.1663C3.57467 19.1663 0.833008 16.4247 0.833008 9.99967C0.833008 3.57467 3.57467 0.833008 9.99967 0.833008C16.4247 0.833008 19.1663 3.57467 19.1663 9.99967ZM17.4997 9.99967C17.4997 4.53217 15.4672 2.49967 9.99967 2.49967C4.53217 2.49967 2.49967 4.53217 2.49967 9.99967C2.49967 15.4672 4.53217 17.4997 9.99967 17.4997C15.4672 17.4997 17.4997 15.4672 17.4997 9.99967Z" fill="white"/>
</g>
<defs>
<clipPath id="clip0_176_3739">
<rect width="20" height="20" fill="white" transform="translate(0 -0.000488281)"/>
</clipPath>
</defs>
</svg>
