<svg width="11" height="12" viewBox="0 0 11 12" fill="none" xmlns="http://www.w3.org/2000/svg">
<path d="M10.0378 6.60857C9.95814 6.52823 9.86334 6.46447 9.75889 6.42095C9.65444 6.37743 9.5424 6.35503 9.42925 6.35503C9.3161 6.35503 9.20406 6.37743 9.09961 6.42095C8.99516 6.46447 8.90036 6.52823 8.82068 6.60857L6.00068 9.42857V0.857143C6.00068 0.629814 5.91037 0.411797 5.74963 0.251051C5.58888 0.090306 5.37086 0 5.14354 0C4.91621 0 4.69819 0.090306 4.53744 0.251051C4.3767 0.411797 4.28639 0.629814 4.28639 0.857143V9.42857L1.46639 6.60857C1.38671 6.52823 1.29191 6.46447 1.18746 6.42095C1.08301 6.37743 0.970975 6.35503 0.857822 6.35503C0.744669 6.35503 0.632636 6.37743 0.528185 6.42095C0.423734 6.46447 0.328933 6.52823 0.249251 6.60857C0.089607 6.76917 0 6.98641 0 7.21286C0 7.4393 0.089607 7.65655 0.249251 7.81714L3.93496 11.4943C4.25498 11.8162 4.68961 11.9981 5.14354 12C5.59448 11.9958 6.02562 11.8141 6.34354 11.4943L10.0293 7.81714C10.19 7.65768 10.2812 7.44107 10.2828 7.21463C10.2844 6.98818 10.1963 6.7703 10.0378 6.60857Z" fill="#6D758F"/>
</svg>
