<svg width="18" height="18" viewBox="0 0 18 18" fill="none" xmlns="http://www.w3.org/2000/svg">
<path d="M18.0002 8.99962C18.0002 13.9624 13.963 17.9996 9.00023 17.9996C8.38898 17.9996 7.77698 17.9374 7.18073 17.8151C6.77498 17.7319 6.51323 17.3351 6.59723 16.9294C6.68048 16.5236 7.07573 16.2619 7.48298 16.3459C7.97948 16.4479 8.49023 16.4996 9.00023 16.4996C13.1357 16.4996 16.5002 13.1351 16.5002 8.99962C16.5002 4.86412 13.1357 1.49962 9.00023 1.49962C8.51798 1.49962 8.03573 1.54537 7.56623 1.63612C7.15673 1.71337 6.76598 1.44862 6.68798 1.04212C6.60998 0.635616 6.87548 0.242616 7.28198 0.163866C7.84448 0.0551162 8.42273 0.000366211 9.00023 0.000366211C13.963 0.000366211 18.0002 4.03762 18.0002 9.00037V8.99962ZM8.99048 13.4974C8.99048 13.4974 8.99723 13.4996 9.00023 13.4996C9.00398 13.4996 9.00698 13.4974 9.01073 13.4974C9.43373 13.4944 9.85598 13.3331 10.1792 13.0114L12.5312 10.6549C12.8237 10.3616 12.8237 9.88687 12.5297 9.59362C12.2365 9.30112 11.7625 9.30187 11.4692 9.59437L9.75023 11.3171V5.24962C9.75023 4.83562 9.41423 4.49962 9.00023 4.49962C8.58623 4.49962 8.25023 4.83562 8.25023 5.24962V11.3171L6.53123 9.59437C6.23873 9.30112 5.76398 9.30037 5.46998 9.59362C5.17673 9.88612 5.17598 10.3609 5.46923 10.6549L7.82198 13.0121C8.14448 13.3346 8.56673 13.4951 8.99048 13.4974ZM3.52448 14.1251C3.24173 13.8221 2.76698 13.8071 2.46473 14.0906C2.16248 14.3734 2.14673 14.8481 2.43023 15.1504C2.85173 15.6004 3.32123 16.0084 3.82448 16.3631C3.95573 16.4554 4.10648 16.4996 4.25573 16.4996C4.49123 16.4996 4.72373 16.3886 4.86998 16.1816C5.10848 15.8426 5.02673 15.3746 4.68848 15.1361C4.26848 14.8406 3.87623 14.5001 3.52448 14.1251ZM1.62548 10.3699C1.55048 9.96262 1.15973 9.69187 0.751731 9.76837C0.344481 9.84337 0.0752308 10.2349 0.150231 10.6421C0.255981 11.2136 0.417231 11.7761 0.630981 12.3139C0.747981 12.6086 1.02998 12.7879 1.32848 12.7879C1.42073 12.7879 1.51373 12.7706 1.60448 12.7346C1.98998 12.5816 2.17823 12.1459 2.02523 11.7611C1.84748 11.3134 1.71323 10.8454 1.62548 10.3699ZM3.82448 1.63612C3.32123 1.99087 2.85173 2.39887 2.43023 2.84887C2.14673 3.15112 2.16248 3.62587 2.46473 3.90862C2.60948 4.04437 2.79323 4.11187 2.97773 4.11187C3.17798 4.11187 3.37748 4.03237 3.52448 3.87487C3.87623 3.49987 4.26773 3.15937 4.68773 2.86387C5.02673 2.62537 5.10773 2.15737 4.86923 1.81837C4.63148 1.48012 4.16423 1.39837 3.82373 1.63687L3.82448 1.63612ZM1.60448 5.26462C1.21748 5.11087 0.783231 5.29987 0.630981 5.68537C0.417231 6.22312 0.255981 6.78562 0.150231 7.35712C0.0752308 7.76437 0.344481 8.15587 0.751731 8.23087C0.798231 8.23912 0.843981 8.24362 0.888981 8.24362C1.24373 8.24362 1.55948 7.99087 1.62548 7.63012C1.71323 7.15462 1.84748 6.68662 2.02523 6.23887C2.17823 5.85412 1.98998 5.41687 1.60448 5.26462Z" fill="#FF383B"/>
</svg>
