<svg width="17" height="17" viewBox="0 0 17 17" fill="none" xmlns="http://www.w3.org/2000/svg">
<path d="M15.8447 5.8547L11.1129 5.44409L9.26513 1.09355C8.93273 0.30166 7.79865 0.30166 7.46625 1.09355L5.6185 5.45386L0.896461 5.8547C0.0361314 5.92313 -0.315822 6.99855 0.339202 7.56558L3.92717 10.6745L2.85176 15.289C2.65623 16.1298 3.56544 16.7946 4.30845 16.3449L8.36569 13.9007L12.4229 16.3546C13.1659 16.8044 14.0752 16.1396 13.8796 15.2988L12.8042 10.6745L16.3922 7.56558C17.0472 6.99855 16.705 5.92313 15.8447 5.8547ZM8.36569 12.0725L4.68973 14.2918L5.66738 10.1075L2.42159 7.29184L6.70369 6.92033L8.36569 2.98041L10.0375 6.93011L14.3196 7.30162L11.0738 10.1172L12.0514 14.3016L8.36569 12.0725Z" fill="#FF383B"/>
</svg>
