<svg width="544" height="438" viewBox="0 0 544 438" fill="none" xmlns="http://www.w3.org/2000/svg">
<g clip-path="url(#clip0_447_4491)">
<g opacity="0.1">
<mask id="mask0_447_4491" style="mask-type:luminance" maskUnits="userSpaceOnUse" x="0" y="0" width="1167" height="438">
<path d="M1167 0H0V437.625H1167V0Z" fill="white"/>
</mask>
<g mask="url(#mask0_447_4491)">
<path d="M5.62255 516.402L3.04785 514.675L750.432 -599.265L753.006 -597.538L5.62255 516.402Z" fill="url(#paint0_radial_447_4491)"/>
<path d="M-0.733497 514.029L-3.32861 512.333L727.206 -605.061L729.801 -603.365L-0.733497 514.029Z" fill="url(#paint1_radial_447_4491)"/>
<path d="M-7.08993 511.654L-9.70459 509.99L703.98 -610.857L706.594 -609.192L-7.08993 511.654Z" fill="url(#paint2_radial_447_4491)"/>
<path d="M-13.4455 509.28L-16.0806 507.647L680.754 -616.653L683.389 -615.02L-13.4455 509.28Z" fill="url(#paint3_radial_447_4491)"/>
<path d="M-19.8019 506.905L-22.4565 505.305L657.528 -622.449L660.183 -620.848L-19.8019 506.905Z" fill="url(#paint4_radial_447_4491)"/>
<path d="M-26.1583 504.53L-28.8325 502.963L634.303 -628.244L636.977 -626.677L-26.1583 504.53Z" fill="url(#paint5_radial_447_4491)"/>
<path d="M-32.5148 502.155L-35.2085 500.621L611.077 -634.039L613.771 -632.505L-32.5148 502.155Z" fill="url(#paint6_radial_447_4491)"/>
<path d="M-38.8703 499.779L-41.583 498.279L587.853 -639.834L590.565 -638.334L-38.8703 499.779Z" fill="url(#paint7_radial_447_4491)"/>
<path d="M-45.2271 497.404L-47.9585 495.938L564.628 -645.629L567.359 -644.163L-45.2271 497.404Z" fill="url(#paint8_radial_447_4491)"/>
<path d="M-51.5838 495.027L-54.3335 493.597L541.403 -651.423L544.153 -649.993L-51.5838 495.027Z" fill="url(#paint9_radial_447_4491)"/>
<path d="M-57.9412 492.652L-60.709 491.256L518.178 -657.217L520.945 -655.822L-57.9412 492.652Z" fill="url(#paint10_radial_447_4491)"/>
<path d="M-64.2984 490.275L-67.084 488.916L494.953 -663.011L497.738 -661.652L-64.2984 490.275Z" fill="url(#paint11_radial_447_4491)"/>
<path d="M-70.656 487.898L-73.4595 486.575L471.728 -668.805L474.531 -667.482L-70.656 487.898Z" fill="url(#paint12_radial_447_4491)"/>
<path d="M-77.0129 485.521L-79.8335 484.236L448.504 -674.598L451.325 -673.313L-77.0129 485.521Z" fill="url(#paint13_radial_447_4491)"/>
<path d="M-83.3705 483.144L-86.208 481.896L425.28 -680.391L428.117 -679.143L-83.3705 483.144Z" fill="url(#paint14_radial_447_4491)"/>
<path d="M-89.7281 480.767L-92.582 479.556L402.056 -686.185L404.91 -684.974L-89.7281 480.767Z" fill="url(#paint15_radial_447_4491)"/>
<path d="M-96.0867 478.389L-98.9561 477.216L378.832 -691.978L381.701 -690.805L-96.0867 478.389Z" fill="url(#paint16_radial_447_4491)"/>
<path d="M143.856 246.579C124.724 244.733 106.574 239.324 89.9051 230.5C73.351 221.754 58.2319 209.443 46.1838 194.901C34.147 180.347 24.8782 163.194 19.3778 145.295C13.8249 127.273 11.9014 108.432 13.6621 89.2984C15.508 70.1658 20.9174 52.0163 29.7405 35.3472C38.4871 18.793 50.7975 3.6739 65.3401 -8.37421C79.8943 -20.4109 97.0472 -29.6798 114.945 -35.1802C132.968 -40.7331 151.809 -42.6563 170.942 -40.8959C190.075 -39.05 208.224 -33.6406 224.893 -24.8175C241.448 -16.0712 256.567 -3.76047 268.615 10.7821C280.651 25.3355 289.92 42.4883 295.421 60.3875C300.975 78.4106 302.898 97.2513 301.136 116.385L301.136 116.391C299.291 135.517 293.882 153.666 285.058 170.336C276.311 186.891 264 202.01 249.459 214.057C234.904 226.094 217.751 235.363 199.853 240.863C181.83 246.416 162.99 248.34 143.856 246.579ZM170.642 -37.7108C151.934 -39.4322 133.509 -37.5521 115.886 -32.1224C98.3854 -26.744 81.6127 -17.6802 67.3803 -5.9095C53.1595 5.87224 41.1213 20.6561 32.569 36.843C23.9416 53.1422 18.6522 70.8913 16.8472 89.5989C15.1258 108.307 17.0059 126.732 22.4356 144.355C27.814 161.856 36.8778 178.628 48.6482 192.861C60.4299 207.082 75.2138 219.12 91.4007 227.673C107.7 236.3 125.449 241.589 144.157 243.394C162.865 245.116 181.29 243.236 198.912 237.806C216.413 232.428 233.186 223.364 247.419 211.593C261.639 199.812 273.677 185.028 282.23 168.841C290.857 152.543 296.146 134.795 297.951 116.088C299.673 97.3744 297.792 78.9507 292.363 61.3287C286.984 43.8266 277.921 27.0542 266.151 12.8223C254.369 -1.39846 239.585 -13.4367 223.398 -21.989C207.099 -30.6163 189.35 -35.9058 170.642 -37.7108Z" fill="url(#paint17_linear_447_4491)"/>
<path d="M142.505 260.913C121.479 258.892 101.516 252.941 83.1665 243.224C64.9578 233.601 48.3339 220.066 35.0925 204.081C21.8625 188.086 11.6714 169.226 5.61992 149.538C-0.49749 129.696 -2.61443 108.974 -0.671372 87.9467C1.3487 66.9214 7.29982 46.9596 17.0177 28.6088C26.6399 10.4001 40.1754 -6.22411 56.1601 -19.4655C72.1556 -32.6955 91.0154 -42.8869 110.702 -48.9381C130.543 -55.0555 151.266 -57.1724 172.294 -55.2296C193.321 -53.209 213.283 -47.2579 231.633 -37.5405C249.842 -27.9181 266.465 -14.3826 279.706 1.6018C292.937 17.597 303.128 36.4572 309.179 56.1448C315.297 75.9855 317.413 96.7082 315.471 117.736L315.47 117.742C313.45 138.763 307.499 158.725 297.782 177.074C288.159 195.284 274.624 211.907 258.639 225.149C242.644 238.379 223.784 248.57 204.096 254.621C184.256 260.739 163.533 262.855 142.505 260.913ZM171.994 -52.0446C151.39 -53.948 131.084 -51.8745 111.644 -45.8805C92.3537 -39.9513 73.8737 -29.9647 58.2003 -17.0008C42.5371 -4.02606 29.2738 12.2632 19.8454 30.1049C10.3241 48.0849 4.49319 67.6464 2.51366 88.2469C0.609994 108.849 2.68346 129.155 8.67776 148.597C14.607 167.887 24.5936 186.367 37.5575 202.041C50.5322 217.704 66.8209 230.967 84.6626 240.396C102.641 249.917 122.203 255.747 142.805 257.727C163.408 259.631 183.715 257.557 203.155 251.563C222.446 245.633 240.925 235.647 256.598 222.684C272.262 209.709 285.525 193.42 294.954 175.578C304.474 157.6 310.305 138.039 312.285 117.439C314.189 96.831 312.115 76.5249 306.122 57.0865C300.192 37.7954 290.205 19.3151 277.241 3.6423C264.267 -12.0209 247.978 -25.2841 230.136 -34.7126C212.157 -44.2336 192.596 -50.0645 171.994 -52.0446Z" fill="url(#paint18_linear_447_4491)"/>
<path d="M141.153 275.246C118.233 273.052 96.4583 266.558 76.4282 255.947C56.5644 245.448 38.4347 230.687 24.0016 213.261C9.57805 195.825 -1.53558 175.257 -8.13818 153.781C-14.8201 132.122 -17.1308 109.518 -15.0054 86.5956C-12.8106 63.6752 -6.31737 41.9004 4.29416 21.8703C14.7925 2.00682 29.5533 -16.1222 46.9801 -30.5557C64.4154 -44.9795 84.9835 -56.0932 106.46 -62.696C128.119 -69.378 150.723 -71.6886 173.645 -69.5632C196.566 -67.3684 218.341 -60.8752 238.371 -50.2637C258.235 -39.7651 276.364 -25.0043 290.797 -7.57776C305.221 9.8581 316.335 30.4256 322.937 51.9022C329.619 73.5594 331.93 96.1645 329.805 119.087L329.804 119.092C327.609 142.009 321.116 163.784 310.505 183.813C300.007 203.676 285.246 221.805 267.819 236.239C250.384 250.663 229.816 261.776 208.339 268.379C186.681 275.061 164.075 277.372 141.153 275.246ZM173.345 -66.3782C150.848 -68.4642 128.66 -66.197 107.402 -59.6385C86.3214 -53.1576 66.1335 -42.2487 49.02 -28.0913C31.9147 -13.9239 17.4264 3.86993 7.1221 23.3667C-3.29309 43.026 -9.66578 64.3996 -11.8201 86.8959C-13.9061 109.394 -11.6389 131.582 -5.08035 152.84C1.4 173.919 12.3088 194.107 26.4663 211.221C40.6334 228.326 58.4275 242.814 77.9246 253.119C97.5839 263.534 118.957 269.907 141.454 272.061C163.952 274.147 186.14 271.88 207.397 265.321C228.478 258.84 248.665 247.932 265.779 233.774C282.884 219.607 297.373 201.813 307.677 182.316C318.091 162.659 324.464 141.285 326.619 118.789C328.705 96.287 326.437 74.0985 319.88 52.8434C313.399 31.7636 302.49 11.5759 288.333 -5.53813C274.166 -22.6428 256.372 -37.1312 236.875 -47.4358C217.215 -57.8509 195.841 -64.2236 173.345 -66.3782Z" fill="url(#paint19_linear_447_4491)"/>
<path d="M139.802 289.58C114.987 287.21 91.3994 280.175 69.6888 268.67C48.1705 257.296 28.5363 241.31 12.9102 222.441C-2.7069 203.565 -14.7431 181.29 -21.8971 158.024C-29.1432 134.548 -31.6476 110.061 -29.3399 85.2442C-26.97 60.4288 -19.935 36.8411 -8.42987 15.1314C2.94488 -6.38691 18.9307 -26.0211 37.7991 -41.6467C56.6756 -57.264 78.951 -69.3002 102.217 -76.4542C125.693 -83.7004 150.18 -86.2048 174.996 -83.897C199.811 -81.5274 223.399 -74.4922 245.109 -62.987C266.627 -51.6128 286.262 -35.6273 301.887 -16.758C317.505 2.11818 329.541 24.393 336.695 47.6595C343.941 71.1354 346.446 95.6226 344.138 120.439L344.137 120.443C341.768 145.253 334.733 168.841 323.228 190.552C311.854 212.071 295.867 231.704 276.999 247.33C258.122 262.947 235.847 274.983 212.581 282.137C189.105 289.384 164.618 291.888 139.802 289.58ZM174.696 -80.712C150.303 -82.9803 126.233 -80.5188 103.159 -73.3966C80.289 -66.3646 58.3943 -54.5333 39.839 -39.1822C21.2922 -23.8225 5.5788 -4.5238 -5.60165 16.6281C-16.9102 37.9664 -23.8249 61.1526 -26.1546 85.5441C-28.4229 109.938 -25.9617 134.008 -18.8392 157.081C-11.8072 179.951 0.0235842 201.846 15.3749 220.401C30.7349 238.948 50.0339 254.662 71.1858 265.842C92.525 277.151 115.711 284.066 140.102 286.395C164.494 288.664 188.564 286.202 211.639 279.08C234.508 272.048 256.403 260.217 274.959 244.866C293.505 229.506 309.219 210.207 320.4 189.055C331.707 167.717 338.622 144.53 340.952 120.141C343.22 95.7463 340.759 71.6763 333.637 48.6018C326.605 25.7318 314.774 3.83659 299.423 -14.7178C284.063 -33.2656 264.764 -48.9789 243.612 -60.1591C222.273 -71.4676 199.087 -78.3826 174.696 -80.712Z" fill="url(#paint20_linear_447_4491)"/>
<path d="M138.45 303.914C111.741 301.369 86.3401 293.792 62.9508 281.393C39.7774 269.143 18.6378 251.932 1.81988 231.622C-14.991 211.305 -27.9494 187.322 -35.6548 162.266C-43.4653 136.974 -46.1634 110.604 -43.6736 83.8928C-41.1286 57.1831 -33.5516 31.7825 -21.1525 8.39317C-8.90222 -14.7799 8.30869 -35.9196 28.6192 -52.7375C48.936 -69.5487 72.9188 -82.5068 97.9745 -90.2122C123.267 -98.0226 149.636 -100.721 176.348 -98.2309C203.057 -95.686 228.458 -88.109 251.848 -75.7099C275.021 -63.4596 296.161 -46.2487 312.979 -25.9382C329.79 -5.62133 342.748 18.3614 350.453 43.4172C358.264 68.7101 360.962 95.0791 358.472 121.79L358.471 121.793C355.927 148.5 348.35 173.9 335.951 197.29C323.701 220.464 306.49 241.603 286.18 258.421C265.863 275.232 241.88 288.19 216.824 295.896C191.531 303.706 165.162 306.404 138.45 303.914ZM176.047 -95.0462C149.759 -97.4963 123.808 -94.8414 98.9163 -87.1549C74.257 -79.5715 50.6544 -66.8182 30.6591 -50.2734C10.6701 -33.7209 -6.2683 -12.9168 -18.3249 9.88985C-30.527 32.9083 -37.9839 57.9069 -40.4885 84.193C-42.9387 110.481 -40.2837 136.433 -32.5973 161.324C-25.0138 185.983 -12.2606 209.586 4.28429 229.581C20.8364 249.57 41.6405 266.509 64.4472 278.566C87.4657 290.768 112.464 298.225 138.75 300.729C165.039 303.179 190.99 300.524 215.882 292.838C240.541 285.255 264.143 272.501 284.139 255.956C304.128 239.404 321.066 218.6 333.123 195.794C345.325 172.776 352.781 147.776 355.286 121.492C357.736 95.2025 355.082 69.2508 347.395 44.3592C339.811 19.6999 327.058 -3.90263 310.513 -23.898C293.961 -43.887 273.157 -60.8254 250.35 -72.882C227.332 -85.0847 202.334 -92.5415 176.047 -95.0462Z" fill="url(#paint21_linear_447_4491)"/>
<path d="M137.1 318.248C108.497 315.528 81.283 307.409 56.2129 294.116C31.3856 280.99 8.74113 262.554 -9.27006 240.802C-27.2748 219.043 -41.156 193.353 -49.4122 166.508C-57.7869 139.399 -60.6787 111.148 -58.0066 82.5412C-55.2866 53.9365 -47.1678 26.723 -33.8748 1.65435C-20.7493 -23.1733 -2.31298 -45.8175 19.4396 -63.8286C41.198 -81.8334 66.8881 -95.714 93.7326 -103.971C120.842 -112.346 149.093 -115.237 177.7 -112.565C206.305 -109.845 233.518 -101.726 258.587 -88.4331C283.414 -75.3076 306.059 -56.8713 324.07 -35.119C342.075 -13.3606 355.956 12.3295 364.212 39.1746C372.587 66.2846 375.478 94.5353 372.806 123.141L372.806 123.143C370.086 151.745 361.968 178.958 348.674 204.028C335.549 228.856 317.113 251.5 295.36 269.511C273.602 287.516 247.912 301.397 221.067 309.653C193.957 318.028 165.706 320.92 137.1 318.248ZM177.399 -109.38C149.216 -112.012 121.383 -109.164 94.6752 -100.914C68.2269 -92.779 42.917 -79.1032 21.4795 -61.3642C0.0484411 -43.6188 -18.1153 -21.3096 -31.0472 3.15161C-44.1432 27.8491 -52.1416 54.6601 -54.8213 82.8414C-57.4534 111.025 -54.6051 138.858 -46.3547 165.566C-38.2201 192.014 -24.5443 217.324 -6.80535 238.762C10.9398 260.193 33.2493 278.356 57.7099 291.288C82.4089 304.384 109.22 312.383 137.4 315.062C165.583 317.695 193.416 314.846 220.125 306.596C246.573 298.461 271.883 284.785 293.321 267.047C314.752 249.301 332.915 226.992 345.847 202.531C358.942 177.834 366.941 151.021 369.621 122.841C372.254 94.6575 369.405 66.8246 361.155 40.1163C353.02 13.6677 339.344 -11.6425 321.605 -33.0797C303.86 -54.5104 281.551 -72.6742 257.09 -85.6063C232.392 -98.7018 205.581 -106.7 177.399 -109.38Z" fill="url(#paint22_linear_447_4491)"/>
<path d="M135.748 332.582C105.679 329.728 75.8469 320.826 49.4745 306.839C22.992 292.838 -1.15699 273.177 -20.3611 249.982C-39.5595 226.783 -54.3628 199.385 -63.1705 170.751C-71.9837 142.232 -75.1547 111.262 -72.3405 81.1903C-69.4869 51.1211 -60.5853 21.2888 -46.5979 -5.08363C-32.5965 -31.5661 -12.9352 -55.7154 10.2589 -74.9192C33.4586 -94.1179 60.8559 -108.921 89.49 -117.729C118.009 -126.542 148.979 -129.713 179.051 -126.899C209.119 -124.045 238.952 -115.143 265.325 -101.156C291.807 -87.1547 315.957 -67.4933 335.16 -44.2992C354.359 -21.0995 369.162 6.29782 377.97 34.9319C386.783 63.4511 389.954 94.4212 387.14 124.492V124.494C384.286 154.562 375.385 184.394 361.397 210.767C347.396 237.249 327.735 261.399 304.541 280.603C281.341 299.801 253.943 314.604 225.31 323.412C196.79 332.225 165.819 335.396 135.748 332.582ZM178.751 -123.714C149.096 -126.488 118.556 -123.362 90.4327 -114.671C62.1951 -105.986 35.1776 -91.3874 12.2991 -72.4548C-10.5741 -53.5168 -29.9629 -29.7024 -43.7706 -3.58666C-57.5633 22.4199 -66.3409 51.8382 -69.1554 81.4903C-71.9303 111.145 -68.8036 141.685 -60.1132 169.809C-51.4275 198.046 -36.8293 225.064 -17.8967 247.942C1.04135 270.815 24.8557 290.204 50.9714 304.012C76.978 317.805 106.396 326.582 136.048 329.397C165.702 332.171 196.243 329.045 224.367 320.354C252.604 311.669 279.622 297.07 302.5 278.138C325.373 259.2 344.762 235.385 358.57 209.27C372.362 183.265 381.139 153.844 383.955 124.193C386.73 94.5379 383.603 63.9978 374.913 35.8746C366.227 7.63696 351.629 -19.3805 332.696 -42.259C313.758 -65.1322 289.944 -84.521 263.828 -98.3287C237.821 -112.121 208.402 -120.899 178.751 -123.714Z" fill="url(#paint23_linear_447_4491)"/>
<path d="M134.398 346.916C102.46 343.89 70.7645 334.431 42.7361 319.563C14.5991 304.686 -11.0553 283.799 -31.4519 259.163C-51.844 234.522 -67.5696 205.417 -76.9284 174.994C-86.2982 144.682 -89.6683 111.778 -86.674 79.8395C-83.6486 47.9031 -74.19 16.2076 -59.321 -11.822C-44.4441 -39.9589 -23.5574 -65.6134 1.07884 -86.0099C25.7198 -106.402 54.8247 -122.128 85.2479 -131.486C115.559 -140.856 148.463 -144.226 180.402 -141.232C212.339 -138.206 244.035 -128.747 272.064 -113.879C300.201 -99.0021 325.855 -78.1154 346.252 -53.4792C366.644 -28.8383 382.37 0.266707 391.728 30.6898C401.098 61.0018 404.468 93.9062 401.474 125.844V125.846C398.448 157.781 388.99 189.476 374.121 217.506C359.244 245.643 338.357 271.297 313.721 291.694C289.08 312.086 259.975 327.811 229.552 337.17C199.241 346.54 166.337 349.91 134.398 346.916ZM180.101 -138.047C148.579 -141.002 116.104 -137.676 86.1899 -128.429C56.163 -119.192 27.4382 -103.672 3.11847 -83.5455C-21.1966 -63.4147 -41.8102 -38.0952 -56.4939 -10.325C-71.1684 17.3385 -80.5029 48.6196 -83.4893 80.1397C-86.4444 111.661 -83.1185 144.135 -73.8714 174.051C-64.6341 204.078 -49.1138 232.803 -28.9875 257.123C-8.8567 281.438 16.4628 302.051 44.233 316.735C71.895 331.409 103.176 340.744 134.698 343.731C166.22 346.685 198.695 343.359 228.609 334.113C258.636 324.875 287.361 309.355 311.681 289.229C335.996 269.098 356.61 243.778 371.293 216.008C385.967 188.347 395.301 157.062 398.289 125.544C401.243 94.0223 397.918 61.5476 388.671 31.6319C379.433 1.60497 363.913 -27.1199 343.787 -51.4396C323.656 -75.7546 298.337 -96.3682 270.566 -111.052C242.904 -125.726 211.622 -135.06 180.101 -138.047Z" fill="url(#paint24_linear_447_4491)"/>
<path d="M133.046 361.25C99.2421 358.052 65.6835 348.036 35.9974 332.286C6.20533 316.533 -20.954 294.421 -42.5429 268.343C-64.1292 242.261 -80.7767 211.448 -90.6869 179.237C-100.613 147.133 -104.182 112.294 -101.008 78.4879C-97.8102 44.684 -87.7948 11.1255 -72.0443 -18.5607C-56.291 -48.3527 -34.1799 -75.512 -8.10179 -97.1012C17.9798 -118.687 48.7921 -135.335 81.0045 -145.245C113.109 -155.171 147.948 -158.74 181.753 -155.567C215.557 -152.368 249.116 -142.353 278.803 -126.603C308.594 -110.85 335.753 -88.7382 357.342 -62.6601C378.928 -36.5786 395.576 -5.76628 405.486 26.4461C415.412 58.5494 418.981 93.3888 415.808 127.195V127.196C412.61 160.999 402.594 194.558 386.844 224.244C371.091 254.035 348.98 281.195 322.902 302.784C296.82 324.37 266.008 341.018 233.795 350.928C201.691 360.854 166.852 364.423 133.046 361.25ZM181.453 -152.381C148.064 -155.516 113.655 -151.991 81.9474 -142.187C50.1309 -132.399 19.6982 -115.956 -6.06217 -94.6365C-31.819 -73.3134 -53.658 -46.4887 -69.2176 -17.0631C-84.7731 12.2566 -94.6649 45.4008 -97.8237 78.7881C-100.958 112.177 -97.433 146.586 -87.6296 178.294C-77.8414 210.11 -61.3987 240.542 -40.0785 266.303C-18.7553 292.06 8.06932 313.899 37.4949 329.459C66.8146 345.014 99.9589 354.906 133.346 358.065C166.736 361.199 201.144 357.674 232.852 347.871C264.668 338.082 295.1 321.639 320.861 300.319C346.619 278.995 368.458 252.171 384.017 222.746C399.571 193.429 409.463 160.281 412.622 126.895C415.757 93.5046 412.232 59.0962 402.429 27.3894C392.64 -4.42713 376.198 -34.8599 354.878 -60.6202C333.554 -86.3771 306.729 -108.216 277.304 -123.776C247.984 -139.331 214.84 -149.222 181.453 -152.381Z" fill="url(#paint25_linear_447_4491)"/>
<path d="M131.695 375.584C96.0229 372.213 60.6012 361.64 29.2588 345.009C-2.18774 328.38 -30.8519 305.044 -53.6341 277.523C-76.4133 250.001 -93.9834 217.481 -104.445 183.48C-114.927 149.584 -118.695 112.811 -115.342 77.1369C-111.972 41.4647 -101.399 6.04302 -84.7676 -25.2994C-68.1387 -56.746 -44.8022 -85.4101 -17.282 -108.192C10.2408 -130.972 42.7601 -148.542 76.7619 -159.003C110.658 -169.485 147.431 -173.254 183.104 -169.901C218.777 -166.53 254.198 -155.958 285.54 -139.326C316.987 -122.697 345.651 -99.3607 368.434 -71.8405C391.213 -44.3177 408.783 -11.7984 419.245 22.2033C429.727 56.0992 433.495 92.8722 430.142 128.545V128.546C426.771 164.218 416.199 199.64 399.568 230.982C382.939 262.428 359.602 291.093 332.082 313.875C304.559 336.654 272.039 354.224 238.038 364.686C204.142 375.168 167.369 378.937 131.695 375.584ZM182.803 -166.716C147.547 -170.03 111.204 -166.306 77.7048 -155.946C44.099 -145.606 11.9589 -128.241 -15.2421 -105.728C-42.4414 -83.2118 -65.5054 -54.8823 -81.9405 -23.8015C-98.3774 7.17385 -108.826 42.1809 -112.157 77.4372C-115.472 112.695 -111.747 149.038 -101.388 182.536C-91.0481 216.142 -73.6828 248.282 -51.1694 275.483C-28.6535 302.682 -0.324039 325.746 30.7567 342.182C61.7321 358.619 96.7392 369.067 131.995 372.398C167.253 375.712 203.596 371.989 237.094 361.629C270.7 351.289 302.84 333.924 330.041 311.41C357.24 288.895 380.304 260.565 396.74 229.484C413.175 198.511 423.624 163.5 426.956 128.246C430.271 92.9883 426.547 56.6453 416.187 23.1466C405.847 -10.4592 388.482 -42.5993 365.968 -69.8003C343.452 -96.9996 315.122 -120.064 284.042 -136.499C253.067 -152.935 218.06 -163.384 182.803 -166.716Z" fill="url(#paint26_linear_447_4491)"/>
<path d="M130.345 389.917C111.502 388.12 92.8417 384.495 74.881 379.143C56.7998 373.76 39.1834 366.556 22.5218 357.733C-10.5807 340.227 -40.75 315.666 -64.7251 286.704C-88.6979 257.74 -107.191 223.512 -118.203 187.722C-123.758 169.708 -127.543 151.056 -129.454 132.285C-131.356 113.641 -131.431 94.6322 -129.676 75.7875C-127.88 56.9439 -124.255 38.2839 -118.902 20.3232C-113.518 2.23992 -106.314 -15.3759 -97.4916 -32.036C-79.9863 -65.1386 -55.4247 -95.3078 -26.4627 -119.283C2.50107 -143.256 36.7283 -161.748 72.5193 -172.761C90.5352 -178.316 109.187 -182.101 127.956 -184.012C146.6 -185.914 165.609 -185.989 184.453 -184.234C203.297 -182.438 221.957 -178.813 239.918 -173.46C257.998 -168.077 275.615 -160.873 292.277 -152.049C325.379 -134.544 355.549 -109.983 379.524 -81.0206C403.497 -52.0568 421.989 -17.8295 433.002 17.9615C438.556 35.9756 442.342 54.6274 444.253 73.3983C446.155 92.0426 446.23 111.051 444.475 129.895L444.475 129.899C442.679 148.74 439.054 167.399 433.701 185.36C428.317 203.443 421.113 221.059 412.29 237.719C394.785 270.821 370.224 300.991 341.262 324.966C312.298 348.939 278.07 367.432 242.28 378.444C224.263 383.999 205.611 387.785 186.842 389.695C168.198 391.597 149.19 391.672 130.345 389.917ZM184.153 -181.049C165.518 -182.785 146.719 -182.711 128.28 -180.829C109.72 -178.94 91.2768 -175.197 73.4611 -169.703C38.0671 -158.813 4.21977 -140.526 -24.4225 -116.818C-53.0636 -93.1092 -77.3529 -63.2746 -94.6639 -30.5394C-103.389 -14.0648 -110.512 3.3547 -115.836 21.2364C-121.129 38.9993 -124.714 57.4536 -126.491 76.0877C-128.227 94.7223 -128.153 113.522 -126.271 131.961C-124.381 150.523 -120.638 168.966 -115.145 186.78C-104.255 222.174 -85.9672 256.021 -62.2598 284.664C-38.5511 313.305 -8.71643 337.594 24.0188 354.905C40.4954 363.63 57.9149 370.753 75.7945 376.077C93.5574 381.37 112.012 384.956 130.646 386.732C149.28 388.468 168.08 388.394 186.519 386.512C205.078 384.623 223.522 380.88 241.338 375.386C276.732 364.496 310.579 346.208 339.222 322.501C367.863 298.792 392.152 268.957 409.463 236.222C418.187 219.748 425.31 202.328 430.635 184.447C435.928 166.685 439.513 148.23 441.29 129.596C443.026 110.96 442.952 92.1596 441.07 73.7222C439.18 55.1602 435.437 36.7166 429.945 18.9029C419.054 -16.491 400.767 -50.3384 377.059 -78.9806C353.35 -107.622 323.516 -131.911 290.781 -149.222C274.304 -157.948 256.884 -165.071 239.005 -170.394C221.242 -175.688 202.787 -179.273 184.153 -181.049Z" fill="url(#paint27_linear_447_4491)"/>
<path d="M128.994 404.251C109.22 402.367 89.6333 398.562 70.774 392.942C51.7822 387.288 33.2806 379.722 15.7835 370.456C-18.973 352.075 -50.6483 326.288 -75.8158 295.884C-100.983 265.479 -120.397 229.544 -131.961 191.964C-137.796 173.043 -141.771 153.453 -143.777 133.741C-145.775 114.164 -145.853 94.2106 -144.01 74.4364C-142.126 54.6627 -138.321 35.0758 -132.701 16.2162C-127.048 -2.7735 -119.482 -21.2754 -110.215 -38.7746C-91.8338 -73.531 -66.0472 -105.206 -35.643 -130.374C-5.238 -155.541 30.6971 -174.955 68.2766 -186.519C87.1963 -192.353 106.785 -196.329 126.499 -198.335C146.076 -200.333 166.029 -200.411 185.804 -198.568C205.578 -196.684 225.166 -192.879 244.024 -187.258C263.016 -181.605 281.518 -174.039 299.016 -164.772C333.772 -146.391 365.448 -120.605 390.615 -90.2008C415.782 -59.7957 435.196 -23.8606 446.76 13.7188C452.594 32.6391 456.57 52.2287 458.576 71.9422C460.574 91.5186 460.652 111.472 458.809 131.247L458.808 131.25C456.925 151.021 453.12 170.608 447.5 189.467C441.846 208.458 434.28 226.96 425.014 244.458C406.633 279.215 380.846 310.89 350.442 336.057C320.037 361.224 284.102 380.638 246.522 392.203C227.602 398.037 208.013 402.012 188.299 404.018C168.723 406.016 148.77 406.094 128.994 404.251ZM185.504 -195.383C165.939 -197.207 146.195 -197.129 126.824 -195.153C107.319 -193.167 87.9379 -189.234 69.2186 -183.462C32.0357 -172.02 -3.51902 -152.811 -33.6028 -127.909C-63.6863 -103.007 -89.2005 -71.6676 -107.387 -37.2779C-116.556 -19.9637 -124.042 -1.65872 -129.635 17.1294C-135.196 35.7909 -138.961 55.1724 -140.825 74.7366C-142.649 94.3013 -142.571 114.046 -140.595 133.417C-138.61 152.92 -134.677 172.301 -128.904 191.022C-117.462 228.205 -98.2526 263.76 -73.3511 293.844C-48.4494 323.927 -17.1096 349.441 17.2801 367.628C34.5923 376.796 52.897 384.281 71.6871 389.875C90.3483 395.437 109.73 399.202 129.295 401.066C148.86 402.89 168.604 402.812 187.975 400.835C207.48 398.85 226.861 394.917 245.58 389.144C282.763 377.702 318.318 358.493 348.402 333.592C378.485 308.69 403.999 277.35 422.186 242.96C431.355 225.647 438.839 207.343 444.433 188.553C449.994 169.893 453.759 150.511 455.624 130.947C457.448 111.38 457.37 91.6368 455.394 72.2658C453.408 52.7617 449.475 33.3804 443.703 14.6603C432.261 -22.5226 413.052 -58.0773 388.15 -88.1611C363.249 -118.244 331.909 -143.758 297.519 -161.945C280.206 -171.114 261.901 -178.599 243.112 -184.193C224.451 -189.754 205.069 -193.519 185.504 -195.383Z" fill="url(#paint28_linear_447_4491)"/>
<path d="M127.644 418.585C106.938 416.614 86.4236 412.629 66.6674 406.741C46.7686 400.817 27.3818 392.89 9.04533 383.179C-27.3659 363.923 -60.5458 336.911 -86.9066 305.065C-113.267 273.218 -133.604 235.575 -145.719 196.207C-151.833 176.38 -155.999 155.853 -158.101 135.198C-160.194 114.691 -160.275 93.793 -158.344 73.0858C-156.372 52.3788 -152.388 31.8647 -146.5 12.1098C-140.576 -7.78905 -132.649 -27.1764 -122.938 -45.5129C-103.682 -81.9236 -76.6699 -115.103 -44.8231 -141.465C-12.9768 -167.825 24.6656 -188.162 64.0344 -200.278C83.8614 -206.391 104.388 -210.557 125.044 -212.659C145.552 -214.752 166.449 -214.834 187.156 -212.902C207.862 -210.931 228.376 -206.946 248.132 -201.058C268.031 -195.134 287.418 -187.207 305.755 -177.496C342.166 -158.239 375.346 -131.228 401.706 -99.3816C428.066 -67.5354 448.403 -29.8935 460.519 9.47583C466.633 29.3029 470.798 49.8298 472.9 70.4854C474.993 90.9928 475.075 111.89 473.143 132.597L473.143 132.6C471.172 153.303 467.187 173.817 461.3 193.573C455.376 213.472 447.449 232.859 437.738 251.196C418.481 287.608 391.469 320.788 359.623 347.148C327.777 373.508 290.135 393.845 250.766 405.961C230.939 412.074 210.412 416.24 189.756 418.342C169.248 420.435 148.351 420.517 127.644 418.585ZM186.855 -209.717C166.358 -211.629 145.67 -211.548 125.368 -209.476C104.921 -207.395 84.6025 -203.272 64.9761 -197.22C26.0042 -185.227 -11.2581 -165.095 -42.7832 -139C-74.3094 -112.905 -101.049 -80.0596 -120.11 -44.0162C-129.723 -25.865 -137.57 -6.67427 -143.434 13.0229C-149.262 32.5801 -153.207 52.8885 -155.159 73.386C-157.071 93.8838 -156.99 114.572 -154.918 134.873C-152.837 155.32 -148.714 175.639 -142.662 195.265C-130.67 234.236 -110.538 271.499 -84.4422 303.024C-58.3475 334.55 -25.5025 361.289 10.5414 380.352C28.6924 389.965 47.8828 397.811 67.58 403.676C87.1378 409.504 107.447 413.449 127.943 415.4C148.441 417.312 169.129 417.231 189.431 415.16C209.877 413.078 230.196 408.955 249.823 402.903C288.795 390.91 326.057 370.778 357.582 344.683C389.107 318.589 415.846 285.744 434.909 249.7C444.522 231.549 452.368 212.358 458.233 192.661C464.061 173.105 468.006 152.795 469.958 132.299C471.87 111.8 471.789 91.1119 469.717 70.8104C467.636 50.364 463.512 30.0454 457.461 10.4185C445.467 -28.5538 425.336 -65.8155 399.24 -97.3409C373.146 -128.866 340.302 -155.605 304.257 -174.668C286.106 -184.281 266.915 -192.128 247.218 -197.992C227.661 -203.821 207.352 -207.765 186.855 -209.717Z" fill="url(#paint29_linear_447_4491)"/>
<path d="M126.293 432.919C104.654 430.86 83.2128 426.695 62.5609 420.541C41.753 414.347 21.4805 406.057 2.30726 395.903C-35.7588 375.77 -70.4435 347.533 -97.997 314.245C-125.552 280.957 -146.811 241.607 -159.477 200.45C-165.87 179.718 -170.226 158.254 -172.424 136.654C-174.611 115.216 -174.697 93.3741 -172.677 71.7345C-170.618 50.0965 -166.453 28.6547 -160.299 8.00256C-154.105 -12.805 -145.815 -33.0779 -135.661 -52.2511C-115.529 -90.3166 -87.2921 -125.001 -54.0034 -152.555C-20.7159 -180.109 18.6336 -201.369 59.7916 -214.035C80.5237 -220.428 101.988 -224.784 123.587 -226.983C145.025 -229.17 166.867 -229.255 188.507 -227.236C210.145 -225.177 231.587 -221.012 252.239 -214.857C273.047 -208.663 293.32 -200.373 312.492 -190.219C350.559 -170.086 385.244 -141.85 412.797 -108.562C440.351 -75.2749 461.61 -35.9248 474.277 5.23327C480.67 25.9653 485.026 47.4299 487.224 69.0288C489.411 90.4689 489.497 112.311 487.477 133.948L487.477 133.951C485.418 155.585 481.253 177.026 475.098 197.681C468.904 218.489 460.614 238.761 450.46 257.934C430.327 296 402.091 330.686 368.802 358.239C335.515 385.792 296.165 407.052 255.007 419.718C234.276 426.111 212.811 430.468 191.212 432.666C169.775 434.853 147.933 434.939 126.293 432.919ZM188.207 -224.051C166.776 -226.051 145.143 -225.966 123.912 -223.8C102.522 -221.623 81.2659 -217.309 60.734 -210.978C19.9733 -198.434 -18.9966 -177.379 -51.9629 -150.091C-84.9312 -122.803 -112.895 -88.4529 -132.833 -50.7547C-142.889 -31.7665 -151.098 -11.6912 -157.233 8.91544C-163.328 29.3694 -167.453 50.6053 -169.492 72.0344C-171.492 93.4646 -171.407 115.098 -169.241 136.33C-167.064 157.72 -162.75 178.976 -156.419 199.508C-143.876 240.268 -122.821 279.238 -95.5317 312.205C-68.2443 345.172 -33.8942 373.136 3.80453 393.075C22.7928 403.131 42.8681 411.34 63.4747 417.475C83.9281 423.57 105.164 427.695 126.594 429.734C148.024 431.734 169.657 431.649 190.889 429.483C212.279 427.306 233.535 422.992 254.067 416.661C294.828 404.116 333.797 383.062 366.763 355.774C399.731 328.486 427.695 294.136 447.634 256.438C457.69 237.449 465.899 217.374 472.034 196.767C478.129 176.313 482.254 155.075 484.293 133.649C486.293 112.22 486.209 90.5874 484.042 69.3529C481.866 47.9627 477.551 26.7069 471.22 6.17503C458.676 -34.5859 437.621 -73.5556 410.332 -106.522C383.045 -139.489 348.695 -167.453 310.996 -187.392C292.009 -197.448 271.933 -205.657 251.326 -211.792C230.872 -217.887 209.636 -222.011 188.207 -224.051Z" fill="url(#paint30_linear_447_4491)"/>
<path d="M124.941 447.252C102.372 445.106 80.0034 440.762 58.4536 434.339C36.739 427.876 15.5809 419.224 -4.43193 408.625C-44.1534 387.617 -80.3432 358.155 -109.088 323.425C-137.837 288.696 -160.018 247.639 -173.236 204.692C-179.908 183.053 -184.455 160.652 -186.748 138.11C-189.031 115.74 -189.119 92.9533 -187.011 70.3833C-184.865 47.815 -180.521 25.4462 -174.099 3.89549C-167.635 -17.8201 -158.983 -38.9778 -148.384 -58.9895C-127.376 -98.7101 -97.9145 -134.9 -63.184 -163.646C-28.4558 -192.395 12.6016 -214.577 55.5487 -227.794C77.1886 -234.467 99.5901 -239.013 122.131 -241.306C144.501 -243.589 167.287 -243.678 189.857 -241.57C212.426 -239.424 234.795 -235.079 256.346 -228.657C278.061 -222.193 299.218 -213.542 319.231 -202.943C358.951 -181.935 395.141 -152.473 423.887 -117.742C452.635 -83.0151 474.817 -41.958 488.035 0.99054C494.707 22.6279 499.253 45.0296 501.547 67.572C503.829 89.9399 503.919 112.726 501.811 135.299L501.811 135.301C499.664 157.87 495.319 180.239 488.897 201.787C482.433 223.504 473.781 244.661 463.183 264.672C442.175 304.393 412.713 340.583 377.983 369.328C343.255 398.076 302.198 420.258 259.25 433.476C237.611 440.149 215.209 444.695 192.669 446.988C170.298 449.271 147.511 449.36 124.941 447.252ZM189.557 -238.385C167.196 -240.473 144.619 -240.385 122.455 -238.123C100.123 -235.852 77.93 -231.348 56.4907 -224.736C13.9407 -211.641 -26.7365 -189.665 -61.144 -161.182C-95.5542 -132.702 -124.743 -96.8467 -145.557 -57.4931C-156.057 -37.6669 -164.629 -16.7058 -171.033 4.80838C-177.395 26.1607 -181.7 48.3238 -183.827 70.6832C-185.915 93.0438 -185.827 115.621 -183.566 137.786C-181.293 160.119 -176.789 182.312 -170.178 203.75C-157.084 246.299 -135.107 286.976 -106.624 321.384C-78.144 355.794 -42.2894 384.983 -2.93525 405.797C16.8921 416.298 37.8532 424.869 59.3668 431.273C80.7182 437.636 102.882 441.94 125.242 444.067C147.602 446.155 170.18 446.067 192.344 443.806C214.676 441.534 236.869 437.03 258.308 430.419C300.859 417.323 341.536 395.346 375.943 366.864C410.352 338.384 439.542 302.53 460.356 263.175C470.856 243.35 479.426 222.389 485.831 200.874C492.193 179.526 496.498 157.361 498.626 135C500.714 112.636 500.626 90.0583 498.364 67.8964C496.092 45.5627 491.588 23.3695 484.977 1.9326C471.882 -40.6186 449.905 -81.2955 421.422 -115.702C392.942 -150.112 357.087 -179.301 317.734 -200.115C297.907 -210.616 276.946 -219.187 255.432 -225.591C234.08 -231.953 211.917 -236.258 189.557 -238.385Z" fill="url(#paint31_linear_447_4491)"/>
<path d="M123.591 461.586C100.09 459.352 76.7938 454.828 54.3471 448.139C31.7211 441.404 9.67788 432.39 -11.1694 421.349C-52.5448 399.465 -90.2401 368.777 -120.179 332.605C-150.121 296.435 -173.225 253.671 -186.993 208.934C-193.945 186.393 -198.682 163.054 -201.071 139.567C-203.449 116.266 -203.541 92.5346 -201.345 69.0324C-199.112 45.5316 -194.587 22.2354 -187.898 -0.211265C-181.162 -22.8376 -172.149 -44.8811 -161.108 -65.7278C-139.224 -107.103 -108.537 -144.798 -72.3643 -174.737C-36.1948 -204.679 6.57017 -227.784 51.3065 -241.552C73.8489 -248.504 97.188 -253.24 120.674 -255.629C143.975 -258.007 167.707 -258.1 191.209 -255.904C214.71 -253.67 238.006 -249.145 260.452 -242.456C283.078 -235.721 305.121 -226.708 325.969 -215.666C367.345 -193.782 405.04 -163.095 434.978 -126.922C464.92 -90.7529 488.024 -47.9882 501.793 -3.25188C508.745 19.2913 513.482 42.6305 515.87 66.116C518.248 89.4149 518.34 113.146 516.145 136.65L516.144 136.652C513.91 160.153 509.386 183.45 502.697 205.894C495.962 228.519 486.949 250.563 475.907 271.411C454.023 312.786 423.336 350.481 387.163 380.42C350.994 410.362 308.23 433.466 263.493 447.235C240.95 454.186 217.611 458.923 194.125 461.312C170.824 463.69 147.093 463.782 123.591 461.586ZM190.908 -252.719C167.615 -254.895 144.094 -254.803 120.999 -252.447C97.721 -250.078 74.5905 -245.384 52.2486 -238.494C7.9093 -224.848 -34.4756 -201.949 -70.324 -172.273C-106.176 -142.599 -136.59 -105.239 -158.28 -64.2311C-169.223 -43.5694 -178.156 -21.7229 -184.831 0.701914C-191.462 22.9502 -195.946 46.0407 -198.16 69.3326C-200.337 92.6259 -200.245 116.148 -197.889 139.243C-195.52 162.52 -190.826 185.651 -183.936 207.993C-170.29 252.332 -147.391 294.716 -117.714 330.565C-88.0414 366.417 -50.6814 396.832 -9.67301 418.521C10.989 429.464 32.8352 438.397 55.26 445.073C77.5083 451.703 100.599 456.187 123.891 458.401C147.184 460.578 170.706 460.486 193.801 458.129C217.078 455.761 240.208 451.067 262.551 444.177C306.89 430.531 349.275 407.632 385.123 377.955C420.975 348.282 451.389 310.922 473.079 269.914C484.023 249.251 492.956 227.404 499.631 204.981C506.26 182.736 510.744 159.644 512.959 136.351C515.136 113.055 515.044 89.5331 512.688 66.4402C510.32 43.1638 505.625 20.033 498.735 -2.30982C485.089 -46.6491 462.19 -89.0334 432.513 -124.882C402.841 -160.734 365.48 -191.149 324.472 -212.838C303.81 -223.782 281.964 -232.715 259.539 -239.39C237.291 -246.02 214.2 -250.504 190.908 -252.719Z" fill="url(#paint32_linear_447_4491)"/>
<path d="M122.24 475.92C97.807 473.599 73.5835 468.895 50.2403 461.938C26.7066 454.933 3.77769 445.557 -17.9078 434.072C-60.9386 411.312 -100.138 379.4 -131.269 341.785C-162.405 304.175 -186.432 259.703 -200.752 213.178C-207.983 189.728 -212.91 165.451 -215.395 141.024C-217.867 116.793 -217.963 92.1166 -215.68 67.682C-213.358 43.2485 -208.653 19.0254 -201.697 -4.31756C-194.693 -27.8507 -185.317 -50.7793 -173.831 -72.466C-151.071 -115.497 -119.159 -154.696 -81.5446 -185.828C-43.9339 -216.963 0.537512 -240.99 47.0638 -255.31C70.5126 -262.541 94.7891 -267.468 119.218 -269.953C143.449 -272.425 168.125 -272.521 192.559 -270.237C216.992 -267.915 241.216 -263.211 264.559 -256.255C288.092 -249.25 311.021 -239.874 332.708 -228.389C375.738 -205.629 414.938 -173.717 446.069 -136.102C477.205 -98.4916 501.231 -54.0195 515.551 -7.49385C522.783 15.9556 527.71 40.2318 530.195 64.6603C532.667 88.8916 532.762 113.568 530.479 138.002L530.478 138.004C528.157 162.435 523.453 186.658 516.496 210.001C509.492 233.535 500.116 256.463 488.63 278.15C465.87 321.18 433.958 360.38 396.343 391.511C358.733 422.647 314.261 446.673 267.735 460.993C244.286 468.225 220.009 473.152 195.581 475.637C171.35 478.109 146.674 478.204 122.24 475.92ZM192.259 -267.052C168.034 -269.316 143.568 -269.222 119.543 -266.771C95.3227 -264.307 71.2548 -259.422 48.0061 -252.253C1.87752 -238.055 -42.2147 -214.234 -79.5038 -183.363C-116.798 -152.498 -148.437 -113.632 -171.003 -70.9696C-182.391 -49.4682 -191.685 -26.7368 -198.631 -3.40497C-205.528 19.7396 -210.192 43.757 -212.494 67.9816C-214.759 92.2076 -214.663 116.674 -212.212 140.699C-209.748 164.918 -204.864 188.986 -197.694 212.235C-183.496 258.364 -159.675 302.456 -128.805 339.745C-97.9389 377.039 -59.0737 408.679 -16.4108 431.244C5.08969 442.632 27.8211 451.927 51.1538 458.872C74.2986 465.769 98.3166 470.434 122.54 472.735C146.766 474.999 171.232 474.905 195.258 472.454C219.477 469.99 243.545 465.106 266.794 457.936C312.923 443.738 357.015 419.917 394.304 389.046C431.598 358.18 463.238 319.315 485.802 276.653C497.19 255.152 506.486 232.42 513.431 209.088C520.327 185.944 524.991 161.925 527.294 137.702C529.558 113.476 529.463 89.0098 527.012 64.9841C524.548 40.7648 519.664 16.6963 512.494 -6.55237C498.296 -52.6807 474.475 -96.7726 443.605 -134.062C412.739 -171.356 373.874 -202.996 331.211 -225.561C309.71 -236.949 286.979 -246.244 263.647 -253.189C240.501 -260.086 216.483 -264.75 192.259 -267.052Z" fill="url(#paint33_linear_447_4491)"/>
</g>
</g>
</g>
<defs>
<radialGradient id="paint0_radial_447_4491" cx="0" cy="0" r="1" gradientUnits="userSpaceOnUse" gradientTransform="translate(377.975 -41.3672) rotate(172.386) scale(475.364 475.364)">
<stop stop-color="#E53F71"/>
<stop offset="0.0728" stop-color="#DD3D6D" stop-opacity="0.9076"/>
<stop offset="0.1859" stop-color="#C73762" stop-opacity="0.7639"/>
<stop offset="0.3253" stop-color="#A32D50" stop-opacity="0.587"/>
<stop offset="0.4855" stop-color="#711F38" stop-opacity="0.3837"/>
<stop offset="0.6608" stop-color="#320E19" stop-opacity="0.1611"/>
<stop offset="0.7877" stop-opacity="0"/>
</radialGradient>
<radialGradient id="paint1_radial_447_4491" cx="0" cy="0" r="1" gradientUnits="userSpaceOnUse" gradientTransform="translate(363.183 -45.4512) rotate(172.386) scale(473.089 473.089)">
<stop stop-color="#E53F71"/>
<stop offset="0.0728" stop-color="#DD3D6D" stop-opacity="0.9076"/>
<stop offset="0.1859" stop-color="#C73762" stop-opacity="0.7639"/>
<stop offset="0.3253" stop-color="#A32D50" stop-opacity="0.587"/>
<stop offset="0.4855" stop-color="#711F38" stop-opacity="0.3837"/>
<stop offset="0.6608" stop-color="#320E19" stop-opacity="0.1611"/>
<stop offset="0.7877" stop-opacity="0"/>
</radialGradient>
<radialGradient id="paint2_radial_447_4491" cx="0" cy="0" r="1" gradientUnits="userSpaceOnUse" gradientTransform="translate(348.392 -49.5364) rotate(172.386) scale(470.881 470.881)">
<stop stop-color="#E53F71"/>
<stop offset="0.0728" stop-color="#DD3D6D" stop-opacity="0.9076"/>
<stop offset="0.1859" stop-color="#C73762" stop-opacity="0.7639"/>
<stop offset="0.3253" stop-color="#A32D50" stop-opacity="0.587"/>
<stop offset="0.4855" stop-color="#711F38" stop-opacity="0.3837"/>
<stop offset="0.6608" stop-color="#320E19" stop-opacity="0.1611"/>
<stop offset="0.7877" stop-opacity="0"/>
</radialGradient>
<radialGradient id="paint3_radial_447_4491" cx="0" cy="0" r="1" gradientUnits="userSpaceOnUse" gradientTransform="translate(333.601 -53.6213) rotate(172.386) scale(468.741 468.741)">
<stop stop-color="#E53F71"/>
<stop offset="0.0728" stop-color="#DD3D6D" stop-opacity="0.9076"/>
<stop offset="0.1859" stop-color="#C73762" stop-opacity="0.7639"/>
<stop offset="0.3253" stop-color="#A32D50" stop-opacity="0.587"/>
<stop offset="0.4855" stop-color="#711F38" stop-opacity="0.3837"/>
<stop offset="0.6608" stop-color="#320E19" stop-opacity="0.1611"/>
<stop offset="0.7877" stop-opacity="0"/>
</radialGradient>
<radialGradient id="paint4_radial_447_4491" cx="0" cy="0" r="1" gradientUnits="userSpaceOnUse" gradientTransform="translate(318.809 -57.706) rotate(172.386) scale(466.669 466.669)">
<stop stop-color="#E53F71"/>
<stop offset="0.0728" stop-color="#DD3D6D" stop-opacity="0.9076"/>
<stop offset="0.1859" stop-color="#C73762" stop-opacity="0.7639"/>
<stop offset="0.3253" stop-color="#A32D50" stop-opacity="0.587"/>
<stop offset="0.4855" stop-color="#711F38" stop-opacity="0.3837"/>
<stop offset="0.6608" stop-color="#320E19" stop-opacity="0.1611"/>
<stop offset="0.7877" stop-opacity="0"/>
</radialGradient>
<radialGradient id="paint5_radial_447_4491" cx="0" cy="0" r="1" gradientUnits="userSpaceOnUse" gradientTransform="translate(304.018 -61.7907) rotate(172.386) scale(464.668 464.668)">
<stop stop-color="#E53F71"/>
<stop offset="0.0728" stop-color="#DD3D6D" stop-opacity="0.9076"/>
<stop offset="0.1859" stop-color="#C73762" stop-opacity="0.7639"/>
<stop offset="0.3253" stop-color="#A32D50" stop-opacity="0.587"/>
<stop offset="0.4855" stop-color="#711F38" stop-opacity="0.3837"/>
<stop offset="0.6608" stop-color="#320E19" stop-opacity="0.1611"/>
<stop offset="0.7877" stop-opacity="0"/>
</radialGradient>
<radialGradient id="paint6_radial_447_4491" cx="0" cy="0" r="1" gradientUnits="userSpaceOnUse" gradientTransform="translate(289.227 -65.8754) rotate(172.386) scale(462.738 462.738)">
<stop stop-color="#E53F71"/>
<stop offset="0.0728" stop-color="#DD3D6D" stop-opacity="0.9076"/>
<stop offset="0.1859" stop-color="#C73762" stop-opacity="0.7639"/>
<stop offset="0.3253" stop-color="#A32D50" stop-opacity="0.587"/>
<stop offset="0.4855" stop-color="#711F38" stop-opacity="0.3837"/>
<stop offset="0.6608" stop-color="#320E19" stop-opacity="0.1611"/>
<stop offset="0.7877" stop-opacity="0"/>
</radialGradient>
<radialGradient id="paint7_radial_447_4491" cx="0" cy="0" r="1" gradientUnits="userSpaceOnUse" gradientTransform="translate(274.436 -69.9607) rotate(172.386) scale(460.879 460.879)">
<stop stop-color="#E53F71"/>
<stop offset="0.0728" stop-color="#DD3D6D" stop-opacity="0.9076"/>
<stop offset="0.1859" stop-color="#C73762" stop-opacity="0.7639"/>
<stop offset="0.3253" stop-color="#A32D50" stop-opacity="0.587"/>
<stop offset="0.4855" stop-color="#711F38" stop-opacity="0.3837"/>
<stop offset="0.6608" stop-color="#320E19" stop-opacity="0.1611"/>
<stop offset="0.7877" stop-opacity="0"/>
</radialGradient>
<radialGradient id="paint8_radial_447_4491" cx="0" cy="0" r="1" gradientUnits="userSpaceOnUse" gradientTransform="translate(259.645 -74.0454) rotate(172.386) scale(459.092 459.092)">
<stop stop-color="#E53F71"/>
<stop offset="0.0728" stop-color="#DD3D6D" stop-opacity="0.9076"/>
<stop offset="0.1859" stop-color="#C73762" stop-opacity="0.7639"/>
<stop offset="0.3253" stop-color="#A32D50" stop-opacity="0.587"/>
<stop offset="0.4855" stop-color="#711F38" stop-opacity="0.3837"/>
<stop offset="0.6608" stop-color="#320E19" stop-opacity="0.1611"/>
<stop offset="0.7877" stop-opacity="0"/>
</radialGradient>
<radialGradient id="paint9_radial_447_4491" cx="0" cy="0" r="1" gradientUnits="userSpaceOnUse" gradientTransform="translate(244.854 -78.1301) rotate(172.386) scale(457.379 457.379)">
<stop stop-color="#E53F71"/>
<stop offset="0.0728" stop-color="#DD3D6D" stop-opacity="0.9076"/>
<stop offset="0.1859" stop-color="#C73762" stop-opacity="0.7639"/>
<stop offset="0.3253" stop-color="#A32D50" stop-opacity="0.587"/>
<stop offset="0.4855" stop-color="#711F38" stop-opacity="0.3837"/>
<stop offset="0.6608" stop-color="#320E19" stop-opacity="0.1611"/>
<stop offset="0.7877" stop-opacity="0"/>
</radialGradient>
<radialGradient id="paint10_radial_447_4491" cx="0" cy="0" r="1" gradientUnits="userSpaceOnUse" gradientTransform="translate(230.062 -82.2147) rotate(172.386) scale(455.741 455.741)">
<stop stop-color="#E53F71"/>
<stop offset="0.0728" stop-color="#DD3D6D" stop-opacity="0.9076"/>
<stop offset="0.1859" stop-color="#C73762" stop-opacity="0.7639"/>
<stop offset="0.3253" stop-color="#A32D50" stop-opacity="0.587"/>
<stop offset="0.4855" stop-color="#711F38" stop-opacity="0.3837"/>
<stop offset="0.6608" stop-color="#320E19" stop-opacity="0.1611"/>
<stop offset="0.7877" stop-opacity="0"/>
</radialGradient>
<radialGradient id="paint11_radial_447_4491" cx="0" cy="0" r="1" gradientUnits="userSpaceOnUse" gradientTransform="translate(215.271 -86.2996) rotate(172.386) scale(454.177 454.177)">
<stop stop-color="#E53F71"/>
<stop offset="0.0728" stop-color="#DD3D6D" stop-opacity="0.9076"/>
<stop offset="0.1859" stop-color="#C73762" stop-opacity="0.7639"/>
<stop offset="0.3253" stop-color="#A32D50" stop-opacity="0.587"/>
<stop offset="0.4855" stop-color="#711F38" stop-opacity="0.3837"/>
<stop offset="0.6608" stop-color="#320E19" stop-opacity="0.1611"/>
<stop offset="0.7877" stop-opacity="0"/>
</radialGradient>
<radialGradient id="paint12_radial_447_4491" cx="0" cy="0" r="1" gradientUnits="userSpaceOnUse" gradientTransform="translate(200.479 -90.3845) rotate(172.386) scale(452.689 452.689)">
<stop stop-color="#E53F71"/>
<stop offset="0.0728" stop-color="#DD3D6D" stop-opacity="0.9076"/>
<stop offset="0.1859" stop-color="#C73762" stop-opacity="0.7639"/>
<stop offset="0.3253" stop-color="#A32D50" stop-opacity="0.587"/>
<stop offset="0.4855" stop-color="#711F38" stop-opacity="0.3837"/>
<stop offset="0.6608" stop-color="#320E19" stop-opacity="0.1611"/>
<stop offset="0.7877" stop-opacity="0"/>
</radialGradient>
<radialGradient id="paint13_radial_447_4491" cx="0" cy="0" r="1" gradientUnits="userSpaceOnUse" gradientTransform="translate(185.688 -94.4693) rotate(172.386) scale(451.278 451.278)">
<stop stop-color="#E53F71"/>
<stop offset="0.0728" stop-color="#DD3D6D" stop-opacity="0.9076"/>
<stop offset="0.1859" stop-color="#C73762" stop-opacity="0.7639"/>
<stop offset="0.3253" stop-color="#A32D50" stop-opacity="0.587"/>
<stop offset="0.4855" stop-color="#711F38" stop-opacity="0.3837"/>
<stop offset="0.6608" stop-color="#320E19" stop-opacity="0.1611"/>
<stop offset="0.7877" stop-opacity="0"/>
</radialGradient>
<radialGradient id="paint14_radial_447_4491" cx="0" cy="0" r="1" gradientUnits="userSpaceOnUse" gradientTransform="translate(170.897 -98.554) rotate(172.386) scale(449.943 449.943)">
<stop stop-color="#E53F71"/>
<stop offset="0.0728" stop-color="#DD3D6D" stop-opacity="0.9076"/>
<stop offset="0.1859" stop-color="#C73762" stop-opacity="0.7639"/>
<stop offset="0.3253" stop-color="#A32D50" stop-opacity="0.587"/>
<stop offset="0.4855" stop-color="#711F38" stop-opacity="0.3837"/>
<stop offset="0.6608" stop-color="#320E19" stop-opacity="0.1611"/>
<stop offset="0.7877" stop-opacity="0"/>
</radialGradient>
<radialGradient id="paint15_radial_447_4491" cx="0" cy="0" r="1" gradientUnits="userSpaceOnUse" gradientTransform="translate(156.106 -102.639) rotate(172.386) scale(448.687 448.687)">
<stop stop-color="#E53F71"/>
<stop offset="0.0728" stop-color="#DD3D6D" stop-opacity="0.9076"/>
<stop offset="0.1859" stop-color="#C73762" stop-opacity="0.7639"/>
<stop offset="0.3253" stop-color="#A32D50" stop-opacity="0.587"/>
<stop offset="0.4855" stop-color="#711F38" stop-opacity="0.3837"/>
<stop offset="0.6608" stop-color="#320E19" stop-opacity="0.1611"/>
<stop offset="0.7877" stop-opacity="0"/>
</radialGradient>
<radialGradient id="paint16_radial_447_4491" cx="0" cy="0" r="1" gradientUnits="userSpaceOnUse" gradientTransform="translate(141.315 -106.724) rotate(172.386) scale(447.51 447.51)">
<stop stop-color="#E53F71"/>
<stop offset="0.0728" stop-color="#DD3D6D" stop-opacity="0.9076"/>
<stop offset="0.1859" stop-color="#C73762" stop-opacity="0.7639"/>
<stop offset="0.3253" stop-color="#A32D50" stop-opacity="0.587"/>
<stop offset="0.4855" stop-color="#711F38" stop-opacity="0.3837"/>
<stop offset="0.6608" stop-color="#320E19" stop-opacity="0.1611"/>
<stop offset="0.7877" stop-opacity="0"/>
</radialGradient>
<linearGradient id="paint17_linear_447_4491" x1="143.843" y1="246.645" x2="170.927" y2="-40.8324" gradientUnits="userSpaceOnUse">
<stop stop-color="#E53F71"/>
<stop offset="0.2098" stop-color="#8C2745" stop-opacity="0.6555"/>
<stop offset="0.4033" stop-color="#411220" stop-opacity="0.3377"/>
<stop offset="0.5405" stop-color="#120509" stop-opacity="0.1123"/>
<stop offset="0.6089" stop-opacity="0"/>
</linearGradient>
<linearGradient id="paint18_linear_447_4491" x1="142.493" y1="260.979" x2="172.278" y2="-55.1664" gradientUnits="userSpaceOnUse">
<stop stop-color="#E53F71"/>
<stop offset="0.2098" stop-color="#8C2745" stop-opacity="0.6555"/>
<stop offset="0.4033" stop-color="#411220" stop-opacity="0.3377"/>
<stop offset="0.5405" stop-color="#120509" stop-opacity="0.1123"/>
<stop offset="0.6089" stop-opacity="0"/>
</linearGradient>
<linearGradient id="paint19_linear_447_4491" x1="141.142" y1="275.313" x2="173.629" y2="-69.5003" gradientUnits="userSpaceOnUse">
<stop stop-color="#E53F71"/>
<stop offset="0.2098" stop-color="#8C2745" stop-opacity="0.6555"/>
<stop offset="0.4033" stop-color="#411220" stop-opacity="0.3377"/>
<stop offset="0.5405" stop-color="#120509" stop-opacity="0.1123"/>
<stop offset="0.6089" stop-opacity="0"/>
</linearGradient>
<linearGradient id="paint20_linear_447_4491" x1="139.791" y1="289.647" x2="174.979" y2="-83.8343" gradientUnits="userSpaceOnUse">
<stop stop-color="#E53F71"/>
<stop offset="0.2098" stop-color="#8C2745" stop-opacity="0.6555"/>
<stop offset="0.4033" stop-color="#411220" stop-opacity="0.3377"/>
<stop offset="0.5405" stop-color="#120509" stop-opacity="0.1123"/>
<stop offset="0.6089" stop-opacity="0"/>
</linearGradient>
<linearGradient id="paint21_linear_447_4491" x1="138.44" y1="303.981" x2="176.329" y2="-98.1687" gradientUnits="userSpaceOnUse">
<stop stop-color="#E53F71"/>
<stop offset="0.2098" stop-color="#8C2745" stop-opacity="0.6555"/>
<stop offset="0.4033" stop-color="#411220" stop-opacity="0.3377"/>
<stop offset="0.5405" stop-color="#120509" stop-opacity="0.1123"/>
<stop offset="0.6089" stop-opacity="0"/>
</linearGradient>
<linearGradient id="paint22_linear_447_4491" x1="137.091" y1="318.315" x2="177.68" y2="-112.503" gradientUnits="userSpaceOnUse">
<stop stop-color="#E53F71"/>
<stop offset="0.2098" stop-color="#8C2745" stop-opacity="0.6555"/>
<stop offset="0.4033" stop-color="#411220" stop-opacity="0.3377"/>
<stop offset="0.5405" stop-color="#120509" stop-opacity="0.1123"/>
<stop offset="0.6089" stop-opacity="0"/>
</linearGradient>
<linearGradient id="paint23_linear_447_4491" x1="135.74" y1="332.649" x2="179.031" y2="-126.837" gradientUnits="userSpaceOnUse">
<stop stop-color="#E53F71"/>
<stop offset="0.2098" stop-color="#8C2745" stop-opacity="0.6555"/>
<stop offset="0.4033" stop-color="#411220" stop-opacity="0.3377"/>
<stop offset="0.5405" stop-color="#120509" stop-opacity="0.1123"/>
<stop offset="0.6089" stop-opacity="0"/>
</linearGradient>
<linearGradient id="paint24_linear_447_4491" x1="134.39" y1="346.983" x2="180.381" y2="-141.17" gradientUnits="userSpaceOnUse">
<stop stop-color="#E53F71"/>
<stop offset="0.2098" stop-color="#8C2745" stop-opacity="0.6555"/>
<stop offset="0.4033" stop-color="#411220" stop-opacity="0.3377"/>
<stop offset="0.5405" stop-color="#120509" stop-opacity="0.1123"/>
<stop offset="0.6089" stop-opacity="0"/>
</linearGradient>
<linearGradient id="paint25_linear_447_4491" x1="133.039" y1="361.317" x2="181.731" y2="-155.505" gradientUnits="userSpaceOnUse">
<stop stop-color="#E53F71"/>
<stop offset="0.2098" stop-color="#8C2745" stop-opacity="0.6555"/>
<stop offset="0.4033" stop-color="#411220" stop-opacity="0.3377"/>
<stop offset="0.5405" stop-color="#120509" stop-opacity="0.1123"/>
<stop offset="0.6089" stop-opacity="0"/>
</linearGradient>
<linearGradient id="paint26_linear_447_4491" x1="131.689" y1="375.651" x2="183.082" y2="-169.839" gradientUnits="userSpaceOnUse">
<stop stop-color="#E53F71"/>
<stop offset="0.2098" stop-color="#8C2745" stop-opacity="0.6555"/>
<stop offset="0.4033" stop-color="#411220" stop-opacity="0.3377"/>
<stop offset="0.5405" stop-color="#120509" stop-opacity="0.1123"/>
<stop offset="0.6089" stop-opacity="0"/>
</linearGradient>
<linearGradient id="paint27_linear_447_4491" x1="130.338" y1="389.985" x2="184.432" y2="-184.173" gradientUnits="userSpaceOnUse">
<stop stop-color="#E53F71"/>
<stop offset="0.2098" stop-color="#8C2745" stop-opacity="0.6555"/>
<stop offset="0.4033" stop-color="#411220" stop-opacity="0.3377"/>
<stop offset="0.5405" stop-color="#120509" stop-opacity="0.1123"/>
<stop offset="0.6089" stop-opacity="0"/>
</linearGradient>
<linearGradient id="paint28_linear_447_4491" x1="128.988" y1="404.319" x2="185.783" y2="-198.507" gradientUnits="userSpaceOnUse">
<stop stop-color="#E53F71"/>
<stop offset="0.2098" stop-color="#8C2745" stop-opacity="0.6555"/>
<stop offset="0.4033" stop-color="#411220" stop-opacity="0.3377"/>
<stop offset="0.5405" stop-color="#120509" stop-opacity="0.1123"/>
<stop offset="0.6089" stop-opacity="0"/>
</linearGradient>
<linearGradient id="paint29_linear_447_4491" x1="127.637" y1="418.653" x2="187.133" y2="-212.841" gradientUnits="userSpaceOnUse">
<stop stop-color="#E53F71"/>
<stop offset="0.2098" stop-color="#8C2745" stop-opacity="0.6555"/>
<stop offset="0.4033" stop-color="#411220" stop-opacity="0.3377"/>
<stop offset="0.5405" stop-color="#120509" stop-opacity="0.1123"/>
<stop offset="0.6089" stop-opacity="0"/>
</linearGradient>
<linearGradient id="paint30_linear_447_4491" x1="126.287" y1="432.988" x2="188.484" y2="-227.175" gradientUnits="userSpaceOnUse">
<stop stop-color="#E53F71"/>
<stop offset="0.2098" stop-color="#8C2745" stop-opacity="0.6555"/>
<stop offset="0.4033" stop-color="#411220" stop-opacity="0.3377"/>
<stop offset="0.5405" stop-color="#120509" stop-opacity="0.1123"/>
<stop offset="0.6089" stop-opacity="0"/>
</linearGradient>
<linearGradient id="paint31_linear_447_4491" x1="124.936" y1="447.321" x2="189.834" y2="-241.509" gradientUnits="userSpaceOnUse">
<stop stop-color="#E53F71"/>
<stop offset="0.2098" stop-color="#8C2745" stop-opacity="0.6555"/>
<stop offset="0.4033" stop-color="#411220" stop-opacity="0.3377"/>
<stop offset="0.5405" stop-color="#120509" stop-opacity="0.1123"/>
<stop offset="0.6089" stop-opacity="0"/>
</linearGradient>
<linearGradient id="paint32_linear_447_4491" x1="123.586" y1="461.655" x2="191.185" y2="-255.843" gradientUnits="userSpaceOnUse">
<stop stop-color="#E53F71"/>
<stop offset="0.2098" stop-color="#8C2745" stop-opacity="0.6555"/>
<stop offset="0.4033" stop-color="#411220" stop-opacity="0.3377"/>
<stop offset="0.5405" stop-color="#120509" stop-opacity="0.1123"/>
<stop offset="0.6089" stop-opacity="0"/>
</linearGradient>
<linearGradient id="paint33_linear_447_4491" x1="122.235" y1="475.989" x2="192.535" y2="-270.177" gradientUnits="userSpaceOnUse">
<stop stop-color="#E53F71"/>
<stop offset="0.2098" stop-color="#8C2745" stop-opacity="0.6555"/>
<stop offset="0.4033" stop-color="#411220" stop-opacity="0.3377"/>
<stop offset="0.5405" stop-color="#120509" stop-opacity="0.1123"/>
<stop offset="0.6089" stop-opacity="0"/>
</linearGradient>
<clipPath id="clip0_447_4491">
<rect width="544" height="438" fill="white"/>
</clipPath>
</defs>
</svg>
