<svg width="40" height="40" viewBox="0 0 40 40" fill="none" xmlns="http://www.w3.org/2000/svg">
<path d="M30.0003 20C30.0003 20.92 29.2537 21.6666 28.3337 21.6666C27.4137 21.6666 26.667 20.92 26.667 20C26.667 19.08 27.4137 18.3333 28.3337 18.3333C29.2537 18.3333 30.0003 19.08 30.0003 20Z" fill="url(#paint0_linear_656_9866)"/>
<path d="M21.667 20C21.667 20.92 20.9203 21.6666 20.0003 21.6666C19.0803 21.6666 18.3337 20.92 18.3337 20C18.3337 19.08 19.0803 18.3333 20.0003 18.3333C20.9203 18.3333 21.667 19.08 21.667 20Z" fill="url(#paint1_linear_656_9866)"/>
<path d="M13.3337 20C13.3337 20.92 12.587 21.6666 11.667 21.6666C10.747 21.6666 10.0003 20.92 10.0003 20C10.0003 19.08 10.747 18.3333 11.667 18.3333C12.587 18.3333 13.3337 19.08 13.3337 20Z" fill="url(#paint2_linear_656_9866)"/>
<path fill-rule="evenodd" clip-rule="evenodd" d="M20.0003 1.66663C7.15033 1.66663 1.66699 7.14996 1.66699 20C1.66699 32.85 7.15033 38.3333 20.0003 38.3333C32.8503 38.3333 38.3337 32.85 38.3337 20C38.3337 7.14996 32.8503 1.66663 20.0003 1.66663ZM5.00033 20C5.00033 30.935 9.06533 35 20.0003 35C30.9353 35 35.0003 30.935 35.0003 20C35.0003 9.06496 30.9353 4.99996 20.0003 4.99996C9.06533 4.99996 5.00033 9.06496 5.00033 20Z" fill="url(#paint3_linear_656_9866)"/>
<defs>
<linearGradient id="paint0_linear_656_9866" x1="1.66699" y1="20" x2="38.3337" y2="20.0029" gradientUnits="userSpaceOnUse">
<stop offset="0.055" stop-color="#0A0078"/>
<stop offset="0.965" stop-color="#FF383B"/>
</linearGradient>
<linearGradient id="paint1_linear_656_9866" x1="1.66699" y1="20" x2="38.3337" y2="20.0029" gradientUnits="userSpaceOnUse">
<stop offset="0.055" stop-color="#0A0078"/>
<stop offset="0.965" stop-color="#FF383B"/>
</linearGradient>
<linearGradient id="paint2_linear_656_9866" x1="1.66699" y1="20" x2="38.3337" y2="20.0029" gradientUnits="userSpaceOnUse">
<stop offset="0.055" stop-color="#0A0078"/>
<stop offset="0.965" stop-color="#FF383B"/>
</linearGradient>
<linearGradient id="paint3_linear_656_9866" x1="1.66699" y1="20" x2="38.3337" y2="20.0029" gradientUnits="userSpaceOnUse">
<stop offset="0.055" stop-color="#0A0078"/>
<stop offset="0.965" stop-color="#FF383B"/>
</linearGradient>
</defs>
</svg>
