<svg width="80" height="80" viewBox="0 0 80 80" fill="none" xmlns="http://www.w3.org/2000/svg">
<g clip-path="url(#clip0_491_4344)">
<path d="M66.6667 13.3333H50C50 9.79711 48.5952 6.40573 46.0948 3.90524C43.5943 1.40476 40.2029 0 36.6667 0L13.3333 0C9.79711 0 6.40573 1.40476 3.90524 3.90524C1.40476 6.40573 0 9.79711 0 13.3333L0 76.6667C0 77.5507 0.351189 78.3986 0.976311 79.0237C1.60143 79.6488 2.44928 80 3.33333 80C4.21739 80 5.06523 79.6488 5.69036 79.0237C6.31548 78.3986 6.66667 77.5507 6.66667 76.6667V43.3333H33.3333C33.3333 46.8696 34.7381 50.2609 37.2386 52.7614C39.7391 55.2619 43.1304 56.6667 46.6667 56.6667H66.6667C70.2029 56.6667 73.5943 55.2619 76.0947 52.7614C78.5952 50.2609 80 46.8696 80 43.3333V26.6667C80 23.1304 78.5952 19.7391 76.0947 17.2386C73.5943 14.7381 70.2029 13.3333 66.6667 13.3333ZM6.66667 36.6667V13.3333C6.66667 11.5652 7.36905 9.86953 8.61929 8.61929C9.86953 7.36905 11.5652 6.66667 13.3333 6.66667H36.6667C38.4348 6.66667 40.1305 7.36905 41.3807 8.61929C42.631 9.86953 43.3333 11.5652 43.3333 13.3333V30C43.3333 31.7681 42.631 33.4638 41.3807 34.714C40.1305 35.9643 38.4348 36.6667 36.6667 36.6667H6.66667ZM73.3333 43.3333C73.3333 45.1014 72.631 46.7971 71.3807 48.0474C70.1305 49.2976 68.4348 50 66.6667 50H46.6667C44.8986 50 43.2029 49.2976 41.9526 48.0474C40.7024 46.7971 40 45.1014 40 43.3333V42.86C42.8538 42.1232 45.3831 40.4615 47.1923 38.1348C49.0016 35.808 49.989 32.9474 50 30V20H66.6667C68.4348 20 70.1305 20.7024 71.3807 21.9526C72.631 23.2029 73.3333 24.8986 73.3333 26.6667V43.3333Z" fill="#FD3A3D"/>
</g>
<defs>
<clipPath id="clip0_491_4344">
<rect width="80" height="80" fill="white"/>
</clipPath>
</defs>
</svg>
