<svg width="196" height="330" viewBox="0 0 196 330" fill="none" xmlns="http://www.w3.org/2000/svg">
<g filter="url(#filter0_dddd_545_7298)">
<rect x="79" y="15.375" width="38" height="40" fill="white"/>
</g>
<path d="M109 14.125V16.5C109 16.9142 109.336 17.25 109.75 17.25H113.821C114.236 17.25 114.571 17.5858 114.571 18V21.625C114.571 22.0392 114.907 22.375 115.321 22.375H118C118.414 22.375 118.75 22.0392 118.75 21.625V14.125C118.75 13.7108 118.414 13.375 118 13.375L109.75 13.375C109.336 13.375 109 13.7108 109 14.125Z" fill="#FF383B"/>
<path d="M118.25 47.375L115.875 47.375C115.461 47.375 115.125 47.7108 115.125 48.125L115.125 52.1964C115.125 52.6106 114.789 52.9464 114.375 52.9464L110.75 52.9464C110.336 52.9464 110 53.2822 110 53.6964L110 56.375C110 56.7892 110.336 57.125 110.75 57.125L118.25 57.125C118.664 57.125 119 56.7892 119 56.375L119 48.125C119 47.7108 118.664 47.375 118.25 47.375Z" fill="#FF383B"/>
<path d="M77.25 22.75L79.625 22.75C80.0392 22.75 80.375 22.4142 80.375 22L80.375 17.9286C80.375 17.5144 80.7108 17.1786 81.125 17.1786L84.75 17.1786C85.1642 17.1786 85.5 16.8428 85.5 16.4286L85.5 13.75C85.5 13.3358 85.1642 13 84.75 13L77.25 13C76.8358 13 76.5 13.3358 76.5 13.75L76.5 22C76.5 22.4142 76.8358 22.75 77.25 22.75Z" fill="#FF383B"/>
<path d="M85.75 56.625L85.75 54.25C85.75 53.8358 85.4142 53.5 85 53.5L80.9286 53.5C80.5144 53.5 80.1786 53.1642 80.1786 52.75L80.1786 49.125C80.1786 48.7108 79.8428 48.375 79.4286 48.375L76.75 48.375C76.3358 48.375 76 48.7108 76 49.125L76 56.625C76 57.0392 76.3358 57.375 76.75 57.375L85 57.375C85.4142 57.375 85.75 57.0392 85.75 56.625Z" fill="#FF383B"/>
<g clip-path="url(#clip0_545_7298)" filter="url(#filter1_dddd_545_7298)">
<path d="M110 32.0991V41.3751C109.998 42.7007 109.471 43.9715 108.534 44.9088C107.596 45.8462 106.326 46.3735 105 46.3751H104C103.735 46.3751 103.48 46.2697 103.293 46.0822C103.105 45.8946 103 45.6403 103 45.3751C103 45.1098 103.105 44.8555 103.293 44.668C103.48 44.4804 103.735 44.3751 104 44.3751H105C105.796 44.3751 106.559 44.059 107.121 43.4964C107.684 42.9338 108 42.1707 108 41.3751V32.0991C108 31.608 107.88 31.1244 107.649 30.6908C107.419 30.2571 107.085 29.8867 106.678 29.6121L99.678 24.8891C99.1834 24.5519 98.5986 24.3715 98 24.3715C97.4014 24.3715 96.8166 24.5519 96.322 24.8891L89.322 29.6121C88.9149 29.8867 88.5815 30.2571 88.351 30.6908C88.1205 31.1244 88 31.608 88 32.0991V41.3751C88 42.1707 88.3161 42.9338 88.8787 43.4964C89.4413 44.059 90.2044 44.3751 91 44.3751H92C92.2652 44.3751 92.5196 44.4804 92.7071 44.668C92.8946 44.8555 93 45.1098 93 45.3751C93 45.6403 92.8946 45.8946 92.7071 46.0822C92.5196 46.2697 92.2652 46.3751 92 46.3751H91C89.6744 46.3735 88.4036 45.8462 87.4662 44.9088C86.5289 43.9715 86.0016 42.7007 86 41.3751V32.0991C85.999 31.2808 86.1991 30.4748 86.5827 29.752C86.9663 29.0292 87.5217 28.4118 88.2 27.9541L95.2 23.2301C96.0253 22.67 96.9997 22.3706 97.997 22.3706C98.9944 22.3706 99.9687 22.67 100.794 23.2301L107.794 27.9541C108.473 28.4116 109.029 29.0288 109.414 29.7515C109.798 30.4742 110 31.2804 110 32.0991ZM105 37.3821C105.003 38.3016 104.823 39.2124 104.471 40.0619C104.119 40.9114 103.602 41.6827 102.95 42.3311L99.435 45.7691C99.0502 46.1416 98.5356 46.3499 98 46.3499C97.4644 46.3499 96.9498 46.1416 96.565 45.7691L93.058 42.3391C92.2424 41.526 91.64 40.5243 91.3042 39.4227C90.9684 38.3211 90.9096 37.1537 91.1329 36.0239C91.3563 34.8941 91.855 33.8369 92.5847 32.946C93.3145 32.055 94.2527 31.3579 95.3164 30.9164C96.38 30.4749 97.5362 30.3027 98.6823 30.4149C99.8285 30.5272 100.929 30.9205 101.887 31.56C102.845 32.1995 103.63 33.0654 104.173 34.081C104.716 35.0965 105 36.2304 105 37.3821ZM103 37.3821C103 36.5598 102.797 35.7503 102.41 35.0251C102.022 34.3 101.462 33.6816 100.778 33.2248C100.094 32.7679 99.3086 32.4867 98.4904 32.4061C97.6721 32.3255 96.8466 32.4479 96.0869 32.7625C95.3273 33.0771 94.6569 33.5741 94.1352 34.2097C93.6136 34.8452 93.2567 35.5996 93.0962 36.406C92.9357 37.2125 92.9765 38.046 93.2151 38.8329C93.4537 39.6197 93.8827 40.3356 94.464 40.9171L97.964 44.3391L101.544 40.9091C102.008 40.4465 102.375 39.8966 102.625 39.2912C102.875 38.6859 103.002 38.037 103 37.3821ZM101 37.3751C101 37.9684 100.824 38.5484 100.494 39.0418C100.165 39.5351 99.6962 39.9196 99.1481 40.1467C98.5999 40.3738 97.9967 40.4332 97.4147 40.3174C96.8328 40.2017 96.2982 39.9159 95.8787 39.4964C95.4591 39.0768 95.1734 38.5423 95.0576 37.9603C94.9419 37.3784 95.0013 36.7752 95.2284 36.227C95.4554 35.6788 95.8399 35.2103 96.3333 34.8807C96.8266 34.551 97.4067 34.3751 98 34.3751C98.7957 34.3751 99.5587 34.6911 100.121 35.2537C100.684 35.8163 101 36.5794 101 37.3751Z" fill="url(#paint0_linear_545_7298)"/>
</g>
<defs>
<filter id="filter0_dddd_545_7298" x="0.696114" y="0.65119" width="194.608" height="329.122" filterUnits="userSpaceOnUse" color-interpolation-filters="sRGB">
<feFlood flood-opacity="0" result="BackgroundImageFix"/>
<feColorMatrix in="SourceAlpha" type="matrix" values="0 0 0 0 0 0 0 0 0 0 0 0 0 0 0 0 0 0 127 0" result="hardAlpha"/>
<feOffset dy="12.0468"/>
<feGaussianBlur stdDeviation="13.3853"/>
<feColorMatrix type="matrix" values="0 0 0 0 0 0 0 0 0 0 0 0 0 0 0 0 0 0 0.1 0"/>
<feBlend mode="normal" in2="BackgroundImageFix" result="effect1_dropShadow_545_7298"/>
<feColorMatrix in="SourceAlpha" type="matrix" values="0 0 0 0 0 0 0 0 0 0 0 0 0 0 0 0 0 0 127 0" result="hardAlpha"/>
<feOffset dy="48.8563"/>
<feGaussianBlur stdDeviation="24.4281"/>
<feColorMatrix type="matrix" values="0 0 0 0 0 0 0 0 0 0 0 0 0 0 0 0 0 0 0.09 0"/>
<feBlend mode="normal" in2="effect1_dropShadow_545_7298" result="effect2_dropShadow_545_7298"/>
<feColorMatrix in="SourceAlpha" type="matrix" values="0 0 0 0 0 0 0 0 0 0 0 0 0 0 0 0 0 0 127 0" result="hardAlpha"/>
<feOffset dy="110.429"/>
<feGaussianBlur stdDeviation="33.1286"/>
<feColorMatrix type="matrix" values="0 0 0 0 0 0 0 0 0 0 0 0 0 0 0 0 0 0 0.05 0"/>
<feBlend mode="normal" in2="effect2_dropShadow_545_7298" result="effect3_dropShadow_545_7298"/>
<feColorMatrix in="SourceAlpha" type="matrix" values="0 0 0 0 0 0 0 0 0 0 0 0 0 0 0 0 0 0 127 0" result="hardAlpha"/>
<feOffset dy="196.094"/>
<feGaussianBlur stdDeviation="39.1519"/>
<feColorMatrix type="matrix" values="0 0 0 0 0 0 0 0 0 0 0 0 0 0 0 0 0 0 0.01 0"/>
<feBlend mode="normal" in2="effect3_dropShadow_545_7298" result="effect4_dropShadow_545_7298"/>
<feBlend mode="normal" in="SourceGraphic" in2="effect4_dropShadow_545_7298" result="shape"/>
</filter>
<filter id="filter1_dddd_545_7298" x="7.69611" y="7.65119" width="180.608" height="313.122" filterUnits="userSpaceOnUse" color-interpolation-filters="sRGB">
<feFlood flood-opacity="0" result="BackgroundImageFix"/>
<feColorMatrix in="SourceAlpha" type="matrix" values="0 0 0 0 0 0 0 0 0 0 0 0 0 0 0 0 0 0 127 0" result="hardAlpha"/>
<feOffset dy="12.0468"/>
<feGaussianBlur stdDeviation="13.3853"/>
<feColorMatrix type="matrix" values="0 0 0 0 0 0 0 0 0 0 0 0 0 0 0 0 0 0 0.1 0"/>
<feBlend mode="normal" in2="BackgroundImageFix" result="effect1_dropShadow_545_7298"/>
<feColorMatrix in="SourceAlpha" type="matrix" values="0 0 0 0 0 0 0 0 0 0 0 0 0 0 0 0 0 0 127 0" result="hardAlpha"/>
<feOffset dy="48.8563"/>
<feGaussianBlur stdDeviation="24.4281"/>
<feColorMatrix type="matrix" values="0 0 0 0 0 0 0 0 0 0 0 0 0 0 0 0 0 0 0.09 0"/>
<feBlend mode="normal" in2="effect1_dropShadow_545_7298" result="effect2_dropShadow_545_7298"/>
<feColorMatrix in="SourceAlpha" type="matrix" values="0 0 0 0 0 0 0 0 0 0 0 0 0 0 0 0 0 0 127 0" result="hardAlpha"/>
<feOffset dy="110.429"/>
<feGaussianBlur stdDeviation="33.1286"/>
<feColorMatrix type="matrix" values="0 0 0 0 0 0 0 0 0 0 0 0 0 0 0 0 0 0 0.05 0"/>
<feBlend mode="normal" in2="effect2_dropShadow_545_7298" result="effect3_dropShadow_545_7298"/>
<feColorMatrix in="SourceAlpha" type="matrix" values="0 0 0 0 0 0 0 0 0 0 0 0 0 0 0 0 0 0 127 0" result="hardAlpha"/>
<feOffset dy="196.094"/>
<feGaussianBlur stdDeviation="39.1519"/>
<feColorMatrix type="matrix" values="0 0 0 0 0 0 0 0 0 0 0 0 0 0 0 0 0 0 0.01 0"/>
<feBlend mode="normal" in2="effect3_dropShadow_545_7298" result="effect4_dropShadow_545_7298"/>
<feBlend mode="normal" in="SourceGraphic" in2="effect4_dropShadow_545_7298" result="shape"/>
</filter>
<linearGradient id="paint0_linear_545_7298" x1="86" y1="34.3728" x2="110" y2="34.3748" gradientUnits="userSpaceOnUse">
<stop offset="0.055" stop-color="#0A0078"/>
<stop offset="0.965" stop-color="#FF383B"/>
</linearGradient>
<clipPath id="clip0_545_7298">
<rect width="24" height="24" fill="white" transform="translate(86 22.375)"/>
</clipPath>
</defs>
</svg>
