<svg width="12" height="8" viewBox="0 0 12 8" fill="none" xmlns="http://www.w3.org/2000/svg">
<path d="M5.9998 7.4748C5.86647 7.4748 5.74147 7.45397 5.6248 7.4123C5.50814 7.37064 5.3998 7.2998 5.2998 7.1998L0.699805 2.5998C0.516471 2.41647 0.424805 2.18314 0.424805 1.8998C0.424805 1.61647 0.516471 1.38314 0.699805 1.1998C0.883138 1.01647 1.11647 0.924805 1.3998 0.924805C1.68314 0.924805 1.91647 1.01647 2.0998 1.1998L5.9998 5.0998L9.89981 1.1998C10.0831 1.01647 10.3165 0.924805 10.5998 0.924805C10.8831 0.924805 11.1165 1.01647 11.2998 1.1998C11.4831 1.38314 11.5748 1.61647 11.5748 1.8998C11.5748 2.18314 11.4831 2.41647 11.2998 2.5998L6.6998 7.1998C6.5998 7.2998 6.49147 7.37064 6.3748 7.4123C6.25814 7.45397 6.13314 7.4748 5.9998 7.4748Z" fill="#575757"/>
</svg>
