<svg width="196" height="330" viewBox="0 0 196 330" fill="none" xmlns="http://www.w3.org/2000/svg">
<g filter="url(#filter0_dddd_545_7306)">
<rect x="79" y="15" width="38" height="40" fill="white"/>
</g>
<path d="M109 14.125V16.5C109 16.9142 109.336 17.25 109.75 17.25H113.821C114.236 17.25 114.571 17.5858 114.571 18V21.625C114.571 22.0392 114.907 22.375 115.321 22.375H118C118.414 22.375 118.75 22.0392 118.75 21.625V14.125C118.75 13.7108 118.414 13.375 118 13.375L109.75 13.375C109.336 13.375 109 13.7108 109 14.125Z" fill="#FF383B"/>
<path d="M118.25 47.375L115.875 47.375C115.461 47.375 115.125 47.7108 115.125 48.125L115.125 52.1964C115.125 52.6106 114.789 52.9464 114.375 52.9464L110.75 52.9464C110.336 52.9464 110 53.2822 110 53.6964L110 56.375C110 56.7892 110.336 57.125 110.75 57.125L118.25 57.125C118.664 57.125 119 56.7892 119 56.375L119 48.125C119 47.7108 118.664 47.375 118.25 47.375Z" fill="#FF383B"/>
<path d="M77.25 22.75L79.625 22.75C80.0392 22.75 80.375 22.4142 80.375 22L80.375 17.9286C80.375 17.5144 80.7108 17.1786 81.125 17.1786L84.75 17.1786C85.1642 17.1786 85.5 16.8428 85.5 16.4286L85.5 13.75C85.5 13.3358 85.1642 13 84.75 13L77.25 13C76.8358 13 76.5 13.3358 76.5 13.75L76.5 22C76.5 22.4142 76.8358 22.75 77.25 22.75Z" fill="#FF383B"/>
<path d="M85.75 56.625L85.75 54.25C85.75 53.8358 85.4142 53.5 85 53.5L80.9286 53.5C80.5144 53.5 80.1786 53.1642 80.1786 52.75L80.1786 49.125C80.1786 48.7108 79.8428 48.375 79.4286 48.375L76.75 48.375C76.3358 48.375 76 48.7108 76 49.125L76 56.625C76 57.0392 76.3358 57.375 76.75 57.375L85 57.375C85.4142 57.375 85.75 57.0392 85.75 56.625Z" fill="#FF383B"/>
<g clip-path="url(#clip0_545_7306)">
<path d="M98 32.9998C95.243 32.9998 93 35.2428 93 37.9998C93 40.7568 95.243 42.9998 98 42.9998C100.757 42.9998 103 40.7568 103 37.9998C103 35.2428 100.757 32.9998 98 32.9998ZM98 40.9998C96.346 40.9998 95 39.6538 95 37.9998C95 36.3458 96.346 34.9998 98 34.9998C99.654 34.9998 101 36.3458 101 37.9998C101 39.6538 99.654 40.9998 98 40.9998ZM106.646 33.9598C108.526 33.7588 110 32.1818 110 30.2508C110 28.8358 109.436 27.4908 108.407 26.4618C103.835 21.8898 92.163 21.8908 87.593 26.4618C86.564 27.4908 86 28.8358 86 30.2498C86 32.1818 87.475 33.7588 89.354 33.9598L87.294 37.8228C86.447 39.4108 86 41.2008 86 42.9998C86 45.2058 87.794 46.9998 90 46.9998H106C108.206 46.9998 110 45.2058 110 42.9998C110 41.2008 109.553 39.4108 108.706 37.8228L106.646 33.9598ZM88 30.2488C88 29.3688 88.356 28.5258 89.007 27.8758C92.874 24.0108 103.128 24.0108 106.993 27.8758C107.643 28.5258 108.001 29.3688 108 30.2498C108 31.2148 107.215 31.9998 106.25 31.9998H105.566L104.789 30.7048C104.374 30.0118 103.775 29.4708 103.06 29.1418C101.93 28.6208 100.135 28.0008 98 28.0008C95.865 28.0008 94.07 28.6218 92.941 29.1418C92.224 29.4718 91.626 30.0118 91.211 30.7048L90.434 31.9998H89.75C88.785 31.9998 88 31.2148 88 30.2488ZM106 44.9998H90C88.897 44.9998 88 44.1028 88 42.9998C88 41.5278 88.366 40.0628 89.06 38.7648L91.878 33.4808L92.926 31.7328C93.134 31.3868 93.428 31.1188 93.779 30.9578C94.726 30.5208 96.228 29.9998 98.001 29.9998C99.774 29.9998 101.275 30.5208 102.224 30.9578C102.574 31.1188 102.868 31.3868 103.076 31.7328L104.124 33.4808L106.942 38.7648C107.635 40.0638 108.002 41.5288 108.002 42.9998C108.002 44.1028 107.105 44.9998 106.002 44.9998H106Z" fill="url(#paint0_linear_545_7306)"/>
</g>
<defs>
<filter id="filter0_dddd_545_7306" x="0.696114" y="0.27619" width="194.608" height="329.122" filterUnits="userSpaceOnUse" color-interpolation-filters="sRGB">
<feFlood flood-opacity="0" result="BackgroundImageFix"/>
<feColorMatrix in="SourceAlpha" type="matrix" values="0 0 0 0 0 0 0 0 0 0 0 0 0 0 0 0 0 0 127 0" result="hardAlpha"/>
<feOffset dy="12.0468"/>
<feGaussianBlur stdDeviation="13.3853"/>
<feColorMatrix type="matrix" values="0 0 0 0 0 0 0 0 0 0 0 0 0 0 0 0 0 0 0.1 0"/>
<feBlend mode="normal" in2="BackgroundImageFix" result="effect1_dropShadow_545_7306"/>
<feColorMatrix in="SourceAlpha" type="matrix" values="0 0 0 0 0 0 0 0 0 0 0 0 0 0 0 0 0 0 127 0" result="hardAlpha"/>
<feOffset dy="48.8563"/>
<feGaussianBlur stdDeviation="24.4281"/>
<feColorMatrix type="matrix" values="0 0 0 0 0 0 0 0 0 0 0 0 0 0 0 0 0 0 0.09 0"/>
<feBlend mode="normal" in2="effect1_dropShadow_545_7306" result="effect2_dropShadow_545_7306"/>
<feColorMatrix in="SourceAlpha" type="matrix" values="0 0 0 0 0 0 0 0 0 0 0 0 0 0 0 0 0 0 127 0" result="hardAlpha"/>
<feOffset dy="110.429"/>
<feGaussianBlur stdDeviation="33.1286"/>
<feColorMatrix type="matrix" values="0 0 0 0 0 0 0 0 0 0 0 0 0 0 0 0 0 0 0.05 0"/>
<feBlend mode="normal" in2="effect2_dropShadow_545_7306" result="effect3_dropShadow_545_7306"/>
<feColorMatrix in="SourceAlpha" type="matrix" values="0 0 0 0 0 0 0 0 0 0 0 0 0 0 0 0 0 0 127 0" result="hardAlpha"/>
<feOffset dy="196.094"/>
<feGaussianBlur stdDeviation="39.1519"/>
<feColorMatrix type="matrix" values="0 0 0 0 0 0 0 0 0 0 0 0 0 0 0 0 0 0 0.01 0"/>
<feBlend mode="normal" in2="effect3_dropShadow_545_7306" result="effect4_dropShadow_545_7306"/>
<feBlend mode="normal" in="SourceGraphic" in2="effect4_dropShadow_545_7306" result="shape"/>
</filter>
<linearGradient id="paint0_linear_545_7306" x1="86" y1="35.0165" x2="110" y2="35.0185" gradientUnits="userSpaceOnUse">
<stop offset="0.055" stop-color="#0A0078"/>
<stop offset="0.965" stop-color="#FF383B"/>
</linearGradient>
<clipPath id="clip0_545_7306">
<rect width="24" height="24" fill="white" transform="translate(86 23)"/>
</clipPath>
</defs>
</svg>
