<svg width="80" height="80" viewBox="0 0 80 80" fill="none" xmlns="http://www.w3.org/2000/svg">
<path d="M77.4001 19.1433L67.3634 5.58334C66.1292 3.85778 64.5014 2.45123 62.6151 1.48026C60.7288 0.509281 58.6383 0.00184574 56.5168 5.87463e-06H23.4834C21.3722 -0.00197578 19.2907 0.497416 17.4102 1.45708C15.5297 2.41675 13.9039 3.80926 12.6667 5.52001L2.45008 19.1767C0.786623 21.5223 -0.0724396 24.3436 0.00146961 27.2182C0.0753789 30.0929 1.07828 32.8663 2.86008 35.1233L32.1667 76.2167C33.1007 77.3993 34.2911 78.3544 35.6481 79.0098C37.005 79.6651 38.4931 80.0037 40.0001 80C41.5329 79.9969 43.0446 79.6423 44.4188 78.9632C45.793 78.2842 46.9931 77.299 47.9268 76.0833L77.0001 35.4467C78.8617 33.1566 79.9109 30.3136 79.9833 27.3633C80.0556 24.4129 79.1471 21.5219 77.4001 19.1433ZM61.9734 9.50334L72.0334 23.0967C72.0868 23.17 72.1001 23.2567 72.1534 23.3333H55.8467L51.0868 6.66667H56.5168C57.5866 6.66999 58.6401 6.92921 59.5894 7.42268C60.5387 7.91615 61.3561 8.62956 61.9734 9.50334ZM40.0001 63.7267L31.0001 30H49.0001L40.0001 63.7267ZM31.0867 23.3333L35.8467 6.66667H44.1534L48.9134 23.3333H31.0867ZM18.0567 9.45667C18.6752 8.59463 19.4899 7.89206 20.4335 7.40695C21.377 6.92183 22.4224 6.66809 23.4834 6.66667H28.9134L24.1534 23.3333H7.72674C7.77341 23.26 7.78674 23.17 7.84008 23.1L18.0567 9.45667ZM8.16008 31.0833C7.9194 30.7434 7.71284 30.3805 7.54341 30H24.1067L34.0867 67.4333L8.16008 31.0833ZM45.9034 67.4667L55.9034 30H72.5234C72.3087 30.4976 72.0368 30.9685 71.7134 31.4033L45.9034 67.4667Z" fill="#FF383B"/>
</svg>
