<svg width="84" height="100" viewBox="0 0 84 100" fill="none" xmlns="http://www.w3.org/2000/svg">
<path d="M8.6127 12.775C7.44187 10.7958 8.09187 8.24167 10.0752 7.06667C12.0502 5.89583 14.6085 6.54583 15.7835 8.52917L18.2544 12.6958C19.4252 14.675 18.7752 17.2292 16.7919 18.4042C14.846 19.5667 12.2627 18.9417 11.0835 16.9417L8.6127 12.775ZM80.2919 59.475C74.0835 67.6083 60.8544 81.25 42.0002 81.25C22.646 81.25 9.6627 67.7792 3.64604 59.7458C-0.612295 54.0625 -0.603962 46.1792 3.66687 40.575C9.87937 32.425 23.121 18.75 42.0002 18.75C61.1835 18.75 74.2335 32.2458 80.3085 40.2917C84.5919 45.9667 84.5835 53.8542 80.2919 59.475ZM73.6585 45.3125C68.521 38.5042 57.5752 27.0833 42.0002 27.0833C26.7127 27.0833 15.5752 38.7042 10.296 45.6292C8.24187 48.325 8.2502 51.9917 10.3169 54.75C15.4002 61.5333 26.2752 72.9167 42.0002 72.9167C57.2669 72.9167 68.3919 61.3292 73.6669 54.4208C75.7335 51.7167 75.7294 48.0583 73.6585 45.3125ZM58.6669 50C58.6669 59.1917 51.1919 66.6667 42.0002 66.6667C32.8085 66.6667 25.3335 59.1917 25.3335 50C25.3335 40.8083 32.8085 33.3333 42.0002 33.3333C51.1919 33.3333 58.6669 40.8083 58.6669 50ZM50.3335 50C50.3335 45.4042 46.596 41.6667 42.0002 41.6667C37.4044 41.6667 33.6669 45.4042 33.6669 50C33.6669 54.5958 37.4044 58.3333 42.0002 58.3333C46.596 58.3333 50.3335 54.5958 50.3335 50ZM42.0002 12.5C44.3002 12.5 46.1669 10.6333 46.1669 8.33333V4.16667C46.1669 1.86667 44.3002 0 42.0002 0C39.7002 0 37.8335 1.86667 37.8335 4.16667V8.33333C37.8335 10.6333 39.7002 12.5 42.0002 12.5ZM67.2085 18.4042C69.1544 19.5667 71.7377 18.9417 72.9169 16.9417L75.3877 12.775C76.5585 10.7958 75.9085 8.24167 73.9252 7.06667C71.9502 5.89583 69.3919 6.54583 68.2169 8.52917L65.746 12.6958C64.5752 14.675 65.2252 17.2292 67.2085 18.4042ZM72.9169 83.0583C71.7419 81.075 69.1877 80.425 67.2085 81.5958C65.2294 82.7667 64.5752 85.325 65.746 87.3042L68.2169 91.4708C69.396 93.4667 71.9794 94.0917 73.9252 92.9333C75.9044 91.7583 76.5585 89.2042 75.3877 87.225L72.9169 83.0583ZM42.0002 87.5C39.7002 87.5 37.8335 89.3667 37.8335 91.6667V95.8333C37.8335 98.1333 39.7002 100 42.0002 100C44.3002 100 46.1669 98.1333 46.1669 95.8333V91.6667C46.1669 89.3667 44.3002 87.5 42.0002 87.5ZM16.7919 81.5958C14.8127 80.4208 12.2585 81.075 11.0835 83.0583L8.6127 87.225C7.44187 89.2042 8.09187 91.7583 10.0752 92.9333C12.021 94.0958 14.6044 93.4708 15.7835 91.4708L18.2544 87.3042C19.4252 85.325 18.7752 82.7708 16.7919 81.5958Z" fill="url(#paint0_linear_491_4341)"/>
<defs>
<linearGradient id="paint0_linear_491_4341" x1="56.5" y1="11.5" x2="12" y2="90" gradientUnits="userSpaceOnUse">
<stop stop-color="white"/>
<stop offset="1" stop-color="#FF383B"/>
</linearGradient>
</defs>
</svg>
