<svg width="19" height="12" viewBox="0 0 19 12" fill="none" xmlns="http://www.w3.org/2000/svg">
<path d="M5.9615 11.173C4.44683 11.173 3.15792 10.6512 2.09475 9.60773C1.03158 8.56406 0.5 7.28773 0.5 5.77873C0.5 4.2699 1.03158 2.99048 2.09475 1.94048C3.15792 0.890478 4.44683 0.365479 5.9615 0.365479H14.6923C15.7499 0.365479 16.649 0.729229 17.3895 1.45673C18.1298 2.18423 18.5 3.07681 18.5 4.13448C18.5 5.19231 18.1298 6.08498 17.3895 6.81248C16.649 7.53998 15.7499 7.90373 14.6923 7.90373H6.423C5.83583 7.90373 5.33008 7.6989 4.90575 7.28923C4.48142 6.87956 4.26925 6.38023 4.26925 5.79123C4.26925 5.20223 4.47808 4.69556 4.89575 4.27123C5.31342 3.84673 5.8225 3.63448 6.423 3.63448H14.7308V4.63448H6.423C6.10383 4.63448 5.83175 4.74381 5.60675 4.96248C5.38175 5.18115 5.26925 5.45006 5.26925 5.76923C5.26925 6.0884 5.38175 6.35731 5.60675 6.57598C5.83175 6.79448 6.10383 6.90373 6.423 6.90373H14.7115C15.4885 6.8999 16.1475 6.63281 16.6885 6.10248C17.2295 5.57215 17.5 4.91615 17.5 4.13448C17.5 3.35915 17.2263 2.70381 16.6788 2.16848C16.1314 1.63315 15.4693 1.36548 14.6923 1.36548H5.9615C4.72683 1.36148 3.67458 1.78898 2.80475 2.64798C1.93492 3.50698 1.5 4.5529 1.5 5.78573C1.5 7.00123 1.93492 8.0344 2.80475 8.88523C3.67458 9.73606 4.72683 10.1653 5.9615 10.173H14.7308V11.173H5.9615Z" fill="#1C1B1F"/>
</svg>
