<svg width="14" height="9" viewBox="0 0 14 9" fill="none" xmlns="http://www.w3.org/2000/svg">
<path d="M13.7108 7.79014C13.6178 7.88387 13.5072 7.95826 13.3854 8.00903C13.2635 8.0598 13.1328 8.08594 13.0008 8.08594C12.8688 8.08594 12.7381 8.0598 12.6162 8.00903C12.4944 7.95826 12.3838 7.88387 12.2908 7.79014L7.71079 3.21014C7.61783 3.11641 7.50723 3.04202 7.38537 2.99125C7.26351 2.94048 7.1328 2.91434 7.00079 2.91434C6.86878 2.91434 6.73807 2.94048 6.61622 2.99125C6.49436 3.04202 6.38376 3.11641 6.29079 3.21014L1.71079 7.79014C1.61783 7.88387 1.50723 7.95826 1.38537 8.00903C1.26351 8.0598 1.1328 8.08594 1.00079 8.08594C0.868781 8.08594 0.738075 8.0598 0.616216 8.00903C0.494356 7.95826 0.383755 7.88387 0.290792 7.79014C0.104542 7.60278 0 7.34933 0 7.08514C0 6.82095 0.104542 6.5675 0.290792 6.38014L4.88079 1.79014C5.44329 1.22834 6.20579 0.912779 7.00079 0.912779C7.79579 0.912779 8.55829 1.22834 9.12079 1.79014L13.7108 6.38014C13.897 6.5675 14.0016 6.82095 14.0016 7.08514C14.0016 7.34933 13.897 7.60278 13.7108 7.79014Z" fill="#9C9C9C"/>
</svg>
