<svg width="49" height="48" viewBox="0 0 49 48" fill="none" xmlns="http://www.w3.org/2000/svg">
<rect x="1.13642" y="0.769231" width="46.4615" height="46.4615" rx="3.23077" fill="#828282" stroke="#828282" stroke-width="1.53846"/>
<mask id="mask0_380_4012" style="mask-type:alpha" maskUnits="userSpaceOnUse" x="2" y="1" width="45" height="46">
<rect x="2.04785" y="1.84961" width="44.6131" height="44.6024" rx="2" fill="#E1E4ED"/>
</mask>
<g mask="url(#mask0_380_4012)">
<line x1="33.1748" y1="-2.18557e-08" x2="33.1748" y2="50.0481" stroke="#B4B9C9"/>
<line x1="41.4824" y1="-2.18557e-08" x2="41.4824" y2="50.0481" stroke="#B4B9C9"/>
<line x1="24.8667" y1="-2.18557e-08" x2="24.8667" y2="50.0481" stroke="#B4B9C9"/>
<line x1="8.25146" y1="-2.18557e-08" x2="8.25147" y2="50.0481" stroke="#B4B9C9"/>
<line x1="16.5591" y1="-2.18557e-08" x2="16.5591" y2="50.0481" stroke="#B4B9C9"/>
<line x1="-0.657227" y1="16.2163" x2="49.3909" y2="16.2163" stroke="#B4B9C9"/>
<line x1="-0.657227" y1="7.9082" x2="49.3909" y2="7.9082" stroke="#B4B9C9"/>
<line x1="-0.657227" y1="24.5239" x2="49.3909" y2="24.5239" stroke="#B4B9C9"/>
<line x1="-0.657227" y1="41.1392" x2="49.3909" y2="41.1392" stroke="#B4B9C9"/>
<line x1="-0.657227" y1="32.8315" x2="49.3909" y2="32.8315" stroke="#B4B9C9"/>
<rect x="1.11914" y="0.875" width="46.322" height="46.3109" rx="3" fill="url(#paint0_radial_380_4012)"/>
<g filter="url(#filter0_d_380_4012)">
<rect x="14.1064" y="16.1885" width="20.3778" height="18.0419" fill="#0A0078"/>
<path d="M13.1685 30.3292L17.4103 24.9333C18.6131 23.4032 20.914 23.3532 22.1823 24.8295L25.9116 29.1707M22.6911 25.4219C24.2932 23.3841 26.5253 20.4969 26.6706 20.3091C26.6757 20.3024 26.6807 20.296 26.6859 20.2894C27.8911 18.7692 30.1845 18.7226 31.45 20.1956L35.1794 24.5368M16.2577 35.3492H32.4763C34.1825 35.3492 35.5655 33.9662 35.5655 32.26V16.0414C35.5655 14.3353 34.1825 12.9521 32.4763 12.9521H16.2577C14.5516 12.9521 13.1685 14.3353 13.1685 16.0414V32.26C13.1685 33.9662 14.5516 35.3492 16.2577 35.3492Z" fill="#0A0078"/>
<path d="M13.1685 30.3292L17.4103 24.9333C18.6131 23.4032 20.914 23.3532 22.1823 24.8295L25.9116 29.1707M22.6911 25.4219C24.2932 23.3841 26.5253 20.4969 26.6706 20.3091C26.6757 20.3024 26.6807 20.296 26.6859 20.2894C27.8911 18.7692 30.1845 18.7226 31.45 20.1956L35.1794 24.5368M16.2577 35.3492H32.4763C34.1825 35.3492 35.5655 33.9662 35.5655 32.26V16.0414C35.5655 14.3353 34.1825 12.9521 32.4763 12.9521H16.2577C14.5516 12.9521 13.1685 14.3353 13.1685 16.0414V32.26C13.1685 33.9662 14.5516 35.3492 16.2577 35.3492Z" stroke="#292929" stroke-width="1.23077" stroke-linecap="round" stroke-linejoin="round"/>
<path d="M32.9826 34.7283H16.1236H15.7266C14.622 34.7283 13.7266 33.8329 13.7266 32.7283V31.2217C13.7266 30.7638 13.8837 30.3197 14.1717 29.9637L18.2923 24.8707C19.0775 23.9001 20.5502 23.8782 21.3639 24.825L25.4512 29.5809C25.6027 29.7572 25.8409 29.8325 26.0662 29.7752C26.5082 29.6629 26.6765 29.1239 26.377 28.78L23.4619 25.4333L27.4956 20.2425C28.2655 19.2516 29.7472 19.2063 30.5762 20.1483L34.9826 25.1551V32.7283C34.9826 33.8329 34.0872 34.7283 32.9826 34.7283Z" fill="#FF383B"/>
</g>
</g>
<defs>
<filter id="filter0_d_380_4012" x="8.55322" y="9.33691" width="31.6274" height="31.6274" filterUnits="userSpaceOnUse" color-interpolation-filters="sRGB">
<feFlood flood-opacity="0" result="BackgroundImageFix"/>
<feColorMatrix in="SourceAlpha" type="matrix" values="0 0 0 0 0 0 0 0 0 0 0 0 0 0 0 0 0 0 127 0" result="hardAlpha"/>
<feOffset dy="1"/>
<feGaussianBlur stdDeviation="2"/>
<feComposite in2="hardAlpha" operator="out"/>
<feColorMatrix type="matrix" values="0 0 0 0 0.0969792 0 0 0 0 0.127894 0 0 0 0 0.2375 0 0 0 0.08 0"/>
<feBlend mode="normal" in2="BackgroundImageFix" result="effect1_dropShadow_380_4012"/>
<feBlend mode="normal" in="SourceGraphic" in2="effect1_dropShadow_380_4012" result="shape"/>
</filter>
<radialGradient id="paint0_radial_380_4012" cx="0" cy="0" r="1" gradientUnits="userSpaceOnUse" gradientTransform="translate(24.2801 24.0305) rotate(90) scale(23.1555 23.161)">
<stop stop-color="#F6FAFD" stop-opacity="0.28"/>
<stop offset="1" stop-color="#F6FAFD"/>
</radialGradient>
</defs>
</svg>
