<svg width="24" height="24" viewBox="0 0 24 24" fill="none" xmlns="http://www.w3.org/2000/svg">
<g clip-path="url(#clip0_247_4061)">
<path d="M22.459 9.098L21 7.7V4C21 1.794 19.206 0 17 0H7C4.794 0 3 1.794 3 4V7.7L1.541 9.097C0.562 10.035 0 11.351 0 12.707V19C0 21.757 2.243 24 5 24H19C21.757 24 24 21.757 24 19V12.707C24 11.351 23.438 10.035 22.459 9.098ZM7 2H17C18.103 2 19 2.897 19 4V12.242L14.121 17.121C12.988 18.254 11.012 18.254 9.879 17.121L5 12.242V4C5 2.897 5.897 2 7 2ZM22 19C22 20.654 20.654 22 19 22H5C3.346 22 2 20.654 2 19V12.707C2 12.512 2.022 12.319 2.059 12.13L8.465 18.536C9.408 19.48 10.664 20.001 12 20.001C13.336 20.001 14.592 19.48 15.535 18.536L21.941 12.13C21.978 12.319 22 12.513 22 12.707V19ZM7.319 9.536C6.915 9.16 6.891 8.527 7.267 8.123C7.644 7.718 8.278 7.697 8.68 8.071L10.531 9.792C10.8 10.06 11.197 10.061 11.442 9.816L15.305 6.092C15.703 5.708 16.336 5.721 16.719 6.117C17.103 6.514 17.091 7.148 16.694 7.531L12.843 11.243C12.339 11.747 11.672 11.999 11.004 11.999C10.331 11.999 9.656 11.743 9.143 11.231L7.319 9.535V9.536Z" fill="url(#paint0_linear_247_4061)"/>
</g>
<defs>
<linearGradient id="paint0_linear_247_4061" x1="0" y1="12" x2="24" y2="12.0019" gradientUnits="userSpaceOnUse">
<stop offset="0.055" stop-color="#0A0078"/>
<stop offset="0.965" stop-color="#FF383B"/>
</linearGradient>
<clipPath id="clip0_247_4061">
<rect width="24" height="24" fill="white"/>
</clipPath>
</defs>
</svg>
