<svg width="24" height="24" viewBox="0 0 24 24" fill="none" xmlns="http://www.w3.org/2000/svg">
<g clip-path="url(#clip0_247_4059)">
<path d="M12 9.99995C9.243 9.99995 7 12.243 7 15C7 17.757 9.243 20 12 20C14.757 20 17 17.757 17 15C17 12.243 14.757 9.99995 12 9.99995ZM12 18C10.346 18 9 16.6539 9 15C9 13.346 10.346 12 12 12C13.654 12 15 13.346 15 15C15 16.6539 13.654 18 12 18ZM20.646 10.96C22.526 10.759 24 9.18195 24 7.25095C24 5.83595 23.436 4.49095 22.407 3.46195C17.835 -1.11005 6.163 -1.10905 1.593 3.46195C0.564 4.49095 0 5.83595 0 7.24995C0 9.18195 1.475 10.759 3.354 10.96L1.294 14.823C0.447 16.4109 0 18.201 0 20C0 22.2059 1.794 24 4 24H20C22.206 24 24 22.2059 24 20C24 18.201 23.553 16.4109 22.706 14.823L20.646 10.96ZM2 7.24895C2 6.36895 2.356 5.52595 3.007 4.87595C6.874 1.01095 17.128 1.01095 20.993 4.87595C21.643 5.52595 22.001 6.36895 22 7.24995C22 8.21495 21.215 8.99995 20.25 8.99995H19.566L18.789 7.70495C18.374 7.01195 17.775 6.47095 17.06 6.14195C15.93 5.62095 14.135 5.00095 12 5.00095C9.865 5.00095 8.07 5.62195 6.941 6.14195C6.224 6.47195 5.626 7.01195 5.211 7.70495L4.434 8.99995H3.75C2.785 8.99995 2 8.21495 2 7.24895ZM20 22H4C2.897 22 2 21.103 2 20C2 18.528 2.366 17.063 3.06 15.765L5.878 10.481L6.926 8.73295C7.134 8.38695 7.428 8.11895 7.779 7.95795C8.726 7.52095 10.228 6.99995 12.001 6.99995C13.774 6.99995 15.275 7.52095 16.224 7.95795C16.574 8.11895 16.868 8.38695 17.076 8.73295L18.124 10.481L20.942 15.765C21.635 17.064 22.002 18.5289 22.002 20C22.002 21.103 21.105 22 20.002 22H20Z" fill="url(#paint0_linear_247_4059)"/>
</g>
<defs>
<linearGradient id="paint0_linear_247_4059" x1="0" y1="12.0166" x2="24" y2="12.0186" gradientUnits="userSpaceOnUse">
<stop offset="0.055" stop-color="#0A0078"/>
<stop offset="0.965" stop-color="#FF383B"/>
</linearGradient>
<clipPath id="clip0_247_4059">
<rect width="24" height="24" fill="white"/>
</clipPath>
</defs>
</svg>
